<?xml version="1.0" encoding="utf-8" standalone="no"?>
<!DOCTYPE svg PUBLIC "-//W3C//DTD SVG 1.1//EN"
  "http://www.w3.org/Graphics/SVG/1.1/DTD/svg11.dtd">
<!-- Created with matplotlib (https://matplotlib.org/) -->
<svg height="360pt" version="1.1" viewBox="0 0 428.555 360" width="428.555pt" xmlns="http://www.w3.org/2000/svg" xmlns:xlink="http://www.w3.org/1999/xlink">
 <defs>
  <style type="text/css">
*{stroke-linecap:butt;stroke-linejoin:round;}
  </style>
 </defs>
 <g id="figure_1">
  <g id="patch_1">
   <path d="M 0 360 
L 428.555 360 
L 428.555 0 
L 0 0 
z
" style="fill:#ffffff;"/>
  </g>
  <g id="axes_1">
   <g id="patch_2">
    <path d="M 54.878849 317.9 
L 355.71445 317.9 
L 355.71445 15.6 
L 54.878849 15.6 
z
" style="fill:#ffffff;"/>
   </g>
   <g id="matplotlib.axis_1">
    <g id="xtick_1">
     <g id="line2d_1">
      <path clip-path="url(#p1cc261c496)" d="M 68.553194 317.9 
L 68.553194 15.6 
" style="fill:none;stroke:#cccccc;stroke-linecap:round;stroke-width:0.8;"/>
     </g>
     <g id="text_1">
      <!-- 0 -->
      <defs>
       <path d="M 31.78125 66.40625 
Q 24.171875 66.40625 20.328125 58.90625 
Q 16.5 51.421875 16.5 36.375 
Q 16.5 21.390625 20.328125 13.890625 
Q 24.171875 6.390625 31.78125 6.390625 
Q 39.453125 6.390625 43.28125 13.890625 
Q 47.125 21.390625 47.125 36.375 
Q 47.125 51.421875 43.28125 58.90625 
Q 39.453125 66.40625 31.78125 66.40625 
z
M 31.78125 74.21875 
Q 44.046875 74.21875 50.515625 64.515625 
Q 56.984375 54.828125 56.984375 36.375 
Q 56.984375 17.96875 50.515625 8.265625 
Q 44.046875 -1.421875 31.78125 -1.421875 
Q 19.53125 -1.421875 13.0625 8.265625 
Q 6.59375 17.96875 6.59375 36.375 
Q 6.59375 54.828125 13.0625 64.515625 
Q 19.53125 74.21875 31.78125 74.21875 
z
" id="DejaVuSans-48"/>
      </defs>
      <g style="fill:#262626;" transform="translate(65.753694 332.886625)scale(0.088 -0.088)">
       <use xlink:href="#DejaVuSans-48"/>
      </g>
     </g>
    </g>
    <g id="xtick_2">
     <g id="line2d_2">
      <path clip-path="url(#p1cc261c496)" d="M 123.803075 317.9 
L 123.803075 15.6 
" style="fill:none;stroke:#cccccc;stroke-linecap:round;stroke-width:0.8;"/>
     </g>
     <g id="text_2">
      <!-- 20 -->
      <defs>
       <path d="M 19.1875 8.296875 
L 53.609375 8.296875 
L 53.609375 0 
L 7.328125 0 
L 7.328125 8.296875 
Q 12.9375 14.109375 22.625 23.890625 
Q 32.328125 33.6875 34.8125 36.53125 
Q 39.546875 41.84375 41.421875 45.53125 
Q 43.3125 49.21875 43.3125 52.78125 
Q 43.3125 58.59375 39.234375 62.25 
Q 35.15625 65.921875 28.609375 65.921875 
Q 23.96875 65.921875 18.8125 64.3125 
Q 13.671875 62.703125 7.8125 59.421875 
L 7.8125 69.390625 
Q 13.765625 71.78125 18.9375 73 
Q 24.125 74.21875 28.421875 74.21875 
Q 39.75 74.21875 46.484375 68.546875 
Q 53.21875 62.890625 53.21875 53.421875 
Q 53.21875 48.921875 51.53125 44.890625 
Q 49.859375 40.875 45.40625 35.40625 
Q 44.1875 33.984375 37.640625 27.21875 
Q 31.109375 20.453125 19.1875 8.296875 
z
" id="DejaVuSans-50"/>
      </defs>
      <g style="fill:#262626;" transform="translate(118.204075 332.886625)scale(0.088 -0.088)">
       <use xlink:href="#DejaVuSans-50"/>
       <use x="63.623047" xlink:href="#DejaVuSans-48"/>
      </g>
     </g>
    </g>
    <g id="xtick_3">
     <g id="line2d_3">
      <path clip-path="url(#p1cc261c496)" d="M 179.052956 317.9 
L 179.052956 15.6 
" style="fill:none;stroke:#cccccc;stroke-linecap:round;stroke-width:0.8;"/>
     </g>
     <g id="text_3">
      <!-- 40 -->
      <defs>
       <path d="M 37.796875 64.3125 
L 12.890625 25.390625 
L 37.796875 25.390625 
z
M 35.203125 72.90625 
L 47.609375 72.90625 
L 47.609375 25.390625 
L 58.015625 25.390625 
L 58.015625 17.1875 
L 47.609375 17.1875 
L 47.609375 0 
L 37.796875 0 
L 37.796875 17.1875 
L 4.890625 17.1875 
L 4.890625 26.703125 
z
" id="DejaVuSans-52"/>
      </defs>
      <g style="fill:#262626;" transform="translate(173.453956 332.886625)scale(0.088 -0.088)">
       <use xlink:href="#DejaVuSans-52"/>
       <use x="63.623047" xlink:href="#DejaVuSans-48"/>
      </g>
     </g>
    </g>
    <g id="xtick_4">
     <g id="line2d_4">
      <path clip-path="url(#p1cc261c496)" d="M 234.302837 317.9 
L 234.302837 15.6 
" style="fill:none;stroke:#cccccc;stroke-linecap:round;stroke-width:0.8;"/>
     </g>
     <g id="text_4">
      <!-- 60 -->
      <defs>
       <path d="M 33.015625 40.375 
Q 26.375 40.375 22.484375 35.828125 
Q 18.609375 31.296875 18.609375 23.390625 
Q 18.609375 15.53125 22.484375 10.953125 
Q 26.375 6.390625 33.015625 6.390625 
Q 39.65625 6.390625 43.53125 10.953125 
Q 47.40625 15.53125 47.40625 23.390625 
Q 47.40625 31.296875 43.53125 35.828125 
Q 39.65625 40.375 33.015625 40.375 
z
M 52.59375 71.296875 
L 52.59375 62.3125 
Q 48.875 64.0625 45.09375 64.984375 
Q 41.3125 65.921875 37.59375 65.921875 
Q 27.828125 65.921875 22.671875 59.328125 
Q 17.53125 52.734375 16.796875 39.40625 
Q 19.671875 43.65625 24.015625 45.921875 
Q 28.375 48.1875 33.59375 48.1875 
Q 44.578125 48.1875 50.953125 41.515625 
Q 57.328125 34.859375 57.328125 23.390625 
Q 57.328125 12.15625 50.6875 5.359375 
Q 44.046875 -1.421875 33.015625 -1.421875 
Q 20.359375 -1.421875 13.671875 8.265625 
Q 6.984375 17.96875 6.984375 36.375 
Q 6.984375 53.65625 15.1875 63.9375 
Q 23.390625 74.21875 37.203125 74.21875 
Q 40.921875 74.21875 44.703125 73.484375 
Q 48.484375 72.75 52.59375 71.296875 
z
" id="DejaVuSans-54"/>
      </defs>
      <g style="fill:#262626;" transform="translate(228.703837 332.886625)scale(0.088 -0.088)">
       <use xlink:href="#DejaVuSans-54"/>
       <use x="63.623047" xlink:href="#DejaVuSans-48"/>
      </g>
     </g>
    </g>
    <g id="xtick_5">
     <g id="line2d_5">
      <path clip-path="url(#p1cc261c496)" d="M 289.552718 317.9 
L 289.552718 15.6 
" style="fill:none;stroke:#cccccc;stroke-linecap:round;stroke-width:0.8;"/>
     </g>
     <g id="text_5">
      <!-- 80 -->
      <defs>
       <path d="M 31.78125 34.625 
Q 24.75 34.625 20.71875 30.859375 
Q 16.703125 27.09375 16.703125 20.515625 
Q 16.703125 13.921875 20.71875 10.15625 
Q 24.75 6.390625 31.78125 6.390625 
Q 38.8125 6.390625 42.859375 10.171875 
Q 46.921875 13.96875 46.921875 20.515625 
Q 46.921875 27.09375 42.890625 30.859375 
Q 38.875 34.625 31.78125 34.625 
z
M 21.921875 38.8125 
Q 15.578125 40.375 12.03125 44.71875 
Q 8.5 49.078125 8.5 55.328125 
Q 8.5 64.0625 14.71875 69.140625 
Q 20.953125 74.21875 31.78125 74.21875 
Q 42.671875 74.21875 48.875 69.140625 
Q 55.078125 64.0625 55.078125 55.328125 
Q 55.078125 49.078125 51.53125 44.71875 
Q 48 40.375 41.703125 38.8125 
Q 48.828125 37.15625 52.796875 32.3125 
Q 56.78125 27.484375 56.78125 20.515625 
Q 56.78125 9.90625 50.3125 4.234375 
Q 43.84375 -1.421875 31.78125 -1.421875 
Q 19.734375 -1.421875 13.25 4.234375 
Q 6.78125 9.90625 6.78125 20.515625 
Q 6.78125 27.484375 10.78125 32.3125 
Q 14.796875 37.15625 21.921875 38.8125 
z
M 18.3125 54.390625 
Q 18.3125 48.734375 21.84375 45.5625 
Q 25.390625 42.390625 31.78125 42.390625 
Q 38.140625 42.390625 41.71875 45.5625 
Q 45.3125 48.734375 45.3125 54.390625 
Q 45.3125 60.0625 41.71875 63.234375 
Q 38.140625 66.40625 31.78125 66.40625 
Q 25.390625 66.40625 21.84375 63.234375 
Q 18.3125 60.0625 18.3125 54.390625 
z
" id="DejaVuSans-56"/>
      </defs>
      <g style="fill:#262626;" transform="translate(283.953718 332.886625)scale(0.088 -0.088)">
       <use xlink:href="#DejaVuSans-56"/>
       <use x="63.623047" xlink:href="#DejaVuSans-48"/>
      </g>
     </g>
    </g>
    <g id="xtick_6">
     <g id="line2d_6">
      <path clip-path="url(#p1cc261c496)" d="M 344.802599 317.9 
L 344.802599 15.6 
" style="fill:none;stroke:#cccccc;stroke-linecap:round;stroke-width:0.8;"/>
     </g>
     <g id="text_6">
      <!-- 100 -->
      <defs>
       <path d="M 12.40625 8.296875 
L 28.515625 8.296875 
L 28.515625 63.921875 
L 10.984375 60.40625 
L 10.984375 69.390625 
L 28.421875 72.90625 
L 38.28125 72.90625 
L 38.28125 8.296875 
L 54.390625 8.296875 
L 54.390625 0 
L 12.40625 0 
z
" id="DejaVuSans-49"/>
      </defs>
      <g style="fill:#262626;" transform="translate(336.404099 332.886625)scale(0.088 -0.088)">
       <use xlink:href="#DejaVuSans-49"/>
       <use x="63.623047" xlink:href="#DejaVuSans-48"/>
       <use x="127.246094" xlink:href="#DejaVuSans-48"/>
      </g>
     </g>
    </g>
    <g id="text_7">
     <!-- Step -->
     <defs>
      <path d="M 53.515625 70.515625 
L 53.515625 60.890625 
Q 47.90625 63.578125 42.921875 64.890625 
Q 37.9375 66.21875 33.296875 66.21875 
Q 25.25 66.21875 20.875 63.09375 
Q 16.5 59.96875 16.5 54.203125 
Q 16.5 49.359375 19.40625 46.890625 
Q 22.3125 44.4375 30.421875 42.921875 
L 36.375 41.703125 
Q 47.40625 39.59375 52.65625 34.296875 
Q 57.90625 29 57.90625 20.125 
Q 57.90625 9.515625 50.796875 4.046875 
Q 43.703125 -1.421875 29.984375 -1.421875 
Q 24.8125 -1.421875 18.96875 -0.25 
Q 13.140625 0.921875 6.890625 3.21875 
L 6.890625 13.375 
Q 12.890625 10.015625 18.65625 8.296875 
Q 24.421875 6.59375 29.984375 6.59375 
Q 38.421875 6.59375 43.015625 9.90625 
Q 47.609375 13.234375 47.609375 19.390625 
Q 47.609375 24.75 44.3125 27.78125 
Q 41.015625 30.8125 33.5 32.328125 
L 27.484375 33.5 
Q 16.453125 35.6875 11.515625 40.375 
Q 6.59375 45.0625 6.59375 53.421875 
Q 6.59375 63.09375 13.40625 68.65625 
Q 20.21875 74.21875 32.171875 74.21875 
Q 37.3125 74.21875 42.625 73.28125 
Q 47.953125 72.359375 53.515625 70.515625 
z
" id="DejaVuSans-83"/>
      <path d="M 18.3125 70.21875 
L 18.3125 54.6875 
L 36.8125 54.6875 
L 36.8125 47.703125 
L 18.3125 47.703125 
L 18.3125 18.015625 
Q 18.3125 11.328125 20.140625 9.421875 
Q 21.96875 7.515625 27.59375 7.515625 
L 36.8125 7.515625 
L 36.8125 0 
L 27.59375 0 
Q 17.1875 0 13.234375 3.875 
Q 9.28125 7.765625 9.28125 18.015625 
L 9.28125 47.703125 
L 2.6875 47.703125 
L 2.6875 54.6875 
L 9.28125 54.6875 
L 9.28125 70.21875 
z
" id="DejaVuSans-116"/>
      <path d="M 56.203125 29.59375 
L 56.203125 25.203125 
L 14.890625 25.203125 
Q 15.484375 15.921875 20.484375 11.0625 
Q 25.484375 6.203125 34.421875 6.203125 
Q 39.59375 6.203125 44.453125 7.46875 
Q 49.3125 8.734375 54.109375 11.28125 
L 54.109375 2.78125 
Q 49.265625 0.734375 44.1875 -0.34375 
Q 39.109375 -1.421875 33.890625 -1.421875 
Q 20.796875 -1.421875 13.15625 6.1875 
Q 5.515625 13.8125 5.515625 26.8125 
Q 5.515625 40.234375 12.765625 48.109375 
Q 20.015625 56 32.328125 56 
Q 43.359375 56 49.78125 48.890625 
Q 56.203125 41.796875 56.203125 29.59375 
z
M 47.21875 32.234375 
Q 47.125 39.59375 43.09375 43.984375 
Q 39.0625 48.390625 32.421875 48.390625 
Q 24.90625 48.390625 20.390625 44.140625 
Q 15.875 39.890625 15.1875 32.171875 
z
" id="DejaVuSans-101"/>
      <path d="M 18.109375 8.203125 
L 18.109375 -20.796875 
L 9.078125 -20.796875 
L 9.078125 54.6875 
L 18.109375 54.6875 
L 18.109375 46.390625 
Q 20.953125 51.265625 25.265625 53.625 
Q 29.59375 56 35.59375 56 
Q 45.5625 56 51.78125 48.09375 
Q 58.015625 40.1875 58.015625 27.296875 
Q 58.015625 14.40625 51.78125 6.484375 
Q 45.5625 -1.421875 35.59375 -1.421875 
Q 29.59375 -1.421875 25.265625 0.953125 
Q 20.953125 3.328125 18.109375 8.203125 
z
M 48.6875 27.296875 
Q 48.6875 37.203125 44.609375 42.84375 
Q 40.53125 48.484375 33.40625 48.484375 
Q 26.265625 48.484375 22.1875 42.84375 
Q 18.109375 37.203125 18.109375 27.296875 
Q 18.109375 17.390625 22.1875 11.75 
Q 26.265625 6.109375 33.40625 6.109375 
Q 40.53125 6.109375 44.609375 11.75 
Q 48.6875 17.390625 48.6875 27.296875 
z
" id="DejaVuSans-112"/>
     </defs>
     <g style="fill:#262626;" transform="translate(194.366899 346.01125)scale(0.096 -0.096)">
      <use xlink:href="#DejaVuSans-83"/>
      <use x="63.476562" xlink:href="#DejaVuSans-116"/>
      <use x="102.685547" xlink:href="#DejaVuSans-101"/>
      <use x="164.208984" xlink:href="#DejaVuSans-112"/>
     </g>
    </g>
   </g>
   <g id="matplotlib.axis_2">
    <g id="ytick_1">
     <g id="line2d_7">
      <path clip-path="url(#p1cc261c496)" d="M 54.878849 281.262965 
L 355.71445 281.262965 
" style="fill:none;stroke:#cccccc;stroke-linecap:round;stroke-width:0.8;"/>
     </g>
     <g id="text_8">
      <!-- −8 -->
      <defs>
       <path d="M 10.59375 35.5 
L 73.1875 35.5 
L 73.1875 27.203125 
L 10.59375 27.203125 
z
" id="DejaVuSans-8722"/>
      </defs>
      <g style="fill:#262626;" transform="translate(33.605724 284.606278)scale(0.088 -0.088)">
       <use xlink:href="#DejaVuSans-8722"/>
       <use x="83.789062" xlink:href="#DejaVuSans-56"/>
      </g>
     </g>
    </g>
    <g id="ytick_2">
     <g id="line2d_8">
      <path clip-path="url(#p1cc261c496)" d="M 54.878849 218.282451 
L 355.71445 218.282451 
" style="fill:none;stroke:#cccccc;stroke-linecap:round;stroke-width:0.8;"/>
     </g>
     <g id="text_9">
      <!-- −6 -->
      <g style="fill:#262626;" transform="translate(33.605724 221.625764)scale(0.088 -0.088)">
       <use xlink:href="#DejaVuSans-8722"/>
       <use x="83.789062" xlink:href="#DejaVuSans-54"/>
      </g>
     </g>
    </g>
    <g id="ytick_3">
     <g id="line2d_9">
      <path clip-path="url(#p1cc261c496)" d="M 54.878849 155.301937 
L 355.71445 155.301937 
" style="fill:none;stroke:#cccccc;stroke-linecap:round;stroke-width:0.8;"/>
     </g>
     <g id="text_10">
      <!-- −4 -->
      <g style="fill:#262626;" transform="translate(33.605724 158.64525)scale(0.088 -0.088)">
       <use xlink:href="#DejaVuSans-8722"/>
       <use x="83.789062" xlink:href="#DejaVuSans-52"/>
      </g>
     </g>
    </g>
    <g id="ytick_4">
     <g id="line2d_10">
      <path clip-path="url(#p1cc261c496)" d="M 54.878849 92.321423 
L 355.71445 92.321423 
" style="fill:none;stroke:#cccccc;stroke-linecap:round;stroke-width:0.8;"/>
     </g>
     <g id="text_11">
      <!-- −2 -->
      <g style="fill:#262626;" transform="translate(33.605724 95.664736)scale(0.088 -0.088)">
       <use xlink:href="#DejaVuSans-8722"/>
       <use x="83.789062" xlink:href="#DejaVuSans-50"/>
      </g>
     </g>
    </g>
    <g id="ytick_5">
     <g id="line2d_11">
      <path clip-path="url(#p1cc261c496)" d="M 54.878849 29.340909 
L 355.71445 29.340909 
" style="fill:none;stroke:#cccccc;stroke-linecap:round;stroke-width:0.8;"/>
     </g>
     <g id="text_12">
      <!-- 0 -->
      <g style="fill:#262626;" transform="translate(40.979849 32.684222)scale(0.088 -0.088)">
       <use xlink:href="#DejaVuSans-48"/>
      </g>
     </g>
    </g>
    <g id="text_13">
     <!-- Reinforcement -->
     <defs>
      <path d="M 44.390625 34.1875 
Q 47.5625 33.109375 50.5625 29.59375 
Q 53.5625 26.078125 56.59375 19.921875 
L 66.609375 0 
L 56 0 
L 46.6875 18.703125 
Q 43.0625 26.03125 39.671875 28.421875 
Q 36.28125 30.8125 30.421875 30.8125 
L 19.671875 30.8125 
L 19.671875 0 
L 9.8125 0 
L 9.8125 72.90625 
L 32.078125 72.90625 
Q 44.578125 72.90625 50.734375 67.671875 
Q 56.890625 62.453125 56.890625 51.90625 
Q 56.890625 45.015625 53.6875 40.46875 
Q 50.484375 35.9375 44.390625 34.1875 
z
M 19.671875 64.796875 
L 19.671875 38.921875 
L 32.078125 38.921875 
Q 39.203125 38.921875 42.84375 42.21875 
Q 46.484375 45.515625 46.484375 51.90625 
Q 46.484375 58.296875 42.84375 61.546875 
Q 39.203125 64.796875 32.078125 64.796875 
z
" id="DejaVuSans-82"/>
      <path d="M 9.421875 54.6875 
L 18.40625 54.6875 
L 18.40625 0 
L 9.421875 0 
z
M 9.421875 75.984375 
L 18.40625 75.984375 
L 18.40625 64.59375 
L 9.421875 64.59375 
z
" id="DejaVuSans-105"/>
      <path d="M 54.890625 33.015625 
L 54.890625 0 
L 45.90625 0 
L 45.90625 32.71875 
Q 45.90625 40.484375 42.875 44.328125 
Q 39.84375 48.1875 33.796875 48.1875 
Q 26.515625 48.1875 22.3125 43.546875 
Q 18.109375 38.921875 18.109375 30.90625 
L 18.109375 0 
L 9.078125 0 
L 9.078125 54.6875 
L 18.109375 54.6875 
L 18.109375 46.1875 
Q 21.34375 51.125 25.703125 53.5625 
Q 30.078125 56 35.796875 56 
Q 45.21875 56 50.046875 50.171875 
Q 54.890625 44.34375 54.890625 33.015625 
z
" id="DejaVuSans-110"/>
      <path d="M 37.109375 75.984375 
L 37.109375 68.5 
L 28.515625 68.5 
Q 23.6875 68.5 21.796875 66.546875 
Q 19.921875 64.59375 19.921875 59.515625 
L 19.921875 54.6875 
L 34.71875 54.6875 
L 34.71875 47.703125 
L 19.921875 47.703125 
L 19.921875 0 
L 10.890625 0 
L 10.890625 47.703125 
L 2.296875 47.703125 
L 2.296875 54.6875 
L 10.890625 54.6875 
L 10.890625 58.5 
Q 10.890625 67.625 15.140625 71.796875 
Q 19.390625 75.984375 28.609375 75.984375 
z
" id="DejaVuSans-102"/>
      <path d="M 30.609375 48.390625 
Q 23.390625 48.390625 19.1875 42.75 
Q 14.984375 37.109375 14.984375 27.296875 
Q 14.984375 17.484375 19.15625 11.84375 
Q 23.34375 6.203125 30.609375 6.203125 
Q 37.796875 6.203125 41.984375 11.859375 
Q 46.1875 17.53125 46.1875 27.296875 
Q 46.1875 37.015625 41.984375 42.703125 
Q 37.796875 48.390625 30.609375 48.390625 
z
M 30.609375 56 
Q 42.328125 56 49.015625 48.375 
Q 55.71875 40.765625 55.71875 27.296875 
Q 55.71875 13.875 49.015625 6.21875 
Q 42.328125 -1.421875 30.609375 -1.421875 
Q 18.84375 -1.421875 12.171875 6.21875 
Q 5.515625 13.875 5.515625 27.296875 
Q 5.515625 40.765625 12.171875 48.375 
Q 18.84375 56 30.609375 56 
z
" id="DejaVuSans-111"/>
      <path d="M 41.109375 46.296875 
Q 39.59375 47.171875 37.8125 47.578125 
Q 36.03125 48 33.890625 48 
Q 26.265625 48 22.1875 43.046875 
Q 18.109375 38.09375 18.109375 28.8125 
L 18.109375 0 
L 9.078125 0 
L 9.078125 54.6875 
L 18.109375 54.6875 
L 18.109375 46.1875 
Q 20.953125 51.171875 25.484375 53.578125 
Q 30.03125 56 36.53125 56 
Q 37.453125 56 38.578125 55.875 
Q 39.703125 55.765625 41.0625 55.515625 
z
" id="DejaVuSans-114"/>
      <path d="M 48.78125 52.59375 
L 48.78125 44.1875 
Q 44.96875 46.296875 41.140625 47.34375 
Q 37.3125 48.390625 33.40625 48.390625 
Q 24.65625 48.390625 19.8125 42.84375 
Q 14.984375 37.3125 14.984375 27.296875 
Q 14.984375 17.28125 19.8125 11.734375 
Q 24.65625 6.203125 33.40625 6.203125 
Q 37.3125 6.203125 41.140625 7.25 
Q 44.96875 8.296875 48.78125 10.40625 
L 48.78125 2.09375 
Q 45.015625 0.34375 40.984375 -0.53125 
Q 36.96875 -1.421875 32.421875 -1.421875 
Q 20.0625 -1.421875 12.78125 6.34375 
Q 5.515625 14.109375 5.515625 27.296875 
Q 5.515625 40.671875 12.859375 48.328125 
Q 20.21875 56 33.015625 56 
Q 37.15625 56 41.109375 55.140625 
Q 45.0625 54.296875 48.78125 52.59375 
z
" id="DejaVuSans-99"/>
      <path d="M 52 44.1875 
Q 55.375 50.25 60.0625 53.125 
Q 64.75 56 71.09375 56 
Q 79.640625 56 84.28125 50.015625 
Q 88.921875 44.046875 88.921875 33.015625 
L 88.921875 0 
L 79.890625 0 
L 79.890625 32.71875 
Q 79.890625 40.578125 77.09375 44.375 
Q 74.3125 48.1875 68.609375 48.1875 
Q 61.625 48.1875 57.5625 43.546875 
Q 53.515625 38.921875 53.515625 30.90625 
L 53.515625 0 
L 44.484375 0 
L 44.484375 32.71875 
Q 44.484375 40.625 41.703125 44.40625 
Q 38.921875 48.1875 33.109375 48.1875 
Q 26.21875 48.1875 22.15625 43.53125 
Q 18.109375 38.875 18.109375 30.90625 
L 18.109375 0 
L 9.078125 0 
L 9.078125 54.6875 
L 18.109375 54.6875 
L 18.109375 46.1875 
Q 21.1875 51.21875 25.484375 53.609375 
Q 29.78125 56 35.6875 56 
Q 41.65625 56 45.828125 52.96875 
Q 50 49.953125 52 44.1875 
z
" id="DejaVuSans-109"/>
     </defs>
     <g style="fill:#262626;" transform="translate(27.609224 202.15525)rotate(-90)scale(0.096 -0.096)">
      <use xlink:href="#DejaVuSans-82"/>
      <use x="69.419922" xlink:href="#DejaVuSans-101"/>
      <use x="130.943359" xlink:href="#DejaVuSans-105"/>
      <use x="158.726562" xlink:href="#DejaVuSans-110"/>
      <use x="222.105469" xlink:href="#DejaVuSans-102"/>
      <use x="257.310547" xlink:href="#DejaVuSans-111"/>
      <use x="318.492188" xlink:href="#DejaVuSans-114"/>
      <use x="359.574219" xlink:href="#DejaVuSans-99"/>
      <use x="414.554688" xlink:href="#DejaVuSans-101"/>
      <use x="476.078125" xlink:href="#DejaVuSans-109"/>
      <use x="573.490234" xlink:href="#DejaVuSans-101"/>
      <use x="635.013672" xlink:href="#DejaVuSans-110"/>
      <use x="698.392578" xlink:href="#DejaVuSans-116"/>
     </g>
    </g>
   </g>
   <g id="line2d_12">
    <path clip-path="url(#p1cc261c496)" d="M 68.553194 29.340909 
L 71.315688 121.722509 
L 74.078182 123.690437 
L 76.840676 128.230607 
L 79.60317 134.75142 
L 82.365664 143.068811 
L 85.128158 153.593159 
L 87.890652 166.00578 
L 90.653146 179.469366 
L 93.415641 193.54437 
L 96.178135 207.67008 
L 98.940629 221.990793 
L 101.703123 233.950601 
L 104.465617 238.932791 
L 107.228111 241.708839 
L 109.990605 238.276724 
L 112.753099 230.554539 
L 115.515593 222.887508 
L 118.278087 215.300558 
L 121.040581 208.161965 
L 123.803075 200.533188 
L 126.565569 194.965402 
L 129.328063 190.253711 
L 132.090557 184.858181 
L 134.853051 179.883316 
L 137.615545 177.001818 
L 140.378039 176.519959 
L 143.140533 177.632968 
L 145.903027 180.645368 
L 148.665521 184.866961 
L 151.428015 190.529359 
L 154.190509 197.986802 
L 156.953004 206.810288 
L 159.715498 215.502275 
L 162.477992 222.929643 
L 165.240486 231.430625 
L 168.00298 239.168592 
L 170.765474 241.590271 
L 173.527968 241.200734 
L 176.290462 239.289855 
L 179.052956 235.534999 
L 181.81545 231.374264 
L 184.577944 227.214771 
L 187.340438 222.858243 
L 190.102932 217.951446 
L 192.865426 214.400164 
L 195.62792 211.098005 
L 198.390414 207.990081 
L 201.152908 204.362512 
L 203.915402 201.631815 
L 206.677896 200.049932 
L 209.44039 199.888243 
L 212.202884 200.91996 
L 214.965378 203.236291 
L 217.727873 206.649148 
L 220.490367 210.578314 
L 223.252861 215.011742 
L 226.015355 219.751212 
L 228.777849 223.86447 
L 231.540343 227.989255 
L 234.302837 231.055167 
L 237.065331 232.223351 
L 239.827825 231.594025 
L 242.590319 231.277575 
L 245.352813 230.998484 
L 248.115307 230.109007 
L 250.877801 229.58778 
L 253.640295 228.711253 
L 256.402789 227.290991 
L 259.165283 226.383647 
L 261.927777 225.592558 
L 264.690271 225.022644 
L 267.452765 224.524958 
L 270.215259 224.257337 
L 272.977753 224.640446 
L 275.740247 225.347459 
L 278.502741 226.088474 
L 281.265236 226.630231 
L 284.02773 227.311428 
L 286.790224 228.112007 
L 289.552718 228.656692 
L 292.315212 229.001963 
L 295.077706 229.253515 
L 297.8402 229.491237 
L 300.602694 229.519762 
L 303.365188 229.212581 
L 306.127682 228.78118 
L 308.890176 228.574497 
L 311.65267 228.550884 
L 314.415164 228.713191 
L 317.177658 229.106287 
L 319.940152 229.357352 
L 322.702646 228.884499 
L 325.46514 228.594178 
L 328.227634 228.281781 
L 330.990128 228.240961 
L 333.752622 228.395466 
L 336.515116 228.394569 
L 339.27761 228.165919 
L 342.040104 228.137124 
" style="fill:none;stroke:#4c72b0;stroke-linecap:round;stroke-width:1.2;"/>
   </g>
   <g id="line2d_13">
    <path clip-path="url(#p1cc261c496)" d="M 68.553194 29.340909 
L 71.315688 133.58482 
L 74.078182 135.230406 
L 76.840676 139.83872 
L 79.60317 147.056125 
L 82.365664 156.610677 
L 85.128158 167.662126 
L 87.890652 180.54717 
L 90.653146 195.364478 
L 93.415641 210.995239 
L 96.178135 227.339064 
L 98.940629 242.037839 
L 101.703123 252.673543 
L 104.465617 259.048034 
L 107.228111 258.502737 
L 109.990605 253.122202 
L 112.753099 241.499036 
L 115.515593 228.318509 
L 118.278087 216.159436 
L 121.040581 205.676178 
L 123.803075 196.292371 
L 126.565569 186.070975 
L 129.328063 178.256975 
L 132.090557 173.284126 
L 134.853051 170.93314 
L 137.615545 170.103632 
L 140.378039 170.049359 
L 143.140533 172.081566 
L 145.903027 176.589897 
L 148.665521 183.328566 
L 151.428015 190.759075 
L 154.190509 198.455034 
L 156.953004 207.909229 
L 159.715498 218.853411 
L 162.477992 231.024185 
L 165.240486 242.616556 
L 168.00298 251.158915 
L 170.765474 258.420986 
L 173.527968 260.515173 
L 176.290462 260.501365 
L 179.052956 257.871384 
L 181.81545 249.276123 
L 184.577944 237.796501 
L 187.340438 227.356141 
L 190.102932 217.225902 
L 192.865426 207.310939 
L 195.62792 197.64668 
L 198.390414 189.299302 
L 201.152908 182.893191 
L 203.915402 178.689813 
L 206.677896 175.131433 
L 209.44039 173.466396 
L 212.202884 174.304513 
L 214.965378 177.493614 
L 217.727873 182.549227 
L 220.490367 189.468156 
L 223.252861 198.623423 
L 226.015355 209.039212 
L 228.777849 220.705031 
L 231.540343 234.236613 
L 234.302837 247.532847 
L 237.065331 258.855749 
L 239.827825 265.549766 
L 242.590319 266.798734 
L 245.352813 265.481329 
L 248.115307 260.596229 
L 250.877801 250.903904 
L 253.640295 240.934865 
L 256.402789 231.110447 
L 259.165283 220.740772 
L 261.927777 210.936871 
L 264.690271 202.242068 
L 267.452765 194.491978 
L 270.215259 188.749349 
L 272.977753 185.337615 
L 275.740247 182.969461 
L 278.502741 182.661611 
L 281.265236 184.088872 
L 284.02773 187.477876 
L 286.790224 192.877614 
L 289.552718 200.01279 
L 292.315212 207.557501 
L 295.077706 216.416516 
L 297.8402 226.654089 
L 300.602694 237.288278 
L 303.365188 246.297043 
L 306.127682 254.359661 
L 308.890176 257.568585 
L 311.65267 256.666281 
L 314.415164 254.921189 
L 317.177658 248.898492 
L 319.940152 240.254616 
L 322.702646 232.748799 
L 325.46514 224.771675 
L 328.227634 216.677461 
L 330.990128 209.902268 
L 333.752622 204.125178 
L 336.515116 199.282959 
L 339.27761 196.107365 
L 342.040104 193.778991 
" style="fill:none;stroke:#dd8452;stroke-linecap:round;stroke-width:1.2;"/>
   </g>
   <g id="line2d_14">
    <path clip-path="url(#p1cc261c496)" d="M 68.553194 29.340909 
L 71.315688 146.266847 
L 74.078182 151.003894 
L 76.840676 160.029683 
L 79.60317 172.672717 
L 82.365664 187.093257 
L 85.128158 202.401504 
L 87.890652 218.100713 
L 90.653146 232.54216 
L 93.415641 244.40848 
L 96.178135 253.12267 
L 98.940629 258.198359 
L 101.703123 259.517591 
L 104.465617 260.143495 
L 107.228111 257.687271 
L 109.990605 250.803346 
L 112.753099 244.250684 
L 115.515593 238.063796 
L 118.278087 233.679519 
L 121.040581 228.874088 
L 123.803075 225.522593 
L 126.565569 223.233177 
L 129.328063 220.892068 
L 132.090557 218.513285 
L 134.853051 217.782227 
L 137.615545 219.528834 
L 140.378039 222.337085 
L 143.140533 226.458967 
L 145.903027 231.909912 
L 148.665521 236.506632 
L 151.428015 241.522113 
L 154.190509 247.311469 
L 156.953004 253.415546 
L 159.715498 258.208562 
L 162.477992 262.714282 
L 165.240486 266.966846 
L 168.00298 269.524762 
L 170.765474 269.847312 
L 173.527968 269.453428 
L 176.290462 267.703886 
L 179.052956 265.948015 
L 181.81545 263.947609 
L 184.577944 261.440114 
L 187.340438 259.768157 
L 190.102932 258.45419 
L 192.865426 256.990988 
L 195.62792 254.967159 
L 198.390414 253.387925 
L 201.152908 251.708094 
L 203.915402 250.401027 
L 206.677896 249.200064 
L 209.44039 248.589483 
L 212.202884 248.565465 
L 214.965378 248.42982 
L 217.727873 249.405783 
L 220.490367 250.600336 
L 223.252861 252.231797 
L 226.015355 253.283053 
L 228.777849 254.62632 
L 231.540343 256.18799 
L 234.302837 257.728762 
L 237.065331 259.548482 
L 239.827825 261.379099 
L 242.590319 263.156673 
L 245.352813 264.180574 
L 248.115307 264.792555 
L 250.877801 265.293285 
L 253.640295 265.750385 
L 256.402789 265.936707 
L 259.165283 266.038585 
L 261.927777 266.280021 
L 264.690271 266.684755 
L 267.452765 267.264231 
L 270.215259 267.671993 
L 272.977753 267.359318 
L 275.740247 265.918198 
L 278.502741 263.823928 
L 281.265236 261.755919 
L 284.02773 259.73434 
L 286.790224 257.994266 
L 289.552718 256.575721 
L 292.315212 255.249168 
L 295.077706 254.252814 
L 297.8402 253.651926 
L 300.602694 253.084122 
L 303.365188 252.576665 
L 306.127682 252.3199 
L 308.890176 252.312377 
L 311.65267 252.482345 
L 314.415164 252.907433 
L 317.177658 253.616248 
L 319.940152 254.423869 
L 322.702646 255.388586 
L 325.46514 256.329823 
L 328.227634 257.511572 
L 330.990128 258.662928 
L 333.752622 259.718508 
L 336.515116 260.695313 
L 339.27761 261.579004 
L 342.040104 262.298152 
" style="fill:none;stroke:#55a868;stroke-linecap:round;stroke-width:1.2;"/>
   </g>
   <g id="line2d_15">
    <path clip-path="url(#p1cc261c496)" d="M 68.553194 29.340909 
L 71.315688 138.547251 
L 74.078182 142.367712 
L 76.840676 150.644247 
L 79.60317 162.93394 
L 82.365664 180.742713 
L 85.128158 203.026855 
L 87.890652 229.624191 
L 90.653146 257.889707 
L 93.415641 283.166805 
L 96.178135 301.946591 
L 98.940629 304.159091 
L 101.703123 294.028989 
L 104.465617 278.929398 
L 107.228111 254.768576 
L 109.990605 232.729773 
L 112.753099 215.07276 
L 115.515593 200.932946 
L 118.278087 190.212942 
L 121.040581 185.939157 
L 123.803075 188.412053 
L 126.565569 195.629634 
L 129.328063 204.561282 
L 132.090557 215.659469 
L 134.853051 223.763774 
L 137.615545 231.848385 
L 140.378039 239.872726 
L 143.140533 247.208857 
L 145.903027 252.362542 
L 148.665521 255.122771 
L 151.428015 250.386161 
L 154.190509 247.861085 
L 156.953004 243.732457 
L 159.715498 241.506633 
L 162.477992 236.872172 
L 165.240486 231.876513 
L 168.00298 226.929914 
L 170.765474 218.646052 
L 173.527968 213.345988 
L 176.290462 212.235785 
L 179.052956 212.561261 
L 181.81545 215.581495 
L 184.577944 221.704977 
L 187.340438 225.00492 
L 190.102932 225.257882 
L 192.865426 226.107748 
L 195.62792 228.277419 
L 198.390414 231.639243 
L 201.152908 231.93975 
L 203.915402 231.409346 
L 206.677896 226.074681 
L 209.44039 220.107908 
L 212.202884 216.172775 
L 214.965378 214.508833 
L 217.727873 214.679842 
L 220.490367 214.549321 
L 223.252861 217.103287 
L 226.015355 222.005609 
L 228.777849 227.87634 
L 231.540343 232.567516 
L 234.302837 238.574124 
L 237.065331 242.372749 
L 239.827825 244.185792 
L 242.590319 247.324211 
L 245.352813 247.699799 
L 248.115307 247.302526 
L 250.877801 247.216145 
L 253.640295 243.903909 
L 256.402789 238.965961 
L 259.165283 233.035515 
L 261.927777 226.31314 
L 264.690271 221.309015 
L 267.452765 220.685071 
L 270.215259 217.999732 
L 272.977753 217.804705 
L 275.740247 219.093877 
L 278.502741 218.161599 
L 281.265236 217.799111 
L 284.02773 214.785748 
L 286.790224 209.084088 
L 289.552718 202.462556 
L 292.315212 199.054836 
L 295.077706 198.728157 
L 297.8402 203.045676 
L 300.602694 211.576991 
L 303.365188 219.40183 
L 306.127682 228.74639 
L 308.890176 237.985416 
L 311.65267 246.179198 
L 314.415164 249.039117 
L 317.177658 248.956972 
L 319.940152 249.484056 
L 322.702646 248.392555 
L 325.46514 244.594663 
L 328.227634 240.851108 
L 330.990128 238.235505 
L 333.752622 232.668086 
L 336.515116 227.653599 
L 339.27761 223.058168 
L 342.040104 218.063753 
" style="fill:none;stroke:#c44e52;stroke-linecap:round;stroke-width:1.2;"/>
   </g>
   <g id="line2d_16"/>
   <g id="line2d_17"/>
   <g id="line2d_18"/>
   <g id="line2d_19"/>
   <g id="line2d_20"/>
   <g id="patch_3">
    <path d="M 54.878849 317.9 
L 54.878849 15.6 
" style="fill:none;stroke:#cccccc;stroke-linecap:square;stroke-linejoin:miter;"/>
   </g>
   <g id="patch_4">
    <path d="M 54.878849 317.9 
L 355.71445 317.9 
" style="fill:none;stroke:#cccccc;stroke-linecap:square;stroke-linejoin:miter;"/>
   </g>
   <g id="text_14">
    <!-- Mean Reinforcements for 60 100-Step Rollouts with Plan Length 10 -->
    <defs>
     <path d="M 9.8125 72.90625 
L 24.515625 72.90625 
L 43.109375 23.296875 
L 61.8125 72.90625 
L 76.515625 72.90625 
L 76.515625 0 
L 66.890625 0 
L 66.890625 64.015625 
L 48.09375 14.015625 
L 38.1875 14.015625 
L 19.390625 64.015625 
L 19.390625 0 
L 9.8125 0 
z
" id="DejaVuSans-77"/>
     <path d="M 34.28125 27.484375 
Q 23.390625 27.484375 19.1875 25 
Q 14.984375 22.515625 14.984375 16.5 
Q 14.984375 11.71875 18.140625 8.90625 
Q 21.296875 6.109375 26.703125 6.109375 
Q 34.1875 6.109375 38.703125 11.40625 
Q 43.21875 16.703125 43.21875 25.484375 
L 43.21875 27.484375 
z
M 52.203125 31.203125 
L 52.203125 0 
L 43.21875 0 
L 43.21875 8.296875 
Q 40.140625 3.328125 35.546875 0.953125 
Q 30.953125 -1.421875 24.3125 -1.421875 
Q 15.921875 -1.421875 10.953125 3.296875 
Q 6 8.015625 6 15.921875 
Q 6 25.140625 12.171875 29.828125 
Q 18.359375 34.515625 30.609375 34.515625 
L 43.21875 34.515625 
L 43.21875 35.40625 
Q 43.21875 41.609375 39.140625 45 
Q 35.0625 48.390625 27.6875 48.390625 
Q 23 48.390625 18.546875 47.265625 
Q 14.109375 46.140625 10.015625 43.890625 
L 10.015625 52.203125 
Q 14.9375 54.109375 19.578125 55.046875 
Q 24.21875 56 28.609375 56 
Q 40.484375 56 46.34375 49.84375 
Q 52.203125 43.703125 52.203125 31.203125 
z
" id="DejaVuSans-97"/>
     <path id="DejaVuSans-32"/>
     <path d="M 44.28125 53.078125 
L 44.28125 44.578125 
Q 40.484375 46.53125 36.375 47.5 
Q 32.28125 48.484375 27.875 48.484375 
Q 21.1875 48.484375 17.84375 46.4375 
Q 14.5 44.390625 14.5 40.28125 
Q 14.5 37.15625 16.890625 35.375 
Q 19.28125 33.59375 26.515625 31.984375 
L 29.59375 31.296875 
Q 39.15625 29.25 43.1875 25.515625 
Q 47.21875 21.78125 47.21875 15.09375 
Q 47.21875 7.46875 41.1875 3.015625 
Q 35.15625 -1.421875 24.609375 -1.421875 
Q 20.21875 -1.421875 15.453125 -0.5625 
Q 10.6875 0.296875 5.421875 2 
L 5.421875 11.28125 
Q 10.40625 8.6875 15.234375 7.390625 
Q 20.0625 6.109375 24.8125 6.109375 
Q 31.15625 6.109375 34.5625 8.28125 
Q 37.984375 10.453125 37.984375 14.40625 
Q 37.984375 18.0625 35.515625 20.015625 
Q 33.0625 21.96875 24.703125 23.78125 
L 21.578125 24.515625 
Q 13.234375 26.265625 9.515625 29.90625 
Q 5.8125 33.546875 5.8125 39.890625 
Q 5.8125 47.609375 11.28125 51.796875 
Q 16.75 56 26.8125 56 
Q 31.78125 56 36.171875 55.265625 
Q 40.578125 54.546875 44.28125 53.078125 
z
" id="DejaVuSans-115"/>
     <path d="M 4.890625 31.390625 
L 31.203125 31.390625 
L 31.203125 23.390625 
L 4.890625 23.390625 
z
" id="DejaVuSans-45"/>
     <path d="M 9.421875 75.984375 
L 18.40625 75.984375 
L 18.40625 0 
L 9.421875 0 
z
" id="DejaVuSans-108"/>
     <path d="M 8.5 21.578125 
L 8.5 54.6875 
L 17.484375 54.6875 
L 17.484375 21.921875 
Q 17.484375 14.15625 20.5 10.265625 
Q 23.53125 6.390625 29.59375 6.390625 
Q 36.859375 6.390625 41.078125 11.03125 
Q 45.3125 15.671875 45.3125 23.6875 
L 45.3125 54.6875 
L 54.296875 54.6875 
L 54.296875 0 
L 45.3125 0 
L 45.3125 8.40625 
Q 42.046875 3.421875 37.71875 1 
Q 33.40625 -1.421875 27.6875 -1.421875 
Q 18.265625 -1.421875 13.375 4.4375 
Q 8.5 10.296875 8.5 21.578125 
z
M 31.109375 56 
z
" id="DejaVuSans-117"/>
     <path d="M 4.203125 54.6875 
L 13.1875 54.6875 
L 24.421875 12.015625 
L 35.59375 54.6875 
L 46.1875 54.6875 
L 57.421875 12.015625 
L 68.609375 54.6875 
L 77.59375 54.6875 
L 63.28125 0 
L 52.6875 0 
L 40.921875 44.828125 
L 29.109375 0 
L 18.5 0 
z
" id="DejaVuSans-119"/>
     <path d="M 54.890625 33.015625 
L 54.890625 0 
L 45.90625 0 
L 45.90625 32.71875 
Q 45.90625 40.484375 42.875 44.328125 
Q 39.84375 48.1875 33.796875 48.1875 
Q 26.515625 48.1875 22.3125 43.546875 
Q 18.109375 38.921875 18.109375 30.90625 
L 18.109375 0 
L 9.078125 0 
L 9.078125 75.984375 
L 18.109375 75.984375 
L 18.109375 46.1875 
Q 21.34375 51.125 25.703125 53.5625 
Q 30.078125 56 35.796875 56 
Q 45.21875 56 50.046875 50.171875 
Q 54.890625 44.34375 54.890625 33.015625 
z
" id="DejaVuSans-104"/>
     <path d="M 19.671875 64.796875 
L 19.671875 37.40625 
L 32.078125 37.40625 
Q 38.96875 37.40625 42.71875 40.96875 
Q 46.484375 44.53125 46.484375 51.125 
Q 46.484375 57.671875 42.71875 61.234375 
Q 38.96875 64.796875 32.078125 64.796875 
z
M 9.8125 72.90625 
L 32.078125 72.90625 
Q 44.34375 72.90625 50.609375 67.359375 
Q 56.890625 61.8125 56.890625 51.125 
Q 56.890625 40.328125 50.609375 34.8125 
Q 44.34375 29.296875 32.078125 29.296875 
L 19.671875 29.296875 
L 19.671875 0 
L 9.8125 0 
z
" id="DejaVuSans-80"/>
     <path d="M 9.8125 72.90625 
L 19.671875 72.90625 
L 19.671875 8.296875 
L 55.171875 8.296875 
L 55.171875 0 
L 9.8125 0 
z
" id="DejaVuSans-76"/>
     <path d="M 45.40625 27.984375 
Q 45.40625 37.75 41.375 43.109375 
Q 37.359375 48.484375 30.078125 48.484375 
Q 22.859375 48.484375 18.828125 43.109375 
Q 14.796875 37.75 14.796875 27.984375 
Q 14.796875 18.265625 18.828125 12.890625 
Q 22.859375 7.515625 30.078125 7.515625 
Q 37.359375 7.515625 41.375 12.890625 
Q 45.40625 18.265625 45.40625 27.984375 
z
M 54.390625 6.78125 
Q 54.390625 -7.171875 48.1875 -13.984375 
Q 42 -20.796875 29.203125 -20.796875 
Q 24.46875 -20.796875 20.265625 -20.09375 
Q 16.0625 -19.390625 12.109375 -17.921875 
L 12.109375 -9.1875 
Q 16.0625 -11.328125 19.921875 -12.34375 
Q 23.78125 -13.375 27.78125 -13.375 
Q 36.625 -13.375 41.015625 -8.765625 
Q 45.40625 -4.15625 45.40625 5.171875 
L 45.40625 9.625 
Q 42.625 4.78125 38.28125 2.390625 
Q 33.9375 0 27.875 0 
Q 17.828125 0 11.671875 7.65625 
Q 5.515625 15.328125 5.515625 27.984375 
Q 5.515625 40.671875 11.671875 48.328125 
Q 17.828125 56 27.875 56 
Q 33.9375 56 38.28125 53.609375 
Q 42.625 51.21875 45.40625 46.390625 
L 45.40625 54.6875 
L 54.390625 54.6875 
z
" id="DejaVuSans-103"/>
    </defs>
    <g style="fill:#262626;" transform="translate(43.611649 9.6)scale(0.096 -0.096)">
     <use xlink:href="#DejaVuSans-77"/>
     <use x="86.279297" xlink:href="#DejaVuSans-101"/>
     <use x="147.802734" xlink:href="#DejaVuSans-97"/>
     <use x="209.082031" xlink:href="#DejaVuSans-110"/>
     <use x="272.460938" xlink:href="#DejaVuSans-32"/>
     <use x="304.248047" xlink:href="#DejaVuSans-82"/>
     <use x="373.667969" xlink:href="#DejaVuSans-101"/>
     <use x="435.191406" xlink:href="#DejaVuSans-105"/>
     <use x="462.974609" xlink:href="#DejaVuSans-110"/>
     <use x="526.353516" xlink:href="#DejaVuSans-102"/>
     <use x="561.558594" xlink:href="#DejaVuSans-111"/>
     <use x="622.740234" xlink:href="#DejaVuSans-114"/>
     <use x="663.822266" xlink:href="#DejaVuSans-99"/>
     <use x="718.802734" xlink:href="#DejaVuSans-101"/>
     <use x="780.326172" xlink:href="#DejaVuSans-109"/>
     <use x="877.738281" xlink:href="#DejaVuSans-101"/>
     <use x="939.261719" xlink:href="#DejaVuSans-110"/>
     <use x="1002.640625" xlink:href="#DejaVuSans-116"/>
     <use x="1041.849609" xlink:href="#DejaVuSans-115"/>
     <use x="1093.949219" xlink:href="#DejaVuSans-32"/>
     <use x="1125.736328" xlink:href="#DejaVuSans-102"/>
     <use x="1160.941406" xlink:href="#DejaVuSans-111"/>
     <use x="1222.123047" xlink:href="#DejaVuSans-114"/>
     <use x="1263.236328" xlink:href="#DejaVuSans-32"/>
     <use x="1295.023438" xlink:href="#DejaVuSans-54"/>
     <use x="1358.646484" xlink:href="#DejaVuSans-48"/>
     <use x="1422.269531" xlink:href="#DejaVuSans-32"/>
     <use x="1454.056641" xlink:href="#DejaVuSans-49"/>
     <use x="1517.679688" xlink:href="#DejaVuSans-48"/>
     <use x="1581.302734" xlink:href="#DejaVuSans-48"/>
     <use x="1644.925781" xlink:href="#DejaVuSans-45"/>
     <use x="1681.009766" xlink:href="#DejaVuSans-83"/>
     <use x="1744.486328" xlink:href="#DejaVuSans-116"/>
     <use x="1783.695312" xlink:href="#DejaVuSans-101"/>
     <use x="1845.21875" xlink:href="#DejaVuSans-112"/>
     <use x="1908.695312" xlink:href="#DejaVuSans-32"/>
     <use x="1940.482422" xlink:href="#DejaVuSans-82"/>
     <use x="2009.902344" xlink:href="#DejaVuSans-111"/>
     <use x="2071.083984" xlink:href="#DejaVuSans-108"/>
     <use x="2098.867188" xlink:href="#DejaVuSans-108"/>
     <use x="2126.650391" xlink:href="#DejaVuSans-111"/>
     <use x="2187.832031" xlink:href="#DejaVuSans-117"/>
     <use x="2251.210938" xlink:href="#DejaVuSans-116"/>
     <use x="2290.419922" xlink:href="#DejaVuSans-115"/>
     <use x="2342.519531" xlink:href="#DejaVuSans-32"/>
     <use x="2374.306641" xlink:href="#DejaVuSans-119"/>
     <use x="2456.09375" xlink:href="#DejaVuSans-105"/>
     <use x="2483.876953" xlink:href="#DejaVuSans-116"/>
     <use x="2523.085938" xlink:href="#DejaVuSans-104"/>
     <use x="2586.464844" xlink:href="#DejaVuSans-32"/>
     <use x="2618.251953" xlink:href="#DejaVuSans-80"/>
     <use x="2678.554688" xlink:href="#DejaVuSans-108"/>
     <use x="2706.337891" xlink:href="#DejaVuSans-97"/>
     <use x="2767.617188" xlink:href="#DejaVuSans-110"/>
     <use x="2830.996094" xlink:href="#DejaVuSans-32"/>
     <use x="2862.783203" xlink:href="#DejaVuSans-76"/>
     <use x="2918.480469" xlink:href="#DejaVuSans-101"/>
     <use x="2980.003906" xlink:href="#DejaVuSans-110"/>
     <use x="3043.382812" xlink:href="#DejaVuSans-103"/>
     <use x="3106.859375" xlink:href="#DejaVuSans-116"/>
     <use x="3146.068359" xlink:href="#DejaVuSans-104"/>
     <use x="3209.447266" xlink:href="#DejaVuSans-32"/>
     <use x="3241.234375" xlink:href="#DejaVuSans-49"/>
     <use x="3304.857422" xlink:href="#DejaVuSans-48"/>
    </g>
   </g>
  </g>
  <g id="legend_1">
   <g id="line2d_21">
    <path d="M 359.29075 153.51475 
L 376.89075 153.51475 
" style="fill:none;"/>
   </g>
   <g id="line2d_22"/>
   <g id="text_15">
    <!-- strategy -->
    <defs>
     <path d="M 32.171875 -5.078125 
Q 28.375 -14.84375 24.75 -17.8125 
Q 21.140625 -20.796875 15.09375 -20.796875 
L 7.90625 -20.796875 
L 7.90625 -13.28125 
L 13.1875 -13.28125 
Q 16.890625 -13.28125 18.9375 -11.515625 
Q 21 -9.765625 23.484375 -3.21875 
L 25.09375 0.875 
L 2.984375 54.6875 
L 12.5 54.6875 
L 29.59375 11.921875 
L 46.6875 54.6875 
L 56.203125 54.6875 
z
" id="DejaVuSans-121"/>
    </defs>
    <g style="fill:#262626;" transform="translate(383.93075 156.59475)scale(0.088 -0.088)">
     <use xlink:href="#DejaVuSans-115"/>
     <use x="52.099609" xlink:href="#DejaVuSans-116"/>
     <use x="91.308594" xlink:href="#DejaVuSans-114"/>
     <use x="132.421875" xlink:href="#DejaVuSans-97"/>
     <use x="193.701172" xlink:href="#DejaVuSans-116"/>
     <use x="232.910156" xlink:href="#DejaVuSans-101"/>
     <use x="294.433594" xlink:href="#DejaVuSans-103"/>
     <use x="357.910156" xlink:href="#DejaVuSans-121"/>
    </g>
   </g>
   <g id="line2d_23">
    <path d="M 359.29075 166.4315 
L 376.89075 166.4315 
" style="fill:none;stroke:#4c72b0;stroke-linecap:round;stroke-width:1.2;"/>
   </g>
   <g id="line2d_24"/>
   <g id="text_16">
    <!-- none -->
    <g style="fill:#262626;" transform="translate(383.93075 169.5115)scale(0.088 -0.088)">
     <use xlink:href="#DejaVuSans-110"/>
     <use x="63.378906" xlink:href="#DejaVuSans-111"/>
     <use x="124.560547" xlink:href="#DejaVuSans-110"/>
     <use x="187.939453" xlink:href="#DejaVuSans-101"/>
    </g>
   </g>
   <g id="line2d_25">
    <path d="M 359.29075 179.34825 
L 376.89075 179.34825 
" style="fill:none;stroke:#dd8452;stroke-linecap:round;stroke-width:1.2;"/>
   </g>
   <g id="line2d_26"/>
   <g id="text_17">
    <!-- first -->
    <g style="fill:#262626;" transform="translate(383.93075 182.42825)scale(0.088 -0.088)">
     <use xlink:href="#DejaVuSans-102"/>
     <use x="35.205078" xlink:href="#DejaVuSans-105"/>
     <use x="62.988281" xlink:href="#DejaVuSans-114"/>
     <use x="104.101562" xlink:href="#DejaVuSans-115"/>
     <use x="156.201172" xlink:href="#DejaVuSans-116"/>
    </g>
   </g>
   <g id="line2d_27">
    <path d="M 359.29075 192.265 
L 376.89075 192.265 
" style="fill:none;stroke:#55a868;stroke-linecap:round;stroke-width:1.2;"/>
   </g>
   <g id="line2d_28"/>
   <g id="text_18">
    <!-- last -->
    <g style="fill:#262626;" transform="translate(383.93075 195.345)scale(0.088 -0.088)">
     <use xlink:href="#DejaVuSans-108"/>
     <use x="27.783203" xlink:href="#DejaVuSans-97"/>
     <use x="89.0625" xlink:href="#DejaVuSans-115"/>
     <use x="141.162109" xlink:href="#DejaVuSans-116"/>
    </g>
   </g>
   <g id="line2d_29">
    <path d="M 359.29075 205.18175 
L 376.89075 205.18175 
" style="fill:none;stroke:#c44e52;stroke-linecap:round;stroke-width:1.2;"/>
   </g>
   <g id="line2d_30"/>
   <g id="text_19">
    <!-- random -->
    <defs>
     <path d="M 45.40625 46.390625 
L 45.40625 75.984375 
L 54.390625 75.984375 
L 54.390625 0 
L 45.40625 0 
L 45.40625 8.203125 
Q 42.578125 3.328125 38.25 0.953125 
Q 33.9375 -1.421875 27.875 -1.421875 
Q 17.96875 -1.421875 11.734375 6.484375 
Q 5.515625 14.40625 5.515625 27.296875 
Q 5.515625 40.1875 11.734375 48.09375 
Q 17.96875 56 27.875 56 
Q 33.9375 56 38.25 53.625 
Q 42.578125 51.265625 45.40625 46.390625 
z
M 14.796875 27.296875 
Q 14.796875 17.390625 18.875 11.75 
Q 22.953125 6.109375 30.078125 6.109375 
Q 37.203125 6.109375 41.296875 11.75 
Q 45.40625 17.390625 45.40625 27.296875 
Q 45.40625 37.203125 41.296875 42.84375 
Q 37.203125 48.484375 30.078125 48.484375 
Q 22.953125 48.484375 18.875 42.84375 
Q 14.796875 37.203125 14.796875 27.296875 
z
" id="DejaVuSans-100"/>
    </defs>
    <g style="fill:#262626;" transform="translate(383.93075 208.26175)scale(0.088 -0.088)">
     <use xlink:href="#DejaVuSans-114"/>
     <use x="41.113281" xlink:href="#DejaVuSans-97"/>
     <use x="102.392578" xlink:href="#DejaVuSans-110"/>
     <use x="165.771484" xlink:href="#DejaVuSans-100"/>
     <use x="229.248047" xlink:href="#DejaVuSans-111"/>
     <use x="290.429688" xlink:href="#DejaVuSans-109"/>
    </g>
   </g>
  </g>
 </g>
 <defs>
  <clipPath id="p1cc261c496">
   <rect height="302.3" width="300.835601" x="54.878849" y="15.6"/>
  </clipPath>
 </defs>
</svg>
