<?xml version="1.0" encoding="utf-8" standalone="no"?>
<!DOCTYPE svg PUBLIC "-//W3C//DTD SVG 1.1//EN"
  "http://www.w3.org/Graphics/SVG/1.1/DTD/svg11.dtd">
<!-- Created with matplotlib (https://matplotlib.org/) -->
<svg height="360pt" version="1.1" viewBox="0 0 428.555 360" width="428.555pt" xmlns="http://www.w3.org/2000/svg" xmlns:xlink="http://www.w3.org/1999/xlink">
 <defs>
  <style type="text/css">
*{stroke-linecap:butt;stroke-linejoin:round;}
  </style>
 </defs>
 <g id="figure_1">
  <g id="patch_1">
   <path d="M 0 360 
L 428.555 360 
L 428.555 0 
L 0 0 
z
" style="fill:#ffffff;"/>
  </g>
  <g id="axes_1">
   <g id="patch_2">
    <path d="M 54.364583 318.332 
L 355.71445 318.332 
L 355.71445 15.168 
L 54.364583 15.168 
z
" style="fill:#ffffff;"/>
   </g>
   <g id="matplotlib.axis_1">
    <g id="xtick_1">
     <g id="line2d_1">
      <path clip-path="url(#p29d1e797bf)" d="M 68.062304 318.332 
L 68.062304 15.168 
" style="fill:none;stroke:#cccccc;stroke-linecap:round;stroke-width:0.8;"/>
     </g>
     <g id="text_1">
      <!-- 0 -->
      <defs>
       <path d="M 31.78125 66.40625 
Q 24.171875 66.40625 20.328125 58.90625 
Q 16.5 51.421875 16.5 36.375 
Q 16.5 21.390625 20.328125 13.890625 
Q 24.171875 6.390625 31.78125 6.390625 
Q 39.453125 6.390625 43.28125 13.890625 
Q 47.125 21.390625 47.125 36.375 
Q 47.125 51.421875 43.28125 58.90625 
Q 39.453125 66.40625 31.78125 66.40625 
z
M 31.78125 74.21875 
Q 44.046875 74.21875 50.515625 64.515625 
Q 56.984375 54.828125 56.984375 36.375 
Q 56.984375 17.96875 50.515625 8.265625 
Q 44.046875 -1.421875 31.78125 -1.421875 
Q 19.53125 -1.421875 13.0625 8.265625 
Q 6.59375 17.96875 6.59375 36.375 
Q 6.59375 54.828125 13.0625 64.515625 
Q 19.53125 74.21875 31.78125 74.21875 
z
" id="DejaVuSans-48"/>
      </defs>
      <g style="fill:#262626;" transform="translate(65.262804 333.318625)scale(0.088 -0.088)">
       <use xlink:href="#DejaVuSans-48"/>
      </g>
     </g>
    </g>
    <g id="xtick_2">
     <g id="line2d_2">
      <path clip-path="url(#p29d1e797bf)" d="M 123.406632 318.332 
L 123.406632 15.168 
" style="fill:none;stroke:#cccccc;stroke-linecap:round;stroke-width:0.8;"/>
     </g>
     <g id="text_2">
      <!-- 20 -->
      <defs>
       <path d="M 19.1875 8.296875 
L 53.609375 8.296875 
L 53.609375 0 
L 7.328125 0 
L 7.328125 8.296875 
Q 12.9375 14.109375 22.625 23.890625 
Q 32.328125 33.6875 34.8125 36.53125 
Q 39.546875 41.84375 41.421875 45.53125 
Q 43.3125 49.21875 43.3125 52.78125 
Q 43.3125 58.59375 39.234375 62.25 
Q 35.15625 65.921875 28.609375 65.921875 
Q 23.96875 65.921875 18.8125 64.3125 
Q 13.671875 62.703125 7.8125 59.421875 
L 7.8125 69.390625 
Q 13.765625 71.78125 18.9375 73 
Q 24.125 74.21875 28.421875 74.21875 
Q 39.75 74.21875 46.484375 68.546875 
Q 53.21875 62.890625 53.21875 53.421875 
Q 53.21875 48.921875 51.53125 44.890625 
Q 49.859375 40.875 45.40625 35.40625 
Q 44.1875 33.984375 37.640625 27.21875 
Q 31.109375 20.453125 19.1875 8.296875 
z
" id="DejaVuSans-50"/>
      </defs>
      <g style="fill:#262626;" transform="translate(117.807632 333.318625)scale(0.088 -0.088)">
       <use xlink:href="#DejaVuSans-50"/>
       <use x="63.623047" xlink:href="#DejaVuSans-48"/>
      </g>
     </g>
    </g>
    <g id="xtick_3">
     <g id="line2d_3">
      <path clip-path="url(#p29d1e797bf)" d="M 178.75096 318.332 
L 178.75096 15.168 
" style="fill:none;stroke:#cccccc;stroke-linecap:round;stroke-width:0.8;"/>
     </g>
     <g id="text_3">
      <!-- 40 -->
      <defs>
       <path d="M 37.796875 64.3125 
L 12.890625 25.390625 
L 37.796875 25.390625 
z
M 35.203125 72.90625 
L 47.609375 72.90625 
L 47.609375 25.390625 
L 58.015625 25.390625 
L 58.015625 17.1875 
L 47.609375 17.1875 
L 47.609375 0 
L 37.796875 0 
L 37.796875 17.1875 
L 4.890625 17.1875 
L 4.890625 26.703125 
z
" id="DejaVuSans-52"/>
      </defs>
      <g style="fill:#262626;" transform="translate(173.15196 333.318625)scale(0.088 -0.088)">
       <use xlink:href="#DejaVuSans-52"/>
       <use x="63.623047" xlink:href="#DejaVuSans-48"/>
      </g>
     </g>
    </g>
    <g id="xtick_4">
     <g id="line2d_4">
      <path clip-path="url(#p29d1e797bf)" d="M 234.095289 318.332 
L 234.095289 15.168 
" style="fill:none;stroke:#cccccc;stroke-linecap:round;stroke-width:0.8;"/>
     </g>
     <g id="text_4">
      <!-- 60 -->
      <defs>
       <path d="M 33.015625 40.375 
Q 26.375 40.375 22.484375 35.828125 
Q 18.609375 31.296875 18.609375 23.390625 
Q 18.609375 15.53125 22.484375 10.953125 
Q 26.375 6.390625 33.015625 6.390625 
Q 39.65625 6.390625 43.53125 10.953125 
Q 47.40625 15.53125 47.40625 23.390625 
Q 47.40625 31.296875 43.53125 35.828125 
Q 39.65625 40.375 33.015625 40.375 
z
M 52.59375 71.296875 
L 52.59375 62.3125 
Q 48.875 64.0625 45.09375 64.984375 
Q 41.3125 65.921875 37.59375 65.921875 
Q 27.828125 65.921875 22.671875 59.328125 
Q 17.53125 52.734375 16.796875 39.40625 
Q 19.671875 43.65625 24.015625 45.921875 
Q 28.375 48.1875 33.59375 48.1875 
Q 44.578125 48.1875 50.953125 41.515625 
Q 57.328125 34.859375 57.328125 23.390625 
Q 57.328125 12.15625 50.6875 5.359375 
Q 44.046875 -1.421875 33.015625 -1.421875 
Q 20.359375 -1.421875 13.671875 8.265625 
Q 6.984375 17.96875 6.984375 36.375 
Q 6.984375 53.65625 15.1875 63.9375 
Q 23.390625 74.21875 37.203125 74.21875 
Q 40.921875 74.21875 44.703125 73.484375 
Q 48.484375 72.75 52.59375 71.296875 
z
" id="DejaVuSans-54"/>
      </defs>
      <g style="fill:#262626;" transform="translate(228.496289 333.318625)scale(0.088 -0.088)">
       <use xlink:href="#DejaVuSans-54"/>
       <use x="63.623047" xlink:href="#DejaVuSans-48"/>
      </g>
     </g>
    </g>
    <g id="xtick_5">
     <g id="line2d_5">
      <path clip-path="url(#p29d1e797bf)" d="M 289.439617 318.332 
L 289.439617 15.168 
" style="fill:none;stroke:#cccccc;stroke-linecap:round;stroke-width:0.8;"/>
     </g>
     <g id="text_5">
      <!-- 80 -->
      <defs>
       <path d="M 31.78125 34.625 
Q 24.75 34.625 20.71875 30.859375 
Q 16.703125 27.09375 16.703125 20.515625 
Q 16.703125 13.921875 20.71875 10.15625 
Q 24.75 6.390625 31.78125 6.390625 
Q 38.8125 6.390625 42.859375 10.171875 
Q 46.921875 13.96875 46.921875 20.515625 
Q 46.921875 27.09375 42.890625 30.859375 
Q 38.875 34.625 31.78125 34.625 
z
M 21.921875 38.8125 
Q 15.578125 40.375 12.03125 44.71875 
Q 8.5 49.078125 8.5 55.328125 
Q 8.5 64.0625 14.71875 69.140625 
Q 20.953125 74.21875 31.78125 74.21875 
Q 42.671875 74.21875 48.875 69.140625 
Q 55.078125 64.0625 55.078125 55.328125 
Q 55.078125 49.078125 51.53125 44.71875 
Q 48 40.375 41.703125 38.8125 
Q 48.828125 37.15625 52.796875 32.3125 
Q 56.78125 27.484375 56.78125 20.515625 
Q 56.78125 9.90625 50.3125 4.234375 
Q 43.84375 -1.421875 31.78125 -1.421875 
Q 19.734375 -1.421875 13.25 4.234375 
Q 6.78125 9.90625 6.78125 20.515625 
Q 6.78125 27.484375 10.78125 32.3125 
Q 14.796875 37.15625 21.921875 38.8125 
z
M 18.3125 54.390625 
Q 18.3125 48.734375 21.84375 45.5625 
Q 25.390625 42.390625 31.78125 42.390625 
Q 38.140625 42.390625 41.71875 45.5625 
Q 45.3125 48.734375 45.3125 54.390625 
Q 45.3125 60.0625 41.71875 63.234375 
Q 38.140625 66.40625 31.78125 66.40625 
Q 25.390625 66.40625 21.84375 63.234375 
Q 18.3125 60.0625 18.3125 54.390625 
z
" id="DejaVuSans-56"/>
      </defs>
      <g style="fill:#262626;" transform="translate(283.840617 333.318625)scale(0.088 -0.088)">
       <use xlink:href="#DejaVuSans-56"/>
       <use x="63.623047" xlink:href="#DejaVuSans-48"/>
      </g>
     </g>
    </g>
    <g id="xtick_6">
     <g id="line2d_6">
      <path clip-path="url(#p29d1e797bf)" d="M 344.783945 318.332 
L 344.783945 15.168 
" style="fill:none;stroke:#cccccc;stroke-linecap:round;stroke-width:0.8;"/>
     </g>
     <g id="text_6">
      <!-- 100 -->
      <defs>
       <path d="M 12.40625 8.296875 
L 28.515625 8.296875 
L 28.515625 63.921875 
L 10.984375 60.40625 
L 10.984375 69.390625 
L 28.421875 72.90625 
L 38.28125 72.90625 
L 38.28125 8.296875 
L 54.390625 8.296875 
L 54.390625 0 
L 12.40625 0 
z
" id="DejaVuSans-49"/>
      </defs>
      <g style="fill:#262626;" transform="translate(336.385445 333.318625)scale(0.088 -0.088)">
       <use xlink:href="#DejaVuSans-49"/>
       <use x="63.623047" xlink:href="#DejaVuSans-48"/>
       <use x="127.246094" xlink:href="#DejaVuSans-48"/>
      </g>
     </g>
    </g>
    <g id="text_7">
     <!-- Step -->
     <defs>
      <path d="M 53.515625 70.515625 
L 53.515625 60.890625 
Q 47.90625 63.578125 42.921875 64.890625 
Q 37.9375 66.21875 33.296875 66.21875 
Q 25.25 66.21875 20.875 63.09375 
Q 16.5 59.96875 16.5 54.203125 
Q 16.5 49.359375 19.40625 46.890625 
Q 22.3125 44.4375 30.421875 42.921875 
L 36.375 41.703125 
Q 47.40625 39.59375 52.65625 34.296875 
Q 57.90625 29 57.90625 20.125 
Q 57.90625 9.515625 50.796875 4.046875 
Q 43.703125 -1.421875 29.984375 -1.421875 
Q 24.8125 -1.421875 18.96875 -0.25 
Q 13.140625 0.921875 6.890625 3.21875 
L 6.890625 13.375 
Q 12.890625 10.015625 18.65625 8.296875 
Q 24.421875 6.59375 29.984375 6.59375 
Q 38.421875 6.59375 43.015625 9.90625 
Q 47.609375 13.234375 47.609375 19.390625 
Q 47.609375 24.75 44.3125 27.78125 
Q 41.015625 30.8125 33.5 32.328125 
L 27.484375 33.5 
Q 16.453125 35.6875 11.515625 40.375 
Q 6.59375 45.0625 6.59375 53.421875 
Q 6.59375 63.09375 13.40625 68.65625 
Q 20.21875 74.21875 32.171875 74.21875 
Q 37.3125 74.21875 42.625 73.28125 
Q 47.953125 72.359375 53.515625 70.515625 
z
" id="DejaVuSans-83"/>
      <path d="M 18.3125 70.21875 
L 18.3125 54.6875 
L 36.8125 54.6875 
L 36.8125 47.703125 
L 18.3125 47.703125 
L 18.3125 18.015625 
Q 18.3125 11.328125 20.140625 9.421875 
Q 21.96875 7.515625 27.59375 7.515625 
L 36.8125 7.515625 
L 36.8125 0 
L 27.59375 0 
Q 17.1875 0 13.234375 3.875 
Q 9.28125 7.765625 9.28125 18.015625 
L 9.28125 47.703125 
L 2.6875 47.703125 
L 2.6875 54.6875 
L 9.28125 54.6875 
L 9.28125 70.21875 
z
" id="DejaVuSans-116"/>
      <path d="M 56.203125 29.59375 
L 56.203125 25.203125 
L 14.890625 25.203125 
Q 15.484375 15.921875 20.484375 11.0625 
Q 25.484375 6.203125 34.421875 6.203125 
Q 39.59375 6.203125 44.453125 7.46875 
Q 49.3125 8.734375 54.109375 11.28125 
L 54.109375 2.78125 
Q 49.265625 0.734375 44.1875 -0.34375 
Q 39.109375 -1.421875 33.890625 -1.421875 
Q 20.796875 -1.421875 13.15625 6.1875 
Q 5.515625 13.8125 5.515625 26.8125 
Q 5.515625 40.234375 12.765625 48.109375 
Q 20.015625 56 32.328125 56 
Q 43.359375 56 49.78125 48.890625 
Q 56.203125 41.796875 56.203125 29.59375 
z
M 47.21875 32.234375 
Q 47.125 39.59375 43.09375 43.984375 
Q 39.0625 48.390625 32.421875 48.390625 
Q 24.90625 48.390625 20.390625 44.140625 
Q 15.875 39.890625 15.1875 32.171875 
z
" id="DejaVuSans-101"/>
      <path d="M 18.109375 8.203125 
L 18.109375 -20.796875 
L 9.078125 -20.796875 
L 9.078125 54.6875 
L 18.109375 54.6875 
L 18.109375 46.390625 
Q 20.953125 51.265625 25.265625 53.625 
Q 29.59375 56 35.59375 56 
Q 45.5625 56 51.78125 48.09375 
Q 58.015625 40.1875 58.015625 27.296875 
Q 58.015625 14.40625 51.78125 6.484375 
Q 45.5625 -1.421875 35.59375 -1.421875 
Q 29.59375 -1.421875 25.265625 0.953125 
Q 20.953125 3.328125 18.109375 8.203125 
z
M 48.6875 27.296875 
Q 48.6875 37.203125 44.609375 42.84375 
Q 40.53125 48.484375 33.40625 48.484375 
Q 26.265625 48.484375 22.1875 42.84375 
Q 18.109375 37.203125 18.109375 27.296875 
Q 18.109375 17.390625 22.1875 11.75 
Q 26.265625 6.109375 33.40625 6.109375 
Q 40.53125 6.109375 44.609375 11.75 
Q 48.6875 17.390625 48.6875 27.296875 
z
" id="DejaVuSans-112"/>
     </defs>
     <g style="fill:#262626;" transform="translate(194.109766 346.44325)scale(0.096 -0.096)">
      <use xlink:href="#DejaVuSans-83"/>
      <use x="63.476562" xlink:href="#DejaVuSans-116"/>
      <use x="102.685547" xlink:href="#DejaVuSans-101"/>
      <use x="164.208984" xlink:href="#DejaVuSans-112"/>
     </g>
    </g>
   </g>
   <g id="matplotlib.axis_2">
    <g id="ytick_1">
     <g id="line2d_7">
      <path clip-path="url(#p29d1e797bf)" d="M 54.364583 270.57967 
L 355.71445 270.57967 
" style="fill:none;stroke:#cccccc;stroke-linecap:round;stroke-width:0.8;"/>
     </g>
     <g id="text_8">
      <!-- −8 -->
      <defs>
       <path d="M 10.59375 35.5 
L 73.1875 35.5 
L 73.1875 27.203125 
L 10.59375 27.203125 
z
" id="DejaVuSans-8722"/>
      </defs>
      <g style="fill:#262626;" transform="translate(33.091458 273.922982)scale(0.088 -0.088)">
       <use xlink:href="#DejaVuSans-8722"/>
       <use x="83.789062" xlink:href="#DejaVuSans-56"/>
      </g>
     </g>
    </g>
    <g id="ytick_2">
     <g id="line2d_8">
      <path clip-path="url(#p29d1e797bf)" d="M 54.364583 210.171798 
L 355.71445 210.171798 
" style="fill:none;stroke:#cccccc;stroke-linecap:round;stroke-width:0.8;"/>
     </g>
     <g id="text_9">
      <!-- −6 -->
      <g style="fill:#262626;" transform="translate(33.091458 213.51511)scale(0.088 -0.088)">
       <use xlink:href="#DejaVuSans-8722"/>
       <use x="83.789062" xlink:href="#DejaVuSans-54"/>
      </g>
     </g>
    </g>
    <g id="ytick_3">
     <g id="line2d_9">
      <path clip-path="url(#p29d1e797bf)" d="M 54.364583 149.763926 
L 355.71445 149.763926 
" style="fill:none;stroke:#cccccc;stroke-linecap:round;stroke-width:0.8;"/>
     </g>
     <g id="text_10">
      <!-- −4 -->
      <g style="fill:#262626;" transform="translate(33.091458 153.107238)scale(0.088 -0.088)">
       <use xlink:href="#DejaVuSans-8722"/>
       <use x="83.789062" xlink:href="#DejaVuSans-52"/>
      </g>
     </g>
    </g>
    <g id="ytick_4">
     <g id="line2d_10">
      <path clip-path="url(#p29d1e797bf)" d="M 54.364583 89.356054 
L 355.71445 89.356054 
" style="fill:none;stroke:#cccccc;stroke-linecap:round;stroke-width:0.8;"/>
     </g>
     <g id="text_11">
      <!-- −2 -->
      <g style="fill:#262626;" transform="translate(33.091458 92.699366)scale(0.088 -0.088)">
       <use xlink:href="#DejaVuSans-8722"/>
       <use x="83.789062" xlink:href="#DejaVuSans-50"/>
      </g>
     </g>
    </g>
    <g id="ytick_5">
     <g id="line2d_11">
      <path clip-path="url(#p29d1e797bf)" d="M 54.364583 28.948182 
L 355.71445 28.948182 
" style="fill:none;stroke:#cccccc;stroke-linecap:round;stroke-width:0.8;"/>
     </g>
     <g id="text_12">
      <!-- 0 -->
      <g style="fill:#262626;" transform="translate(40.465583 32.291494)scale(0.088 -0.088)">
       <use xlink:href="#DejaVuSans-48"/>
      </g>
     </g>
    </g>
    <g id="text_13">
     <!-- Reinforcement -->
     <defs>
      <path d="M 44.390625 34.1875 
Q 47.5625 33.109375 50.5625 29.59375 
Q 53.5625 26.078125 56.59375 19.921875 
L 66.609375 0 
L 56 0 
L 46.6875 18.703125 
Q 43.0625 26.03125 39.671875 28.421875 
Q 36.28125 30.8125 30.421875 30.8125 
L 19.671875 30.8125 
L 19.671875 0 
L 9.8125 0 
L 9.8125 72.90625 
L 32.078125 72.90625 
Q 44.578125 72.90625 50.734375 67.671875 
Q 56.890625 62.453125 56.890625 51.90625 
Q 56.890625 45.015625 53.6875 40.46875 
Q 50.484375 35.9375 44.390625 34.1875 
z
M 19.671875 64.796875 
L 19.671875 38.921875 
L 32.078125 38.921875 
Q 39.203125 38.921875 42.84375 42.21875 
Q 46.484375 45.515625 46.484375 51.90625 
Q 46.484375 58.296875 42.84375 61.546875 
Q 39.203125 64.796875 32.078125 64.796875 
z
" id="DejaVuSans-82"/>
      <path d="M 9.421875 54.6875 
L 18.40625 54.6875 
L 18.40625 0 
L 9.421875 0 
z
M 9.421875 75.984375 
L 18.40625 75.984375 
L 18.40625 64.59375 
L 9.421875 64.59375 
z
" id="DejaVuSans-105"/>
      <path d="M 54.890625 33.015625 
L 54.890625 0 
L 45.90625 0 
L 45.90625 32.71875 
Q 45.90625 40.484375 42.875 44.328125 
Q 39.84375 48.1875 33.796875 48.1875 
Q 26.515625 48.1875 22.3125 43.546875 
Q 18.109375 38.921875 18.109375 30.90625 
L 18.109375 0 
L 9.078125 0 
L 9.078125 54.6875 
L 18.109375 54.6875 
L 18.109375 46.1875 
Q 21.34375 51.125 25.703125 53.5625 
Q 30.078125 56 35.796875 56 
Q 45.21875 56 50.046875 50.171875 
Q 54.890625 44.34375 54.890625 33.015625 
z
" id="DejaVuSans-110"/>
      <path d="M 37.109375 75.984375 
L 37.109375 68.5 
L 28.515625 68.5 
Q 23.6875 68.5 21.796875 66.546875 
Q 19.921875 64.59375 19.921875 59.515625 
L 19.921875 54.6875 
L 34.71875 54.6875 
L 34.71875 47.703125 
L 19.921875 47.703125 
L 19.921875 0 
L 10.890625 0 
L 10.890625 47.703125 
L 2.296875 47.703125 
L 2.296875 54.6875 
L 10.890625 54.6875 
L 10.890625 58.5 
Q 10.890625 67.625 15.140625 71.796875 
Q 19.390625 75.984375 28.609375 75.984375 
z
" id="DejaVuSans-102"/>
      <path d="M 30.609375 48.390625 
Q 23.390625 48.390625 19.1875 42.75 
Q 14.984375 37.109375 14.984375 27.296875 
Q 14.984375 17.484375 19.15625 11.84375 
Q 23.34375 6.203125 30.609375 6.203125 
Q 37.796875 6.203125 41.984375 11.859375 
Q 46.1875 17.53125 46.1875 27.296875 
Q 46.1875 37.015625 41.984375 42.703125 
Q 37.796875 48.390625 30.609375 48.390625 
z
M 30.609375 56 
Q 42.328125 56 49.015625 48.375 
Q 55.71875 40.765625 55.71875 27.296875 
Q 55.71875 13.875 49.015625 6.21875 
Q 42.328125 -1.421875 30.609375 -1.421875 
Q 18.84375 -1.421875 12.171875 6.21875 
Q 5.515625 13.875 5.515625 27.296875 
Q 5.515625 40.765625 12.171875 48.375 
Q 18.84375 56 30.609375 56 
z
" id="DejaVuSans-111"/>
      <path d="M 41.109375 46.296875 
Q 39.59375 47.171875 37.8125 47.578125 
Q 36.03125 48 33.890625 48 
Q 26.265625 48 22.1875 43.046875 
Q 18.109375 38.09375 18.109375 28.8125 
L 18.109375 0 
L 9.078125 0 
L 9.078125 54.6875 
L 18.109375 54.6875 
L 18.109375 46.1875 
Q 20.953125 51.171875 25.484375 53.578125 
Q 30.03125 56 36.53125 56 
Q 37.453125 56 38.578125 55.875 
Q 39.703125 55.765625 41.0625 55.515625 
z
" id="DejaVuSans-114"/>
      <path d="M 48.78125 52.59375 
L 48.78125 44.1875 
Q 44.96875 46.296875 41.140625 47.34375 
Q 37.3125 48.390625 33.40625 48.390625 
Q 24.65625 48.390625 19.8125 42.84375 
Q 14.984375 37.3125 14.984375 27.296875 
Q 14.984375 17.28125 19.8125 11.734375 
Q 24.65625 6.203125 33.40625 6.203125 
Q 37.3125 6.203125 41.140625 7.25 
Q 44.96875 8.296875 48.78125 10.40625 
L 48.78125 2.09375 
Q 45.015625 0.34375 40.984375 -0.53125 
Q 36.96875 -1.421875 32.421875 -1.421875 
Q 20.0625 -1.421875 12.78125 6.34375 
Q 5.515625 14.109375 5.515625 27.296875 
Q 5.515625 40.671875 12.859375 48.328125 
Q 20.21875 56 33.015625 56 
Q 37.15625 56 41.109375 55.140625 
Q 45.0625 54.296875 48.78125 52.59375 
z
" id="DejaVuSans-99"/>
      <path d="M 52 44.1875 
Q 55.375 50.25 60.0625 53.125 
Q 64.75 56 71.09375 56 
Q 79.640625 56 84.28125 50.015625 
Q 88.921875 44.046875 88.921875 33.015625 
L 88.921875 0 
L 79.890625 0 
L 79.890625 32.71875 
Q 79.890625 40.578125 77.09375 44.375 
Q 74.3125 48.1875 68.609375 48.1875 
Q 61.625 48.1875 57.5625 43.546875 
Q 53.515625 38.921875 53.515625 30.90625 
L 53.515625 0 
L 44.484375 0 
L 44.484375 32.71875 
Q 44.484375 40.625 41.703125 44.40625 
Q 38.921875 48.1875 33.109375 48.1875 
Q 26.21875 48.1875 22.15625 43.53125 
Q 18.109375 38.875 18.109375 30.90625 
L 18.109375 0 
L 9.078125 0 
L 9.078125 54.6875 
L 18.109375 54.6875 
L 18.109375 46.1875 
Q 21.1875 51.21875 25.484375 53.609375 
Q 29.78125 56 35.6875 56 
Q 41.65625 56 45.828125 52.96875 
Q 50 49.953125 52 44.1875 
z
" id="DejaVuSans-109"/>
     </defs>
     <g style="fill:#262626;" transform="translate(27.094958 202.15525)rotate(-90)scale(0.096 -0.096)">
      <use xlink:href="#DejaVuSans-82"/>
      <use x="69.419922" xlink:href="#DejaVuSans-101"/>
      <use x="130.943359" xlink:href="#DejaVuSans-105"/>
      <use x="158.726562" xlink:href="#DejaVuSans-110"/>
      <use x="222.105469" xlink:href="#DejaVuSans-102"/>
      <use x="257.310547" xlink:href="#DejaVuSans-111"/>
      <use x="318.492188" xlink:href="#DejaVuSans-114"/>
      <use x="359.574219" xlink:href="#DejaVuSans-99"/>
      <use x="414.554688" xlink:href="#DejaVuSans-101"/>
      <use x="476.078125" xlink:href="#DejaVuSans-109"/>
      <use x="573.490234" xlink:href="#DejaVuSans-101"/>
      <use x="635.013672" xlink:href="#DejaVuSans-110"/>
      <use x="698.392578" xlink:href="#DejaVuSans-116"/>
     </g>
    </g>
   </g>
   <g id="line2d_12">
    <path clip-path="url(#p29d1e797bf)" d="M 68.062304 28.948182 
L 70.82952 133.983922 
L 73.596737 136.664897 
L 76.363953 143.879556 
L 79.13117 155.381896 
L 81.898386 168.52956 
L 84.665602 183.8461 
L 87.432819 201.619899 
L 90.200035 219.993792 
L 92.967252 239.946571 
L 95.734468 250.090364 
L 98.501684 250.561356 
L 101.268901 247.89521 
L 104.036117 241.901004 
L 106.803334 237.194478 
L 109.57055 235.217254 
L 112.337766 227.751328 
L 115.104983 216.48931 
L 117.872199 204.662308 
L 120.639416 194.685144 
L 123.406632 186.35861 
L 126.173849 178.962812 
L 128.941065 176.045956 
L 131.708281 178.160984 
L 134.475498 183.361382 
L 137.242714 191.84312 
L 140.009931 203.857327 
L 142.777147 215.169218 
L 145.544363 224.649342 
L 148.31158 232.537065 
L 151.078796 240.283901 
L 153.846013 244.303585 
L 156.613229 248.093314 
L 159.380445 251.753609 
L 162.147662 253.900245 
L 164.914878 255.33034 
L 167.682095 248.268889 
L 170.449311 235.997575 
L 173.216528 225.344643 
L 175.983744 219.082544 
L 178.75096 214.418519 
L 181.518177 211.210643 
L 184.285393 210.255537 
L 187.05261 213.06777 
L 189.819826 219.0438 
L 192.587042 227.016226 
L 195.354259 233.109096 
L 198.121475 239.053509 
L 200.888692 245.667845 
L 203.655908 250.543075 
L 206.423125 250.130274 
L 209.190341 249.618224 
L 211.957557 250.614741 
L 214.724774 250.032181 
L 217.49199 246.045117 
L 220.259207 242.472399 
L 223.026423 238.367736 
L 225.793639 234.220304 
L 228.560856 229.940641 
L 231.328072 227.568222 
L 234.095289 226.974528 
L 236.862505 225.897571 
L 239.629721 224.435596 
L 242.396938 222.503997 
L 245.164154 222.518004 
L 247.931371 223.256803 
L 250.698587 223.743802 
L 253.465804 226.413572 
L 256.23302 232.568324 
L 259.000236 237.245222 
L 261.767453 239.906409 
L 264.534669 241.84022 
L 267.301886 243.410976 
L 270.069102 244.721228 
L 272.836318 244.364243 
L 275.603535 237.559378 
L 278.370751 229.160707 
L 281.137968 222.637938 
L 283.905184 218.40031 
L 286.6724 213.605748 
L 289.439617 211.792846 
L 292.206833 210.272253 
L 294.97405 212.161817 
L 297.741266 218.007106 
L 300.508483 226.956307 
L 303.275699 238.069548 
L 306.042915 247.142382 
L 308.810132 254.214357 
L 311.577348 254.99996 
L 314.344565 253.979757 
L 317.111781 253.693043 
L 319.878997 254.085396 
L 322.646214 251.434215 
L 325.41343 249.757407 
L 328.180647 245.784793 
L 330.947863 241.495588 
L 333.71508 238.559724 
L 336.482296 238.018752 
L 339.249512 236.737728 
L 342.016729 235.535567 
" style="fill:none;stroke:#4c72b0;stroke-linecap:round;stroke-width:1.2;"/>
   </g>
   <g id="line2d_13">
    <path clip-path="url(#p29d1e797bf)" d="M 68.062304 28.948182 
L 70.82952 154.264479 
L 73.596737 157.880092 
L 76.363953 167.487738 
L 79.13117 181.10344 
L 81.898386 198.299077 
L 84.665602 215.995316 
L 87.432819 236.926049 
L 90.200035 256.352443 
L 92.967252 267.211107 
L 95.734468 273.309751 
L 98.501684 269.859964 
L 101.268901 264.168587 
L 104.036117 257.700979 
L 106.803334 247.664271 
L 109.57055 234.595531 
L 112.337766 221.693343 
L 115.104983 208.99003 
L 117.872199 196.502531 
L 120.639416 186.162198 
L 123.406632 177.254902 
L 126.173849 171.48295 
L 128.941065 165.283896 
L 131.708281 163.590869 
L 134.475498 165.836904 
L 137.242714 171.202093 
L 140.009931 180.416173 
L 142.777147 193.545848 
L 145.544363 203.98254 
L 148.31158 214.862788 
L 151.078796 223.632917 
L 153.846013 230.489425 
L 156.613229 235.039675 
L 159.380445 239.625899 
L 162.147662 239.911131 
L 164.914878 236.30993 
L 167.682095 227.713489 
L 170.449311 219.327257 
L 173.216528 213.151497 
L 175.983744 209.396786 
L 178.75096 209.305388 
L 181.518177 210.754162 
L 184.285393 212.899455 
L 187.05261 214.649317 
L 189.819826 217.669197 
L 192.587042 218.181027 
L 195.354259 219.710574 
L 198.121475 223.390692 
L 200.888692 227.560012 
L 203.655908 236.11139 
L 206.423125 238.679965 
L 209.190341 237.147219 
L 211.957557 234.929068 
L 214.724774 232.646494 
L 217.49199 228.426743 
L 220.259207 222.798873 
L 223.026423 218.03786 
L 225.793639 212.093712 
L 228.560856 203.775656 
L 231.328072 195.931206 
L 234.095289 191.511323 
L 236.862505 190.241708 
L 239.629721 191.234568 
L 242.396938 194.325724 
L 245.164154 199.88365 
L 247.931371 205.233894 
L 250.698587 211.346797 
L 253.465804 219.132947 
L 256.23302 223.078699 
L 259.000236 227.741836 
L 261.767453 232.609218 
L 264.534669 236.426709 
L 267.301886 243.665623 
L 270.069102 246.644528 
L 272.836318 248.459851 
L 275.603535 250.848894 
L 278.370751 245.444859 
L 281.137968 239.74205 
L 283.905184 237.11498 
L 286.6724 233.022174 
L 289.439617 226.874487 
L 292.206833 221.556806 
L 294.97405 217.516857 
L 297.741266 212.251738 
L 300.508483 209.630512 
L 303.275699 207.641205 
L 306.042915 207.612658 
L 308.810132 209.436288 
L 311.577348 212.498764 
L 314.344565 215.330492 
L 317.111781 212.46561 
L 319.878997 212.585533 
L 322.646214 212.639424 
L 325.41343 210.261565 
L 328.180647 208.826758 
L 330.947863 209.502792 
L 333.71508 212.331295 
L 336.482296 212.05109 
L 339.249512 210.81477 
L 342.016729 207.965017 
" style="fill:none;stroke:#dd8452;stroke-linecap:round;stroke-width:1.2;"/>
   </g>
   <g id="line2d_14">
    <path clip-path="url(#p29d1e797bf)" d="M 68.062304 28.948182 
L 70.82952 138.964925 
L 73.596737 142.470798 
L 76.363953 151.60001 
L 79.13117 166.734635 
L 81.898386 187.440572 
L 84.665602 212.921464 
L 87.432819 238.784728 
L 90.200035 255.999849 
L 92.967252 266.793625 
L 95.734468 276.923509 
L 98.501684 280.264724 
L 101.268901 271.351659 
L 104.036117 257.489257 
L 106.803334 242.329793 
L 109.57055 227.358994 
L 112.337766 216.778601 
L 115.104983 208.436525 
L 117.872199 202.782801 
L 120.639416 198.284975 
L 123.406632 192.754368 
L 126.173849 190.992136 
L 128.941065 189.869665 
L 131.708281 186.164429 
L 134.475498 183.738831 
L 137.242714 182.151334 
L 140.009931 181.945422 
L 142.777147 183.641467 
L 145.544363 187.747998 
L 148.31158 194.40405 
L 151.078796 203.805354 
L 153.846013 215.775012 
L 156.613229 225.922839 
L 159.380445 236.765568 
L 162.147662 243.476401 
L 164.914878 243.282991 
L 167.682095 240.997041 
L 170.449311 239.879132 
L 173.216528 240.264815 
L 175.983744 241.315328 
L 178.75096 235.361317 
L 181.518177 232.353044 
L 184.285393 233.139782 
L 187.05261 234.963285 
L 189.819826 240.807869 
L 192.587042 245.036673 
L 195.354259 249.985487 
L 198.121475 253.764815 
L 200.888692 253.940822 
L 203.655908 254.038165 
L 206.423125 250.2813 
L 209.190341 246.40584 
L 211.957557 243.341704 
L 214.724774 240.092043 
L 217.49199 237.122375 
L 220.259207 234.872575 
L 223.026423 233.22376 
L 225.793639 230.205415 
L 228.560856 224.97136 
L 231.328072 218.721867 
L 234.095289 213.532087 
L 236.862505 209.969396 
L 239.629721 201.637552 
L 242.396938 193.066249 
L 245.164154 187.017861 
L 247.931371 184.112192 
L 250.698587 183.847537 
L 253.465804 186.521591 
L 256.23302 191.297859 
L 259.000236 199.084119 
L 261.767453 206.871219 
L 264.534669 211.146743 
L 267.301886 217.877816 
L 270.069102 226.903497 
L 272.836318 236.179393 
L 275.603535 240.538421 
L 278.370751 244.356388 
L 281.137968 248.154626 
L 283.905184 254.212767 
L 286.6724 259.230536 
L 289.439617 262.436519 
L 292.206833 264.528341 
L 294.97405 262.529309 
L 297.741266 257.690315 
L 300.508483 252.087788 
L 303.275699 248.417389 
L 306.042915 245.849043 
L 308.810132 241.489918 
L 311.577348 237.129146 
L 314.344565 235.684103 
L 317.111781 235.733664 
L 319.878997 239.331621 
L 322.646214 244.758728 
L 325.41343 244.658462 
L 328.180647 243.507776 
L 330.947863 242.007411 
L 333.71508 238.728327 
L 336.482296 231.929217 
L 339.249512 224.919318 
L 342.016729 217.761767 
" style="fill:none;stroke:#55a868;stroke-linecap:round;stroke-width:1.2;"/>
   </g>
   <g id="line2d_15">
    <path clip-path="url(#p29d1e797bf)" d="M 68.062304 28.948182 
L 70.82952 121.285132 
L 73.596737 123.475581 
L 76.363953 129.874974 
L 79.13117 140.838917 
L 81.898386 156.712617 
L 84.665602 177.751488 
L 87.432819 203.623971 
L 90.200035 233.247413 
L 92.967252 267.582822 
L 95.734468 288.846179 
L 98.501684 304.551818 
L 101.268901 300.542718 
L 104.036117 289.374704 
L 106.803334 273.196271 
L 109.57055 255.555497 
L 112.337766 234.918532 
L 115.104983 212.318776 
L 117.872199 192.134732 
L 120.639416 179.972864 
L 123.406632 173.488428 
L 126.173849 172.069126 
L 128.941065 171.672677 
L 131.708281 175.793152 
L 134.475498 184.348661 
L 137.242714 194.52551 
L 140.009931 205.707101 
L 142.777147 213.956194 
L 145.544363 220.146584 
L 148.31158 224.884567 
L 151.078796 227.553526 
L 153.846013 217.774564 
L 156.613229 212.132833 
L 159.380445 210.721076 
L 162.147662 208.006032 
L 164.914878 200.19259 
L 167.682095 190.215478 
L 170.449311 184.617327 
L 173.216528 183.584009 
L 175.983744 187.358691 
L 178.75096 192.948281 
L 181.518177 190.306323 
L 184.285393 192.382995 
L 187.05261 194.907159 
L 189.819826 199.324657 
L 192.587042 209.453848 
L 195.354259 224.975851 
L 198.121475 243.944395 
L 200.888692 253.530944 
L 203.655908 252.883209 
L 206.423125 243.016466 
L 209.190341 227.622387 
L 211.957557 212.272228 
L 214.724774 202.059997 
L 217.49199 198.056046 
L 220.259207 200.969682 
L 223.026423 207.88207 
L 225.793639 216.771973 
L 228.560856 224.740724 
L 231.328072 219.265559 
L 234.095289 217.356004 
L 236.862505 213.565434 
L 239.629721 211.683899 
L 242.396938 212.217975 
L 245.164154 212.224578 
L 247.931371 214.339343 
L 250.698587 211.502991 
L 253.465804 200.376247 
L 256.23302 192.448233 
L 259.000236 188.915233 
L 261.767453 191.604951 
L 264.534669 195.935727 
L 267.301886 201.326394 
L 270.069102 208.393279 
L 272.836318 222.248064 
L 275.603535 239.126934 
L 278.370751 243.297121 
L 281.137968 235.707555 
L 283.905184 227.236396 
L 286.6724 223.004881 
L 289.439617 214.288093 
L 292.206833 210.909736 
L 294.97405 210.663516 
L 297.741266 210.404445 
L 300.508483 210.972377 
L 303.275699 203.656459 
L 306.042915 193.616399 
L 308.810132 181.410436 
L 311.577348 173.568171 
L 314.344565 170.187724 
L 317.111781 172.494856 
L 319.878997 176.277892 
L 322.646214 184.192213 
L 325.41343 194.927349 
L 328.180647 204.583073 
L 330.947863 213.818826 
L 333.71508 221.695768 
L 336.482296 230.757634 
L 339.249512 245.60275 
L 342.016729 256.090778 
" style="fill:none;stroke:#c44e52;stroke-linecap:round;stroke-width:1.2;"/>
   </g>
   <g id="line2d_16"/>
   <g id="line2d_17"/>
   <g id="line2d_18"/>
   <g id="line2d_19"/>
   <g id="line2d_20"/>
   <g id="patch_3">
    <path d="M 54.364583 318.332 
L 54.364583 15.168 
" style="fill:none;stroke:#cccccc;stroke-linecap:square;stroke-linejoin:miter;"/>
   </g>
   <g id="patch_4">
    <path d="M 54.364583 318.332 
L 355.71445 318.332 
" style="fill:none;stroke:#cccccc;stroke-linecap:square;stroke-linejoin:miter;"/>
   </g>
   <g id="text_14">
    <!-- Mean Reinforcements for 25 100-Step Rollouts with Plan Length 25 -->
    <defs>
     <path d="M 9.8125 72.90625 
L 24.515625 72.90625 
L 43.109375 23.296875 
L 61.8125 72.90625 
L 76.515625 72.90625 
L 76.515625 0 
L 66.890625 0 
L 66.890625 64.015625 
L 48.09375 14.015625 
L 38.1875 14.015625 
L 19.390625 64.015625 
L 19.390625 0 
L 9.8125 0 
z
" id="DejaVuSans-77"/>
     <path d="M 34.28125 27.484375 
Q 23.390625 27.484375 19.1875 25 
Q 14.984375 22.515625 14.984375 16.5 
Q 14.984375 11.71875 18.140625 8.90625 
Q 21.296875 6.109375 26.703125 6.109375 
Q 34.1875 6.109375 38.703125 11.40625 
Q 43.21875 16.703125 43.21875 25.484375 
L 43.21875 27.484375 
z
M 52.203125 31.203125 
L 52.203125 0 
L 43.21875 0 
L 43.21875 8.296875 
Q 40.140625 3.328125 35.546875 0.953125 
Q 30.953125 -1.421875 24.3125 -1.421875 
Q 15.921875 -1.421875 10.953125 3.296875 
Q 6 8.015625 6 15.921875 
Q 6 25.140625 12.171875 29.828125 
Q 18.359375 34.515625 30.609375 34.515625 
L 43.21875 34.515625 
L 43.21875 35.40625 
Q 43.21875 41.609375 39.140625 45 
Q 35.0625 48.390625 27.6875 48.390625 
Q 23 48.390625 18.546875 47.265625 
Q 14.109375 46.140625 10.015625 43.890625 
L 10.015625 52.203125 
Q 14.9375 54.109375 19.578125 55.046875 
Q 24.21875 56 28.609375 56 
Q 40.484375 56 46.34375 49.84375 
Q 52.203125 43.703125 52.203125 31.203125 
z
" id="DejaVuSans-97"/>
     <path id="DejaVuSans-32"/>
     <path d="M 44.28125 53.078125 
L 44.28125 44.578125 
Q 40.484375 46.53125 36.375 47.5 
Q 32.28125 48.484375 27.875 48.484375 
Q 21.1875 48.484375 17.84375 46.4375 
Q 14.5 44.390625 14.5 40.28125 
Q 14.5 37.15625 16.890625 35.375 
Q 19.28125 33.59375 26.515625 31.984375 
L 29.59375 31.296875 
Q 39.15625 29.25 43.1875 25.515625 
Q 47.21875 21.78125 47.21875 15.09375 
Q 47.21875 7.46875 41.1875 3.015625 
Q 35.15625 -1.421875 24.609375 -1.421875 
Q 20.21875 -1.421875 15.453125 -0.5625 
Q 10.6875 0.296875 5.421875 2 
L 5.421875 11.28125 
Q 10.40625 8.6875 15.234375 7.390625 
Q 20.0625 6.109375 24.8125 6.109375 
Q 31.15625 6.109375 34.5625 8.28125 
Q 37.984375 10.453125 37.984375 14.40625 
Q 37.984375 18.0625 35.515625 20.015625 
Q 33.0625 21.96875 24.703125 23.78125 
L 21.578125 24.515625 
Q 13.234375 26.265625 9.515625 29.90625 
Q 5.8125 33.546875 5.8125 39.890625 
Q 5.8125 47.609375 11.28125 51.796875 
Q 16.75 56 26.8125 56 
Q 31.78125 56 36.171875 55.265625 
Q 40.578125 54.546875 44.28125 53.078125 
z
" id="DejaVuSans-115"/>
     <path d="M 10.796875 72.90625 
L 49.515625 72.90625 
L 49.515625 64.59375 
L 19.828125 64.59375 
L 19.828125 46.734375 
Q 21.96875 47.46875 24.109375 47.828125 
Q 26.265625 48.1875 28.421875 48.1875 
Q 40.625 48.1875 47.75 41.5 
Q 54.890625 34.8125 54.890625 23.390625 
Q 54.890625 11.625 47.5625 5.09375 
Q 40.234375 -1.421875 26.90625 -1.421875 
Q 22.3125 -1.421875 17.546875 -0.640625 
Q 12.796875 0.140625 7.71875 1.703125 
L 7.71875 11.625 
Q 12.109375 9.234375 16.796875 8.0625 
Q 21.484375 6.890625 26.703125 6.890625 
Q 35.15625 6.890625 40.078125 11.328125 
Q 45.015625 15.765625 45.015625 23.390625 
Q 45.015625 31 40.078125 35.4375 
Q 35.15625 39.890625 26.703125 39.890625 
Q 22.75 39.890625 18.8125 39.015625 
Q 14.890625 38.140625 10.796875 36.28125 
z
" id="DejaVuSans-53"/>
     <path d="M 4.890625 31.390625 
L 31.203125 31.390625 
L 31.203125 23.390625 
L 4.890625 23.390625 
z
" id="DejaVuSans-45"/>
     <path d="M 9.421875 75.984375 
L 18.40625 75.984375 
L 18.40625 0 
L 9.421875 0 
z
" id="DejaVuSans-108"/>
     <path d="M 8.5 21.578125 
L 8.5 54.6875 
L 17.484375 54.6875 
L 17.484375 21.921875 
Q 17.484375 14.15625 20.5 10.265625 
Q 23.53125 6.390625 29.59375 6.390625 
Q 36.859375 6.390625 41.078125 11.03125 
Q 45.3125 15.671875 45.3125 23.6875 
L 45.3125 54.6875 
L 54.296875 54.6875 
L 54.296875 0 
L 45.3125 0 
L 45.3125 8.40625 
Q 42.046875 3.421875 37.71875 1 
Q 33.40625 -1.421875 27.6875 -1.421875 
Q 18.265625 -1.421875 13.375 4.4375 
Q 8.5 10.296875 8.5 21.578125 
z
M 31.109375 56 
z
" id="DejaVuSans-117"/>
     <path d="M 4.203125 54.6875 
L 13.1875 54.6875 
L 24.421875 12.015625 
L 35.59375 54.6875 
L 46.1875 54.6875 
L 57.421875 12.015625 
L 68.609375 54.6875 
L 77.59375 54.6875 
L 63.28125 0 
L 52.6875 0 
L 40.921875 44.828125 
L 29.109375 0 
L 18.5 0 
z
" id="DejaVuSans-119"/>
     <path d="M 54.890625 33.015625 
L 54.890625 0 
L 45.90625 0 
L 45.90625 32.71875 
Q 45.90625 40.484375 42.875 44.328125 
Q 39.84375 48.1875 33.796875 48.1875 
Q 26.515625 48.1875 22.3125 43.546875 
Q 18.109375 38.921875 18.109375 30.90625 
L 18.109375 0 
L 9.078125 0 
L 9.078125 75.984375 
L 18.109375 75.984375 
L 18.109375 46.1875 
Q 21.34375 51.125 25.703125 53.5625 
Q 30.078125 56 35.796875 56 
Q 45.21875 56 50.046875 50.171875 
Q 54.890625 44.34375 54.890625 33.015625 
z
" id="DejaVuSans-104"/>
     <path d="M 19.671875 64.796875 
L 19.671875 37.40625 
L 32.078125 37.40625 
Q 38.96875 37.40625 42.71875 40.96875 
Q 46.484375 44.53125 46.484375 51.125 
Q 46.484375 57.671875 42.71875 61.234375 
Q 38.96875 64.796875 32.078125 64.796875 
z
M 9.8125 72.90625 
L 32.078125 72.90625 
Q 44.34375 72.90625 50.609375 67.359375 
Q 56.890625 61.8125 56.890625 51.125 
Q 56.890625 40.328125 50.609375 34.8125 
Q 44.34375 29.296875 32.078125 29.296875 
L 19.671875 29.296875 
L 19.671875 0 
L 9.8125 0 
z
" id="DejaVuSans-80"/>
     <path d="M 9.8125 72.90625 
L 19.671875 72.90625 
L 19.671875 8.296875 
L 55.171875 8.296875 
L 55.171875 0 
L 9.8125 0 
z
" id="DejaVuSans-76"/>
     <path d="M 45.40625 27.984375 
Q 45.40625 37.75 41.375 43.109375 
Q 37.359375 48.484375 30.078125 48.484375 
Q 22.859375 48.484375 18.828125 43.109375 
Q 14.796875 37.75 14.796875 27.984375 
Q 14.796875 18.265625 18.828125 12.890625 
Q 22.859375 7.515625 30.078125 7.515625 
Q 37.359375 7.515625 41.375 12.890625 
Q 45.40625 18.265625 45.40625 27.984375 
z
M 54.390625 6.78125 
Q 54.390625 -7.171875 48.1875 -13.984375 
Q 42 -20.796875 29.203125 -20.796875 
Q 24.46875 -20.796875 20.265625 -20.09375 
Q 16.0625 -19.390625 12.109375 -17.921875 
L 12.109375 -9.1875 
Q 16.0625 -11.328125 19.921875 -12.34375 
Q 23.78125 -13.375 27.78125 -13.375 
Q 36.625 -13.375 41.015625 -8.765625 
Q 45.40625 -4.15625 45.40625 5.171875 
L 45.40625 9.625 
Q 42.625 4.78125 38.28125 2.390625 
Q 33.9375 0 27.875 0 
Q 17.828125 0 11.671875 7.65625 
Q 5.515625 15.328125 5.515625 27.984375 
Q 5.515625 40.671875 11.671875 48.328125 
Q 17.828125 56 27.875 56 
Q 33.9375 56 38.28125 53.609375 
Q 42.625 51.21875 45.40625 46.390625 
L 45.40625 54.6875 
L 54.390625 54.6875 
z
" id="DejaVuSans-103"/>
    </defs>
    <g style="fill:#262626;" transform="translate(43.354516 9.168)scale(0.096 -0.096)">
     <use xlink:href="#DejaVuSans-77"/>
     <use x="86.279297" xlink:href="#DejaVuSans-101"/>
     <use x="147.802734" xlink:href="#DejaVuSans-97"/>
     <use x="209.082031" xlink:href="#DejaVuSans-110"/>
     <use x="272.460938" xlink:href="#DejaVuSans-32"/>
     <use x="304.248047" xlink:href="#DejaVuSans-82"/>
     <use x="373.667969" xlink:href="#DejaVuSans-101"/>
     <use x="435.191406" xlink:href="#DejaVuSans-105"/>
     <use x="462.974609" xlink:href="#DejaVuSans-110"/>
     <use x="526.353516" xlink:href="#DejaVuSans-102"/>
     <use x="561.558594" xlink:href="#DejaVuSans-111"/>
     <use x="622.740234" xlink:href="#DejaVuSans-114"/>
     <use x="663.822266" xlink:href="#DejaVuSans-99"/>
     <use x="718.802734" xlink:href="#DejaVuSans-101"/>
     <use x="780.326172" xlink:href="#DejaVuSans-109"/>
     <use x="877.738281" xlink:href="#DejaVuSans-101"/>
     <use x="939.261719" xlink:href="#DejaVuSans-110"/>
     <use x="1002.640625" xlink:href="#DejaVuSans-116"/>
     <use x="1041.849609" xlink:href="#DejaVuSans-115"/>
     <use x="1093.949219" xlink:href="#DejaVuSans-32"/>
     <use x="1125.736328" xlink:href="#DejaVuSans-102"/>
     <use x="1160.941406" xlink:href="#DejaVuSans-111"/>
     <use x="1222.123047" xlink:href="#DejaVuSans-114"/>
     <use x="1263.236328" xlink:href="#DejaVuSans-32"/>
     <use x="1295.023438" xlink:href="#DejaVuSans-50"/>
     <use x="1358.646484" xlink:href="#DejaVuSans-53"/>
     <use x="1422.269531" xlink:href="#DejaVuSans-32"/>
     <use x="1454.056641" xlink:href="#DejaVuSans-49"/>
     <use x="1517.679688" xlink:href="#DejaVuSans-48"/>
     <use x="1581.302734" xlink:href="#DejaVuSans-48"/>
     <use x="1644.925781" xlink:href="#DejaVuSans-45"/>
     <use x="1681.009766" xlink:href="#DejaVuSans-83"/>
     <use x="1744.486328" xlink:href="#DejaVuSans-116"/>
     <use x="1783.695312" xlink:href="#DejaVuSans-101"/>
     <use x="1845.21875" xlink:href="#DejaVuSans-112"/>
     <use x="1908.695312" xlink:href="#DejaVuSans-32"/>
     <use x="1940.482422" xlink:href="#DejaVuSans-82"/>
     <use x="2009.902344" xlink:href="#DejaVuSans-111"/>
     <use x="2071.083984" xlink:href="#DejaVuSans-108"/>
     <use x="2098.867188" xlink:href="#DejaVuSans-108"/>
     <use x="2126.650391" xlink:href="#DejaVuSans-111"/>
     <use x="2187.832031" xlink:href="#DejaVuSans-117"/>
     <use x="2251.210938" xlink:href="#DejaVuSans-116"/>
     <use x="2290.419922" xlink:href="#DejaVuSans-115"/>
     <use x="2342.519531" xlink:href="#DejaVuSans-32"/>
     <use x="2374.306641" xlink:href="#DejaVuSans-119"/>
     <use x="2456.09375" xlink:href="#DejaVuSans-105"/>
     <use x="2483.876953" xlink:href="#DejaVuSans-116"/>
     <use x="2523.085938" xlink:href="#DejaVuSans-104"/>
     <use x="2586.464844" xlink:href="#DejaVuSans-32"/>
     <use x="2618.251953" xlink:href="#DejaVuSans-80"/>
     <use x="2678.554688" xlink:href="#DejaVuSans-108"/>
     <use x="2706.337891" xlink:href="#DejaVuSans-97"/>
     <use x="2767.617188" xlink:href="#DejaVuSans-110"/>
     <use x="2830.996094" xlink:href="#DejaVuSans-32"/>
     <use x="2862.783203" xlink:href="#DejaVuSans-76"/>
     <use x="2918.480469" xlink:href="#DejaVuSans-101"/>
     <use x="2980.003906" xlink:href="#DejaVuSans-110"/>
     <use x="3043.382812" xlink:href="#DejaVuSans-103"/>
     <use x="3106.859375" xlink:href="#DejaVuSans-116"/>
     <use x="3146.068359" xlink:href="#DejaVuSans-104"/>
     <use x="3209.447266" xlink:href="#DejaVuSans-32"/>
     <use x="3241.234375" xlink:href="#DejaVuSans-50"/>
     <use x="3304.857422" xlink:href="#DejaVuSans-53"/>
    </g>
   </g>
  </g>
  <g id="legend_1">
   <g id="line2d_21">
    <path d="M 359.29075 153.51475 
L 376.89075 153.51475 
" style="fill:none;"/>
   </g>
   <g id="line2d_22"/>
   <g id="text_15">
    <!-- strategy -->
    <defs>
     <path d="M 32.171875 -5.078125 
Q 28.375 -14.84375 24.75 -17.8125 
Q 21.140625 -20.796875 15.09375 -20.796875 
L 7.90625 -20.796875 
L 7.90625 -13.28125 
L 13.1875 -13.28125 
Q 16.890625 -13.28125 18.9375 -11.515625 
Q 21 -9.765625 23.484375 -3.21875 
L 25.09375 0.875 
L 2.984375 54.6875 
L 12.5 54.6875 
L 29.59375 11.921875 
L 46.6875 54.6875 
L 56.203125 54.6875 
z
" id="DejaVuSans-121"/>
    </defs>
    <g style="fill:#262626;" transform="translate(383.93075 156.59475)scale(0.088 -0.088)">
     <use xlink:href="#DejaVuSans-115"/>
     <use x="52.099609" xlink:href="#DejaVuSans-116"/>
     <use x="91.308594" xlink:href="#DejaVuSans-114"/>
     <use x="132.421875" xlink:href="#DejaVuSans-97"/>
     <use x="193.701172" xlink:href="#DejaVuSans-116"/>
     <use x="232.910156" xlink:href="#DejaVuSans-101"/>
     <use x="294.433594" xlink:href="#DejaVuSans-103"/>
     <use x="357.910156" xlink:href="#DejaVuSans-121"/>
    </g>
   </g>
   <g id="line2d_23">
    <path d="M 359.29075 166.4315 
L 376.89075 166.4315 
" style="fill:none;stroke:#4c72b0;stroke-linecap:round;stroke-width:1.2;"/>
   </g>
   <g id="line2d_24"/>
   <g id="text_16">
    <!-- none -->
    <g style="fill:#262626;" transform="translate(383.93075 169.5115)scale(0.088 -0.088)">
     <use xlink:href="#DejaVuSans-110"/>
     <use x="63.378906" xlink:href="#DejaVuSans-111"/>
     <use x="124.560547" xlink:href="#DejaVuSans-110"/>
     <use x="187.939453" xlink:href="#DejaVuSans-101"/>
    </g>
   </g>
   <g id="line2d_25">
    <path d="M 359.29075 179.34825 
L 376.89075 179.34825 
" style="fill:none;stroke:#dd8452;stroke-linecap:round;stroke-width:1.2;"/>
   </g>
   <g id="line2d_26"/>
   <g id="text_17">
    <!-- first -->
    <g style="fill:#262626;" transform="translate(383.93075 182.42825)scale(0.088 -0.088)">
     <use xlink:href="#DejaVuSans-102"/>
     <use x="35.205078" xlink:href="#DejaVuSans-105"/>
     <use x="62.988281" xlink:href="#DejaVuSans-114"/>
     <use x="104.101562" xlink:href="#DejaVuSans-115"/>
     <use x="156.201172" xlink:href="#DejaVuSans-116"/>
    </g>
   </g>
   <g id="line2d_27">
    <path d="M 359.29075 192.265 
L 376.89075 192.265 
" style="fill:none;stroke:#55a868;stroke-linecap:round;stroke-width:1.2;"/>
   </g>
   <g id="line2d_28"/>
   <g id="text_18">
    <!-- last -->
    <g style="fill:#262626;" transform="translate(383.93075 195.345)scale(0.088 -0.088)">
     <use xlink:href="#DejaVuSans-108"/>
     <use x="27.783203" xlink:href="#DejaVuSans-97"/>
     <use x="89.0625" xlink:href="#DejaVuSans-115"/>
     <use x="141.162109" xlink:href="#DejaVuSans-116"/>
    </g>
   </g>
   <g id="line2d_29">
    <path d="M 359.29075 205.18175 
L 376.89075 205.18175 
" style="fill:none;stroke:#c44e52;stroke-linecap:round;stroke-width:1.2;"/>
   </g>
   <g id="line2d_30"/>
   <g id="text_19">
    <!-- random -->
    <defs>
     <path d="M 45.40625 46.390625 
L 45.40625 75.984375 
L 54.390625 75.984375 
L 54.390625 0 
L 45.40625 0 
L 45.40625 8.203125 
Q 42.578125 3.328125 38.25 0.953125 
Q 33.9375 -1.421875 27.875 -1.421875 
Q 17.96875 -1.421875 11.734375 6.484375 
Q 5.515625 14.40625 5.515625 27.296875 
Q 5.515625 40.1875 11.734375 48.09375 
Q 17.96875 56 27.875 56 
Q 33.9375 56 38.25 53.625 
Q 42.578125 51.265625 45.40625 46.390625 
z
M 14.796875 27.296875 
Q 14.796875 17.390625 18.875 11.75 
Q 22.953125 6.109375 30.078125 6.109375 
Q 37.203125 6.109375 41.296875 11.75 
Q 45.40625 17.390625 45.40625 27.296875 
Q 45.40625 37.203125 41.296875 42.84375 
Q 37.203125 48.484375 30.078125 48.484375 
Q 22.953125 48.484375 18.875 42.84375 
Q 14.796875 37.203125 14.796875 27.296875 
z
" id="DejaVuSans-100"/>
    </defs>
    <g style="fill:#262626;" transform="translate(383.93075 208.26175)scale(0.088 -0.088)">
     <use xlink:href="#DejaVuSans-114"/>
     <use x="41.113281" xlink:href="#DejaVuSans-97"/>
     <use x="102.392578" xlink:href="#DejaVuSans-110"/>
     <use x="165.771484" xlink:href="#DejaVuSans-100"/>
     <use x="229.248047" xlink:href="#DejaVuSans-111"/>
     <use x="290.429688" xlink:href="#DejaVuSans-109"/>
    </g>
   </g>
  </g>
 </g>
 <defs>
  <clipPath id="p29d1e797bf">
   <rect height="303.164" width="301.349867" x="54.364583" y="15.168"/>
  </clipPath>
 </defs>
</svg>
