<?xml version="1.0" encoding="utf-8" standalone="no"?>
<!DOCTYPE svg PUBLIC "-//W3C//DTD SVG 1.1//EN"
  "http://www.w3.org/Graphics/SVG/1.1/DTD/svg11.dtd">
<!-- Created with matplotlib (https://matplotlib.org/) -->
<svg height="360pt" version="1.1" viewBox="0 0 428.555 360" width="428.555pt" xmlns="http://www.w3.org/2000/svg" xmlns:xlink="http://www.w3.org/1999/xlink">
 <defs>
  <style type="text/css">
*{stroke-linecap:butt;stroke-linejoin:round;}
  </style>
 </defs>
 <g id="figure_1">
  <g id="patch_1">
   <path d="M 0 360 
L 428.555 360 
L 428.555 0 
L 0 0 
z
" style="fill:#ffffff;"/>
  </g>
  <g id="axes_1">
   <g id="patch_2">
    <path d="M 69.35002 317.9 
L 355.71445 317.9 
L 355.71445 15.6 
L 69.35002 15.6 
z
" style="fill:#ffffff;"/>
   </g>
   <g id="matplotlib.axis_1">
    <g id="xtick_1">
     <g id="line2d_1">
      <path clip-path="url(#p2eb7b90fb6)" d="M 82.366585 317.9 
L 82.366585 15.6 
" style="fill:none;stroke:#cccccc;stroke-linecap:round;stroke-width:0.8;"/>
     </g>
     <g id="text_1">
      <!-- 0 -->
      <defs>
       <path d="M 31.78125 66.40625 
Q 24.171875 66.40625 20.328125 58.90625 
Q 16.5 51.421875 16.5 36.375 
Q 16.5 21.390625 20.328125 13.890625 
Q 24.171875 6.390625 31.78125 6.390625 
Q 39.453125 6.390625 43.28125 13.890625 
Q 47.125 21.390625 47.125 36.375 
Q 47.125 51.421875 43.28125 58.90625 
Q 39.453125 66.40625 31.78125 66.40625 
z
M 31.78125 74.21875 
Q 44.046875 74.21875 50.515625 64.515625 
Q 56.984375 54.828125 56.984375 36.375 
Q 56.984375 17.96875 50.515625 8.265625 
Q 44.046875 -1.421875 31.78125 -1.421875 
Q 19.53125 -1.421875 13.0625 8.265625 
Q 6.59375 17.96875 6.59375 36.375 
Q 6.59375 54.828125 13.0625 64.515625 
Q 19.53125 74.21875 31.78125 74.21875 
z
" id="DejaVuSans-48"/>
      </defs>
      <g style="fill:#262626;" transform="translate(79.567085 332.886625)scale(0.088 -0.088)">
       <use xlink:href="#DejaVuSans-48"/>
      </g>
     </g>
    </g>
    <g id="xtick_2">
     <g id="line2d_2">
      <path clip-path="url(#p2eb7b90fb6)" d="M 134.958767 317.9 
L 134.958767 15.6 
" style="fill:none;stroke:#cccccc;stroke-linecap:round;stroke-width:0.8;"/>
     </g>
     <g id="text_2">
      <!-- 20 -->
      <defs>
       <path d="M 19.1875 8.296875 
L 53.609375 8.296875 
L 53.609375 0 
L 7.328125 0 
L 7.328125 8.296875 
Q 12.9375 14.109375 22.625 23.890625 
Q 32.328125 33.6875 34.8125 36.53125 
Q 39.546875 41.84375 41.421875 45.53125 
Q 43.3125 49.21875 43.3125 52.78125 
Q 43.3125 58.59375 39.234375 62.25 
Q 35.15625 65.921875 28.609375 65.921875 
Q 23.96875 65.921875 18.8125 64.3125 
Q 13.671875 62.703125 7.8125 59.421875 
L 7.8125 69.390625 
Q 13.765625 71.78125 18.9375 73 
Q 24.125 74.21875 28.421875 74.21875 
Q 39.75 74.21875 46.484375 68.546875 
Q 53.21875 62.890625 53.21875 53.421875 
Q 53.21875 48.921875 51.53125 44.890625 
Q 49.859375 40.875 45.40625 35.40625 
Q 44.1875 33.984375 37.640625 27.21875 
Q 31.109375 20.453125 19.1875 8.296875 
z
" id="DejaVuSans-50"/>
      </defs>
      <g style="fill:#262626;" transform="translate(129.359767 332.886625)scale(0.088 -0.088)">
       <use xlink:href="#DejaVuSans-50"/>
       <use x="63.623047" xlink:href="#DejaVuSans-48"/>
      </g>
     </g>
    </g>
    <g id="xtick_3">
     <g id="line2d_3">
      <path clip-path="url(#p2eb7b90fb6)" d="M 187.550949 317.9 
L 187.550949 15.6 
" style="fill:none;stroke:#cccccc;stroke-linecap:round;stroke-width:0.8;"/>
     </g>
     <g id="text_3">
      <!-- 40 -->
      <defs>
       <path d="M 37.796875 64.3125 
L 12.890625 25.390625 
L 37.796875 25.390625 
z
M 35.203125 72.90625 
L 47.609375 72.90625 
L 47.609375 25.390625 
L 58.015625 25.390625 
L 58.015625 17.1875 
L 47.609375 17.1875 
L 47.609375 0 
L 37.796875 0 
L 37.796875 17.1875 
L 4.890625 17.1875 
L 4.890625 26.703125 
z
" id="DejaVuSans-52"/>
      </defs>
      <g style="fill:#262626;" transform="translate(181.951949 332.886625)scale(0.088 -0.088)">
       <use xlink:href="#DejaVuSans-52"/>
       <use x="63.623047" xlink:href="#DejaVuSans-48"/>
      </g>
     </g>
    </g>
    <g id="xtick_4">
     <g id="line2d_4">
      <path clip-path="url(#p2eb7b90fb6)" d="M 240.14313 317.9 
L 240.14313 15.6 
" style="fill:none;stroke:#cccccc;stroke-linecap:round;stroke-width:0.8;"/>
     </g>
     <g id="text_4">
      <!-- 60 -->
      <defs>
       <path d="M 33.015625 40.375 
Q 26.375 40.375 22.484375 35.828125 
Q 18.609375 31.296875 18.609375 23.390625 
Q 18.609375 15.53125 22.484375 10.953125 
Q 26.375 6.390625 33.015625 6.390625 
Q 39.65625 6.390625 43.53125 10.953125 
Q 47.40625 15.53125 47.40625 23.390625 
Q 47.40625 31.296875 43.53125 35.828125 
Q 39.65625 40.375 33.015625 40.375 
z
M 52.59375 71.296875 
L 52.59375 62.3125 
Q 48.875 64.0625 45.09375 64.984375 
Q 41.3125 65.921875 37.59375 65.921875 
Q 27.828125 65.921875 22.671875 59.328125 
Q 17.53125 52.734375 16.796875 39.40625 
Q 19.671875 43.65625 24.015625 45.921875 
Q 28.375 48.1875 33.59375 48.1875 
Q 44.578125 48.1875 50.953125 41.515625 
Q 57.328125 34.859375 57.328125 23.390625 
Q 57.328125 12.15625 50.6875 5.359375 
Q 44.046875 -1.421875 33.015625 -1.421875 
Q 20.359375 -1.421875 13.671875 8.265625 
Q 6.984375 17.96875 6.984375 36.375 
Q 6.984375 53.65625 15.1875 63.9375 
Q 23.390625 74.21875 37.203125 74.21875 
Q 40.921875 74.21875 44.703125 73.484375 
Q 48.484375 72.75 52.59375 71.296875 
z
" id="DejaVuSans-54"/>
      </defs>
      <g style="fill:#262626;" transform="translate(234.54413 332.886625)scale(0.088 -0.088)">
       <use xlink:href="#DejaVuSans-54"/>
       <use x="63.623047" xlink:href="#DejaVuSans-48"/>
      </g>
     </g>
    </g>
    <g id="xtick_5">
     <g id="line2d_5">
      <path clip-path="url(#p2eb7b90fb6)" d="M 292.735312 317.9 
L 292.735312 15.6 
" style="fill:none;stroke:#cccccc;stroke-linecap:round;stroke-width:0.8;"/>
     </g>
     <g id="text_5">
      <!-- 80 -->
      <defs>
       <path d="M 31.78125 34.625 
Q 24.75 34.625 20.71875 30.859375 
Q 16.703125 27.09375 16.703125 20.515625 
Q 16.703125 13.921875 20.71875 10.15625 
Q 24.75 6.390625 31.78125 6.390625 
Q 38.8125 6.390625 42.859375 10.171875 
Q 46.921875 13.96875 46.921875 20.515625 
Q 46.921875 27.09375 42.890625 30.859375 
Q 38.875 34.625 31.78125 34.625 
z
M 21.921875 38.8125 
Q 15.578125 40.375 12.03125 44.71875 
Q 8.5 49.078125 8.5 55.328125 
Q 8.5 64.0625 14.71875 69.140625 
Q 20.953125 74.21875 31.78125 74.21875 
Q 42.671875 74.21875 48.875 69.140625 
Q 55.078125 64.0625 55.078125 55.328125 
Q 55.078125 49.078125 51.53125 44.71875 
Q 48 40.375 41.703125 38.8125 
Q 48.828125 37.15625 52.796875 32.3125 
Q 56.78125 27.484375 56.78125 20.515625 
Q 56.78125 9.90625 50.3125 4.234375 
Q 43.84375 -1.421875 31.78125 -1.421875 
Q 19.734375 -1.421875 13.25 4.234375 
Q 6.78125 9.90625 6.78125 20.515625 
Q 6.78125 27.484375 10.78125 32.3125 
Q 14.796875 37.15625 21.921875 38.8125 
z
M 18.3125 54.390625 
Q 18.3125 48.734375 21.84375 45.5625 
Q 25.390625 42.390625 31.78125 42.390625 
Q 38.140625 42.390625 41.71875 45.5625 
Q 45.3125 48.734375 45.3125 54.390625 
Q 45.3125 60.0625 41.71875 63.234375 
Q 38.140625 66.40625 31.78125 66.40625 
Q 25.390625 66.40625 21.84375 63.234375 
Q 18.3125 60.0625 18.3125 54.390625 
z
" id="DejaVuSans-56"/>
      </defs>
      <g style="fill:#262626;" transform="translate(287.136312 332.886625)scale(0.088 -0.088)">
       <use xlink:href="#DejaVuSans-56"/>
       <use x="63.623047" xlink:href="#DejaVuSans-48"/>
      </g>
     </g>
    </g>
    <g id="xtick_6">
     <g id="line2d_6">
      <path clip-path="url(#p2eb7b90fb6)" d="M 345.327494 317.9 
L 345.327494 15.6 
" style="fill:none;stroke:#cccccc;stroke-linecap:round;stroke-width:0.8;"/>
     </g>
     <g id="text_6">
      <!-- 100 -->
      <defs>
       <path d="M 12.40625 8.296875 
L 28.515625 8.296875 
L 28.515625 63.921875 
L 10.984375 60.40625 
L 10.984375 69.390625 
L 28.421875 72.90625 
L 38.28125 72.90625 
L 38.28125 8.296875 
L 54.390625 8.296875 
L 54.390625 0 
L 12.40625 0 
z
" id="DejaVuSans-49"/>
      </defs>
      <g style="fill:#262626;" transform="translate(336.928994 332.886625)scale(0.088 -0.088)">
       <use xlink:href="#DejaVuSans-49"/>
       <use x="63.623047" xlink:href="#DejaVuSans-48"/>
       <use x="127.246094" xlink:href="#DejaVuSans-48"/>
      </g>
     </g>
    </g>
    <g id="text_7">
     <!-- Step -->
     <defs>
      <path d="M 53.515625 70.515625 
L 53.515625 60.890625 
Q 47.90625 63.578125 42.921875 64.890625 
Q 37.9375 66.21875 33.296875 66.21875 
Q 25.25 66.21875 20.875 63.09375 
Q 16.5 59.96875 16.5 54.203125 
Q 16.5 49.359375 19.40625 46.890625 
Q 22.3125 44.4375 30.421875 42.921875 
L 36.375 41.703125 
Q 47.40625 39.59375 52.65625 34.296875 
Q 57.90625 29 57.90625 20.125 
Q 57.90625 9.515625 50.796875 4.046875 
Q 43.703125 -1.421875 29.984375 -1.421875 
Q 24.8125 -1.421875 18.96875 -0.25 
Q 13.140625 0.921875 6.890625 3.21875 
L 6.890625 13.375 
Q 12.890625 10.015625 18.65625 8.296875 
Q 24.421875 6.59375 29.984375 6.59375 
Q 38.421875 6.59375 43.015625 9.90625 
Q 47.609375 13.234375 47.609375 19.390625 
Q 47.609375 24.75 44.3125 27.78125 
Q 41.015625 30.8125 33.5 32.328125 
L 27.484375 33.5 
Q 16.453125 35.6875 11.515625 40.375 
Q 6.59375 45.0625 6.59375 53.421875 
Q 6.59375 63.09375 13.40625 68.65625 
Q 20.21875 74.21875 32.171875 74.21875 
Q 37.3125 74.21875 42.625 73.28125 
Q 47.953125 72.359375 53.515625 70.515625 
z
" id="DejaVuSans-83"/>
      <path d="M 18.3125 70.21875 
L 18.3125 54.6875 
L 36.8125 54.6875 
L 36.8125 47.703125 
L 18.3125 47.703125 
L 18.3125 18.015625 
Q 18.3125 11.328125 20.140625 9.421875 
Q 21.96875 7.515625 27.59375 7.515625 
L 36.8125 7.515625 
L 36.8125 0 
L 27.59375 0 
Q 17.1875 0 13.234375 3.875 
Q 9.28125 7.765625 9.28125 18.015625 
L 9.28125 47.703125 
L 2.6875 47.703125 
L 2.6875 54.6875 
L 9.28125 54.6875 
L 9.28125 70.21875 
z
" id="DejaVuSans-116"/>
      <path d="M 56.203125 29.59375 
L 56.203125 25.203125 
L 14.890625 25.203125 
Q 15.484375 15.921875 20.484375 11.0625 
Q 25.484375 6.203125 34.421875 6.203125 
Q 39.59375 6.203125 44.453125 7.46875 
Q 49.3125 8.734375 54.109375 11.28125 
L 54.109375 2.78125 
Q 49.265625 0.734375 44.1875 -0.34375 
Q 39.109375 -1.421875 33.890625 -1.421875 
Q 20.796875 -1.421875 13.15625 6.1875 
Q 5.515625 13.8125 5.515625 26.8125 
Q 5.515625 40.234375 12.765625 48.109375 
Q 20.015625 56 32.328125 56 
Q 43.359375 56 49.78125 48.890625 
Q 56.203125 41.796875 56.203125 29.59375 
z
M 47.21875 32.234375 
Q 47.125 39.59375 43.09375 43.984375 
Q 39.0625 48.390625 32.421875 48.390625 
Q 24.90625 48.390625 20.390625 44.140625 
Q 15.875 39.890625 15.1875 32.171875 
z
" id="DejaVuSans-101"/>
      <path d="M 18.109375 8.203125 
L 18.109375 -20.796875 
L 9.078125 -20.796875 
L 9.078125 54.6875 
L 18.109375 54.6875 
L 18.109375 46.390625 
Q 20.953125 51.265625 25.265625 53.625 
Q 29.59375 56 35.59375 56 
Q 45.5625 56 51.78125 48.09375 
Q 58.015625 40.1875 58.015625 27.296875 
Q 58.015625 14.40625 51.78125 6.484375 
Q 45.5625 -1.421875 35.59375 -1.421875 
Q 29.59375 -1.421875 25.265625 0.953125 
Q 20.953125 3.328125 18.109375 8.203125 
z
M 48.6875 27.296875 
Q 48.6875 37.203125 44.609375 42.84375 
Q 40.53125 48.484375 33.40625 48.484375 
Q 26.265625 48.484375 22.1875 42.84375 
Q 18.109375 37.203125 18.109375 27.296875 
Q 18.109375 17.390625 22.1875 11.75 
Q 26.265625 6.109375 33.40625 6.109375 
Q 40.53125 6.109375 44.609375 11.75 
Q 48.6875 17.390625 48.6875 27.296875 
z
" id="DejaVuSans-112"/>
     </defs>
     <g style="fill:#262626;" transform="translate(201.602485 346.01125)scale(0.096 -0.096)">
      <use xlink:href="#DejaVuSans-83"/>
      <use x="63.476562" xlink:href="#DejaVuSans-116"/>
      <use x="102.685547" xlink:href="#DejaVuSans-101"/>
      <use x="164.208984" xlink:href="#DejaVuSans-112"/>
     </g>
    </g>
   </g>
   <g id="matplotlib.axis_2">
    <g id="ytick_1">
     <g id="line2d_7">
      <path clip-path="url(#p2eb7b90fb6)" d="M 69.35002 309.466669 
L 355.71445 309.466669 
" style="fill:none;stroke:#cccccc;stroke-linecap:round;stroke-width:0.8;"/>
     </g>
     <g id="text_8">
      <!-- −700 -->
      <defs>
       <path d="M 10.59375 35.5 
L 73.1875 35.5 
L 73.1875 27.203125 
L 10.59375 27.203125 
z
" id="DejaVuSans-8722"/>
       <path d="M 8.203125 72.90625 
L 55.078125 72.90625 
L 55.078125 68.703125 
L 28.609375 0 
L 18.3125 0 
L 43.21875 64.59375 
L 8.203125 64.59375 
z
" id="DejaVuSans-55"/>
      </defs>
      <g style="fill:#262626;" transform="translate(36.878895 312.809982)scale(0.088 -0.088)">
       <use xlink:href="#DejaVuSans-8722"/>
       <use x="83.789062" xlink:href="#DejaVuSans-55"/>
       <use x="147.412109" xlink:href="#DejaVuSans-48"/>
       <use x="211.035156" xlink:href="#DejaVuSans-48"/>
      </g>
     </g>
    </g>
    <g id="ytick_2">
     <g id="line2d_8">
      <path clip-path="url(#p2eb7b90fb6)" d="M 69.35002 269.448703 
L 355.71445 269.448703 
" style="fill:none;stroke:#cccccc;stroke-linecap:round;stroke-width:0.8;"/>
     </g>
     <g id="text_9">
      <!-- −600 -->
      <g style="fill:#262626;" transform="translate(36.878895 272.792016)scale(0.088 -0.088)">
       <use xlink:href="#DejaVuSans-8722"/>
       <use x="83.789062" xlink:href="#DejaVuSans-54"/>
       <use x="147.412109" xlink:href="#DejaVuSans-48"/>
       <use x="211.035156" xlink:href="#DejaVuSans-48"/>
      </g>
     </g>
    </g>
    <g id="ytick_3">
     <g id="line2d_9">
      <path clip-path="url(#p2eb7b90fb6)" d="M 69.35002 229.430738 
L 355.71445 229.430738 
" style="fill:none;stroke:#cccccc;stroke-linecap:round;stroke-width:0.8;"/>
     </g>
     <g id="text_10">
      <!-- −500 -->
      <defs>
       <path d="M 10.796875 72.90625 
L 49.515625 72.90625 
L 49.515625 64.59375 
L 19.828125 64.59375 
L 19.828125 46.734375 
Q 21.96875 47.46875 24.109375 47.828125 
Q 26.265625 48.1875 28.421875 48.1875 
Q 40.625 48.1875 47.75 41.5 
Q 54.890625 34.8125 54.890625 23.390625 
Q 54.890625 11.625 47.5625 5.09375 
Q 40.234375 -1.421875 26.90625 -1.421875 
Q 22.3125 -1.421875 17.546875 -0.640625 
Q 12.796875 0.140625 7.71875 1.703125 
L 7.71875 11.625 
Q 12.109375 9.234375 16.796875 8.0625 
Q 21.484375 6.890625 26.703125 6.890625 
Q 35.15625 6.890625 40.078125 11.328125 
Q 45.015625 15.765625 45.015625 23.390625 
Q 45.015625 31 40.078125 35.4375 
Q 35.15625 39.890625 26.703125 39.890625 
Q 22.75 39.890625 18.8125 39.015625 
Q 14.890625 38.140625 10.796875 36.28125 
z
" id="DejaVuSans-53"/>
      </defs>
      <g style="fill:#262626;" transform="translate(36.878895 232.77405)scale(0.088 -0.088)">
       <use xlink:href="#DejaVuSans-8722"/>
       <use x="83.789062" xlink:href="#DejaVuSans-53"/>
       <use x="147.412109" xlink:href="#DejaVuSans-48"/>
       <use x="211.035156" xlink:href="#DejaVuSans-48"/>
      </g>
     </g>
    </g>
    <g id="ytick_4">
     <g id="line2d_10">
      <path clip-path="url(#p2eb7b90fb6)" d="M 69.35002 189.412772 
L 355.71445 189.412772 
" style="fill:none;stroke:#cccccc;stroke-linecap:round;stroke-width:0.8;"/>
     </g>
     <g id="text_11">
      <!-- −400 -->
      <g style="fill:#262626;" transform="translate(36.878895 192.756084)scale(0.088 -0.088)">
       <use xlink:href="#DejaVuSans-8722"/>
       <use x="83.789062" xlink:href="#DejaVuSans-52"/>
       <use x="147.412109" xlink:href="#DejaVuSans-48"/>
       <use x="211.035156" xlink:href="#DejaVuSans-48"/>
      </g>
     </g>
    </g>
    <g id="ytick_5">
     <g id="line2d_11">
      <path clip-path="url(#p2eb7b90fb6)" d="M 69.35002 149.394806 
L 355.71445 149.394806 
" style="fill:none;stroke:#cccccc;stroke-linecap:round;stroke-width:0.8;"/>
     </g>
     <g id="text_12">
      <!-- −300 -->
      <defs>
       <path d="M 40.578125 39.3125 
Q 47.65625 37.796875 51.625 33 
Q 55.609375 28.21875 55.609375 21.1875 
Q 55.609375 10.40625 48.1875 4.484375 
Q 40.765625 -1.421875 27.09375 -1.421875 
Q 22.515625 -1.421875 17.65625 -0.515625 
Q 12.796875 0.390625 7.625 2.203125 
L 7.625 11.71875 
Q 11.71875 9.328125 16.59375 8.109375 
Q 21.484375 6.890625 26.8125 6.890625 
Q 36.078125 6.890625 40.9375 10.546875 
Q 45.796875 14.203125 45.796875 21.1875 
Q 45.796875 27.640625 41.28125 31.265625 
Q 36.765625 34.90625 28.71875 34.90625 
L 20.21875 34.90625 
L 20.21875 43.015625 
L 29.109375 43.015625 
Q 36.375 43.015625 40.234375 45.921875 
Q 44.09375 48.828125 44.09375 54.296875 
Q 44.09375 59.90625 40.109375 62.90625 
Q 36.140625 65.921875 28.71875 65.921875 
Q 24.65625 65.921875 20.015625 65.03125 
Q 15.375 64.15625 9.8125 62.3125 
L 9.8125 71.09375 
Q 15.4375 72.65625 20.34375 73.4375 
Q 25.25 74.21875 29.59375 74.21875 
Q 40.828125 74.21875 47.359375 69.109375 
Q 53.90625 64.015625 53.90625 55.328125 
Q 53.90625 49.265625 50.4375 45.09375 
Q 46.96875 40.921875 40.578125 39.3125 
z
" id="DejaVuSans-51"/>
      </defs>
      <g style="fill:#262626;" transform="translate(36.878895 152.738119)scale(0.088 -0.088)">
       <use xlink:href="#DejaVuSans-8722"/>
       <use x="83.789062" xlink:href="#DejaVuSans-51"/>
       <use x="147.412109" xlink:href="#DejaVuSans-48"/>
       <use x="211.035156" xlink:href="#DejaVuSans-48"/>
      </g>
     </g>
    </g>
    <g id="ytick_6">
     <g id="line2d_12">
      <path clip-path="url(#p2eb7b90fb6)" d="M 69.35002 109.376841 
L 355.71445 109.376841 
" style="fill:none;stroke:#cccccc;stroke-linecap:round;stroke-width:0.8;"/>
     </g>
     <g id="text_13">
      <!-- −200 -->
      <g style="fill:#262626;" transform="translate(36.878895 112.720153)scale(0.088 -0.088)">
       <use xlink:href="#DejaVuSans-8722"/>
       <use x="83.789062" xlink:href="#DejaVuSans-50"/>
       <use x="147.412109" xlink:href="#DejaVuSans-48"/>
       <use x="211.035156" xlink:href="#DejaVuSans-48"/>
      </g>
     </g>
    </g>
    <g id="ytick_7">
     <g id="line2d_13">
      <path clip-path="url(#p2eb7b90fb6)" d="M 69.35002 69.358875 
L 355.71445 69.358875 
" style="fill:none;stroke:#cccccc;stroke-linecap:round;stroke-width:0.8;"/>
     </g>
     <g id="text_14">
      <!-- −100 -->
      <g style="fill:#262626;" transform="translate(36.878895 72.702187)scale(0.088 -0.088)">
       <use xlink:href="#DejaVuSans-8722"/>
       <use x="83.789062" xlink:href="#DejaVuSans-49"/>
       <use x="147.412109" xlink:href="#DejaVuSans-48"/>
       <use x="211.035156" xlink:href="#DejaVuSans-48"/>
      </g>
     </g>
    </g>
    <g id="ytick_8">
     <g id="line2d_14">
      <path clip-path="url(#p2eb7b90fb6)" d="M 69.35002 29.340909 
L 355.71445 29.340909 
" style="fill:none;stroke:#cccccc;stroke-linecap:round;stroke-width:0.8;"/>
     </g>
     <g id="text_15">
      <!-- 0 -->
      <g style="fill:#262626;" transform="translate(55.45102 32.684222)scale(0.088 -0.088)">
       <use xlink:href="#DejaVuSans-48"/>
      </g>
     </g>
    </g>
    <g id="text_16">
     <!-- Reinforcement -->
     <defs>
      <path d="M 44.390625 34.1875 
Q 47.5625 33.109375 50.5625 29.59375 
Q 53.5625 26.078125 56.59375 19.921875 
L 66.609375 0 
L 56 0 
L 46.6875 18.703125 
Q 43.0625 26.03125 39.671875 28.421875 
Q 36.28125 30.8125 30.421875 30.8125 
L 19.671875 30.8125 
L 19.671875 0 
L 9.8125 0 
L 9.8125 72.90625 
L 32.078125 72.90625 
Q 44.578125 72.90625 50.734375 67.671875 
Q 56.890625 62.453125 56.890625 51.90625 
Q 56.890625 45.015625 53.6875 40.46875 
Q 50.484375 35.9375 44.390625 34.1875 
z
M 19.671875 64.796875 
L 19.671875 38.921875 
L 32.078125 38.921875 
Q 39.203125 38.921875 42.84375 42.21875 
Q 46.484375 45.515625 46.484375 51.90625 
Q 46.484375 58.296875 42.84375 61.546875 
Q 39.203125 64.796875 32.078125 64.796875 
z
" id="DejaVuSans-82"/>
      <path d="M 9.421875 54.6875 
L 18.40625 54.6875 
L 18.40625 0 
L 9.421875 0 
z
M 9.421875 75.984375 
L 18.40625 75.984375 
L 18.40625 64.59375 
L 9.421875 64.59375 
z
" id="DejaVuSans-105"/>
      <path d="M 54.890625 33.015625 
L 54.890625 0 
L 45.90625 0 
L 45.90625 32.71875 
Q 45.90625 40.484375 42.875 44.328125 
Q 39.84375 48.1875 33.796875 48.1875 
Q 26.515625 48.1875 22.3125 43.546875 
Q 18.109375 38.921875 18.109375 30.90625 
L 18.109375 0 
L 9.078125 0 
L 9.078125 54.6875 
L 18.109375 54.6875 
L 18.109375 46.1875 
Q 21.34375 51.125 25.703125 53.5625 
Q 30.078125 56 35.796875 56 
Q 45.21875 56 50.046875 50.171875 
Q 54.890625 44.34375 54.890625 33.015625 
z
" id="DejaVuSans-110"/>
      <path d="M 37.109375 75.984375 
L 37.109375 68.5 
L 28.515625 68.5 
Q 23.6875 68.5 21.796875 66.546875 
Q 19.921875 64.59375 19.921875 59.515625 
L 19.921875 54.6875 
L 34.71875 54.6875 
L 34.71875 47.703125 
L 19.921875 47.703125 
L 19.921875 0 
L 10.890625 0 
L 10.890625 47.703125 
L 2.296875 47.703125 
L 2.296875 54.6875 
L 10.890625 54.6875 
L 10.890625 58.5 
Q 10.890625 67.625 15.140625 71.796875 
Q 19.390625 75.984375 28.609375 75.984375 
z
" id="DejaVuSans-102"/>
      <path d="M 30.609375 48.390625 
Q 23.390625 48.390625 19.1875 42.75 
Q 14.984375 37.109375 14.984375 27.296875 
Q 14.984375 17.484375 19.15625 11.84375 
Q 23.34375 6.203125 30.609375 6.203125 
Q 37.796875 6.203125 41.984375 11.859375 
Q 46.1875 17.53125 46.1875 27.296875 
Q 46.1875 37.015625 41.984375 42.703125 
Q 37.796875 48.390625 30.609375 48.390625 
z
M 30.609375 56 
Q 42.328125 56 49.015625 48.375 
Q 55.71875 40.765625 55.71875 27.296875 
Q 55.71875 13.875 49.015625 6.21875 
Q 42.328125 -1.421875 30.609375 -1.421875 
Q 18.84375 -1.421875 12.171875 6.21875 
Q 5.515625 13.875 5.515625 27.296875 
Q 5.515625 40.765625 12.171875 48.375 
Q 18.84375 56 30.609375 56 
z
" id="DejaVuSans-111"/>
      <path d="M 41.109375 46.296875 
Q 39.59375 47.171875 37.8125 47.578125 
Q 36.03125 48 33.890625 48 
Q 26.265625 48 22.1875 43.046875 
Q 18.109375 38.09375 18.109375 28.8125 
L 18.109375 0 
L 9.078125 0 
L 9.078125 54.6875 
L 18.109375 54.6875 
L 18.109375 46.1875 
Q 20.953125 51.171875 25.484375 53.578125 
Q 30.03125 56 36.53125 56 
Q 37.453125 56 38.578125 55.875 
Q 39.703125 55.765625 41.0625 55.515625 
z
" id="DejaVuSans-114"/>
      <path d="M 48.78125 52.59375 
L 48.78125 44.1875 
Q 44.96875 46.296875 41.140625 47.34375 
Q 37.3125 48.390625 33.40625 48.390625 
Q 24.65625 48.390625 19.8125 42.84375 
Q 14.984375 37.3125 14.984375 27.296875 
Q 14.984375 17.28125 19.8125 11.734375 
Q 24.65625 6.203125 33.40625 6.203125 
Q 37.3125 6.203125 41.140625 7.25 
Q 44.96875 8.296875 48.78125 10.40625 
L 48.78125 2.09375 
Q 45.015625 0.34375 40.984375 -0.53125 
Q 36.96875 -1.421875 32.421875 -1.421875 
Q 20.0625 -1.421875 12.78125 6.34375 
Q 5.515625 14.109375 5.515625 27.296875 
Q 5.515625 40.671875 12.859375 48.328125 
Q 20.21875 56 33.015625 56 
Q 37.15625 56 41.109375 55.140625 
Q 45.0625 54.296875 48.78125 52.59375 
z
" id="DejaVuSans-99"/>
      <path d="M 52 44.1875 
Q 55.375 50.25 60.0625 53.125 
Q 64.75 56 71.09375 56 
Q 79.640625 56 84.28125 50.015625 
Q 88.921875 44.046875 88.921875 33.015625 
L 88.921875 0 
L 79.890625 0 
L 79.890625 32.71875 
Q 79.890625 40.578125 77.09375 44.375 
Q 74.3125 48.1875 68.609375 48.1875 
Q 61.625 48.1875 57.5625 43.546875 
Q 53.515625 38.921875 53.515625 30.90625 
L 53.515625 0 
L 44.484375 0 
L 44.484375 32.71875 
Q 44.484375 40.625 41.703125 44.40625 
Q 38.921875 48.1875 33.109375 48.1875 
Q 26.21875 48.1875 22.15625 43.53125 
Q 18.109375 38.875 18.109375 30.90625 
L 18.109375 0 
L 9.078125 0 
L 9.078125 54.6875 
L 18.109375 54.6875 
L 18.109375 46.1875 
Q 21.1875 51.21875 25.484375 53.609375 
Q 29.78125 56 35.6875 56 
Q 41.65625 56 45.828125 52.96875 
Q 50 49.953125 52 44.1875 
z
" id="DejaVuSans-109"/>
     </defs>
     <g style="fill:#262626;" transform="translate(30.882395 202.15525)rotate(-90)scale(0.096 -0.096)">
      <use xlink:href="#DejaVuSans-82"/>
      <use x="69.419922" xlink:href="#DejaVuSans-101"/>
      <use x="130.943359" xlink:href="#DejaVuSans-105"/>
      <use x="158.726562" xlink:href="#DejaVuSans-110"/>
      <use x="222.105469" xlink:href="#DejaVuSans-102"/>
      <use x="257.310547" xlink:href="#DejaVuSans-111"/>
      <use x="318.492188" xlink:href="#DejaVuSans-114"/>
      <use x="359.574219" xlink:href="#DejaVuSans-99"/>
      <use x="414.554688" xlink:href="#DejaVuSans-101"/>
      <use x="476.078125" xlink:href="#DejaVuSans-109"/>
      <use x="573.490234" xlink:href="#DejaVuSans-101"/>
      <use x="635.013672" xlink:href="#DejaVuSans-110"/>
      <use x="698.392578" xlink:href="#DejaVuSans-116"/>
     </g>
    </g>
   </g>
   <g id="line2d_15">
    <path clip-path="url(#p2eb7b90fb6)" d="M 82.366585 29.340909 
L 84.996194 30.514899 
L 87.625803 31.713897 
L 90.255412 32.970592 
L 92.885021 34.310154 
L 95.514631 35.755413 
L 98.14424 37.334416 
L 100.773849 39.07116 
L 103.403458 40.978999 
L 106.033067 43.065705 
L 108.662676 45.33192 
L 111.292285 47.780124 
L 113.921894 50.380313 
L 116.551503 53.043817 
L 119.181112 55.742598 
L 121.810721 58.397764 
L 124.44033 60.954797 
L 127.06994 63.414396 
L 129.699549 65.77758 
L 132.329158 68.050046 
L 134.958767 70.225566 
L 137.588376 72.330329 
L 140.217985 74.375217 
L 142.847594 76.351538 
L 145.477203 78.264638 
L 148.106812 80.141119 
L 150.736421 82.011477 
L 153.36603 83.89598 
L 155.99564 85.818764 
L 158.625249 87.795196 
L 161.254858 89.843587 
L 163.884467 91.986747 
L 166.514076 94.242036 
L 169.143685 96.607783 
L 171.773294 99.067918 
L 174.402903 101.636083 
L 177.032512 104.302583 
L 179.662121 106.999858 
L 182.29173 109.692183 
L 184.92134 112.360224 
L 187.550949 114.980548 
L 190.180558 117.547997 
L 192.810167 120.062587 
L 195.439776 122.521815 
L 198.069385 124.918686 
L 200.698994 127.270428 
L 203.328603 129.580206 
L 205.958212 131.850488 
L 208.587821 134.07467 
L 211.21743 136.264151 
L 213.84704 138.433529 
L 216.476649 140.600853 
L 219.106258 142.781287 
L 221.735867 144.991158 
L 224.365476 147.2444 
L 226.995085 149.547573 
L 229.624694 151.907087 
L 232.254303 154.32683 
L 234.883912 156.798844 
L 237.513521 159.323277 
L 240.14313 161.886671 
L 242.77274 164.46491 
L 245.402349 167.035152 
L 248.031958 169.601373 
L 250.661567 172.164047 
L 253.291176 174.715417 
L 255.920785 177.260164 
L 258.550394 179.793771 
L 261.180003 182.30933 
L 263.809612 184.813359 
L 266.439221 187.307334 
L 269.06883 189.794066 
L 271.69844 192.274474 
L 274.328049 194.751481 
L 276.957658 197.233357 
L 279.587267 199.724217 
L 282.216876 202.224495 
L 284.846485 204.731657 
L 287.476094 207.247475 
L 290.105703 209.773468 
L 292.735312 212.306382 
L 295.364921 214.843684 
L 297.99453 217.384183 
L 300.62414 219.927702 
L 303.253749 222.471585 
L 305.883358 225.011563 
L 308.512967 227.546059 
L 311.142576 230.077929 
L 313.772185 232.609499 
L 316.401794 235.143131 
L 319.031403 237.681759 
L 321.661012 240.223577 
L 324.290621 242.759386 
L 326.92023 245.291506 
L 329.54984 247.819656 
L 332.179449 250.347287 
L 334.809058 252.876882 
L 337.438667 255.406465 
L 340.068276 257.933143 
L 342.697885 260.459454 
" style="fill:none;stroke:#4c72b0;stroke-linecap:round;stroke-width:1.2;"/>
   </g>
   <g id="line2d_16">
    <path clip-path="url(#p2eb7b90fb6)" d="M 82.366585 29.340909 
L 84.996194 30.665646 
L 87.625803 32.011294 
L 90.255412 33.415506 
L 92.885021 34.911436 
L 95.514631 36.528786 
L 98.14424 38.286579 
L 100.773849 40.208115 
L 103.403458 42.31795 
L 106.033067 44.626422 
L 108.662676 47.142592 
L 111.292285 49.845554 
L 113.921894 52.683676 
L 116.551503 55.602805 
L 119.181112 58.515004 
L 121.810721 61.358827 
L 124.44033 64.054942 
L 127.06994 66.583559 
L 129.699549 68.957658 
L 132.329158 71.198534 
L 134.958767 73.320161 
L 137.588376 75.311894 
L 140.217985 77.204327 
L 142.847594 79.033564 
L 145.477203 80.832925 
L 148.106812 82.621744 
L 150.736421 84.409873 
L 153.36603 86.223828 
L 155.99564 88.095075 
L 158.625249 90.051958 
L 161.254858 92.103267 
L 163.884467 94.252377 
L 166.514076 96.521632 
L 169.143685 98.929966 
L 171.773294 101.492966 
L 174.402903 104.203283 
L 177.032512 107.022157 
L 179.662121 109.933317 
L 182.29173 112.87109 
L 184.92134 115.808688 
L 187.550949 118.712864 
L 190.180558 121.507811 
L 192.810167 124.156875 
L 195.439776 126.673261 
L 198.069385 129.060913 
L 200.698994 131.322564 
L 203.328603 133.461402 
L 205.958212 135.49416 
L 208.587821 137.44551 
L 211.21743 139.343443 
L 213.84704 141.196156 
L 216.476649 143.027709 
L 219.106258 144.869913 
L 221.735867 146.752645 
L 224.365476 148.699623 
L 226.995085 150.734528 
L 229.624694 152.885778 
L 232.254303 155.169392 
L 234.883912 157.601256 
L 237.513521 160.205081 
L 240.14313 162.977874 
L 242.77274 165.894559 
L 245.402349 168.896312 
L 248.031958 171.913938 
L 250.661567 174.914821 
L 253.291176 177.853624 
L 255.920785 180.669257 
L 258.550394 183.358203 
L 261.180003 185.9223 
L 263.809612 188.354618 
L 266.439221 190.662348 
L 269.06883 192.859584 
L 271.69844 194.958332 
L 274.328049 196.984102 
L 276.957658 198.966515 
L 279.587267 200.918834 
L 282.216876 202.867241 
L 284.846485 204.833785 
L 287.476094 206.843397 
L 290.105703 208.921629 
L 292.735312 211.090535 
L 295.364921 213.35532 
L 297.99453 215.732686 
L 300.62414 218.240151 
L 303.253749 220.882756 
L 305.883358 223.639844 
L 308.512967 226.499393 
L 311.142576 229.399721 
L 313.772185 232.288582 
L 316.401794 235.155267 
L 319.031403 237.945415 
L 321.661012 240.625716 
L 324.290621 243.210633 
L 326.92023 245.694177 
L 329.54984 248.074858 
L 332.179449 250.369441 
L 334.809058 252.590607 
L 337.438667 254.750239 
L 340.068276 256.869515 
L 342.697885 258.959201 
" style="fill:none;stroke:#dd8452;stroke-linecap:round;stroke-width:1.2;"/>
   </g>
   <g id="line2d_17">
    <path clip-path="url(#p2eb7b90fb6)" d="M 82.366585 29.340909 
L 84.996194 30.826809 
L 87.625803 32.372908 
L 90.255412 34.033707 
L 92.885021 35.855175 
L 95.514631 37.859899 
L 98.14424 40.059161 
L 100.773849 42.457929 
L 103.403458 45.04022 
L 106.033067 47.773309 
L 108.662676 50.617138 
L 111.292285 53.525469 
L 113.921894 56.450565 
L 116.551503 59.383615 
L 119.181112 62.285452 
L 121.810721 65.099807 
L 124.44033 67.83089 
L 127.06994 70.48335 
L 129.699549 73.080095 
L 132.329158 75.615772 
L 134.958767 78.108858 
L 137.588376 80.57285 
L 140.217985 83.007091 
L 142.847594 85.411102 
L 145.477203 87.805823 
L 148.106812 90.22274 
L 150.736421 92.675345 
L 153.36603 95.18033 
L 155.99564 97.754587 
L 158.625249 100.387258 
L 161.254858 103.083667 
L 163.884467 105.853647 
L 166.514076 108.701198 
L 169.143685 111.609659 
L 171.773294 114.575379 
L 174.402903 117.59514 
L 177.032512 120.647408 
L 179.662121 123.703774 
L 182.29173 126.755135 
L 184.92134 129.784263 
L 187.550949 132.791077 
L 190.180558 135.77247 
L 192.810167 138.721998 
L 195.439776 141.650278 
L 198.069385 144.56186 
L 200.698994 147.454848 
L 203.328603 150.322117 
L 205.958212 153.169317 
L 208.587821 155.99517 
L 211.21743 158.804412 
L 213.84704 161.598392 
L 216.476649 164.384613 
L 219.106258 167.170529 
L 221.735867 169.954721 
L 224.365476 172.751316 
L 226.995085 175.563091 
L 229.624694 178.395599 
L 232.254303 181.241466 
L 234.883912 184.104404 
L 237.513521 186.987187 
L 240.14313 189.889551 
L 242.77274 192.815039 
L 245.402349 195.763791 
L 248.031958 198.735133 
L 250.661567 201.719486 
L 253.291176 204.711617 
L 255.920785 207.710111 
L 258.550394 210.714413 
L 261.180003 213.721084 
L 263.809612 216.729049 
L 266.439221 219.740082 
L 269.06883 222.756259 
L 271.69844 225.7798 
L 274.328049 228.808522 
L 276.957658 231.833271 
L 279.587267 234.839707 
L 282.216876 237.819528 
L 284.846485 240.773069 
L 287.476094 243.700919 
L 290.105703 246.606657 
L 292.735312 249.494367 
L 295.364921 252.36522 
L 297.99453 255.223411 
L 300.62414 258.073966 
L 303.253749 260.917305 
L 305.883358 263.754195 
L 308.512967 266.587823 
L 311.142576 269.421355 
L 313.772185 272.257046 
L 316.401794 275.09814 
L 319.031403 277.948242 
L 321.661012 280.808606 
L 324.290621 283.681231 
L 326.92023 286.565817 
L 329.54984 289.46542 
L 332.179449 292.379655 
L 334.809058 295.307304 
L 337.438667 298.247367 
L 340.068276 301.198659 
L 342.697885 304.159091 
" style="fill:none;stroke:#55a868;stroke-linecap:round;stroke-width:1.2;"/>
   </g>
   <g id="line2d_18">
    <path clip-path="url(#p2eb7b90fb6)" d="M 82.366585 29.340909 
L 84.996194 30.728708 
L 87.625803 32.165058 
L 90.255412 33.706587 
L 92.885021 35.404293 
L 95.514631 37.328314 
L 98.14424 39.535524 
L 100.773849 42.080733 
L 103.403458 44.985142 
L 106.033067 48.210773 
L 108.662676 51.675059 
L 111.292285 55.167461 
L 113.921894 58.531129 
L 116.551503 61.702912 
L 119.181112 64.567657 
L 121.810721 67.152332 
L 124.44033 69.512621 
L 127.06994 71.693221 
L 129.699549 73.73759 
L 132.329158 75.727648 
L 134.958767 77.749132 
L 137.588376 79.862336 
L 140.217985 82.089045 
L 142.847594 84.45679 
L 145.477203 86.927525 
L 148.106812 89.500999 
L 150.736421 92.176448 
L 153.36603 94.945124 
L 155.99564 97.779293 
L 158.625249 100.648539 
L 161.254858 103.457593 
L 163.884467 106.234557 
L 166.514076 108.959055 
L 169.143685 111.655267 
L 171.773294 114.292584 
L 174.402903 116.866416 
L 177.032512 119.377386 
L 179.662121 121.783085 
L 182.29173 124.12143 
L 184.92134 126.445667 
L 187.550949 128.774039 
L 190.180558 131.140794 
L 192.810167 133.585365 
L 195.439776 136.071872 
L 198.069385 138.561595 
L 200.698994 141.062117 
L 203.328603 143.590211 
L 205.958212 146.161028 
L 208.587821 148.735663 
L 211.21743 151.303559 
L 213.84704 153.80366 
L 216.476649 156.227936 
L 219.106258 158.602204 
L 221.735867 160.955327 
L 224.365476 163.310623 
L 226.995085 165.66426 
L 229.624694 168.050353 
L 232.254303 170.498745 
L 234.883912 173.021743 
L 237.513521 175.604356 
L 240.14313 178.263301 
L 242.77274 180.97052 
L 245.402349 183.700779 
L 248.031958 186.470921 
L 250.661567 189.245836 
L 253.291176 192.015702 
L 255.920785 194.784471 
L 258.550394 197.511147 
L 261.180003 200.175072 
L 263.809612 202.763633 
L 266.439221 205.266765 
L 269.06883 207.706305 
L 271.69844 210.137915 
L 274.328049 212.535401 
L 276.957658 214.930407 
L 279.587267 217.341797 
L 282.216876 219.741339 
L 284.846485 222.136275 
L 287.476094 224.492916 
L 290.105703 226.777101 
L 292.735312 228.977139 
L 295.364921 231.133872 
L 297.99453 233.286453 
L 300.62414 235.493901 
L 303.253749 237.809766 
L 305.883358 240.225069 
L 308.512967 242.759123 
L 311.142576 245.410587 
L 313.772185 248.166178 
L 316.401794 250.958113 
L 319.031403 253.749004 
L 321.661012 256.546594 
L 324.290621 259.330312 
L 326.92023 262.065767 
L 329.54984 264.753648 
L 332.179449 267.408291 
L 334.809058 269.992182 
L 337.438667 272.512349 
L 340.068276 274.974117 
L 342.697885 277.372416 
" style="fill:none;stroke:#c44e52;stroke-linecap:round;stroke-width:1.2;"/>
   </g>
   <g id="line2d_19"/>
   <g id="line2d_20"/>
   <g id="line2d_21"/>
   <g id="line2d_22"/>
   <g id="line2d_23"/>
   <g id="patch_3">
    <path d="M 69.35002 317.9 
L 69.35002 15.6 
" style="fill:none;stroke:#cccccc;stroke-linecap:square;stroke-linejoin:miter;"/>
   </g>
   <g id="patch_4">
    <path d="M 69.35002 317.9 
L 355.71445 317.9 
" style="fill:none;stroke:#cccccc;stroke-linecap:square;stroke-linejoin:miter;"/>
   </g>
   <g id="text_17">
    <!-- Mean CumSum Reinforcements for 60 100-Step Rollouts with Plan Length 10 -->
    <defs>
     <path d="M 9.8125 72.90625 
L 24.515625 72.90625 
L 43.109375 23.296875 
L 61.8125 72.90625 
L 76.515625 72.90625 
L 76.515625 0 
L 66.890625 0 
L 66.890625 64.015625 
L 48.09375 14.015625 
L 38.1875 14.015625 
L 19.390625 64.015625 
L 19.390625 0 
L 9.8125 0 
z
" id="DejaVuSans-77"/>
     <path d="M 34.28125 27.484375 
Q 23.390625 27.484375 19.1875 25 
Q 14.984375 22.515625 14.984375 16.5 
Q 14.984375 11.71875 18.140625 8.90625 
Q 21.296875 6.109375 26.703125 6.109375 
Q 34.1875 6.109375 38.703125 11.40625 
Q 43.21875 16.703125 43.21875 25.484375 
L 43.21875 27.484375 
z
M 52.203125 31.203125 
L 52.203125 0 
L 43.21875 0 
L 43.21875 8.296875 
Q 40.140625 3.328125 35.546875 0.953125 
Q 30.953125 -1.421875 24.3125 -1.421875 
Q 15.921875 -1.421875 10.953125 3.296875 
Q 6 8.015625 6 15.921875 
Q 6 25.140625 12.171875 29.828125 
Q 18.359375 34.515625 30.609375 34.515625 
L 43.21875 34.515625 
L 43.21875 35.40625 
Q 43.21875 41.609375 39.140625 45 
Q 35.0625 48.390625 27.6875 48.390625 
Q 23 48.390625 18.546875 47.265625 
Q 14.109375 46.140625 10.015625 43.890625 
L 10.015625 52.203125 
Q 14.9375 54.109375 19.578125 55.046875 
Q 24.21875 56 28.609375 56 
Q 40.484375 56 46.34375 49.84375 
Q 52.203125 43.703125 52.203125 31.203125 
z
" id="DejaVuSans-97"/>
     <path id="DejaVuSans-32"/>
     <path d="M 64.40625 67.28125 
L 64.40625 56.890625 
Q 59.421875 61.53125 53.78125 63.8125 
Q 48.140625 66.109375 41.796875 66.109375 
Q 29.296875 66.109375 22.65625 58.46875 
Q 16.015625 50.828125 16.015625 36.375 
Q 16.015625 21.96875 22.65625 14.328125 
Q 29.296875 6.6875 41.796875 6.6875 
Q 48.140625 6.6875 53.78125 8.984375 
Q 59.421875 11.28125 64.40625 15.921875 
L 64.40625 5.609375 
Q 59.234375 2.09375 53.4375 0.328125 
Q 47.65625 -1.421875 41.21875 -1.421875 
Q 24.65625 -1.421875 15.125 8.703125 
Q 5.609375 18.84375 5.609375 36.375 
Q 5.609375 53.953125 15.125 64.078125 
Q 24.65625 74.21875 41.21875 74.21875 
Q 47.75 74.21875 53.53125 72.484375 
Q 59.328125 70.75 64.40625 67.28125 
z
" id="DejaVuSans-67"/>
     <path d="M 8.5 21.578125 
L 8.5 54.6875 
L 17.484375 54.6875 
L 17.484375 21.921875 
Q 17.484375 14.15625 20.5 10.265625 
Q 23.53125 6.390625 29.59375 6.390625 
Q 36.859375 6.390625 41.078125 11.03125 
Q 45.3125 15.671875 45.3125 23.6875 
L 45.3125 54.6875 
L 54.296875 54.6875 
L 54.296875 0 
L 45.3125 0 
L 45.3125 8.40625 
Q 42.046875 3.421875 37.71875 1 
Q 33.40625 -1.421875 27.6875 -1.421875 
Q 18.265625 -1.421875 13.375 4.4375 
Q 8.5 10.296875 8.5 21.578125 
z
M 31.109375 56 
z
" id="DejaVuSans-117"/>
     <path d="M 44.28125 53.078125 
L 44.28125 44.578125 
Q 40.484375 46.53125 36.375 47.5 
Q 32.28125 48.484375 27.875 48.484375 
Q 21.1875 48.484375 17.84375 46.4375 
Q 14.5 44.390625 14.5 40.28125 
Q 14.5 37.15625 16.890625 35.375 
Q 19.28125 33.59375 26.515625 31.984375 
L 29.59375 31.296875 
Q 39.15625 29.25 43.1875 25.515625 
Q 47.21875 21.78125 47.21875 15.09375 
Q 47.21875 7.46875 41.1875 3.015625 
Q 35.15625 -1.421875 24.609375 -1.421875 
Q 20.21875 -1.421875 15.453125 -0.5625 
Q 10.6875 0.296875 5.421875 2 
L 5.421875 11.28125 
Q 10.40625 8.6875 15.234375 7.390625 
Q 20.0625 6.109375 24.8125 6.109375 
Q 31.15625 6.109375 34.5625 8.28125 
Q 37.984375 10.453125 37.984375 14.40625 
Q 37.984375 18.0625 35.515625 20.015625 
Q 33.0625 21.96875 24.703125 23.78125 
L 21.578125 24.515625 
Q 13.234375 26.265625 9.515625 29.90625 
Q 5.8125 33.546875 5.8125 39.890625 
Q 5.8125 47.609375 11.28125 51.796875 
Q 16.75 56 26.8125 56 
Q 31.78125 56 36.171875 55.265625 
Q 40.578125 54.546875 44.28125 53.078125 
z
" id="DejaVuSans-115"/>
     <path d="M 4.890625 31.390625 
L 31.203125 31.390625 
L 31.203125 23.390625 
L 4.890625 23.390625 
z
" id="DejaVuSans-45"/>
     <path d="M 9.421875 75.984375 
L 18.40625 75.984375 
L 18.40625 0 
L 9.421875 0 
z
" id="DejaVuSans-108"/>
     <path d="M 4.203125 54.6875 
L 13.1875 54.6875 
L 24.421875 12.015625 
L 35.59375 54.6875 
L 46.1875 54.6875 
L 57.421875 12.015625 
L 68.609375 54.6875 
L 77.59375 54.6875 
L 63.28125 0 
L 52.6875 0 
L 40.921875 44.828125 
L 29.109375 0 
L 18.5 0 
z
" id="DejaVuSans-119"/>
     <path d="M 54.890625 33.015625 
L 54.890625 0 
L 45.90625 0 
L 45.90625 32.71875 
Q 45.90625 40.484375 42.875 44.328125 
Q 39.84375 48.1875 33.796875 48.1875 
Q 26.515625 48.1875 22.3125 43.546875 
Q 18.109375 38.921875 18.109375 30.90625 
L 18.109375 0 
L 9.078125 0 
L 9.078125 75.984375 
L 18.109375 75.984375 
L 18.109375 46.1875 
Q 21.34375 51.125 25.703125 53.5625 
Q 30.078125 56 35.796875 56 
Q 45.21875 56 50.046875 50.171875 
Q 54.890625 44.34375 54.890625 33.015625 
z
" id="DejaVuSans-104"/>
     <path d="M 19.671875 64.796875 
L 19.671875 37.40625 
L 32.078125 37.40625 
Q 38.96875 37.40625 42.71875 40.96875 
Q 46.484375 44.53125 46.484375 51.125 
Q 46.484375 57.671875 42.71875 61.234375 
Q 38.96875 64.796875 32.078125 64.796875 
z
M 9.8125 72.90625 
L 32.078125 72.90625 
Q 44.34375 72.90625 50.609375 67.359375 
Q 56.890625 61.8125 56.890625 51.125 
Q 56.890625 40.328125 50.609375 34.8125 
Q 44.34375 29.296875 32.078125 29.296875 
L 19.671875 29.296875 
L 19.671875 0 
L 9.8125 0 
z
" id="DejaVuSans-80"/>
     <path d="M 9.8125 72.90625 
L 19.671875 72.90625 
L 19.671875 8.296875 
L 55.171875 8.296875 
L 55.171875 0 
L 9.8125 0 
z
" id="DejaVuSans-76"/>
     <path d="M 45.40625 27.984375 
Q 45.40625 37.75 41.375 43.109375 
Q 37.359375 48.484375 30.078125 48.484375 
Q 22.859375 48.484375 18.828125 43.109375 
Q 14.796875 37.75 14.796875 27.984375 
Q 14.796875 18.265625 18.828125 12.890625 
Q 22.859375 7.515625 30.078125 7.515625 
Q 37.359375 7.515625 41.375 12.890625 
Q 45.40625 18.265625 45.40625 27.984375 
z
M 54.390625 6.78125 
Q 54.390625 -7.171875 48.1875 -13.984375 
Q 42 -20.796875 29.203125 -20.796875 
Q 24.46875 -20.796875 20.265625 -20.09375 
Q 16.0625 -19.390625 12.109375 -17.921875 
L 12.109375 -9.1875 
Q 16.0625 -11.328125 19.921875 -12.34375 
Q 23.78125 -13.375 27.78125 -13.375 
Q 36.625 -13.375 41.015625 -8.765625 
Q 45.40625 -4.15625 45.40625 5.171875 
L 45.40625 9.625 
Q 42.625 4.78125 38.28125 2.390625 
Q 33.9375 0 27.875 0 
Q 17.828125 0 11.671875 7.65625 
Q 5.515625 15.328125 5.515625 27.984375 
Q 5.515625 40.671875 11.671875 48.328125 
Q 17.828125 56 27.875 56 
Q 33.9375 56 38.28125 53.609375 
Q 42.625 51.21875 45.40625 46.390625 
L 45.40625 54.6875 
L 54.390625 54.6875 
z
" id="DejaVuSans-103"/>
    </defs>
    <g style="fill:#262626;" transform="translate(27.487735 9.6)scale(0.096 -0.096)">
     <use xlink:href="#DejaVuSans-77"/>
     <use x="86.279297" xlink:href="#DejaVuSans-101"/>
     <use x="147.802734" xlink:href="#DejaVuSans-97"/>
     <use x="209.082031" xlink:href="#DejaVuSans-110"/>
     <use x="272.460938" xlink:href="#DejaVuSans-32"/>
     <use x="304.248047" xlink:href="#DejaVuSans-67"/>
     <use x="374.072266" xlink:href="#DejaVuSans-117"/>
     <use x="437.451172" xlink:href="#DejaVuSans-109"/>
     <use x="534.863281" xlink:href="#DejaVuSans-83"/>
     <use x="598.339844" xlink:href="#DejaVuSans-117"/>
     <use x="661.71875" xlink:href="#DejaVuSans-109"/>
     <use x="759.130859" xlink:href="#DejaVuSans-32"/>
     <use x="790.917969" xlink:href="#DejaVuSans-82"/>
     <use x="860.337891" xlink:href="#DejaVuSans-101"/>
     <use x="921.861328" xlink:href="#DejaVuSans-105"/>
     <use x="949.644531" xlink:href="#DejaVuSans-110"/>
     <use x="1013.023438" xlink:href="#DejaVuSans-102"/>
     <use x="1048.228516" xlink:href="#DejaVuSans-111"/>
     <use x="1109.410156" xlink:href="#DejaVuSans-114"/>
     <use x="1150.492188" xlink:href="#DejaVuSans-99"/>
     <use x="1205.472656" xlink:href="#DejaVuSans-101"/>
     <use x="1266.996094" xlink:href="#DejaVuSans-109"/>
     <use x="1364.408203" xlink:href="#DejaVuSans-101"/>
     <use x="1425.931641" xlink:href="#DejaVuSans-110"/>
     <use x="1489.310547" xlink:href="#DejaVuSans-116"/>
     <use x="1528.519531" xlink:href="#DejaVuSans-115"/>
     <use x="1580.619141" xlink:href="#DejaVuSans-32"/>
     <use x="1612.40625" xlink:href="#DejaVuSans-102"/>
     <use x="1647.611328" xlink:href="#DejaVuSans-111"/>
     <use x="1708.792969" xlink:href="#DejaVuSans-114"/>
     <use x="1749.90625" xlink:href="#DejaVuSans-32"/>
     <use x="1781.693359" xlink:href="#DejaVuSans-54"/>
     <use x="1845.316406" xlink:href="#DejaVuSans-48"/>
     <use x="1908.939453" xlink:href="#DejaVuSans-32"/>
     <use x="1940.726562" xlink:href="#DejaVuSans-49"/>
     <use x="2004.349609" xlink:href="#DejaVuSans-48"/>
     <use x="2067.972656" xlink:href="#DejaVuSans-48"/>
     <use x="2131.595703" xlink:href="#DejaVuSans-45"/>
     <use x="2167.679688" xlink:href="#DejaVuSans-83"/>
     <use x="2231.15625" xlink:href="#DejaVuSans-116"/>
     <use x="2270.365234" xlink:href="#DejaVuSans-101"/>
     <use x="2331.888672" xlink:href="#DejaVuSans-112"/>
     <use x="2395.365234" xlink:href="#DejaVuSans-32"/>
     <use x="2427.152344" xlink:href="#DejaVuSans-82"/>
     <use x="2496.572266" xlink:href="#DejaVuSans-111"/>
     <use x="2557.753906" xlink:href="#DejaVuSans-108"/>
     <use x="2585.537109" xlink:href="#DejaVuSans-108"/>
     <use x="2613.320312" xlink:href="#DejaVuSans-111"/>
     <use x="2674.501953" xlink:href="#DejaVuSans-117"/>
     <use x="2737.880859" xlink:href="#DejaVuSans-116"/>
     <use x="2777.089844" xlink:href="#DejaVuSans-115"/>
     <use x="2829.189453" xlink:href="#DejaVuSans-32"/>
     <use x="2860.976562" xlink:href="#DejaVuSans-119"/>
     <use x="2942.763672" xlink:href="#DejaVuSans-105"/>
     <use x="2970.546875" xlink:href="#DejaVuSans-116"/>
     <use x="3009.755859" xlink:href="#DejaVuSans-104"/>
     <use x="3073.134766" xlink:href="#DejaVuSans-32"/>
     <use x="3104.921875" xlink:href="#DejaVuSans-80"/>
     <use x="3165.224609" xlink:href="#DejaVuSans-108"/>
     <use x="3193.007812" xlink:href="#DejaVuSans-97"/>
     <use x="3254.287109" xlink:href="#DejaVuSans-110"/>
     <use x="3317.666016" xlink:href="#DejaVuSans-32"/>
     <use x="3349.453125" xlink:href="#DejaVuSans-76"/>
     <use x="3405.150391" xlink:href="#DejaVuSans-101"/>
     <use x="3466.673828" xlink:href="#DejaVuSans-110"/>
     <use x="3530.052734" xlink:href="#DejaVuSans-103"/>
     <use x="3593.529297" xlink:href="#DejaVuSans-116"/>
     <use x="3632.738281" xlink:href="#DejaVuSans-104"/>
     <use x="3696.117188" xlink:href="#DejaVuSans-32"/>
     <use x="3727.904297" xlink:href="#DejaVuSans-49"/>
     <use x="3791.527344" xlink:href="#DejaVuSans-48"/>
    </g>
   </g>
  </g>
  <g id="legend_1">
   <g id="line2d_24">
    <path d="M 359.29075 153.51475 
L 376.89075 153.51475 
" style="fill:none;"/>
   </g>
   <g id="line2d_25"/>
   <g id="text_18">
    <!-- strategy -->
    <defs>
     <path d="M 32.171875 -5.078125 
Q 28.375 -14.84375 24.75 -17.8125 
Q 21.140625 -20.796875 15.09375 -20.796875 
L 7.90625 -20.796875 
L 7.90625 -13.28125 
L 13.1875 -13.28125 
Q 16.890625 -13.28125 18.9375 -11.515625 
Q 21 -9.765625 23.484375 -3.21875 
L 25.09375 0.875 
L 2.984375 54.6875 
L 12.5 54.6875 
L 29.59375 11.921875 
L 46.6875 54.6875 
L 56.203125 54.6875 
z
" id="DejaVuSans-121"/>
    </defs>
    <g style="fill:#262626;" transform="translate(383.93075 156.59475)scale(0.088 -0.088)">
     <use xlink:href="#DejaVuSans-115"/>
     <use x="52.099609" xlink:href="#DejaVuSans-116"/>
     <use x="91.308594" xlink:href="#DejaVuSans-114"/>
     <use x="132.421875" xlink:href="#DejaVuSans-97"/>
     <use x="193.701172" xlink:href="#DejaVuSans-116"/>
     <use x="232.910156" xlink:href="#DejaVuSans-101"/>
     <use x="294.433594" xlink:href="#DejaVuSans-103"/>
     <use x="357.910156" xlink:href="#DejaVuSans-121"/>
    </g>
   </g>
   <g id="line2d_26">
    <path d="M 359.29075 166.4315 
L 376.89075 166.4315 
" style="fill:none;stroke:#4c72b0;stroke-linecap:round;stroke-width:1.2;"/>
   </g>
   <g id="line2d_27"/>
   <g id="text_19">
    <!-- none -->
    <g style="fill:#262626;" transform="translate(383.93075 169.5115)scale(0.088 -0.088)">
     <use xlink:href="#DejaVuSans-110"/>
     <use x="63.378906" xlink:href="#DejaVuSans-111"/>
     <use x="124.560547" xlink:href="#DejaVuSans-110"/>
     <use x="187.939453" xlink:href="#DejaVuSans-101"/>
    </g>
   </g>
   <g id="line2d_28">
    <path d="M 359.29075 179.34825 
L 376.89075 179.34825 
" style="fill:none;stroke:#dd8452;stroke-linecap:round;stroke-width:1.2;"/>
   </g>
   <g id="line2d_29"/>
   <g id="text_20">
    <!-- first -->
    <g style="fill:#262626;" transform="translate(383.93075 182.42825)scale(0.088 -0.088)">
     <use xlink:href="#DejaVuSans-102"/>
     <use x="35.205078" xlink:href="#DejaVuSans-105"/>
     <use x="62.988281" xlink:href="#DejaVuSans-114"/>
     <use x="104.101562" xlink:href="#DejaVuSans-115"/>
     <use x="156.201172" xlink:href="#DejaVuSans-116"/>
    </g>
   </g>
   <g id="line2d_30">
    <path d="M 359.29075 192.265 
L 376.89075 192.265 
" style="fill:none;stroke:#55a868;stroke-linecap:round;stroke-width:1.2;"/>
   </g>
   <g id="line2d_31"/>
   <g id="text_21">
    <!-- last -->
    <g style="fill:#262626;" transform="translate(383.93075 195.345)scale(0.088 -0.088)">
     <use xlink:href="#DejaVuSans-108"/>
     <use x="27.783203" xlink:href="#DejaVuSans-97"/>
     <use x="89.0625" xlink:href="#DejaVuSans-115"/>
     <use x="141.162109" xlink:href="#DejaVuSans-116"/>
    </g>
   </g>
   <g id="line2d_32">
    <path d="M 359.29075 205.18175 
L 376.89075 205.18175 
" style="fill:none;stroke:#c44e52;stroke-linecap:round;stroke-width:1.2;"/>
   </g>
   <g id="line2d_33"/>
   <g id="text_22">
    <!-- random -->
    <defs>
     <path d="M 45.40625 46.390625 
L 45.40625 75.984375 
L 54.390625 75.984375 
L 54.390625 0 
L 45.40625 0 
L 45.40625 8.203125 
Q 42.578125 3.328125 38.25 0.953125 
Q 33.9375 -1.421875 27.875 -1.421875 
Q 17.96875 -1.421875 11.734375 6.484375 
Q 5.515625 14.40625 5.515625 27.296875 
Q 5.515625 40.1875 11.734375 48.09375 
Q 17.96875 56 27.875 56 
Q 33.9375 56 38.25 53.625 
Q 42.578125 51.265625 45.40625 46.390625 
z
M 14.796875 27.296875 
Q 14.796875 17.390625 18.875 11.75 
Q 22.953125 6.109375 30.078125 6.109375 
Q 37.203125 6.109375 41.296875 11.75 
Q 45.40625 17.390625 45.40625 27.296875 
Q 45.40625 37.203125 41.296875 42.84375 
Q 37.203125 48.484375 30.078125 48.484375 
Q 22.953125 48.484375 18.875 42.84375 
Q 14.796875 37.203125 14.796875 27.296875 
z
" id="DejaVuSans-100"/>
    </defs>
    <g style="fill:#262626;" transform="translate(383.93075 208.26175)scale(0.088 -0.088)">
     <use xlink:href="#DejaVuSans-114"/>
     <use x="41.113281" xlink:href="#DejaVuSans-97"/>
     <use x="102.392578" xlink:href="#DejaVuSans-110"/>
     <use x="165.771484" xlink:href="#DejaVuSans-100"/>
     <use x="229.248047" xlink:href="#DejaVuSans-111"/>
     <use x="290.429688" xlink:href="#DejaVuSans-109"/>
    </g>
   </g>
  </g>
 </g>
 <defs>
  <clipPath id="p2eb7b90fb6">
   <rect height="302.3" width="286.36443" x="69.35002" y="15.6"/>
  </clipPath>
 </defs>
</svg>
