<?xml version="1.0" encoding="utf-8" standalone="no"?>
<!DOCTYPE svg PUBLIC "-//W3C//DTD SVG 1.1//EN"
  "http://www.w3.org/Graphics/SVG/1.1/DTD/svg11.dtd">
<!-- Created with matplotlib (https://matplotlib.org/) -->
<svg height="360pt" version="1.1" viewBox="0 0 428.555 360" width="428.555pt" xmlns="http://www.w3.org/2000/svg" xmlns:xlink="http://www.w3.org/1999/xlink">
 <defs>
  <style type="text/css">
*{stroke-linecap:butt;stroke-linejoin:round;}
  </style>
 </defs>
 <g id="figure_1">
  <g id="patch_1">
   <path d="M 0 360 
L 428.555 360 
L 428.555 0 
L 0 0 
z
" style="fill:#ffffff;"/>
  </g>
  <g id="axes_1">
   <g id="patch_2">
    <path d="M 68.835754 318.332 
L 355.71445 318.332 
L 355.71445 15.168 
L 68.835754 15.168 
z
" style="fill:#ffffff;"/>
   </g>
   <g id="matplotlib.axis_1">
    <g id="xtick_1">
     <g id="line2d_1">
      <path clip-path="url(#pf37d6c1762)" d="M 81.875695 318.332 
L 81.875695 15.168 
" style="fill:none;stroke:#cccccc;stroke-linecap:round;stroke-width:0.8;"/>
     </g>
     <g id="text_1">
      <!-- 0 -->
      <defs>
       <path d="M 31.78125 66.40625 
Q 24.171875 66.40625 20.328125 58.90625 
Q 16.5 51.421875 16.5 36.375 
Q 16.5 21.390625 20.328125 13.890625 
Q 24.171875 6.390625 31.78125 6.390625 
Q 39.453125 6.390625 43.28125 13.890625 
Q 47.125 21.390625 47.125 36.375 
Q 47.125 51.421875 43.28125 58.90625 
Q 39.453125 66.40625 31.78125 66.40625 
z
M 31.78125 74.21875 
Q 44.046875 74.21875 50.515625 64.515625 
Q 56.984375 54.828125 56.984375 36.375 
Q 56.984375 17.96875 50.515625 8.265625 
Q 44.046875 -1.421875 31.78125 -1.421875 
Q 19.53125 -1.421875 13.0625 8.265625 
Q 6.59375 17.96875 6.59375 36.375 
Q 6.59375 54.828125 13.0625 64.515625 
Q 19.53125 74.21875 31.78125 74.21875 
z
" id="DejaVuSans-48"/>
      </defs>
      <g style="fill:#262626;" transform="translate(79.076195 333.318625)scale(0.088 -0.088)">
       <use xlink:href="#DejaVuSans-48"/>
      </g>
     </g>
    </g>
    <g id="xtick_2">
     <g id="line2d_2">
      <path clip-path="url(#pf37d6c1762)" d="M 134.562324 318.332 
L 134.562324 15.168 
" style="fill:none;stroke:#cccccc;stroke-linecap:round;stroke-width:0.8;"/>
     </g>
     <g id="text_2">
      <!-- 20 -->
      <defs>
       <path d="M 19.1875 8.296875 
L 53.609375 8.296875 
L 53.609375 0 
L 7.328125 0 
L 7.328125 8.296875 
Q 12.9375 14.109375 22.625 23.890625 
Q 32.328125 33.6875 34.8125 36.53125 
Q 39.546875 41.84375 41.421875 45.53125 
Q 43.3125 49.21875 43.3125 52.78125 
Q 43.3125 58.59375 39.234375 62.25 
Q 35.15625 65.921875 28.609375 65.921875 
Q 23.96875 65.921875 18.8125 64.3125 
Q 13.671875 62.703125 7.8125 59.421875 
L 7.8125 69.390625 
Q 13.765625 71.78125 18.9375 73 
Q 24.125 74.21875 28.421875 74.21875 
Q 39.75 74.21875 46.484375 68.546875 
Q 53.21875 62.890625 53.21875 53.421875 
Q 53.21875 48.921875 51.53125 44.890625 
Q 49.859375 40.875 45.40625 35.40625 
Q 44.1875 33.984375 37.640625 27.21875 
Q 31.109375 20.453125 19.1875 8.296875 
z
" id="DejaVuSans-50"/>
      </defs>
      <g style="fill:#262626;" transform="translate(128.963324 333.318625)scale(0.088 -0.088)">
       <use xlink:href="#DejaVuSans-50"/>
       <use x="63.623047" xlink:href="#DejaVuSans-48"/>
      </g>
     </g>
    </g>
    <g id="xtick_3">
     <g id="line2d_3">
      <path clip-path="url(#pf37d6c1762)" d="M 187.248953 318.332 
L 187.248953 15.168 
" style="fill:none;stroke:#cccccc;stroke-linecap:round;stroke-width:0.8;"/>
     </g>
     <g id="text_3">
      <!-- 40 -->
      <defs>
       <path d="M 37.796875 64.3125 
L 12.890625 25.390625 
L 37.796875 25.390625 
z
M 35.203125 72.90625 
L 47.609375 72.90625 
L 47.609375 25.390625 
L 58.015625 25.390625 
L 58.015625 17.1875 
L 47.609375 17.1875 
L 47.609375 0 
L 37.796875 0 
L 37.796875 17.1875 
L 4.890625 17.1875 
L 4.890625 26.703125 
z
" id="DejaVuSans-52"/>
      </defs>
      <g style="fill:#262626;" transform="translate(181.649953 333.318625)scale(0.088 -0.088)">
       <use xlink:href="#DejaVuSans-52"/>
       <use x="63.623047" xlink:href="#DejaVuSans-48"/>
      </g>
     </g>
    </g>
    <g id="xtick_4">
     <g id="line2d_4">
      <path clip-path="url(#pf37d6c1762)" d="M 239.935582 318.332 
L 239.935582 15.168 
" style="fill:none;stroke:#cccccc;stroke-linecap:round;stroke-width:0.8;"/>
     </g>
     <g id="text_4">
      <!-- 60 -->
      <defs>
       <path d="M 33.015625 40.375 
Q 26.375 40.375 22.484375 35.828125 
Q 18.609375 31.296875 18.609375 23.390625 
Q 18.609375 15.53125 22.484375 10.953125 
Q 26.375 6.390625 33.015625 6.390625 
Q 39.65625 6.390625 43.53125 10.953125 
Q 47.40625 15.53125 47.40625 23.390625 
Q 47.40625 31.296875 43.53125 35.828125 
Q 39.65625 40.375 33.015625 40.375 
z
M 52.59375 71.296875 
L 52.59375 62.3125 
Q 48.875 64.0625 45.09375 64.984375 
Q 41.3125 65.921875 37.59375 65.921875 
Q 27.828125 65.921875 22.671875 59.328125 
Q 17.53125 52.734375 16.796875 39.40625 
Q 19.671875 43.65625 24.015625 45.921875 
Q 28.375 48.1875 33.59375 48.1875 
Q 44.578125 48.1875 50.953125 41.515625 
Q 57.328125 34.859375 57.328125 23.390625 
Q 57.328125 12.15625 50.6875 5.359375 
Q 44.046875 -1.421875 33.015625 -1.421875 
Q 20.359375 -1.421875 13.671875 8.265625 
Q 6.984375 17.96875 6.984375 36.375 
Q 6.984375 53.65625 15.1875 63.9375 
Q 23.390625 74.21875 37.203125 74.21875 
Q 40.921875 74.21875 44.703125 73.484375 
Q 48.484375 72.75 52.59375 71.296875 
z
" id="DejaVuSans-54"/>
      </defs>
      <g style="fill:#262626;" transform="translate(234.336582 333.318625)scale(0.088 -0.088)">
       <use xlink:href="#DejaVuSans-54"/>
       <use x="63.623047" xlink:href="#DejaVuSans-48"/>
      </g>
     </g>
    </g>
    <g id="xtick_5">
     <g id="line2d_5">
      <path clip-path="url(#pf37d6c1762)" d="M 292.622212 318.332 
L 292.622212 15.168 
" style="fill:none;stroke:#cccccc;stroke-linecap:round;stroke-width:0.8;"/>
     </g>
     <g id="text_5">
      <!-- 80 -->
      <defs>
       <path d="M 31.78125 34.625 
Q 24.75 34.625 20.71875 30.859375 
Q 16.703125 27.09375 16.703125 20.515625 
Q 16.703125 13.921875 20.71875 10.15625 
Q 24.75 6.390625 31.78125 6.390625 
Q 38.8125 6.390625 42.859375 10.171875 
Q 46.921875 13.96875 46.921875 20.515625 
Q 46.921875 27.09375 42.890625 30.859375 
Q 38.875 34.625 31.78125 34.625 
z
M 21.921875 38.8125 
Q 15.578125 40.375 12.03125 44.71875 
Q 8.5 49.078125 8.5 55.328125 
Q 8.5 64.0625 14.71875 69.140625 
Q 20.953125 74.21875 31.78125 74.21875 
Q 42.671875 74.21875 48.875 69.140625 
Q 55.078125 64.0625 55.078125 55.328125 
Q 55.078125 49.078125 51.53125 44.71875 
Q 48 40.375 41.703125 38.8125 
Q 48.828125 37.15625 52.796875 32.3125 
Q 56.78125 27.484375 56.78125 20.515625 
Q 56.78125 9.90625 50.3125 4.234375 
Q 43.84375 -1.421875 31.78125 -1.421875 
Q 19.734375 -1.421875 13.25 4.234375 
Q 6.78125 9.90625 6.78125 20.515625 
Q 6.78125 27.484375 10.78125 32.3125 
Q 14.796875 37.15625 21.921875 38.8125 
z
M 18.3125 54.390625 
Q 18.3125 48.734375 21.84375 45.5625 
Q 25.390625 42.390625 31.78125 42.390625 
Q 38.140625 42.390625 41.71875 45.5625 
Q 45.3125 48.734375 45.3125 54.390625 
Q 45.3125 60.0625 41.71875 63.234375 
Q 38.140625 66.40625 31.78125 66.40625 
Q 25.390625 66.40625 21.84375 63.234375 
Q 18.3125 60.0625 18.3125 54.390625 
z
" id="DejaVuSans-56"/>
      </defs>
      <g style="fill:#262626;" transform="translate(287.023212 333.318625)scale(0.088 -0.088)">
       <use xlink:href="#DejaVuSans-56"/>
       <use x="63.623047" xlink:href="#DejaVuSans-48"/>
      </g>
     </g>
    </g>
    <g id="xtick_6">
     <g id="line2d_6">
      <path clip-path="url(#pf37d6c1762)" d="M 345.308841 318.332 
L 345.308841 15.168 
" style="fill:none;stroke:#cccccc;stroke-linecap:round;stroke-width:0.8;"/>
     </g>
     <g id="text_6">
      <!-- 100 -->
      <defs>
       <path d="M 12.40625 8.296875 
L 28.515625 8.296875 
L 28.515625 63.921875 
L 10.984375 60.40625 
L 10.984375 69.390625 
L 28.421875 72.90625 
L 38.28125 72.90625 
L 38.28125 8.296875 
L 54.390625 8.296875 
L 54.390625 0 
L 12.40625 0 
z
" id="DejaVuSans-49"/>
      </defs>
      <g style="fill:#262626;" transform="translate(336.910341 333.318625)scale(0.088 -0.088)">
       <use xlink:href="#DejaVuSans-49"/>
       <use x="63.623047" xlink:href="#DejaVuSans-48"/>
       <use x="127.246094" xlink:href="#DejaVuSans-48"/>
      </g>
     </g>
    </g>
    <g id="text_7">
     <!-- Step -->
     <defs>
      <path d="M 53.515625 70.515625 
L 53.515625 60.890625 
Q 47.90625 63.578125 42.921875 64.890625 
Q 37.9375 66.21875 33.296875 66.21875 
Q 25.25 66.21875 20.875 63.09375 
Q 16.5 59.96875 16.5 54.203125 
Q 16.5 49.359375 19.40625 46.890625 
Q 22.3125 44.4375 30.421875 42.921875 
L 36.375 41.703125 
Q 47.40625 39.59375 52.65625 34.296875 
Q 57.90625 29 57.90625 20.125 
Q 57.90625 9.515625 50.796875 4.046875 
Q 43.703125 -1.421875 29.984375 -1.421875 
Q 24.8125 -1.421875 18.96875 -0.25 
Q 13.140625 0.921875 6.890625 3.21875 
L 6.890625 13.375 
Q 12.890625 10.015625 18.65625 8.296875 
Q 24.421875 6.59375 29.984375 6.59375 
Q 38.421875 6.59375 43.015625 9.90625 
Q 47.609375 13.234375 47.609375 19.390625 
Q 47.609375 24.75 44.3125 27.78125 
Q 41.015625 30.8125 33.5 32.328125 
L 27.484375 33.5 
Q 16.453125 35.6875 11.515625 40.375 
Q 6.59375 45.0625 6.59375 53.421875 
Q 6.59375 63.09375 13.40625 68.65625 
Q 20.21875 74.21875 32.171875 74.21875 
Q 37.3125 74.21875 42.625 73.28125 
Q 47.953125 72.359375 53.515625 70.515625 
z
" id="DejaVuSans-83"/>
      <path d="M 18.3125 70.21875 
L 18.3125 54.6875 
L 36.8125 54.6875 
L 36.8125 47.703125 
L 18.3125 47.703125 
L 18.3125 18.015625 
Q 18.3125 11.328125 20.140625 9.421875 
Q 21.96875 7.515625 27.59375 7.515625 
L 36.8125 7.515625 
L 36.8125 0 
L 27.59375 0 
Q 17.1875 0 13.234375 3.875 
Q 9.28125 7.765625 9.28125 18.015625 
L 9.28125 47.703125 
L 2.6875 47.703125 
L 2.6875 54.6875 
L 9.28125 54.6875 
L 9.28125 70.21875 
z
" id="DejaVuSans-116"/>
      <path d="M 56.203125 29.59375 
L 56.203125 25.203125 
L 14.890625 25.203125 
Q 15.484375 15.921875 20.484375 11.0625 
Q 25.484375 6.203125 34.421875 6.203125 
Q 39.59375 6.203125 44.453125 7.46875 
Q 49.3125 8.734375 54.109375 11.28125 
L 54.109375 2.78125 
Q 49.265625 0.734375 44.1875 -0.34375 
Q 39.109375 -1.421875 33.890625 -1.421875 
Q 20.796875 -1.421875 13.15625 6.1875 
Q 5.515625 13.8125 5.515625 26.8125 
Q 5.515625 40.234375 12.765625 48.109375 
Q 20.015625 56 32.328125 56 
Q 43.359375 56 49.78125 48.890625 
Q 56.203125 41.796875 56.203125 29.59375 
z
M 47.21875 32.234375 
Q 47.125 39.59375 43.09375 43.984375 
Q 39.0625 48.390625 32.421875 48.390625 
Q 24.90625 48.390625 20.390625 44.140625 
Q 15.875 39.890625 15.1875 32.171875 
z
" id="DejaVuSans-101"/>
      <path d="M 18.109375 8.203125 
L 18.109375 -20.796875 
L 9.078125 -20.796875 
L 9.078125 54.6875 
L 18.109375 54.6875 
L 18.109375 46.390625 
Q 20.953125 51.265625 25.265625 53.625 
Q 29.59375 56 35.59375 56 
Q 45.5625 56 51.78125 48.09375 
Q 58.015625 40.1875 58.015625 27.296875 
Q 58.015625 14.40625 51.78125 6.484375 
Q 45.5625 -1.421875 35.59375 -1.421875 
Q 29.59375 -1.421875 25.265625 0.953125 
Q 20.953125 3.328125 18.109375 8.203125 
z
M 48.6875 27.296875 
Q 48.6875 37.203125 44.609375 42.84375 
Q 40.53125 48.484375 33.40625 48.484375 
Q 26.265625 48.484375 22.1875 42.84375 
Q 18.109375 37.203125 18.109375 27.296875 
Q 18.109375 17.390625 22.1875 11.75 
Q 26.265625 6.109375 33.40625 6.109375 
Q 40.53125 6.109375 44.609375 11.75 
Q 48.6875 17.390625 48.6875 27.296875 
z
" id="DejaVuSans-112"/>
     </defs>
     <g style="fill:#262626;" transform="translate(201.345352 346.44325)scale(0.096 -0.096)">
      <use xlink:href="#DejaVuSans-83"/>
      <use x="63.476562" xlink:href="#DejaVuSans-116"/>
      <use x="102.685547" xlink:href="#DejaVuSans-101"/>
      <use x="164.208984" xlink:href="#DejaVuSans-112"/>
     </g>
    </g>
   </g>
   <g id="matplotlib.axis_2">
    <g id="ytick_1">
     <g id="line2d_7">
      <path clip-path="url(#pf37d6c1762)" d="M 68.835754 285.423071 
L 355.71445 285.423071 
" style="fill:none;stroke:#cccccc;stroke-linecap:round;stroke-width:0.8;"/>
     </g>
     <g id="text_8">
      <!-- −600 -->
      <defs>
       <path d="M 10.59375 35.5 
L 73.1875 35.5 
L 73.1875 27.203125 
L 10.59375 27.203125 
z
" id="DejaVuSans-8722"/>
      </defs>
      <g style="fill:#262626;" transform="translate(36.364629 288.766383)scale(0.088 -0.088)">
       <use xlink:href="#DejaVuSans-8722"/>
       <use x="83.789062" xlink:href="#DejaVuSans-54"/>
       <use x="147.412109" xlink:href="#DejaVuSans-48"/>
       <use x="211.035156" xlink:href="#DejaVuSans-48"/>
      </g>
     </g>
    </g>
    <g id="ytick_2">
     <g id="line2d_8">
      <path clip-path="url(#pf37d6c1762)" d="M 68.835754 242.677256 
L 355.71445 242.677256 
" style="fill:none;stroke:#cccccc;stroke-linecap:round;stroke-width:0.8;"/>
     </g>
     <g id="text_9">
      <!-- −500 -->
      <defs>
       <path d="M 10.796875 72.90625 
L 49.515625 72.90625 
L 49.515625 64.59375 
L 19.828125 64.59375 
L 19.828125 46.734375 
Q 21.96875 47.46875 24.109375 47.828125 
Q 26.265625 48.1875 28.421875 48.1875 
Q 40.625 48.1875 47.75 41.5 
Q 54.890625 34.8125 54.890625 23.390625 
Q 54.890625 11.625 47.5625 5.09375 
Q 40.234375 -1.421875 26.90625 -1.421875 
Q 22.3125 -1.421875 17.546875 -0.640625 
Q 12.796875 0.140625 7.71875 1.703125 
L 7.71875 11.625 
Q 12.109375 9.234375 16.796875 8.0625 
Q 21.484375 6.890625 26.703125 6.890625 
Q 35.15625 6.890625 40.078125 11.328125 
Q 45.015625 15.765625 45.015625 23.390625 
Q 45.015625 31 40.078125 35.4375 
Q 35.15625 39.890625 26.703125 39.890625 
Q 22.75 39.890625 18.8125 39.015625 
Q 14.890625 38.140625 10.796875 36.28125 
z
" id="DejaVuSans-53"/>
      </defs>
      <g style="fill:#262626;" transform="translate(36.364629 246.020569)scale(0.088 -0.088)">
       <use xlink:href="#DejaVuSans-8722"/>
       <use x="83.789062" xlink:href="#DejaVuSans-53"/>
       <use x="147.412109" xlink:href="#DejaVuSans-48"/>
       <use x="211.035156" xlink:href="#DejaVuSans-48"/>
      </g>
     </g>
    </g>
    <g id="ytick_3">
     <g id="line2d_9">
      <path clip-path="url(#pf37d6c1762)" d="M 68.835754 199.931441 
L 355.71445 199.931441 
" style="fill:none;stroke:#cccccc;stroke-linecap:round;stroke-width:0.8;"/>
     </g>
     <g id="text_10">
      <!-- −400 -->
      <g style="fill:#262626;" transform="translate(36.364629 203.274754)scale(0.088 -0.088)">
       <use xlink:href="#DejaVuSans-8722"/>
       <use x="83.789062" xlink:href="#DejaVuSans-52"/>
       <use x="147.412109" xlink:href="#DejaVuSans-48"/>
       <use x="211.035156" xlink:href="#DejaVuSans-48"/>
      </g>
     </g>
    </g>
    <g id="ytick_4">
     <g id="line2d_10">
      <path clip-path="url(#pf37d6c1762)" d="M 68.835754 157.185626 
L 355.71445 157.185626 
" style="fill:none;stroke:#cccccc;stroke-linecap:round;stroke-width:0.8;"/>
     </g>
     <g id="text_11">
      <!-- −300 -->
      <defs>
       <path d="M 40.578125 39.3125 
Q 47.65625 37.796875 51.625 33 
Q 55.609375 28.21875 55.609375 21.1875 
Q 55.609375 10.40625 48.1875 4.484375 
Q 40.765625 -1.421875 27.09375 -1.421875 
Q 22.515625 -1.421875 17.65625 -0.515625 
Q 12.796875 0.390625 7.625 2.203125 
L 7.625 11.71875 
Q 11.71875 9.328125 16.59375 8.109375 
Q 21.484375 6.890625 26.8125 6.890625 
Q 36.078125 6.890625 40.9375 10.546875 
Q 45.796875 14.203125 45.796875 21.1875 
Q 45.796875 27.640625 41.28125 31.265625 
Q 36.765625 34.90625 28.71875 34.90625 
L 20.21875 34.90625 
L 20.21875 43.015625 
L 29.109375 43.015625 
Q 36.375 43.015625 40.234375 45.921875 
Q 44.09375 48.828125 44.09375 54.296875 
Q 44.09375 59.90625 40.109375 62.90625 
Q 36.140625 65.921875 28.71875 65.921875 
Q 24.65625 65.921875 20.015625 65.03125 
Q 15.375 64.15625 9.8125 62.3125 
L 9.8125 71.09375 
Q 15.4375 72.65625 20.34375 73.4375 
Q 25.25 74.21875 29.59375 74.21875 
Q 40.828125 74.21875 47.359375 69.109375 
Q 53.90625 64.015625 53.90625 55.328125 
Q 53.90625 49.265625 50.4375 45.09375 
Q 46.96875 40.921875 40.578125 39.3125 
z
" id="DejaVuSans-51"/>
      </defs>
      <g style="fill:#262626;" transform="translate(36.364629 160.528939)scale(0.088 -0.088)">
       <use xlink:href="#DejaVuSans-8722"/>
       <use x="83.789062" xlink:href="#DejaVuSans-51"/>
       <use x="147.412109" xlink:href="#DejaVuSans-48"/>
       <use x="211.035156" xlink:href="#DejaVuSans-48"/>
      </g>
     </g>
    </g>
    <g id="ytick_5">
     <g id="line2d_11">
      <path clip-path="url(#pf37d6c1762)" d="M 68.835754 114.439812 
L 355.71445 114.439812 
" style="fill:none;stroke:#cccccc;stroke-linecap:round;stroke-width:0.8;"/>
     </g>
     <g id="text_12">
      <!-- −200 -->
      <g style="fill:#262626;" transform="translate(36.364629 117.783124)scale(0.088 -0.088)">
       <use xlink:href="#DejaVuSans-8722"/>
       <use x="83.789062" xlink:href="#DejaVuSans-50"/>
       <use x="147.412109" xlink:href="#DejaVuSans-48"/>
       <use x="211.035156" xlink:href="#DejaVuSans-48"/>
      </g>
     </g>
    </g>
    <g id="ytick_6">
     <g id="line2d_12">
      <path clip-path="url(#pf37d6c1762)" d="M 68.835754 71.693997 
L 355.71445 71.693997 
" style="fill:none;stroke:#cccccc;stroke-linecap:round;stroke-width:0.8;"/>
     </g>
     <g id="text_13">
      <!-- −100 -->
      <g style="fill:#262626;" transform="translate(36.364629 75.037309)scale(0.088 -0.088)">
       <use xlink:href="#DejaVuSans-8722"/>
       <use x="83.789062" xlink:href="#DejaVuSans-49"/>
       <use x="147.412109" xlink:href="#DejaVuSans-48"/>
       <use x="211.035156" xlink:href="#DejaVuSans-48"/>
      </g>
     </g>
    </g>
    <g id="ytick_7">
     <g id="line2d_13">
      <path clip-path="url(#pf37d6c1762)" d="M 68.835754 28.948182 
L 355.71445 28.948182 
" style="fill:none;stroke:#cccccc;stroke-linecap:round;stroke-width:0.8;"/>
     </g>
     <g id="text_14">
      <!-- 0 -->
      <g style="fill:#262626;" transform="translate(54.936754 32.291494)scale(0.088 -0.088)">
       <use xlink:href="#DejaVuSans-48"/>
      </g>
     </g>
    </g>
    <g id="text_15">
     <!-- Reinforcement -->
     <defs>
      <path d="M 44.390625 34.1875 
Q 47.5625 33.109375 50.5625 29.59375 
Q 53.5625 26.078125 56.59375 19.921875 
L 66.609375 0 
L 56 0 
L 46.6875 18.703125 
Q 43.0625 26.03125 39.671875 28.421875 
Q 36.28125 30.8125 30.421875 30.8125 
L 19.671875 30.8125 
L 19.671875 0 
L 9.8125 0 
L 9.8125 72.90625 
L 32.078125 72.90625 
Q 44.578125 72.90625 50.734375 67.671875 
Q 56.890625 62.453125 56.890625 51.90625 
Q 56.890625 45.015625 53.6875 40.46875 
Q 50.484375 35.9375 44.390625 34.1875 
z
M 19.671875 64.796875 
L 19.671875 38.921875 
L 32.078125 38.921875 
Q 39.203125 38.921875 42.84375 42.21875 
Q 46.484375 45.515625 46.484375 51.90625 
Q 46.484375 58.296875 42.84375 61.546875 
Q 39.203125 64.796875 32.078125 64.796875 
z
" id="DejaVuSans-82"/>
      <path d="M 9.421875 54.6875 
L 18.40625 54.6875 
L 18.40625 0 
L 9.421875 0 
z
M 9.421875 75.984375 
L 18.40625 75.984375 
L 18.40625 64.59375 
L 9.421875 64.59375 
z
" id="DejaVuSans-105"/>
      <path d="M 54.890625 33.015625 
L 54.890625 0 
L 45.90625 0 
L 45.90625 32.71875 
Q 45.90625 40.484375 42.875 44.328125 
Q 39.84375 48.1875 33.796875 48.1875 
Q 26.515625 48.1875 22.3125 43.546875 
Q 18.109375 38.921875 18.109375 30.90625 
L 18.109375 0 
L 9.078125 0 
L 9.078125 54.6875 
L 18.109375 54.6875 
L 18.109375 46.1875 
Q 21.34375 51.125 25.703125 53.5625 
Q 30.078125 56 35.796875 56 
Q 45.21875 56 50.046875 50.171875 
Q 54.890625 44.34375 54.890625 33.015625 
z
" id="DejaVuSans-110"/>
      <path d="M 37.109375 75.984375 
L 37.109375 68.5 
L 28.515625 68.5 
Q 23.6875 68.5 21.796875 66.546875 
Q 19.921875 64.59375 19.921875 59.515625 
L 19.921875 54.6875 
L 34.71875 54.6875 
L 34.71875 47.703125 
L 19.921875 47.703125 
L 19.921875 0 
L 10.890625 0 
L 10.890625 47.703125 
L 2.296875 47.703125 
L 2.296875 54.6875 
L 10.890625 54.6875 
L 10.890625 58.5 
Q 10.890625 67.625 15.140625 71.796875 
Q 19.390625 75.984375 28.609375 75.984375 
z
" id="DejaVuSans-102"/>
      <path d="M 30.609375 48.390625 
Q 23.390625 48.390625 19.1875 42.75 
Q 14.984375 37.109375 14.984375 27.296875 
Q 14.984375 17.484375 19.15625 11.84375 
Q 23.34375 6.203125 30.609375 6.203125 
Q 37.796875 6.203125 41.984375 11.859375 
Q 46.1875 17.53125 46.1875 27.296875 
Q 46.1875 37.015625 41.984375 42.703125 
Q 37.796875 48.390625 30.609375 48.390625 
z
M 30.609375 56 
Q 42.328125 56 49.015625 48.375 
Q 55.71875 40.765625 55.71875 27.296875 
Q 55.71875 13.875 49.015625 6.21875 
Q 42.328125 -1.421875 30.609375 -1.421875 
Q 18.84375 -1.421875 12.171875 6.21875 
Q 5.515625 13.875 5.515625 27.296875 
Q 5.515625 40.765625 12.171875 48.375 
Q 18.84375 56 30.609375 56 
z
" id="DejaVuSans-111"/>
      <path d="M 41.109375 46.296875 
Q 39.59375 47.171875 37.8125 47.578125 
Q 36.03125 48 33.890625 48 
Q 26.265625 48 22.1875 43.046875 
Q 18.109375 38.09375 18.109375 28.8125 
L 18.109375 0 
L 9.078125 0 
L 9.078125 54.6875 
L 18.109375 54.6875 
L 18.109375 46.1875 
Q 20.953125 51.171875 25.484375 53.578125 
Q 30.03125 56 36.53125 56 
Q 37.453125 56 38.578125 55.875 
Q 39.703125 55.765625 41.0625 55.515625 
z
" id="DejaVuSans-114"/>
      <path d="M 48.78125 52.59375 
L 48.78125 44.1875 
Q 44.96875 46.296875 41.140625 47.34375 
Q 37.3125 48.390625 33.40625 48.390625 
Q 24.65625 48.390625 19.8125 42.84375 
Q 14.984375 37.3125 14.984375 27.296875 
Q 14.984375 17.28125 19.8125 11.734375 
Q 24.65625 6.203125 33.40625 6.203125 
Q 37.3125 6.203125 41.140625 7.25 
Q 44.96875 8.296875 48.78125 10.40625 
L 48.78125 2.09375 
Q 45.015625 0.34375 40.984375 -0.53125 
Q 36.96875 -1.421875 32.421875 -1.421875 
Q 20.0625 -1.421875 12.78125 6.34375 
Q 5.515625 14.109375 5.515625 27.296875 
Q 5.515625 40.671875 12.859375 48.328125 
Q 20.21875 56 33.015625 56 
Q 37.15625 56 41.109375 55.140625 
Q 45.0625 54.296875 48.78125 52.59375 
z
" id="DejaVuSans-99"/>
      <path d="M 52 44.1875 
Q 55.375 50.25 60.0625 53.125 
Q 64.75 56 71.09375 56 
Q 79.640625 56 84.28125 50.015625 
Q 88.921875 44.046875 88.921875 33.015625 
L 88.921875 0 
L 79.890625 0 
L 79.890625 32.71875 
Q 79.890625 40.578125 77.09375 44.375 
Q 74.3125 48.1875 68.609375 48.1875 
Q 61.625 48.1875 57.5625 43.546875 
Q 53.515625 38.921875 53.515625 30.90625 
L 53.515625 0 
L 44.484375 0 
L 44.484375 32.71875 
Q 44.484375 40.625 41.703125 44.40625 
Q 38.921875 48.1875 33.109375 48.1875 
Q 26.21875 48.1875 22.15625 43.53125 
Q 18.109375 38.875 18.109375 30.90625 
L 18.109375 0 
L 9.078125 0 
L 9.078125 54.6875 
L 18.109375 54.6875 
L 18.109375 46.1875 
Q 21.1875 51.21875 25.484375 53.609375 
Q 29.78125 56 35.6875 56 
Q 41.65625 56 45.828125 52.96875 
Q 50 49.953125 52 44.1875 
z
" id="DejaVuSans-109"/>
     </defs>
     <g style="fill:#262626;" transform="translate(30.368129 202.15525)rotate(-90)scale(0.096 -0.096)">
      <use xlink:href="#DejaVuSans-82"/>
      <use x="69.419922" xlink:href="#DejaVuSans-101"/>
      <use x="130.943359" xlink:href="#DejaVuSans-105"/>
      <use x="158.726562" xlink:href="#DejaVuSans-110"/>
      <use x="222.105469" xlink:href="#DejaVuSans-102"/>
      <use x="257.310547" xlink:href="#DejaVuSans-111"/>
      <use x="318.492188" xlink:href="#DejaVuSans-114"/>
      <use x="359.574219" xlink:href="#DejaVuSans-99"/>
      <use x="414.554688" xlink:href="#DejaVuSans-101"/>
      <use x="476.078125" xlink:href="#DejaVuSans-109"/>
      <use x="573.490234" xlink:href="#DejaVuSans-101"/>
      <use x="635.013672" xlink:href="#DejaVuSans-110"/>
      <use x="698.392578" xlink:href="#DejaVuSans-116"/>
     </g>
    </g>
   </g>
   <g id="line2d_14">
    <path clip-path="url(#pf37d6c1762)" d="M 81.875695 28.948182 
L 84.510026 30.434689 
L 87.144358 31.959139 
L 89.778689 33.585694 
L 92.413021 35.375034 
L 95.047352 37.350446 
L 97.681684 39.542623 
L 100.316015 41.986342 
L 102.950346 44.690096 
L 105.584678 47.676229 
L 108.219009 50.805921 
L 110.853341 53.942279 
L 113.487672 57.040905 
L 116.122004 60.054698 
L 118.756335 63.001883 
L 121.390667 65.921085 
L 124.024998 68.734626 
L 126.65933 71.388783 
L 129.293661 73.87556 
L 131.927993 76.221135 
L 134.562324 78.44887 
L 137.196655 80.571937 
L 139.830987 82.653724 
L 142.465318 84.765443 
L 145.09965 86.95076 
L 147.733981 89.256114 
L 150.368313 91.731498 
L 153.002644 94.366972 
L 155.636976 97.136613 
L 158.271307 100.017884 
L 160.905639 103.008792 
L 163.53997 106.056587 
L 166.174301 109.158017 
L 168.808633 112.311248 
L 171.442964 115.494859 
L 174.077296 118.69871 
L 176.711627 121.802624 
L 179.345959 124.73287 
L 181.98029 127.512351 
L 184.614622 130.203208 
L 187.248953 132.828058 
L 189.883285 135.407509 
L 192.517616 137.973443 
L 195.151948 140.579177 
L 197.786279 143.269486 
L 200.42061 146.072624 
L 203.054942 148.961991 
L 205.689273 151.935485 
L 208.323605 155.002588 
L 210.957936 158.138687 
L 213.592268 161.268945 
L 216.226599 164.391955 
L 218.860931 167.529069 
L 221.495262 170.657938 
L 224.129594 173.73038 
L 226.763925 176.75226 
L 229.398257 179.716049 
L 232.032588 182.621142 
L 234.666919 185.465667 
L 237.301251 188.276617 
L 239.935582 191.079165 
L 242.569914 193.866471 
L 245.204245 196.633087 
L 247.838577 199.372366 
L 250.472908 202.111844 
L 253.10724 204.861777 
L 255.741571 207.618602 
L 258.375903 210.413211 
L 261.010234 213.294925 
L 263.644565 216.242827 
L 266.278897 219.228392 
L 268.913228 222.241325 
L 271.54756 225.276488 
L 274.181891 228.330195 
L 276.816223 231.378849 
L 279.450554 234.331197 
L 282.084886 237.164685 
L 284.719217 239.90586 
L 287.353549 242.587062 
L 289.98788 245.200409 
L 292.622212 247.7881 
L 295.256543 250.35427 
L 297.890874 252.947183 
L 300.525206 255.62282 
L 303.159537 258.42511 
L 305.793869 261.384679 
L 308.4282 264.47265 
L 311.062532 267.660707 
L 313.696863 270.859882 
L 316.331195 274.044619 
L 318.965526 277.225298 
L 321.599858 280.411529 
L 324.234189 283.56024 
L 326.868521 286.68522 
L 329.502852 289.753979 
L 332.137183 292.762034 
L 334.771515 295.72854 
L 337.405846 298.687391 
L 340.040178 301.628111 
L 342.674509 304.551818 
" style="fill:none;stroke:#4c72b0;stroke-linecap:round;stroke-width:1.2;"/>
   </g>
   <g id="line2d_15">
    <path clip-path="url(#pf37d6c1762)" d="M 81.875695 28.948182 
L 84.510026 30.721708 
L 87.144358 32.546404 
L 89.778689 34.507071 
L 92.413021 36.660433 
L 95.047352 39.057154 
L 97.681684 41.70432 
L 100.316015 44.647706 
L 102.950346 47.866021 
L 105.584678 51.238013 
L 108.219009 54.696316 
L 110.853341 58.105795 
L 113.487672 61.434728 
L 116.122004 64.672129 
L 118.756335 67.767486 
L 121.390667 70.67789 
L 124.024998 73.405696 
L 126.65933 75.95372 
L 129.293661 78.325016 
L 131.927993 80.549972 
L 134.562324 82.648868 
L 137.196655 84.666076 
L 139.830987 86.595554 
L 142.465318 88.501071 
L 145.09965 90.438375 
L 147.733981 92.451609 
L 150.368313 94.595244 
L 153.002644 96.924696 
L 155.636976 99.401852 
L 158.271307 102.03299 
L 160.905639 104.788246 
L 163.53997 107.640538 
L 166.174301 110.557227 
L 168.808633 113.538822 
L 171.442964 116.524454 
L 174.077296 119.45912 
L 176.711627 122.272126 
L 179.345959 124.966446 
L 181.98029 127.573365 
L 184.614622 130.127146 
L 187.248953 132.679633 
L 189.883285 135.252624 
L 192.517616 137.855975 
L 195.151948 140.484092 
L 197.786279 143.154947 
L 200.42061 145.833046 
L 203.054942 148.532791 
L 205.689273 151.284619 
L 208.323605 154.095453 
L 210.957936 157.027309 
L 213.592268 159.995517 
L 216.226599 162.942033 
L 218.860931 165.857157 
L 221.495262 168.739976 
L 224.129594 171.563076 
L 226.763925 174.306529 
L 229.398257 176.982601 
L 232.032588 179.57455 
L 234.666919 182.048778 
L 237.301251 184.411988 
L 239.935582 186.712647 
L 242.569914 188.995337 
L 245.204245 191.292079 
L 247.838577 193.632568 
L 250.472908 196.051715 
L 253.10724 198.54658 
L 255.741571 201.127958 
L 258.375903 203.819529 
L 261.010234 206.566941 
L 263.644565 209.380348 
L 266.278897 212.262641 
L 268.913228 215.19896 
L 271.54756 218.237726 
L 274.181891 221.318652 
L 276.816223 224.425269 
L 279.450554 227.565696 
L 282.084886 230.629643 
L 284.719217 233.612882 
L 287.353549 236.558942 
L 289.98788 239.447078 
L 292.622212 242.24821 
L 295.256543 244.974084 
L 297.890874 247.642783 
L 300.525206 250.236969 
L 303.159537 252.794057 
L 305.793869 255.322992 
L 308.4282 257.851523 
L 311.062532 260.405862 
L 313.696863 263.003543 
L 316.331195 265.6413 
L 318.965526 268.238512 
L 321.599858 270.837421 
L 324.234189 273.437093 
L 326.868521 276.003112 
L 329.502852 278.548826 
L 332.137183 281.104106 
L 334.771515 283.699417 
L 337.405846 286.290763 
L 340.040178 288.864611 
L 342.674509 291.398129 
" style="fill:none;stroke:#dd8452;stroke-linecap:round;stroke-width:1.2;"/>
   </g>
   <g id="line2d_16">
    <path clip-path="url(#pf37d6c1762)" d="M 81.875695 28.948182 
L 84.510026 30.505183 
L 87.144358 32.1118 
L 89.778689 33.847618 
L 92.413021 35.797626 
L 95.047352 38.040674 
L 97.681684 40.644337 
L 100.316015 43.614028 
L 102.950346 46.827353 
L 105.584678 50.193437 
L 108.219009 53.702883 
L 110.853341 57.259615 
L 113.487672 60.690205 
L 116.122004 63.92461 
L 118.756335 66.944471 
L 121.390667 69.75246 
L 124.024998 72.410711 
L 126.65933 74.950902 
L 129.293661 77.411079 
L 131.927993 79.807601 
L 134.562324 82.125851 
L 137.196655 84.419162 
L 139.830987 86.696587 
L 142.465318 88.921574 
L 145.09965 91.112233 
L 147.733981 93.280425 
L 150.368313 95.445703 
L 153.002644 97.634984 
L 155.636976 99.882382 
L 158.271307 102.22398 
L 160.905639 104.698628 
L 163.53997 107.342676 
L 166.174301 110.13034 
L 168.808633 113.071455 
L 171.442964 116.107543 
L 174.077296 119.140895 
L 176.711627 122.141895 
L 179.345959 125.127074 
L 181.98029 128.117711 
L 184.614622 131.123216 
L 187.248953 134.044457 
L 189.883285 136.923124 
L 192.517616 139.812925 
L 195.151948 142.728533 
L 197.786279 145.726855 
L 200.42061 148.785026 
L 203.054942 151.913234 
L 205.689273 155.094929 
L 208.323605 158.279114 
L 210.957936 161.464677 
L 213.592268 164.597072 
L 216.226599 167.674619 
L 218.860931 170.708802 
L 221.495262 173.696994 
L 224.129594 176.643158 
L 226.763925 179.557483 
L 229.398257 182.448472 
L 232.032588 185.296745 
L 234.666919 188.070943 
L 237.301251 190.756696 
L 239.935582 193.369001 
L 242.569914 195.930885 
L 245.204245 198.374854 
L 247.838577 200.697518 
L 250.472908 202.934584 
L 253.10724 205.130526 
L 255.741571 207.322724 
L 258.375903 209.552766 
L 261.010234 211.850403 
L 263.644565 214.258235 
L 266.278897 216.776272 
L 268.913228 219.354819 
L 271.54756 222.028627 
L 274.181891 224.830169 
L 276.816223 227.762988 
L 279.450554 230.757498 
L 282.084886 233.80604 
L 284.719217 236.908337 
L 287.353549 240.096372 
L 289.98788 243.355419 
L 292.622212 246.659839 
L 295.256543 249.993864 
L 297.890874 253.299597 
L 300.525206 256.536847 
L 303.159537 259.694808 
L 305.793869 262.800823 
L 308.4282 265.870491 
L 311.062532 268.878466 
L 313.696863 271.824726 
L 316.331195 274.750536 
L 318.965526 277.677046 
L 321.599858 280.654477 
L 324.234189 283.708713 
L 326.868521 286.761531 
L 329.502852 289.798064 
L 332.137183 292.813363 
L 334.771515 295.782256 
L 337.405846 298.654924 
L 340.040178 301.428386 
L 342.674509 304.100551 
" style="fill:none;stroke:#55a868;stroke-linecap:round;stroke-width:1.2;"/>
   </g>
   <g id="line2d_17">
    <path clip-path="url(#pf37d6c1762)" d="M 81.875695 28.948182 
L 84.510026 30.254971 
L 87.144358 31.592761 
L 89.778689 33.021117 
L 92.413021 34.604639 
L 95.047352 36.412812 
L 97.681684 38.518736 
L 100.316015 40.990818 
L 102.950346 43.882142 
L 105.584678 47.259394 
L 108.219009 50.937574 
L 110.853341 54.838027 
L 113.487672 58.681741 
L 116.122004 62.367401 
L 118.756335 65.824098 
L 121.390667 69.031135 
L 124.024998 71.946109 
L 126.65933 74.541243 
L 129.293661 76.850724 
L 131.927993 78.988086 
L 134.562324 81.033677 
L 137.196655 83.059182 
L 139.830987 85.079076 
L 142.465318 87.157284 
L 145.09965 89.356574 
L 147.733981 91.69989 
L 150.368313 94.201453 
L 153.002644 96.81976 
L 155.636976 99.525676 
L 158.271307 102.298646 
L 160.905639 105.109388 
L 163.53997 107.781734 
L 166.174301 110.374237 
L 168.808633 112.946759 
L 171.442964 115.480857 
L 174.077296 117.904376 
L 176.711627 120.186695 
L 179.345959 122.389787 
L 181.98029 124.578255 
L 184.614622 126.820144 
L 187.248953 129.141139 
L 189.883285 131.424743 
L 192.517616 133.737738 
L 195.151948 136.086456 
L 197.786279 138.497692 
L 200.42061 141.05228 
L 203.054942 143.826541 
L 205.689273 146.869254 
L 208.323605 150.047638 
L 210.957936 153.216856 
L 213.592268 156.246436 
L 216.226599 159.058153 
L 218.860931 161.652628 
L 221.495262 164.102575 
L 224.129594 166.495857 
L 226.763925 168.930374 
L 229.398257 171.462718 
L 232.032588 174.120875 
L 234.666919 176.891809 
L 237.301251 179.585256 
L 239.935582 182.251679 
L 242.569914 184.864456 
L 245.204245 187.450605 
L 247.838577 190.044312 
L 250.472908 192.638113 
L 253.10724 195.261842 
L 255.741571 197.845431 
L 258.375903 200.271549 
L 261.010234 202.585467 
L 263.644565 204.849385 
L 266.278897 207.151368 
L 268.913228 209.514642 
L 271.54756 211.954208 
L 274.181891 214.493786 
L 276.816223 217.229443 
L 279.450554 220.203977 
L 282.084886 223.237528 
L 284.719217 226.163669 
L 287.353549 228.969923 
L 289.98788 231.716291 
L 292.622212 234.339295 
L 295.256543 236.914488 
L 297.890874 239.486196 
L 300.525206 242.054237 
L 303.159537 244.630316 
L 305.793869 247.102857 
L 308.4282 249.433308 
L 311.062532 251.591014 
L 313.696863 253.637734 
L 316.331195 255.636612 
L 318.965526 257.668142 
L 321.599858 259.753211 
L 324.234189 261.950287 
L 326.868521 264.29929 
L 329.502852 266.784945 
L 332.137183 269.401308 
L 334.771515 272.129149 
L 337.405846 274.985237 
L 340.040178 278.051418 
L 342.674509 281.266031 
" style="fill:none;stroke:#c44e52;stroke-linecap:round;stroke-width:1.2;"/>
   </g>
   <g id="line2d_18"/>
   <g id="line2d_19"/>
   <g id="line2d_20"/>
   <g id="line2d_21"/>
   <g id="line2d_22"/>
   <g id="patch_3">
    <path d="M 68.835754 318.332 
L 68.835754 15.168 
" style="fill:none;stroke:#cccccc;stroke-linecap:square;stroke-linejoin:miter;"/>
   </g>
   <g id="patch_4">
    <path d="M 68.835754 318.332 
L 355.71445 318.332 
" style="fill:none;stroke:#cccccc;stroke-linecap:square;stroke-linejoin:miter;"/>
   </g>
   <g id="text_16">
    <!-- Mean CumSum Reinforcements for 25 100-Step Rollouts -->
    <defs>
     <path d="M 9.8125 72.90625 
L 24.515625 72.90625 
L 43.109375 23.296875 
L 61.8125 72.90625 
L 76.515625 72.90625 
L 76.515625 0 
L 66.890625 0 
L 66.890625 64.015625 
L 48.09375 14.015625 
L 38.1875 14.015625 
L 19.390625 64.015625 
L 19.390625 0 
L 9.8125 0 
z
" id="DejaVuSans-77"/>
     <path d="M 34.28125 27.484375 
Q 23.390625 27.484375 19.1875 25 
Q 14.984375 22.515625 14.984375 16.5 
Q 14.984375 11.71875 18.140625 8.90625 
Q 21.296875 6.109375 26.703125 6.109375 
Q 34.1875 6.109375 38.703125 11.40625 
Q 43.21875 16.703125 43.21875 25.484375 
L 43.21875 27.484375 
z
M 52.203125 31.203125 
L 52.203125 0 
L 43.21875 0 
L 43.21875 8.296875 
Q 40.140625 3.328125 35.546875 0.953125 
Q 30.953125 -1.421875 24.3125 -1.421875 
Q 15.921875 -1.421875 10.953125 3.296875 
Q 6 8.015625 6 15.921875 
Q 6 25.140625 12.171875 29.828125 
Q 18.359375 34.515625 30.609375 34.515625 
L 43.21875 34.515625 
L 43.21875 35.40625 
Q 43.21875 41.609375 39.140625 45 
Q 35.0625 48.390625 27.6875 48.390625 
Q 23 48.390625 18.546875 47.265625 
Q 14.109375 46.140625 10.015625 43.890625 
L 10.015625 52.203125 
Q 14.9375 54.109375 19.578125 55.046875 
Q 24.21875 56 28.609375 56 
Q 40.484375 56 46.34375 49.84375 
Q 52.203125 43.703125 52.203125 31.203125 
z
" id="DejaVuSans-97"/>
     <path id="DejaVuSans-32"/>
     <path d="M 64.40625 67.28125 
L 64.40625 56.890625 
Q 59.421875 61.53125 53.78125 63.8125 
Q 48.140625 66.109375 41.796875 66.109375 
Q 29.296875 66.109375 22.65625 58.46875 
Q 16.015625 50.828125 16.015625 36.375 
Q 16.015625 21.96875 22.65625 14.328125 
Q 29.296875 6.6875 41.796875 6.6875 
Q 48.140625 6.6875 53.78125 8.984375 
Q 59.421875 11.28125 64.40625 15.921875 
L 64.40625 5.609375 
Q 59.234375 2.09375 53.4375 0.328125 
Q 47.65625 -1.421875 41.21875 -1.421875 
Q 24.65625 -1.421875 15.125 8.703125 
Q 5.609375 18.84375 5.609375 36.375 
Q 5.609375 53.953125 15.125 64.078125 
Q 24.65625 74.21875 41.21875 74.21875 
Q 47.75 74.21875 53.53125 72.484375 
Q 59.328125 70.75 64.40625 67.28125 
z
" id="DejaVuSans-67"/>
     <path d="M 8.5 21.578125 
L 8.5 54.6875 
L 17.484375 54.6875 
L 17.484375 21.921875 
Q 17.484375 14.15625 20.5 10.265625 
Q 23.53125 6.390625 29.59375 6.390625 
Q 36.859375 6.390625 41.078125 11.03125 
Q 45.3125 15.671875 45.3125 23.6875 
L 45.3125 54.6875 
L 54.296875 54.6875 
L 54.296875 0 
L 45.3125 0 
L 45.3125 8.40625 
Q 42.046875 3.421875 37.71875 1 
Q 33.40625 -1.421875 27.6875 -1.421875 
Q 18.265625 -1.421875 13.375 4.4375 
Q 8.5 10.296875 8.5 21.578125 
z
M 31.109375 56 
z
" id="DejaVuSans-117"/>
     <path d="M 44.28125 53.078125 
L 44.28125 44.578125 
Q 40.484375 46.53125 36.375 47.5 
Q 32.28125 48.484375 27.875 48.484375 
Q 21.1875 48.484375 17.84375 46.4375 
Q 14.5 44.390625 14.5 40.28125 
Q 14.5 37.15625 16.890625 35.375 
Q 19.28125 33.59375 26.515625 31.984375 
L 29.59375 31.296875 
Q 39.15625 29.25 43.1875 25.515625 
Q 47.21875 21.78125 47.21875 15.09375 
Q 47.21875 7.46875 41.1875 3.015625 
Q 35.15625 -1.421875 24.609375 -1.421875 
Q 20.21875 -1.421875 15.453125 -0.5625 
Q 10.6875 0.296875 5.421875 2 
L 5.421875 11.28125 
Q 10.40625 8.6875 15.234375 7.390625 
Q 20.0625 6.109375 24.8125 6.109375 
Q 31.15625 6.109375 34.5625 8.28125 
Q 37.984375 10.453125 37.984375 14.40625 
Q 37.984375 18.0625 35.515625 20.015625 
Q 33.0625 21.96875 24.703125 23.78125 
L 21.578125 24.515625 
Q 13.234375 26.265625 9.515625 29.90625 
Q 5.8125 33.546875 5.8125 39.890625 
Q 5.8125 47.609375 11.28125 51.796875 
Q 16.75 56 26.8125 56 
Q 31.78125 56 36.171875 55.265625 
Q 40.578125 54.546875 44.28125 53.078125 
z
" id="DejaVuSans-115"/>
     <path d="M 4.890625 31.390625 
L 31.203125 31.390625 
L 31.203125 23.390625 
L 4.890625 23.390625 
z
" id="DejaVuSans-45"/>
     <path d="M 9.421875 75.984375 
L 18.40625 75.984375 
L 18.40625 0 
L 9.421875 0 
z
" id="DejaVuSans-108"/>
    </defs>
    <g style="fill:#262626;" transform="translate(76.474852 9.168)scale(0.096 -0.096)">
     <use xlink:href="#DejaVuSans-77"/>
     <use x="86.279297" xlink:href="#DejaVuSans-101"/>
     <use x="147.802734" xlink:href="#DejaVuSans-97"/>
     <use x="209.082031" xlink:href="#DejaVuSans-110"/>
     <use x="272.460938" xlink:href="#DejaVuSans-32"/>
     <use x="304.248047" xlink:href="#DejaVuSans-67"/>
     <use x="374.072266" xlink:href="#DejaVuSans-117"/>
     <use x="437.451172" xlink:href="#DejaVuSans-109"/>
     <use x="534.863281" xlink:href="#DejaVuSans-83"/>
     <use x="598.339844" xlink:href="#DejaVuSans-117"/>
     <use x="661.71875" xlink:href="#DejaVuSans-109"/>
     <use x="759.130859" xlink:href="#DejaVuSans-32"/>
     <use x="790.917969" xlink:href="#DejaVuSans-82"/>
     <use x="860.337891" xlink:href="#DejaVuSans-101"/>
     <use x="921.861328" xlink:href="#DejaVuSans-105"/>
     <use x="949.644531" xlink:href="#DejaVuSans-110"/>
     <use x="1013.023438" xlink:href="#DejaVuSans-102"/>
     <use x="1048.228516" xlink:href="#DejaVuSans-111"/>
     <use x="1109.410156" xlink:href="#DejaVuSans-114"/>
     <use x="1150.492188" xlink:href="#DejaVuSans-99"/>
     <use x="1205.472656" xlink:href="#DejaVuSans-101"/>
     <use x="1266.996094" xlink:href="#DejaVuSans-109"/>
     <use x="1364.408203" xlink:href="#DejaVuSans-101"/>
     <use x="1425.931641" xlink:href="#DejaVuSans-110"/>
     <use x="1489.310547" xlink:href="#DejaVuSans-116"/>
     <use x="1528.519531" xlink:href="#DejaVuSans-115"/>
     <use x="1580.619141" xlink:href="#DejaVuSans-32"/>
     <use x="1612.40625" xlink:href="#DejaVuSans-102"/>
     <use x="1647.611328" xlink:href="#DejaVuSans-111"/>
     <use x="1708.792969" xlink:href="#DejaVuSans-114"/>
     <use x="1749.90625" xlink:href="#DejaVuSans-32"/>
     <use x="1781.693359" xlink:href="#DejaVuSans-50"/>
     <use x="1845.316406" xlink:href="#DejaVuSans-53"/>
     <use x="1908.939453" xlink:href="#DejaVuSans-32"/>
     <use x="1940.726562" xlink:href="#DejaVuSans-49"/>
     <use x="2004.349609" xlink:href="#DejaVuSans-48"/>
     <use x="2067.972656" xlink:href="#DejaVuSans-48"/>
     <use x="2131.595703" xlink:href="#DejaVuSans-45"/>
     <use x="2167.679688" xlink:href="#DejaVuSans-83"/>
     <use x="2231.15625" xlink:href="#DejaVuSans-116"/>
     <use x="2270.365234" xlink:href="#DejaVuSans-101"/>
     <use x="2331.888672" xlink:href="#DejaVuSans-112"/>
     <use x="2395.365234" xlink:href="#DejaVuSans-32"/>
     <use x="2427.152344" xlink:href="#DejaVuSans-82"/>
     <use x="2496.572266" xlink:href="#DejaVuSans-111"/>
     <use x="2557.753906" xlink:href="#DejaVuSans-108"/>
     <use x="2585.537109" xlink:href="#DejaVuSans-108"/>
     <use x="2613.320312" xlink:href="#DejaVuSans-111"/>
     <use x="2674.501953" xlink:href="#DejaVuSans-117"/>
     <use x="2737.880859" xlink:href="#DejaVuSans-116"/>
     <use x="2777.089844" xlink:href="#DejaVuSans-115"/>
    </g>
   </g>
  </g>
  <g id="legend_1">
   <g id="line2d_23">
    <path d="M 359.29075 153.51475 
L 376.89075 153.51475 
" style="fill:none;"/>
   </g>
   <g id="line2d_24"/>
   <g id="text_17">
    <!-- strategy -->
    <defs>
     <path d="M 45.40625 27.984375 
Q 45.40625 37.75 41.375 43.109375 
Q 37.359375 48.484375 30.078125 48.484375 
Q 22.859375 48.484375 18.828125 43.109375 
Q 14.796875 37.75 14.796875 27.984375 
Q 14.796875 18.265625 18.828125 12.890625 
Q 22.859375 7.515625 30.078125 7.515625 
Q 37.359375 7.515625 41.375 12.890625 
Q 45.40625 18.265625 45.40625 27.984375 
z
M 54.390625 6.78125 
Q 54.390625 -7.171875 48.1875 -13.984375 
Q 42 -20.796875 29.203125 -20.796875 
Q 24.46875 -20.796875 20.265625 -20.09375 
Q 16.0625 -19.390625 12.109375 -17.921875 
L 12.109375 -9.1875 
Q 16.0625 -11.328125 19.921875 -12.34375 
Q 23.78125 -13.375 27.78125 -13.375 
Q 36.625 -13.375 41.015625 -8.765625 
Q 45.40625 -4.15625 45.40625 5.171875 
L 45.40625 9.625 
Q 42.625 4.78125 38.28125 2.390625 
Q 33.9375 0 27.875 0 
Q 17.828125 0 11.671875 7.65625 
Q 5.515625 15.328125 5.515625 27.984375 
Q 5.515625 40.671875 11.671875 48.328125 
Q 17.828125 56 27.875 56 
Q 33.9375 56 38.28125 53.609375 
Q 42.625 51.21875 45.40625 46.390625 
L 45.40625 54.6875 
L 54.390625 54.6875 
z
" id="DejaVuSans-103"/>
     <path d="M 32.171875 -5.078125 
Q 28.375 -14.84375 24.75 -17.8125 
Q 21.140625 -20.796875 15.09375 -20.796875 
L 7.90625 -20.796875 
L 7.90625 -13.28125 
L 13.1875 -13.28125 
Q 16.890625 -13.28125 18.9375 -11.515625 
Q 21 -9.765625 23.484375 -3.21875 
L 25.09375 0.875 
L 2.984375 54.6875 
L 12.5 54.6875 
L 29.59375 11.921875 
L 46.6875 54.6875 
L 56.203125 54.6875 
z
" id="DejaVuSans-121"/>
    </defs>
    <g style="fill:#262626;" transform="translate(383.93075 156.59475)scale(0.088 -0.088)">
     <use xlink:href="#DejaVuSans-115"/>
     <use x="52.099609" xlink:href="#DejaVuSans-116"/>
     <use x="91.308594" xlink:href="#DejaVuSans-114"/>
     <use x="132.421875" xlink:href="#DejaVuSans-97"/>
     <use x="193.701172" xlink:href="#DejaVuSans-116"/>
     <use x="232.910156" xlink:href="#DejaVuSans-101"/>
     <use x="294.433594" xlink:href="#DejaVuSans-103"/>
     <use x="357.910156" xlink:href="#DejaVuSans-121"/>
    </g>
   </g>
   <g id="line2d_25">
    <path d="M 359.29075 166.4315 
L 376.89075 166.4315 
" style="fill:none;stroke:#4c72b0;stroke-linecap:round;stroke-width:1.2;"/>
   </g>
   <g id="line2d_26"/>
   <g id="text_18">
    <!-- none -->
    <g style="fill:#262626;" transform="translate(383.93075 169.5115)scale(0.088 -0.088)">
     <use xlink:href="#DejaVuSans-110"/>
     <use x="63.378906" xlink:href="#DejaVuSans-111"/>
     <use x="124.560547" xlink:href="#DejaVuSans-110"/>
     <use x="187.939453" xlink:href="#DejaVuSans-101"/>
    </g>
   </g>
   <g id="line2d_27">
    <path d="M 359.29075 179.34825 
L 376.89075 179.34825 
" style="fill:none;stroke:#dd8452;stroke-linecap:round;stroke-width:1.2;"/>
   </g>
   <g id="line2d_28"/>
   <g id="text_19">
    <!-- first -->
    <g style="fill:#262626;" transform="translate(383.93075 182.42825)scale(0.088 -0.088)">
     <use xlink:href="#DejaVuSans-102"/>
     <use x="35.205078" xlink:href="#DejaVuSans-105"/>
     <use x="62.988281" xlink:href="#DejaVuSans-114"/>
     <use x="104.101562" xlink:href="#DejaVuSans-115"/>
     <use x="156.201172" xlink:href="#DejaVuSans-116"/>
    </g>
   </g>
   <g id="line2d_29">
    <path d="M 359.29075 192.265 
L 376.89075 192.265 
" style="fill:none;stroke:#55a868;stroke-linecap:round;stroke-width:1.2;"/>
   </g>
   <g id="line2d_30"/>
   <g id="text_20">
    <!-- last -->
    <g style="fill:#262626;" transform="translate(383.93075 195.345)scale(0.088 -0.088)">
     <use xlink:href="#DejaVuSans-108"/>
     <use x="27.783203" xlink:href="#DejaVuSans-97"/>
     <use x="89.0625" xlink:href="#DejaVuSans-115"/>
     <use x="141.162109" xlink:href="#DejaVuSans-116"/>
    </g>
   </g>
   <g id="line2d_31">
    <path d="M 359.29075 205.18175 
L 376.89075 205.18175 
" style="fill:none;stroke:#c44e52;stroke-linecap:round;stroke-width:1.2;"/>
   </g>
   <g id="line2d_32"/>
   <g id="text_21">
    <!-- random -->
    <defs>
     <path d="M 45.40625 46.390625 
L 45.40625 75.984375 
L 54.390625 75.984375 
L 54.390625 0 
L 45.40625 0 
L 45.40625 8.203125 
Q 42.578125 3.328125 38.25 0.953125 
Q 33.9375 -1.421875 27.875 -1.421875 
Q 17.96875 -1.421875 11.734375 6.484375 
Q 5.515625 14.40625 5.515625 27.296875 
Q 5.515625 40.1875 11.734375 48.09375 
Q 17.96875 56 27.875 56 
Q 33.9375 56 38.25 53.625 
Q 42.578125 51.265625 45.40625 46.390625 
z
M 14.796875 27.296875 
Q 14.796875 17.390625 18.875 11.75 
Q 22.953125 6.109375 30.078125 6.109375 
Q 37.203125 6.109375 41.296875 11.75 
Q 45.40625 17.390625 45.40625 27.296875 
Q 45.40625 37.203125 41.296875 42.84375 
Q 37.203125 48.484375 30.078125 48.484375 
Q 22.953125 48.484375 18.875 42.84375 
Q 14.796875 37.203125 14.796875 27.296875 
z
" id="DejaVuSans-100"/>
    </defs>
    <g style="fill:#262626;" transform="translate(383.93075 208.26175)scale(0.088 -0.088)">
     <use xlink:href="#DejaVuSans-114"/>
     <use x="41.113281" xlink:href="#DejaVuSans-97"/>
     <use x="102.392578" xlink:href="#DejaVuSans-110"/>
     <use x="165.771484" xlink:href="#DejaVuSans-100"/>
     <use x="229.248047" xlink:href="#DejaVuSans-111"/>
     <use x="290.429688" xlink:href="#DejaVuSans-109"/>
    </g>
   </g>
  </g>
 </g>
 <defs>
  <clipPath id="pf37d6c1762">
   <rect height="303.164" width="286.878696" x="68.835754" y="15.168"/>
  </clipPath>
 </defs>
</svg>
