<?xml version="1.0" encoding="utf-8" standalone="no"?>
<!DOCTYPE svg PUBLIC "-//W3C//DTD SVG 1.1//EN"
  "http://www.w3.org/Graphics/SVG/1.1/DTD/svg11.dtd">
<!-- Created with matplotlib (https://matplotlib.org/) -->
<svg height="360pt" version="1.1" viewBox="0 0 821.805 360" width="821.805pt" xmlns="http://www.w3.org/2000/svg" xmlns:xlink="http://www.w3.org/1999/xlink">
 <defs>
  <style type="text/css">
*{stroke-linecap:butt;stroke-linejoin:round;}
  </style>
 </defs>
 <g id="figure_1">
  <g id="patch_1">
   <path d="M 0 360 
L 821.805 360 
L 821.805 0 
L 0 0 
z
" style="fill:#ffffff;"/>
  </g>
  <g id="axes_1">
   <g id="patch_2">
    <path d="M 56.548174 318.332 
L 711.78195 318.332 
L 711.78195 15.168 
L 56.548174 15.168 
z
" style="fill:#ffffff;"/>
   </g>
   <g id="matplotlib.axis_1">
    <g id="xtick_1">
     <g id="line2d_1">
      <path clip-path="url(#p6b48bc9b9d)" d="M 86.331527 318.332 
L 86.331527 15.168 
" style="fill:none;stroke:#cccccc;stroke-linecap:round;stroke-width:0.8;"/>
     </g>
     <g id="text_1">
      <!-- 0 -->
      <defs>
       <path d="M 31.78125 66.40625 
Q 24.171875 66.40625 20.328125 58.90625 
Q 16.5 51.421875 16.5 36.375 
Q 16.5 21.390625 20.328125 13.890625 
Q 24.171875 6.390625 31.78125 6.390625 
Q 39.453125 6.390625 43.28125 13.890625 
Q 47.125 21.390625 47.125 36.375 
Q 47.125 51.421875 43.28125 58.90625 
Q 39.453125 66.40625 31.78125 66.40625 
z
M 31.78125 74.21875 
Q 44.046875 74.21875 50.515625 64.515625 
Q 56.984375 54.828125 56.984375 36.375 
Q 56.984375 17.96875 50.515625 8.265625 
Q 44.046875 -1.421875 31.78125 -1.421875 
Q 19.53125 -1.421875 13.0625 8.265625 
Q 6.59375 17.96875 6.59375 36.375 
Q 6.59375 54.828125 13.0625 64.515625 
Q 19.53125 74.21875 31.78125 74.21875 
z
" id="DejaVuSans-48"/>
      </defs>
      <g style="fill:#262626;" transform="translate(83.532027 333.318625)scale(0.088 -0.088)">
       <use xlink:href="#DejaVuSans-48"/>
      </g>
     </g>
    </g>
    <g id="xtick_2">
     <g id="line2d_2">
      <path clip-path="url(#p6b48bc9b9d)" d="M 205.703685 318.332 
L 205.703685 15.168 
" style="fill:none;stroke:#cccccc;stroke-linecap:round;stroke-width:0.8;"/>
     </g>
     <g id="text_2">
      <!-- 100 -->
      <defs>
       <path d="M 12.40625 8.296875 
L 28.515625 8.296875 
L 28.515625 63.921875 
L 10.984375 60.40625 
L 10.984375 69.390625 
L 28.421875 72.90625 
L 38.28125 72.90625 
L 38.28125 8.296875 
L 54.390625 8.296875 
L 54.390625 0 
L 12.40625 0 
z
" id="DejaVuSans-49"/>
      </defs>
      <g style="fill:#262626;" transform="translate(197.305185 333.318625)scale(0.088 -0.088)">
       <use xlink:href="#DejaVuSans-49"/>
       <use x="63.623047" xlink:href="#DejaVuSans-48"/>
       <use x="127.246094" xlink:href="#DejaVuSans-48"/>
      </g>
     </g>
    </g>
    <g id="xtick_3">
     <g id="line2d_3">
      <path clip-path="url(#p6b48bc9b9d)" d="M 325.075844 318.332 
L 325.075844 15.168 
" style="fill:none;stroke:#cccccc;stroke-linecap:round;stroke-width:0.8;"/>
     </g>
     <g id="text_3">
      <!-- 200 -->
      <defs>
       <path d="M 19.1875 8.296875 
L 53.609375 8.296875 
L 53.609375 0 
L 7.328125 0 
L 7.328125 8.296875 
Q 12.9375 14.109375 22.625 23.890625 
Q 32.328125 33.6875 34.8125 36.53125 
Q 39.546875 41.84375 41.421875 45.53125 
Q 43.3125 49.21875 43.3125 52.78125 
Q 43.3125 58.59375 39.234375 62.25 
Q 35.15625 65.921875 28.609375 65.921875 
Q 23.96875 65.921875 18.8125 64.3125 
Q 13.671875 62.703125 7.8125 59.421875 
L 7.8125 69.390625 
Q 13.765625 71.78125 18.9375 73 
Q 24.125 74.21875 28.421875 74.21875 
Q 39.75 74.21875 46.484375 68.546875 
Q 53.21875 62.890625 53.21875 53.421875 
Q 53.21875 48.921875 51.53125 44.890625 
Q 49.859375 40.875 45.40625 35.40625 
Q 44.1875 33.984375 37.640625 27.21875 
Q 31.109375 20.453125 19.1875 8.296875 
z
" id="DejaVuSans-50"/>
      </defs>
      <g style="fill:#262626;" transform="translate(316.677344 333.318625)scale(0.088 -0.088)">
       <use xlink:href="#DejaVuSans-50"/>
       <use x="63.623047" xlink:href="#DejaVuSans-48"/>
       <use x="127.246094" xlink:href="#DejaVuSans-48"/>
      </g>
     </g>
    </g>
    <g id="xtick_4">
     <g id="line2d_4">
      <path clip-path="url(#p6b48bc9b9d)" d="M 444.448002 318.332 
L 444.448002 15.168 
" style="fill:none;stroke:#cccccc;stroke-linecap:round;stroke-width:0.8;"/>
     </g>
     <g id="text_4">
      <!-- 300 -->
      <defs>
       <path d="M 40.578125 39.3125 
Q 47.65625 37.796875 51.625 33 
Q 55.609375 28.21875 55.609375 21.1875 
Q 55.609375 10.40625 48.1875 4.484375 
Q 40.765625 -1.421875 27.09375 -1.421875 
Q 22.515625 -1.421875 17.65625 -0.515625 
Q 12.796875 0.390625 7.625 2.203125 
L 7.625 11.71875 
Q 11.71875 9.328125 16.59375 8.109375 
Q 21.484375 6.890625 26.8125 6.890625 
Q 36.078125 6.890625 40.9375 10.546875 
Q 45.796875 14.203125 45.796875 21.1875 
Q 45.796875 27.640625 41.28125 31.265625 
Q 36.765625 34.90625 28.71875 34.90625 
L 20.21875 34.90625 
L 20.21875 43.015625 
L 29.109375 43.015625 
Q 36.375 43.015625 40.234375 45.921875 
Q 44.09375 48.828125 44.09375 54.296875 
Q 44.09375 59.90625 40.109375 62.90625 
Q 36.140625 65.921875 28.71875 65.921875 
Q 24.65625 65.921875 20.015625 65.03125 
Q 15.375 64.15625 9.8125 62.3125 
L 9.8125 71.09375 
Q 15.4375 72.65625 20.34375 73.4375 
Q 25.25 74.21875 29.59375 74.21875 
Q 40.828125 74.21875 47.359375 69.109375 
Q 53.90625 64.015625 53.90625 55.328125 
Q 53.90625 49.265625 50.4375 45.09375 
Q 46.96875 40.921875 40.578125 39.3125 
z
" id="DejaVuSans-51"/>
      </defs>
      <g style="fill:#262626;" transform="translate(436.049502 333.318625)scale(0.088 -0.088)">
       <use xlink:href="#DejaVuSans-51"/>
       <use x="63.623047" xlink:href="#DejaVuSans-48"/>
       <use x="127.246094" xlink:href="#DejaVuSans-48"/>
      </g>
     </g>
    </g>
    <g id="xtick_5">
     <g id="line2d_5">
      <path clip-path="url(#p6b48bc9b9d)" d="M 563.82016 318.332 
L 563.82016 15.168 
" style="fill:none;stroke:#cccccc;stroke-linecap:round;stroke-width:0.8;"/>
     </g>
     <g id="text_5">
      <!-- 400 -->
      <defs>
       <path d="M 37.796875 64.3125 
L 12.890625 25.390625 
L 37.796875 25.390625 
z
M 35.203125 72.90625 
L 47.609375 72.90625 
L 47.609375 25.390625 
L 58.015625 25.390625 
L 58.015625 17.1875 
L 47.609375 17.1875 
L 47.609375 0 
L 37.796875 0 
L 37.796875 17.1875 
L 4.890625 17.1875 
L 4.890625 26.703125 
z
" id="DejaVuSans-52"/>
      </defs>
      <g style="fill:#262626;" transform="translate(555.42166 333.318625)scale(0.088 -0.088)">
       <use xlink:href="#DejaVuSans-52"/>
       <use x="63.623047" xlink:href="#DejaVuSans-48"/>
       <use x="127.246094" xlink:href="#DejaVuSans-48"/>
      </g>
     </g>
    </g>
    <g id="xtick_6">
     <g id="line2d_6">
      <path clip-path="url(#p6b48bc9b9d)" d="M 683.192318 318.332 
L 683.192318 15.168 
" style="fill:none;stroke:#cccccc;stroke-linecap:round;stroke-width:0.8;"/>
     </g>
     <g id="text_6">
      <!-- 500 -->
      <defs>
       <path d="M 10.796875 72.90625 
L 49.515625 72.90625 
L 49.515625 64.59375 
L 19.828125 64.59375 
L 19.828125 46.734375 
Q 21.96875 47.46875 24.109375 47.828125 
Q 26.265625 48.1875 28.421875 48.1875 
Q 40.625 48.1875 47.75 41.5 
Q 54.890625 34.8125 54.890625 23.390625 
Q 54.890625 11.625 47.5625 5.09375 
Q 40.234375 -1.421875 26.90625 -1.421875 
Q 22.3125 -1.421875 17.546875 -0.640625 
Q 12.796875 0.140625 7.71875 1.703125 
L 7.71875 11.625 
Q 12.109375 9.234375 16.796875 8.0625 
Q 21.484375 6.890625 26.703125 6.890625 
Q 35.15625 6.890625 40.078125 11.328125 
Q 45.015625 15.765625 45.015625 23.390625 
Q 45.015625 31 40.078125 35.4375 
Q 35.15625 39.890625 26.703125 39.890625 
Q 22.75 39.890625 18.8125 39.015625 
Q 14.890625 38.140625 10.796875 36.28125 
z
" id="DejaVuSans-53"/>
      </defs>
      <g style="fill:#262626;" transform="translate(674.793818 333.318625)scale(0.088 -0.088)">
       <use xlink:href="#DejaVuSans-53"/>
       <use x="63.623047" xlink:href="#DejaVuSans-48"/>
       <use x="127.246094" xlink:href="#DejaVuSans-48"/>
      </g>
     </g>
    </g>
    <g id="text_7">
     <!-- Iteration -->
     <defs>
      <path d="M 9.8125 72.90625 
L 19.671875 72.90625 
L 19.671875 0 
L 9.8125 0 
z
" id="DejaVuSans-73"/>
      <path d="M 18.3125 70.21875 
L 18.3125 54.6875 
L 36.8125 54.6875 
L 36.8125 47.703125 
L 18.3125 47.703125 
L 18.3125 18.015625 
Q 18.3125 11.328125 20.140625 9.421875 
Q 21.96875 7.515625 27.59375 7.515625 
L 36.8125 7.515625 
L 36.8125 0 
L 27.59375 0 
Q 17.1875 0 13.234375 3.875 
Q 9.28125 7.765625 9.28125 18.015625 
L 9.28125 47.703125 
L 2.6875 47.703125 
L 2.6875 54.6875 
L 9.28125 54.6875 
L 9.28125 70.21875 
z
" id="DejaVuSans-116"/>
      <path d="M 56.203125 29.59375 
L 56.203125 25.203125 
L 14.890625 25.203125 
Q 15.484375 15.921875 20.484375 11.0625 
Q 25.484375 6.203125 34.421875 6.203125 
Q 39.59375 6.203125 44.453125 7.46875 
Q 49.3125 8.734375 54.109375 11.28125 
L 54.109375 2.78125 
Q 49.265625 0.734375 44.1875 -0.34375 
Q 39.109375 -1.421875 33.890625 -1.421875 
Q 20.796875 -1.421875 13.15625 6.1875 
Q 5.515625 13.8125 5.515625 26.8125 
Q 5.515625 40.234375 12.765625 48.109375 
Q 20.015625 56 32.328125 56 
Q 43.359375 56 49.78125 48.890625 
Q 56.203125 41.796875 56.203125 29.59375 
z
M 47.21875 32.234375 
Q 47.125 39.59375 43.09375 43.984375 
Q 39.0625 48.390625 32.421875 48.390625 
Q 24.90625 48.390625 20.390625 44.140625 
Q 15.875 39.890625 15.1875 32.171875 
z
" id="DejaVuSans-101"/>
      <path d="M 41.109375 46.296875 
Q 39.59375 47.171875 37.8125 47.578125 
Q 36.03125 48 33.890625 48 
Q 26.265625 48 22.1875 43.046875 
Q 18.109375 38.09375 18.109375 28.8125 
L 18.109375 0 
L 9.078125 0 
L 9.078125 54.6875 
L 18.109375 54.6875 
L 18.109375 46.1875 
Q 20.953125 51.171875 25.484375 53.578125 
Q 30.03125 56 36.53125 56 
Q 37.453125 56 38.578125 55.875 
Q 39.703125 55.765625 41.0625 55.515625 
z
" id="DejaVuSans-114"/>
      <path d="M 34.28125 27.484375 
Q 23.390625 27.484375 19.1875 25 
Q 14.984375 22.515625 14.984375 16.5 
Q 14.984375 11.71875 18.140625 8.90625 
Q 21.296875 6.109375 26.703125 6.109375 
Q 34.1875 6.109375 38.703125 11.40625 
Q 43.21875 16.703125 43.21875 25.484375 
L 43.21875 27.484375 
z
M 52.203125 31.203125 
L 52.203125 0 
L 43.21875 0 
L 43.21875 8.296875 
Q 40.140625 3.328125 35.546875 0.953125 
Q 30.953125 -1.421875 24.3125 -1.421875 
Q 15.921875 -1.421875 10.953125 3.296875 
Q 6 8.015625 6 15.921875 
Q 6 25.140625 12.171875 29.828125 
Q 18.359375 34.515625 30.609375 34.515625 
L 43.21875 34.515625 
L 43.21875 35.40625 
Q 43.21875 41.609375 39.140625 45 
Q 35.0625 48.390625 27.6875 48.390625 
Q 23 48.390625 18.546875 47.265625 
Q 14.109375 46.140625 10.015625 43.890625 
L 10.015625 52.203125 
Q 14.9375 54.109375 19.578125 55.046875 
Q 24.21875 56 28.609375 56 
Q 40.484375 56 46.34375 49.84375 
Q 52.203125 43.703125 52.203125 31.203125 
z
" id="DejaVuSans-97"/>
      <path d="M 9.421875 54.6875 
L 18.40625 54.6875 
L 18.40625 0 
L 9.421875 0 
z
M 9.421875 75.984375 
L 18.40625 75.984375 
L 18.40625 64.59375 
L 9.421875 64.59375 
z
" id="DejaVuSans-105"/>
      <path d="M 30.609375 48.390625 
Q 23.390625 48.390625 19.1875 42.75 
Q 14.984375 37.109375 14.984375 27.296875 
Q 14.984375 17.484375 19.15625 11.84375 
Q 23.34375 6.203125 30.609375 6.203125 
Q 37.796875 6.203125 41.984375 11.859375 
Q 46.1875 17.53125 46.1875 27.296875 
Q 46.1875 37.015625 41.984375 42.703125 
Q 37.796875 48.390625 30.609375 48.390625 
z
M 30.609375 56 
Q 42.328125 56 49.015625 48.375 
Q 55.71875 40.765625 55.71875 27.296875 
Q 55.71875 13.875 49.015625 6.21875 
Q 42.328125 -1.421875 30.609375 -1.421875 
Q 18.84375 -1.421875 12.171875 6.21875 
Q 5.515625 13.875 5.515625 27.296875 
Q 5.515625 40.765625 12.171875 48.375 
Q 18.84375 56 30.609375 56 
z
" id="DejaVuSans-111"/>
      <path d="M 54.890625 33.015625 
L 54.890625 0 
L 45.90625 0 
L 45.90625 32.71875 
Q 45.90625 40.484375 42.875 44.328125 
Q 39.84375 48.1875 33.796875 48.1875 
Q 26.515625 48.1875 22.3125 43.546875 
Q 18.109375 38.921875 18.109375 30.90625 
L 18.109375 0 
L 9.078125 0 
L 9.078125 54.6875 
L 18.109375 54.6875 
L 18.109375 46.1875 
Q 21.34375 51.125 25.703125 53.5625 
Q 30.078125 56 35.796875 56 
Q 45.21875 56 50.046875 50.171875 
Q 54.890625 44.34375 54.890625 33.015625 
z
" id="DejaVuSans-110"/>
     </defs>
     <g style="fill:#262626;" transform="translate(363.804812 346.44325)scale(0.096 -0.096)">
      <use xlink:href="#DejaVuSans-73"/>
      <use x="29.492188" xlink:href="#DejaVuSans-116"/>
      <use x="68.701172" xlink:href="#DejaVuSans-101"/>
      <use x="130.224609" xlink:href="#DejaVuSans-114"/>
      <use x="171.337891" xlink:href="#DejaVuSans-97"/>
      <use x="232.617188" xlink:href="#DejaVuSans-116"/>
      <use x="271.826172" xlink:href="#DejaVuSans-105"/>
      <use x="299.609375" xlink:href="#DejaVuSans-111"/>
      <use x="360.791016" xlink:href="#DejaVuSans-110"/>
     </g>
    </g>
   </g>
   <g id="matplotlib.axis_2">
    <g id="ytick_1">
     <g id="line2d_7">
      <path clip-path="url(#p6b48bc9b9d)" d="M 56.548174 271.841696 
L 711.78195 271.841696 
" style="fill:none;stroke:#cccccc;stroke-linecap:round;stroke-width:0.8;"/>
     </g>
     <g id="text_8">
      <!-- 60 -->
      <defs>
       <path d="M 33.015625 40.375 
Q 26.375 40.375 22.484375 35.828125 
Q 18.609375 31.296875 18.609375 23.390625 
Q 18.609375 15.53125 22.484375 10.953125 
Q 26.375 6.390625 33.015625 6.390625 
Q 39.65625 6.390625 43.53125 10.953125 
Q 47.40625 15.53125 47.40625 23.390625 
Q 47.40625 31.296875 43.53125 35.828125 
Q 39.65625 40.375 33.015625 40.375 
z
M 52.59375 71.296875 
L 52.59375 62.3125 
Q 48.875 64.0625 45.09375 64.984375 
Q 41.3125 65.921875 37.59375 65.921875 
Q 27.828125 65.921875 22.671875 59.328125 
Q 17.53125 52.734375 16.796875 39.40625 
Q 19.671875 43.65625 24.015625 45.921875 
Q 28.375 48.1875 33.59375 48.1875 
Q 44.578125 48.1875 50.953125 41.515625 
Q 57.328125 34.859375 57.328125 23.390625 
Q 57.328125 12.15625 50.6875 5.359375 
Q 44.046875 -1.421875 33.015625 -1.421875 
Q 20.359375 -1.421875 13.671875 8.265625 
Q 6.984375 17.96875 6.984375 36.375 
Q 6.984375 53.65625 15.1875 63.9375 
Q 23.390625 74.21875 37.203125 74.21875 
Q 40.921875 74.21875 44.703125 73.484375 
Q 48.484375 72.75 52.59375 71.296875 
z
" id="DejaVuSans-54"/>
      </defs>
      <g style="fill:#262626;" transform="translate(37.050174 275.185009)scale(0.088 -0.088)">
       <use xlink:href="#DejaVuSans-54"/>
       <use x="63.623047" xlink:href="#DejaVuSans-48"/>
      </g>
     </g>
    </g>
    <g id="ytick_2">
     <g id="line2d_8">
      <path clip-path="url(#p6b48bc9b9d)" d="M 56.548174 217.424588 
L 711.78195 217.424588 
" style="fill:none;stroke:#cccccc;stroke-linecap:round;stroke-width:0.8;"/>
     </g>
     <g id="text_9">
      <!-- 80 -->
      <defs>
       <path d="M 31.78125 34.625 
Q 24.75 34.625 20.71875 30.859375 
Q 16.703125 27.09375 16.703125 20.515625 
Q 16.703125 13.921875 20.71875 10.15625 
Q 24.75 6.390625 31.78125 6.390625 
Q 38.8125 6.390625 42.859375 10.171875 
Q 46.921875 13.96875 46.921875 20.515625 
Q 46.921875 27.09375 42.890625 30.859375 
Q 38.875 34.625 31.78125 34.625 
z
M 21.921875 38.8125 
Q 15.578125 40.375 12.03125 44.71875 
Q 8.5 49.078125 8.5 55.328125 
Q 8.5 64.0625 14.71875 69.140625 
Q 20.953125 74.21875 31.78125 74.21875 
Q 42.671875 74.21875 48.875 69.140625 
Q 55.078125 64.0625 55.078125 55.328125 
Q 55.078125 49.078125 51.53125 44.71875 
Q 48 40.375 41.703125 38.8125 
Q 48.828125 37.15625 52.796875 32.3125 
Q 56.78125 27.484375 56.78125 20.515625 
Q 56.78125 9.90625 50.3125 4.234375 
Q 43.84375 -1.421875 31.78125 -1.421875 
Q 19.734375 -1.421875 13.25 4.234375 
Q 6.78125 9.90625 6.78125 20.515625 
Q 6.78125 27.484375 10.78125 32.3125 
Q 14.796875 37.15625 21.921875 38.8125 
z
M 18.3125 54.390625 
Q 18.3125 48.734375 21.84375 45.5625 
Q 25.390625 42.390625 31.78125 42.390625 
Q 38.140625 42.390625 41.71875 45.5625 
Q 45.3125 48.734375 45.3125 54.390625 
Q 45.3125 60.0625 41.71875 63.234375 
Q 38.140625 66.40625 31.78125 66.40625 
Q 25.390625 66.40625 21.84375 63.234375 
Q 18.3125 60.0625 18.3125 54.390625 
z
" id="DejaVuSans-56"/>
      </defs>
      <g style="fill:#262626;" transform="translate(37.050174 220.7679)scale(0.088 -0.088)">
       <use xlink:href="#DejaVuSans-56"/>
       <use x="63.623047" xlink:href="#DejaVuSans-48"/>
      </g>
     </g>
    </g>
    <g id="ytick_3">
     <g id="line2d_9">
      <path clip-path="url(#p6b48bc9b9d)" d="M 56.548174 163.00748 
L 711.78195 163.00748 
" style="fill:none;stroke:#cccccc;stroke-linecap:round;stroke-width:0.8;"/>
     </g>
     <g id="text_10">
      <!-- 100 -->
      <g style="fill:#262626;" transform="translate(31.451174 166.350792)scale(0.088 -0.088)">
       <use xlink:href="#DejaVuSans-49"/>
       <use x="63.623047" xlink:href="#DejaVuSans-48"/>
       <use x="127.246094" xlink:href="#DejaVuSans-48"/>
      </g>
     </g>
    </g>
    <g id="ytick_4">
     <g id="line2d_10">
      <path clip-path="url(#p6b48bc9b9d)" d="M 56.548174 108.590371 
L 711.78195 108.590371 
" style="fill:none;stroke:#cccccc;stroke-linecap:round;stroke-width:0.8;"/>
     </g>
     <g id="text_11">
      <!-- 120 -->
      <g style="fill:#262626;" transform="translate(31.451174 111.933684)scale(0.088 -0.088)">
       <use xlink:href="#DejaVuSans-49"/>
       <use x="63.623047" xlink:href="#DejaVuSans-50"/>
       <use x="127.246094" xlink:href="#DejaVuSans-48"/>
      </g>
     </g>
    </g>
    <g id="ytick_5">
     <g id="line2d_11">
      <path clip-path="url(#p6b48bc9b9d)" d="M 56.548174 54.173263 
L 711.78195 54.173263 
" style="fill:none;stroke:#cccccc;stroke-linecap:round;stroke-width:0.8;"/>
     </g>
     <g id="text_12">
      <!-- 140 -->
      <g style="fill:#262626;" transform="translate(31.451174 57.516576)scale(0.088 -0.088)">
       <use xlink:href="#DejaVuSans-49"/>
       <use x="63.623047" xlink:href="#DejaVuSans-52"/>
       <use x="127.246094" xlink:href="#DejaVuSans-48"/>
      </g>
     </g>
    </g>
    <g id="text_13">
     <!-- $E_{reinf}$ -->
     <defs>
      <path d="M 16.890625 72.90625 
L 62.984375 72.90625 
L 61.375 64.59375 
L 25.09375 64.59375 
L 20.90625 43.015625 
L 55.71875 43.015625 
L 54.109375 34.71875 
L 19.28125 34.71875 
L 14.203125 8.296875 
L 51.3125 8.296875 
L 49.703125 0 
L 2.6875 0 
z
" id="DejaVuSans-Oblique-69"/>
      <path d="M 44.578125 46.390625 
Q 43.21875 47.125 41.453125 47.515625 
Q 39.703125 47.90625 37.703125 47.90625 
Q 30.515625 47.90625 25.140625 42.453125 
Q 19.78125 37.015625 18.015625 27.875 
L 12.5 0 
L 3.515625 0 
L 14.203125 54.6875 
L 23.1875 54.6875 
L 21.484375 46.1875 
Q 25.046875 50.921875 30 53.453125 
Q 34.96875 56 40.578125 56 
Q 42.046875 56 43.453125 55.828125 
Q 44.875 55.671875 46.296875 55.28125 
z
" id="DejaVuSans-Oblique-114"/>
      <path d="M 48.09375 32.234375 
Q 48.25 33.015625 48.3125 33.84375 
Q 48.390625 34.671875 48.390625 35.5 
Q 48.390625 41.453125 44.890625 44.921875 
Q 41.40625 48.390625 35.40625 48.390625 
Q 28.71875 48.390625 23.578125 44.15625 
Q 18.453125 39.9375 15.828125 32.171875 
z
M 55.90625 25.203125 
L 14.109375 25.203125 
Q 13.8125 23.34375 13.71875 22.265625 
Q 13.625 21.1875 13.625 20.40625 
Q 13.625 13.625 17.796875 9.90625 
Q 21.96875 6.203125 29.59375 6.203125 
Q 35.453125 6.203125 40.671875 7.515625 
Q 45.90625 8.84375 50.390625 11.375 
L 48.6875 2.484375 
Q 43.84375 0.53125 38.6875 -0.4375 
Q 33.546875 -1.421875 28.21875 -1.421875 
Q 16.84375 -1.421875 10.71875 4.015625 
Q 4.59375 9.46875 4.59375 19.484375 
Q 4.59375 28.03125 7.640625 35.375 
Q 10.6875 42.71875 16.609375 48.484375 
Q 20.40625 52.09375 25.65625 54.046875 
Q 30.90625 56 36.8125 56 
Q 46.09375 56 51.578125 50.4375 
Q 57.078125 44.875 57.078125 35.5 
Q 57.078125 33.25 56.78125 30.6875 
Q 56.5 28.125 55.90625 25.203125 
z
" id="DejaVuSans-Oblique-101"/>
      <path d="M 18.3125 75.984375 
L 27.296875 75.984375 
L 25.09375 64.59375 
L 16.109375 64.59375 
z
M 14.203125 54.6875 
L 23.1875 54.6875 
L 12.5 0 
L 3.515625 0 
z
" id="DejaVuSans-Oblique-105"/>
      <path d="M 55.71875 33.015625 
L 49.3125 0 
L 40.28125 0 
L 46.6875 32.671875 
Q 47.125 34.96875 47.359375 36.71875 
Q 47.609375 38.484375 47.609375 39.5 
Q 47.609375 43.609375 45.015625 45.890625 
Q 42.4375 48.1875 37.796875 48.1875 
Q 30.5625 48.1875 25.34375 43.375 
Q 20.125 38.578125 18.5 30.328125 
L 12.5 0 
L 3.515625 0 
L 14.109375 54.6875 
L 23.09375 54.6875 
L 21.296875 46.09375 
Q 25.046875 50.828125 30.3125 53.40625 
Q 35.59375 56 41.40625 56 
Q 48.640625 56 52.609375 52.09375 
Q 56.59375 48.1875 56.59375 41.109375 
Q 56.59375 39.359375 56.375 37.359375 
Q 56.15625 35.359375 55.71875 33.015625 
z
" id="DejaVuSans-Oblique-110"/>
      <path d="M 47.796875 75.984375 
L 46.390625 68.5 
L 37.796875 68.5 
Q 32.90625 68.5 30.6875 66.578125 
Q 28.46875 64.65625 27.390625 59.515625 
L 26.421875 54.6875 
L 41.21875 54.6875 
L 39.890625 47.703125 
L 25.09375 47.703125 
L 15.828125 0 
L 6.78125 0 
L 16.109375 47.703125 
L 7.515625 47.703125 
L 8.796875 54.6875 
L 17.390625 54.6875 
L 18.109375 58.5 
Q 19.96875 68.171875 24.625 72.078125 
Q 29.296875 75.984375 39.3125 75.984375 
z
" id="DejaVuSans-Oblique-102"/>
     </defs>
     <g style="fill:#262626;" transform="translate(25.454674 177.646)rotate(-90)scale(0.096 -0.096)">
      <use transform="translate(0 0.09375)" xlink:href="#DejaVuSans-Oblique-69"/>
      <use transform="translate(63.183594 -16.3125)scale(0.7)" xlink:href="#DejaVuSans-Oblique-114"/>
      <use transform="translate(91.962891 -16.3125)scale(0.7)" xlink:href="#DejaVuSans-Oblique-101"/>
      <use transform="translate(135.029297 -16.3125)scale(0.7)" xlink:href="#DejaVuSans-Oblique-105"/>
      <use transform="translate(154.477539 -16.3125)scale(0.7)" xlink:href="#DejaVuSans-Oblique-110"/>
      <use transform="translate(198.842773 -16.3125)scale(0.7)" xlink:href="#DejaVuSans-Oblique-102"/>
     </g>
    </g>
   </g>
   <g id="line2d_12">
    <path clip-path="url(#p6b48bc9b9d)" d="M 86.331527 275.994471 
L 89.912692 276.595429 
L 95.8813 277.032873 
L 106.624794 277.798549 
L 107.818516 277.949287 
L 109.012237 279.080707 
L 119.755732 279.969544 
L 126.918061 280.431327 
L 129.305504 280.323829 
L 134.080391 280.629186 
L 136.467834 280.472376 
L 140.048998 280.764075 
L 141.24272 280.780277 
L 142.436442 280.544606 
L 146.017606 280.858194 
L 148.405049 280.98317 
L 149.598771 280.684393 
L 154.373657 281.075857 
L 155.567379 281.055441 
L 156.761101 280.84769 
L 160.342265 281.158143 
L 162.729708 281.25795 
L 163.92343 281.018875 
L 167.504595 281.305954 
L 169.892038 281.399762 
L 171.08576 281.214866 
L 174.666924 281.46678 
L 175.860646 281.490082 
L 177.054367 281.267509 
L 181.829254 281.648604 
L 183.022975 281.486605 
L 185.410419 281.720906 
L 187.797862 281.535076 
L 191.379026 281.830344 
L 192.572748 281.881607 
L 193.76647 281.516341 
L 194.960191 281.753611 
L 198.541356 281.974948 
L 199.735078 281.94818 
L 200.928799 281.648095 
L 202.122521 281.898422 
L 206.897407 282.153699 
L 208.091129 282.010393 
L 210.478572 282.16687 
L 211.672293 281.917738 
L 212.866015 282.117828 
L 216.44718 282.312439 
L 217.640901 282.164151 
L 218.834623 281.846951 
L 221.222066 282.387139 
L 223.609509 282.467723 
L 224.803231 282.304707 
L 227.190674 282.581542 
L 228.384395 282.489903 
L 229.578117 282.072378 
L 230.771839 282.392287 
L 231.96556 282.590582 
L 233.159282 282.628321 
L 235.546725 282.239224 
L 236.740447 282.551027 
L 240.321611 282.552843 
L 241.515333 282.30453 
L 242.709054 282.623889 
L 245.096498 282.755425 
L 246.290219 282.859923 
L 247.483941 282.672007 
L 249.871384 282.772613 
L 251.065106 282.439834 
L 252.258827 282.763012 
L 255.839992 282.729788 
L 257.033713 282.471511 
L 258.227435 282.797939 
L 261.8086 283.005399 
L 263.002321 282.641399 
L 265.389765 282.94166 
L 266.583486 282.708937 
L 267.777208 282.980572 
L 270.164651 282.984775 
L 272.552094 282.821821 
L 273.745816 283.124687 
L 274.939537 283.017688 
L 277.32698 283.120287 
L 278.520702 282.804156 
L 280.908145 283.171155 
L 282.101867 282.824945 
L 283.295588 283.070674 
L 286.876753 283.207804 
L 288.070475 282.850291 
L 290.457918 283.151362 
L 291.651639 282.764216 
L 292.845361 283.09574 
L 295.232804 283.191239 
L 296.426526 283.071369 
L 297.620247 283.097795 
L 298.813969 283.28733 
L 300.00769 282.976015 
L 301.201412 283.213035 
L 304.782577 283.277325 
L 305.976298 283.116114 
L 309.557463 283.319516 
L 310.751185 283.12257 
L 311.944906 283.157226 
L 313.138628 283.436148 
L 314.332349 283.223332 
L 315.526071 283.305629 
L 317.913514 283.215392 
L 319.107236 283.479772 
L 320.300957 283.228698 
L 321.494679 283.368184 
L 323.882122 283.339403 
L 325.075844 282.925198 
L 326.269565 283.267693 
L 329.85073 283.521776 
L 331.044451 283.541383 
L 332.238173 283.258102 
L 333.431895 283.488978 
L 334.625616 283.572001 
L 335.819338 283.390313 
L 337.013059 282.99695 
L 338.206781 283.341323 
L 340.594224 283.548731 
L 341.787946 283.640162 
L 344.175389 283.553962 
L 346.562832 283.631952 
L 347.756554 283.26216 
L 350.143997 283.564113 
L 351.337718 283.20302 
L 352.53144 283.54378 
L 354.918883 283.64147 
L 356.112605 283.433501 
L 358.500048 283.641729 
L 359.693769 283.287507 
L 360.887491 283.578188 
L 363.274934 283.734125 
L 364.468656 283.655741 
L 365.662377 283.187606 
L 366.856099 283.539297 
L 368.049821 283.682156 
L 369.243542 283.705084 
L 371.630985 283.320959 
L 372.824707 283.646462 
L 375.21215 283.808295 
L 376.405872 283.796826 
L 377.599593 283.509539 
L 379.987036 283.766446 
L 381.180758 283.522814 
L 382.37448 283.771854 
L 384.761923 283.889233 
L 385.955644 283.260707 
L 387.149366 283.730088 
L 388.343087 283.815467 
L 389.536809 283.698026 
L 390.730531 283.910344 
L 391.924252 283.707627 
L 393.117974 283.713917 
L 394.311695 283.924356 
L 395.505417 283.560802 
L 396.699138 283.852262 
L 399.086582 283.904874 
L 400.280303 283.675566 
L 401.474025 283.746009 
L 402.667746 283.937724 
L 403.861468 283.633094 
L 405.05519 283.891039 
L 408.636354 283.994302 
L 409.830076 283.794823 
L 412.217519 283.953044 
L 413.411241 283.8139 
L 414.604962 283.401253 
L 415.798684 283.899799 
L 418.186127 284.025958 
L 419.379849 284.01204 
L 420.57357 283.800199 
L 421.767292 283.927843 
L 422.961013 283.936043 
L 424.154735 283.633156 
L 425.348456 283.936302 
L 427.7359 284.005127 
L 428.929621 283.556516 
L 430.123343 283.938461 
L 431.317064 283.935088 
L 433.704508 284.12206 
L 436.091951 283.928539 
L 437.285672 283.837253 
L 439.673115 284.15654 
L 440.866837 284.020551 
L 442.060559 283.721245 
L 443.25428 284.002563 
L 445.641723 284.146368 
L 446.835445 283.480467 
L 448.029167 284.024049 
L 451.610331 284.181014 
L 452.804053 283.96469 
L 455.191496 283.933365 
L 456.385218 283.652544 
L 457.578939 284.090839 
L 461.160104 284.274417 
L 463.547547 284.019461 
L 464.741269 283.948591 
L 465.93499 284.100419 
L 467.128712 283.916437 
L 469.516155 284.277094 
L 470.709877 284.270472 
L 471.903598 283.943464 
L 475.484763 284.354908 
L 477.872206 283.998983 
L 479.065928 284.069312 
L 480.259649 283.637245 
L 481.453371 284.201098 
L 485.034536 284.35772 
L 486.228257 284.2674 
L 487.421979 284.001723 
L 489.809422 284.365961 
L 491.003143 284.124094 
L 492.196865 283.759886 
L 493.390587 284.231581 
L 496.971751 284.439343 
L 498.165473 283.833237 
L 499.359195 284.236543 
L 502.940359 284.416124 
L 504.134081 284.164916 
L 505.327802 284.214165 
L 506.521524 284.059255 
L 507.715246 284.240175 
L 508.908967 284.088514 
L 510.102689 283.813672 
L 511.29641 284.26356 
L 516.071297 284.52467 
L 517.265018 284.344165 
L 518.45874 284.305098 
L 519.652461 284.008262 
L 520.846183 284.318425 
L 522.039905 284.04271 
L 523.233626 284.327164 
L 525.621069 283.887613 
L 526.814791 284.276555 
L 530.395956 284.545169 
L 531.589677 284.535735 
L 532.783399 284.199001 
L 538.752007 284.247368 
L 539.945728 284.307215 
L 541.13945 283.892554 
L 542.333171 284.338716 
L 547.108058 284.596702 
L 548.301779 283.921875 
L 549.495501 284.433094 
L 550.689223 284.535859 
L 551.882944 284.464948 
L 553.076666 283.765211 
L 554.270387 284.426722 
L 556.65783 284.555933 
L 557.851552 284.476459 
L 559.045274 284.102339 
L 560.238995 284.486714 
L 561.432717 284.16751 
L 562.626438 284.041361 
L 563.82016 284.338861 
L 566.207603 284.506019 
L 567.401325 284.578123 
L 569.788768 283.964223 
L 570.982489 284.428891 
L 574.563654 284.67764 
L 575.757376 284.597574 
L 576.951097 284.01452 
L 578.144819 284.527078 
L 579.338541 284.478348 
L 581.725984 284.05201 
L 582.919705 284.429908 
L 584.113427 284.475577 
L 585.307148 284.358187 
L 586.50087 284.665631 
L 587.694592 284.703588 
L 588.888313 284.061538 
L 590.082035 284.510264 
L 592.469478 284.703193 
L 593.663199 284.767866 
L 594.856921 284.456562 
L 597.244364 284.343584 
L 598.438086 284.435098 
L 599.631807 284.33937 
L 600.825529 284.466381 
L 602.019251 284.410115 
L 603.212972 284.054397 
L 604.406694 284.50168 
L 605.600415 284.599318 
L 606.794137 284.550577 
L 607.987858 284.683151 
L 609.18158 284.553701 
L 610.375302 283.997914 
L 611.569023 284.585244 
L 613.956466 284.691413 
L 615.150188 284.180246 
L 616.34391 284.698201 
L 618.731353 284.681833 
L 619.925074 284.348825 
L 621.118796 284.516056 
L 622.312517 284.351731 
L 623.506239 284.549664 
L 624.699961 284.363263 
L 625.893682 284.582369 
L 628.281125 284.166358 
L 629.474847 284.534209 
L 631.86229 284.727055 
L 633.056012 284.745489 
L 634.249733 284.582337 
L 635.443455 283.938659 
L 636.637176 284.656123 
L 640.218341 284.87059 
L 641.412063 284.595913 
L 642.605784 284.476749 
L 646.186949 284.505469 
L 647.380671 284.115728 
L 648.574392 284.616049 
L 650.961835 284.749796 
L 652.155557 284.84843 
L 653.349279 284.543498 
L 654.543 284.469806 
L 655.736722 284.545138 
L 656.930443 284.071866 
L 658.124165 284.673415 
L 659.317886 284.785978 
L 660.511608 284.781598 
L 661.70533 284.301236 
L 662.899051 284.78821 
L 664.092773 284.354835 
L 665.286494 284.365069 
L 668.867659 284.843012 
L 670.061381 284.850381 
L 671.255102 284.342712 
L 672.448824 284.81861 
L 673.642545 284.52384 
L 674.836267 284.345629 
L 676.029989 284.793887 
L 679.611153 285.075206 
L 680.804875 284.499397 
L 681.998597 285.036834 
L 681.998597 285.036834 
" style="fill:none;stroke:#5674a6;stroke-linecap:round;stroke-width:1.2;"/>
   </g>
   <g id="line2d_13">
    <path clip-path="url(#p6b48bc9b9d)" d="M 86.331527 275.994471 
L 87.525249 276.82781 
L 88.71897 277.385902 
L 89.912692 277.799847 
L 91.106414 277.688613 
L 92.300135 279.255027 
L 93.493857 279.354169 
L 95.8813 280.175956 
L 97.075021 279.872695 
L 98.268743 279.890848 
L 99.462465 280.496 
L 100.656186 278.380441 
L 101.849908 278.968279 
L 103.043629 279.422745 
L 104.237351 280.161653 
L 105.431073 281.128459 
L 106.624794 280.994463 
L 107.818516 280.986668 
L 109.012237 281.231659 
L 110.205959 281.71583 
L 111.39968 281.672486 
L 112.593402 281.504031 
L 114.980845 280.345968 
L 116.174567 280.72809 
L 117.368288 282.125904 
L 118.56201 282.207588 
L 120.949453 281.535813 
L 122.143175 280.599896 
L 123.336896 281.178103 
L 124.530618 279.683689 
L 125.724339 280.244345 
L 126.918061 280.632051 
L 128.111783 280.666188 
L 129.305504 281.738664 
L 130.499226 280.056055 
L 131.692947 273.250595 
L 132.886669 279.786911 
L 134.080391 282.114455 
L 136.467834 282.865393 
L 137.661555 283.235725 
L 138.855277 282.627553 
L 140.048998 281.002766 
L 141.24272 277.864883 
L 142.436442 282.252655 
L 143.630163 282.496785 
L 144.823885 281.279611 
L 146.017606 282.526594 
L 147.211328 282.770517 
L 148.405049 282.705574 
L 149.598771 280.857581 
L 150.792493 282.727536 
L 151.986214 281.117457 
L 153.179936 282.954198 
L 154.373657 283.493991 
L 155.567379 283.154102 
L 156.761101 282.572408 
L 157.954822 281.641961 
L 159.148544 282.818157 
L 160.342265 281.903373 
L 161.535987 283.687315 
L 162.729708 283.677185 
L 163.92343 282.746343 
L 165.117152 281.296042 
L 166.310873 283.019234 
L 167.504595 281.761499 
L 168.698316 282.843784 
L 169.892038 282.053041 
L 171.08576 283.72331 
L 172.279481 283.919789 
L 173.473203 283.492009 
L 174.666924 282.581282 
L 175.860646 280.753768 
L 177.054367 283.692826 
L 179.441811 281.946509 
L 180.635532 274.820247 
L 181.829254 280.57346 
L 183.022975 283.055178 
L 184.216697 283.574223 
L 185.410419 283.15595 
L 186.60414 281.411366 
L 187.797862 276.310218 
L 188.991583 281.35539 
L 190.185305 283.55035 
L 192.572748 284.354223 
L 193.76647 284.037355 
L 194.960191 282.065787 
L 196.153913 282.948438 
L 197.347634 282.087469 
L 198.541356 283.21836 
L 199.735078 282.310841 
L 200.928799 284.191569 
L 202.122521 284.054605 
L 203.316242 282.790424 
L 204.509964 278.770129 
L 205.703685 283.155836 
L 206.897407 283.914112 
L 208.091129 283.209475 
L 209.28485 280.897178 
L 210.478572 276.293612 
L 211.672293 281.372672 
L 212.866015 283.676676 
L 214.059736 284.005708 
L 215.253458 283.197321 
L 216.44718 281.093356 
L 217.640901 276.011961 
L 218.834623 281.292098 
L 220.028344 283.666411 
L 221.222066 284.11222 
L 222.415788 282.523314 
L 223.609509 283.176791 
L 224.803231 280.327721 
L 225.996952 283.683869 
L 227.190674 284.266331 
L 228.384395 284.062639 
L 229.578117 280.633556 
L 230.771839 272.221286 
L 231.96556 279.189388 
L 233.159282 283.830341 
L 234.353003 281.075763 
L 235.546725 280.9142 
L 236.740447 284.234872 
L 237.934168 280.876461 
L 239.12789 278.950894 
L 240.321611 283.547922 
L 241.515333 280.506026 
L 242.709054 265.642612 
L 243.902776 273.446306 
L 245.096498 279.111482 
L 246.290219 281.869536 
L 247.483941 283.307009 
L 249.871384 283.90969 
L 251.065106 283.485148 
L 252.258827 282.62473 
L 253.452549 280.949853 
L 254.64627 283.325692 
L 255.839992 281.286908 
L 257.033713 283.289229 
L 258.227435 281.923021 
L 259.421157 283.006821 
L 260.614878 282.155017 
L 261.8086 283.936271 
L 263.002321 284.182581 
L 264.196043 283.873352 
L 265.389765 283.444441 
L 266.583486 281.142004 
L 267.777208 283.516161 
L 268.970929 281.375547 
L 270.164651 283.538933 
L 271.358372 282.031971 
L 272.552094 283.31744 
L 273.745816 282.202139 
L 274.939537 284.035673 
L 276.133259 284.33417 
L 277.32698 283.671248 
L 278.520702 282.773288 
L 279.714423 277.661242 
L 280.908145 283.364012 
L 282.101867 284.257405 
L 283.295588 282.770548 
L 284.48931 280.994027 
L 285.683031 275.979484 
L 286.876753 282.279745 
L 288.070475 284.328212 
L 290.457918 284.410997 
L 292.845361 284.41547 
L 294.039082 283.799369 
L 295.232804 280.491588 
L 296.426526 284.567848 
L 297.620247 283.039899 
L 298.813969 280.877592 
L 300.00769 274.906634 
L 301.201412 280.912716 
L 302.395134 283.486767 
L 303.588855 284.119922 
L 304.782577 281.272585 
L 305.976298 284.310277 
L 307.17002 281.677718 
L 308.363741 280.770904 
L 309.557463 279.061454 
L 310.751185 283.431581 
L 311.944906 282.366141 
L 313.138628 275.146633 
L 314.332349 281.324938 
L 315.526071 283.612366 
L 316.719793 283.94499 
L 317.913514 283.634889 
L 319.107236 282.707203 
L 320.300957 281.14135 
L 321.494679 283.478993 
L 322.6884 281.731752 
L 323.882122 283.560989 
L 325.075844 284.048066 
L 326.269565 283.832821 
L 327.463287 280.972168 
L 328.657008 283.765014 
L 329.85073 281.292658 
L 331.044451 283.676541 
L 332.238173 281.886797 
L 333.431895 283.633706 
L 334.625616 283.548441 
L 335.819338 283.721504 
L 337.013059 281.243772 
L 338.206781 283.835458 
L 339.400503 281.395496 
L 340.594224 283.818457 
L 341.787946 282.471729 
L 342.981667 283.326968 
L 344.175389 283.72467 
L 345.36911 283.818758 
L 346.562832 281.156867 
L 347.756554 284.071762 
L 348.950275 283.227265 
L 350.143997 281.697874 
L 351.337718 275.892651 
L 352.53144 281.569099 
L 353.725162 283.792498 
L 354.918883 284.371058 
L 356.112605 284.33035 
L 357.306326 280.97114 
L 358.500048 284.390114 
L 359.693769 281.187164 
L 360.887491 284.346999 
L 362.081213 283.464794 
L 363.274934 277.867457 
L 364.468656 275.071248 
L 365.662377 280.915248 
L 366.856099 283.677071 
L 368.049821 282.677768 
L 369.243542 283.012104 
L 370.437264 282.369317 
L 371.630985 284.215483 
L 372.824707 284.081373 
L 374.018428 282.665396 
L 375.21215 279.932604 
L 376.405872 283.694788 
L 377.599593 284.260975 
L 378.793315 284.146461 
L 379.987036 280.82579 
L 381.180758 276.095555 
L 382.37448 281.449509 
L 383.568201 283.854825 
L 384.761923 283.779015 
L 385.955644 281.445378 
L 387.149366 283.842516 
L 388.343087 282.051526 
L 389.536809 283.657879 
L 390.730531 282.458164 
L 391.924252 284.361976 
L 393.117974 284.484835 
L 394.311695 279.117325 
L 395.505417 268.716486 
L 396.699138 276.187743 
L 397.89286 280.917667 
L 399.086582 283.04376 
L 400.280303 282.559496 
L 401.474025 282.232187 
L 402.667746 280.94157 
L 403.861468 281.127753 
L 405.05519 281.89509 
L 407.442633 283.148902 
L 408.636354 283.015321 
L 409.830076 280.492959 
L 411.023797 283.748511 
L 412.217519 282.768036 
L 413.411241 281.983241 
L 414.604962 278.674412 
L 415.798684 283.109658 
L 416.992405 283.291731 
L 418.186127 281.967101 
L 419.379849 283.182053 
L 420.57357 282.34667 
L 421.767292 284.008895 
L 422.961013 284.084227 
L 424.154735 282.189923 
L 425.348456 278.814573 
L 426.542178 283.067083 
L 427.7359 283.481391 
L 428.929621 283.774708 
L 430.123343 278.387675 
L 431.317064 274.838006 
L 432.510786 278.475857 
L 433.704508 281.556125 
L 434.898229 283.756295 
L 436.091951 284.10346 
L 437.285672 284.138822 
L 438.479394 283.024445 
L 439.673115 282.124679 
L 440.866837 283.312085 
L 442.060559 282.398462 
L 443.25428 284.356143 
L 444.448002 284.204108 
L 445.641723 282.670699 
L 446.835445 278.619641 
L 448.029167 283.234396 
L 449.222888 284.044631 
L 450.41661 281.367607 
L 451.610331 283.963994 
L 452.804053 284.028252 
L 453.997774 276.893044 
L 455.191496 266.568119 
L 456.385218 272.623294 
L 457.578939 276.464651 
L 458.772661 279.825926 
L 459.966382 282.256796 
L 461.160104 282.880225 
L 462.353825 279.147093 
L 463.547547 269.103943 
L 464.741269 276.626391 
L 465.93499 281.14737 
L 467.128712 283.293765 
L 469.516155 283.784693 
L 470.709877 278.511645 
L 471.903598 277.555644 
L 473.09732 280.757754 
L 474.291041 283.180912 
L 475.484763 282.383278 
L 476.678484 281.84363 
L 477.872206 282.798541 
L 479.065928 282.148769 
L 480.259649 283.846418 
L 481.453371 283.943537 
L 482.647092 282.459658 
L 483.840814 282.122956 
L 485.034536 282.75446 
L 486.228257 282.373947 
L 487.421979 283.938441 
L 488.6157 283.848608 
L 489.809422 282.536257 
L 491.003143 279.855268 
L 492.196865 283.595874 
L 493.390587 284.006622 
L 494.584308 284.283758 
L 495.77803 282.445771 
L 496.971751 281.628551 
L 498.165473 273.390507 
L 499.359195 280.189449 
L 500.552916 283.332262 
L 501.746638 283.831306 
L 502.940359 284.190542 
L 504.134081 284.27123 
L 505.327802 281.826452 
L 506.521524 283.062786 
L 507.715246 279.277238 
L 508.908967 283.933459 
L 510.102689 283.859839 
L 511.29641 281.200221 
L 512.490132 283.82184 
L 513.683854 283.32291 
L 514.877575 281.729043 
L 516.071297 276.371539 
L 517.265018 281.637737 
L 518.45874 283.927158 
L 519.652461 283.743072 
L 520.846183 281.523378 
L 522.039905 283.811617 
L 523.233626 284.05174 
L 524.427348 277.517884 
L 525.621069 266.800697 
L 526.814791 272.830256 
L 528.008512 276.661275 
L 529.202234 279.959642 
L 530.395956 282.394197 
L 531.589677 282.504102 
L 532.783399 281.799736 
L 533.97712 283.610405 
L 535.170842 283.296921 
L 536.364564 280.02937 
L 537.558285 277.360338 
L 538.752007 281.906985 
L 539.945728 283.491334 
L 541.13945 283.756098 
L 542.333171 283.895201 
L 543.526893 282.094932 
L 544.720615 282.039393 
L 545.914336 277.973865 
L 547.108058 283.146048 
L 548.301779 283.499814 
L 549.495501 280.933163 
L 550.689223 283.434788 
L 551.882944 281.19527 
L 553.076666 283.368641 
L 554.270387 281.862094 
L 555.464109 283.350436 
L 556.65783 283.359705 
L 557.851552 283.667231 
L 559.045274 282.11869 
L 560.238995 282.469197 
L 561.432717 278.716116 
L 562.626438 283.146909 
L 565.013882 283.690968 
L 566.207603 278.649253 
L 567.401325 278.012995 
L 568.595046 281.206293 
L 569.788768 283.388528 
L 570.982489 283.826428 
L 573.369933 284.477123 
L 574.563654 282.445252 
L 575.757376 281.726054 
L 576.951097 277.739056 
L 578.144819 283.40447 
L 579.338541 284.184802 
L 580.532262 282.925728 
L 581.725984 281.210496 
L 582.919705 275.934697 
L 584.113427 281.692217 
L 585.307148 283.877867 
L 586.50087 284.386658 
L 587.694592 284.283498 
L 588.888313 282.362633 
L 590.082035 278.621177 
L 591.275756 283.330663 
L 592.469478 283.995661 
L 593.663199 281.365033 
L 594.856921 284.017946 
L 596.050643 283.991001 
L 597.244364 284.362152 
L 598.438086 282.385395 
L 599.631807 278.583511 
L 600.825529 265.64968 
L 602.019251 273.576524 
L 603.212972 280.024927 
L 604.406694 282.673502 
L 605.600415 283.71263 
L 606.794137 282.421297 
L 607.987858 282.107128 
L 609.18158 279.167862 
L 610.375302 283.043107 
L 611.569023 283.559578 
L 612.762745 282.973794 
L 613.956466 281.805216 
L 615.150188 279.0786 
L 616.34391 282.732767 
L 617.537631 283.130925 
L 618.731353 282.068309 
L 619.925074 282.9526 
L 621.118796 282.217687 
L 622.312517 283.802358 
L 623.506239 284.014956 
L 624.699961 282.705096 
L 625.893682 281.892111 
L 627.087404 277.842256 
L 628.281125 283.266499 
L 629.474847 283.953947 
L 630.668569 281.109786 
L 631.86229 283.757696 
L 633.056012 283.235818 
L 634.249733 281.597839 
L 635.443455 278.930738 
L 636.637176 283.064799 
L 637.830898 283.839039 
L 639.02462 284.209214 
L 640.218341 283.683578 
L 641.412063 281.467528 
L 642.605784 276.626235 
L 643.799506 281.659969 
L 644.993228 283.889129 
L 646.186949 284.337512 
L 647.380671 284.152813 
L 648.574392 282.888404 
L 649.768114 279.912832 
L 650.961835 283.76492 
L 652.155557 283.758143 
L 653.349279 281.386559 
L 654.543 283.850892 
L 655.736722 282.068672 
L 656.930443 283.605994 
L 658.124165 282.452154 
L 659.317886 284.515723 
L 660.511608 284.453946 
L 661.70533 281.038751 
L 662.899051 281.030074 
L 664.092773 277.784766 
L 665.286494 283.839257 
L 666.480216 281.338628 
L 667.673938 269.35564 
L 668.867659 276.678858 
L 670.061381 282.386173 
L 671.255102 283.755112 
L 672.448824 283.495008 
L 673.642545 282.812957 
L 674.836267 281.982743 
L 676.029989 282.795043 
L 677.22371 282.383361 
L 678.417432 284.022938 
L 679.611153 283.852978 
L 680.804875 282.545505 
L 681.998597 279.844131 
L 681.998597 279.844131 
" style="fill:none;stroke:#cf8860;stroke-linecap:round;stroke-width:1.2;"/>
   </g>
   <g id="line2d_14">
    <path clip-path="url(#p6b48bc9b9d)" d="M 86.331527 275.994471 
L 87.525249 277.581364 
L 88.71897 277.865516 
L 89.912692 278.699281 
L 91.106414 277.578696 
L 92.300135 278.85719 
L 93.493857 271.547538 
L 94.687578 279.916662 
L 95.8813 280.561088 
L 97.075021 280.411513 
L 98.268743 280.492429 
L 99.462465 279.008841 
L 100.656186 277.987109 
L 101.849908 268.435167 
L 103.043629 275.483315 
L 104.237351 279.075144 
L 105.431073 279.374087 
L 106.624794 279.489307 
L 107.818516 279.26525 
L 109.012237 278.81476 
L 110.205959 281.822612 
L 111.39968 279.442621 
L 112.593402 279.507709 
L 113.787124 277.888517 
L 114.980845 282.314224 
L 116.174567 281.7462 
L 117.368288 277.144896 
L 118.56201 280.218334 
L 119.755732 270.920082 
L 120.949453 278.90755 
L 122.143175 280.548799 
L 123.336896 281.382542 
L 124.530618 280.689873 
L 125.724339 268.970798 
L 126.918061 278.211456 
L 129.305504 275.813686 
L 130.499226 259.512945 
L 131.692947 269.776923 
L 132.886669 276.554826 
L 134.080391 279.216374 
L 136.467834 280.456579 
L 137.661555 280.282634 
L 138.855277 277.643079 
L 140.048998 263.088126 
L 141.24272 274.940678 
L 142.436442 280.52501 
L 143.630163 279.657139 
L 144.823885 262.416444 
L 146.017606 275.51602 
L 147.211328 280.839739 
L 148.405049 277.865952 
L 149.598771 250.596015 
L 150.792493 262.816324 
L 151.986214 271.804258 
L 153.179936 278.262252 
L 154.373657 283.023801 
L 155.567379 285.72943 
L 156.761101 286.397552 
L 157.954822 291.193716 
L 159.148544 293.729447 
L 160.342265 293.310468 
L 161.535987 296.886293 
L 162.729708 297.407507 
L 163.92343 288.043461 
L 165.117152 294.842641 
L 166.310873 299.273923 
L 167.504595 300.690803 
L 168.698316 297.971308 
L 169.892038 299.432362 
L 171.08576 298.834736 
L 172.279481 295.692027 
L 173.473203 299.73172 
L 174.666924 300.696076 
L 175.860646 298.93804 
L 177.054367 298.469885 
L 179.441811 300.778622 
L 180.635532 301.454342 
L 181.829254 295.556889 
L 183.022975 298.676286 
L 184.216697 299.671116 
L 185.410419 298.541844 
L 186.60414 300.170492 
L 188.991583 289.276266 
L 190.185305 296.184335 
L 191.379026 301.43376 
L 192.572748 302.975004 
L 193.76647 303.786951 
L 194.960191 303.824171 
L 196.153913 302.75102 
L 197.347634 302.237051 
L 198.541356 303.600115 
L 200.928799 302.236884 
L 202.122521 300.559008 
L 203.316242 302.879027 
L 204.509964 302.317843 
L 205.703685 300.891164 
L 206.897407 302.990967 
L 208.091129 301.630509 
L 209.28485 302.434298 
L 210.478572 303.755938 
L 211.672293 302.843634 
L 212.866015 302.120627 
L 214.059736 293.671811 
L 215.253458 298.588592 
L 216.44718 301.460683 
L 217.640901 302.585004 
L 218.834623 302.531416 
L 220.028344 302.592861 
L 221.222066 303.20068 
L 222.415788 300.598438 
L 223.609509 299.94135 
L 224.803231 303.17057 
L 227.190674 302.007057 
L 228.384395 303.854593 
L 229.578117 302.358259 
L 230.771839 301.2734 
L 231.96556 302.217102 
L 234.353003 302.824536 
L 235.546725 302.585627 
L 236.740447 297.052029 
L 237.934168 300.274886 
L 239.12789 301.107364 
L 240.321611 300.537512 
L 241.515333 302.103231 
L 242.709054 302.610703 
L 243.902776 303.377044 
L 245.096498 299.352992 
L 246.290219 303.251756 
L 247.483941 304.062655 
L 248.677662 302.776781 
L 249.871384 303.074354 
L 251.065106 298.74317 
L 252.258827 303.010127 
L 253.452549 299.782724 
L 254.64627 298.6597 
L 255.839992 302.251374 
L 257.033713 303.255223 
L 258.227435 300.465678 
L 259.421157 302.825574 
L 260.614878 302.503776 
L 261.8086 301.618666 
L 263.002321 303.770863 
L 264.196043 302.344548 
L 265.389765 298.987248 
L 266.583486 302.911743 
L 267.777208 302.887715 
L 268.970929 303.244086 
L 270.164651 301.208603 
L 271.358372 303.35011 
L 272.552094 304.32224 
L 273.745816 303.862221 
L 274.939537 299.736692 
L 276.133259 303.585501 
L 277.32698 303.495492 
L 278.520702 297.905939 
L 279.714423 302.80302 
L 280.908145 298.563485 
L 282.101867 302.964864 
L 283.295588 300.610561 
L 284.48931 299.695984 
L 285.683031 301.983257 
L 286.876753 300.964442 
L 288.070475 294.745845 
L 289.264196 300.238435 
L 290.457918 302.739551 
L 294.039082 300.564384 
L 295.232804 303.178749 
L 296.426526 302.880864 
L 297.620247 301.817646 
L 298.813969 303.553263 
L 300.00769 300.893842 
L 301.201412 303.979829 
L 302.395134 303.844265 
L 303.588855 296.450209 
L 304.782577 295.744514 
L 305.976298 301.557522 
L 307.17002 304.044595 
L 308.363741 303.703637 
L 309.557463 302.927716 
L 310.751185 303.662556 
L 311.944906 301.238993 
L 313.138628 297.66896 
L 314.332349 301.137474 
L 315.526071 302.401447 
L 316.719793 303.452231 
L 317.913514 303.652717 
L 319.107236 303.729585 
L 320.300957 302.482893 
L 321.494679 302.945268 
L 322.6884 299.40384 
L 323.882122 303.445651 
L 325.075844 301.459199 
L 326.269565 302.505811 
L 327.463287 302.068803 
L 328.657008 302.173945 
L 329.85073 301.885194 
L 331.044451 303.087878 
L 332.238173 304.021553 
L 333.431895 303.673434 
L 335.819338 295.346751 
L 337.013059 300.157445 
L 338.206781 303.239291 
L 339.400503 303.118632 
L 340.594224 302.300758 
L 341.787946 303.489586 
L 342.981667 302.636797 
L 344.175389 301.247691 
L 345.36911 298.373192 
L 346.562832 302.07446 
L 347.756554 302.876474 
L 348.950275 300.695972 
L 350.143997 303.553377 
L 351.337718 302.787607 
L 352.53144 303.642742 
L 353.725162 302.549611 
L 354.918883 294.62857 
L 356.112605 300.433035 
L 357.306326 301.712453 
L 358.500048 302.649719 
L 359.693769 302.080449 
L 360.887491 301.062162 
L 362.081213 303.722693 
L 363.274934 302.835798 
L 364.468656 304.075816 
L 365.662377 300.516951 
L 366.856099 302.120803 
L 368.049821 302.484917 
L 369.243542 298.264749 
L 370.437264 301.192878 
L 371.630985 301.840999 
L 372.824707 301.82734 
L 374.018428 302.424427 
L 375.21215 302.459384 
L 376.405872 301.964253 
L 377.599593 302.14343 
L 378.793315 303.30659 
L 379.987036 302.17875 
L 381.180758 302.355633 
L 382.37448 303.505767 
L 383.568201 302.051563 
L 384.761923 302.568761 
L 385.955644 303.209305 
L 387.149366 303.256624 
L 388.343087 302.26167 
L 389.536809 303.741251 
L 390.730531 302.753771 
L 391.924252 301.49042 
L 393.117974 298.540951 
L 394.311695 302.604974 
L 395.505417 303.556885 
L 396.699138 302.332 
L 397.89286 303.332185 
L 399.086582 300.291192 
L 400.280303 303.09778 
L 401.474025 303.971909 
L 402.667746 303.968951 
L 403.861468 298.289577 
L 405.05519 298.363051 
L 406.248911 301.676893 
L 407.442633 303.991661 
L 408.636354 301.910945 
L 409.830076 277.389524 
L 411.023797 287.513134 
L 412.217519 295.567403 
L 413.411241 300.646826 
L 414.604962 301.769736 
L 415.798684 297.841266 
L 416.992405 299.229085 
L 418.186127 292.525995 
L 419.379849 302.143596 
L 420.57357 300.044561 
L 421.767292 302.795121 
L 422.961013 302.684614 
L 424.154735 301.686266 
L 425.348456 302.353049 
L 426.542178 298.933556 
L 427.7359 302.12263 
L 428.929621 302.408152 
L 430.123343 302.217683 
L 432.510786 300.123889 
L 433.704508 302.867828 
L 434.898229 302.6005 
L 436.091951 299.54918 
L 437.285672 302.010316 
L 438.479394 301.991364 
L 440.866837 302.942683 
L 442.060559 302.754424 
L 443.25428 300.787849 
L 444.448002 302.374409 
L 445.641723 303.341277 
L 446.835445 300.415702 
L 448.029167 298.11424 
L 449.222888 301.496367 
L 450.41661 303.231558 
L 451.610331 302.787347 
L 452.804053 303.264087 
L 453.997774 303.557331 
L 455.191496 301.583594 
L 456.385218 301.528564 
L 457.578939 300.87188 
L 458.772661 302.730417 
L 459.966382 302.363127 
L 461.160104 302.585139 
L 462.353825 303.064224 
L 463.547547 303.293958 
L 464.741269 301.997664 
L 465.93499 293.851839 
L 467.128712 299.264052 
L 468.322433 302.265272 
L 469.516155 302.580022 
L 470.709877 302.63524 
L 473.09732 303.4752 
L 474.291041 301.975411 
L 475.484763 303.381289 
L 476.678484 302.290078 
L 477.872206 303.63475 
L 479.065928 302.308107 
L 481.453371 303.900884 
L 482.647092 302.292278 
L 483.840814 299.248328 
L 485.034536 302.653767 
L 486.228257 301.622392 
L 487.421979 301.613518 
L 488.6157 303.191048 
L 489.809422 302.069031 
L 491.003143 303.597198 
L 492.196865 303.134907 
L 493.390587 303.924466 
L 494.584308 303.094251 
L 495.77803 300.622238 
L 496.971751 300.045754 
L 498.165473 303.395851 
L 499.359195 303.284077 
L 500.552916 303.366779 
L 501.746638 300.440425 
L 502.940359 296.990168 
L 504.134081 302.047214 
L 505.327802 303.913983 
L 506.521524 303.98396 
L 507.715246 303.462569 
L 508.908967 301.797915 
L 510.102689 303.211973 
L 511.29641 304.087762 
L 512.490132 303.388108 
L 513.683854 299.655526 
L 514.877575 301.991104 
L 517.265018 303.666874 
L 518.45874 302.288459 
L 519.652461 303.40896 
L 520.846183 303.542665 
L 522.039905 300.436128 
L 523.233626 302.352094 
L 524.427348 303.833533 
L 525.621069 302.19435 
L 526.814791 302.646532 
L 528.008512 291.295682 
L 529.202234 298.732884 
L 530.395956 302.116786 
L 531.589677 303.400864 
L 532.783399 300.066814 
L 533.97712 295.700527 
L 535.170842 299.615265 
L 536.364564 302.142724 
L 537.558285 302.511062 
L 538.752007 299.927057 
L 539.945728 303.147549 
L 541.13945 303.352663 
L 542.333171 301.800168 
L 544.720615 303.695853 
L 545.914336 300.683175 
L 547.108058 293.387296 
L 548.301779 298.410381 
L 549.495501 301.739003 
L 550.689223 302.982529 
L 551.882944 300.517916 
L 553.076666 303.198459 
L 554.270387 302.359827 
L 555.464109 302.951827 
L 556.65783 303.274321 
L 557.851552 300.891652 
L 559.045274 302.865576 
L 560.238995 299.70053 
L 561.432717 302.697017 
L 562.626438 303.697077 
L 563.82016 303.622025 
L 565.013882 304.551818 
L 566.207603 303.252815 
L 567.401325 300.058033 
L 568.595046 303.443305 
L 569.788768 301.33689 
L 570.982489 303.532317 
L 572.176211 301.592002 
L 573.369933 299.953109 
L 574.563654 303.254496 
L 575.757376 300.110957 
L 578.144819 302.508426 
L 579.338541 300.443165 
L 580.532262 303.698074 
L 581.725984 302.958823 
L 582.919705 303.090504 
L 584.113427 302.384654 
L 585.307148 298.960574 
L 586.50087 301.859392 
L 587.694592 303.030751 
L 588.888313 303.04359 
L 590.082035 303.64488 
L 591.275756 302.698397 
L 592.469478 304.399783 
L 593.663199 300.410325 
L 594.856921 302.628825 
L 596.050643 302.192025 
L 597.244364 300.847084 
L 598.438086 301.965571 
L 599.631807 297.869653 
L 600.825529 300.97973 
L 602.019251 302.098457 
L 603.212972 302.375395 
L 604.406694 303.536282 
L 605.600415 303.598973 
L 606.794137 302.165973 
L 607.987858 303.778129 
L 609.18158 303.213654 
L 610.375302 300.616187 
L 611.569023 296.190977 
L 612.762745 301.671922 
L 613.956466 303.591655 
L 615.150188 302.191735 
L 616.34391 303.603239 
L 617.537631 300.520355 
L 618.731353 303.847815 
L 619.925074 303.89365 
L 621.118796 304.156774 
L 623.506239 304.000037 
L 624.699961 302.2551 
L 625.893682 303.582107 
L 627.087404 299.654633 
L 628.281125 303.523537 
L 629.474847 303.739549 
L 630.668569 300.395047 
L 631.86229 303.077136 
L 633.056012 301.785886 
L 634.249733 292.289618 
L 635.443455 297.770231 
L 636.637176 300.996036 
L 637.830898 301.482968 
L 639.02462 300.573642 
L 640.218341 301.982904 
L 642.605784 303.045479 
L 643.799506 302.220319 
L 644.993228 302.791468 
L 646.186949 299.632484 
L 647.380671 301.710865 
L 648.574392 302.386896 
L 649.768114 302.600531 
L 650.961835 302.573244 
L 652.155557 300.332304 
L 653.349279 303.389385 
L 654.543 302.866676 
L 655.736722 303.666033 
L 656.930443 303.41935 
L 658.124165 303.023257 
L 659.317886 299.466115 
L 660.511608 301.970512 
L 661.70533 302.479136 
L 662.899051 298.612786 
L 664.092773 302.829228 
L 665.286494 300.485948 
L 666.480216 302.687406 
L 667.673938 303.840238 
L 668.867659 301.525242 
L 670.061381 303.086093 
L 671.255102 300.585381 
L 672.448824 301.945435 
L 673.642545 303.817861 
L 674.836267 303.021763 
L 676.029989 301.560407 
L 677.22371 302.891296 
L 678.417432 303.43086 
L 679.611153 301.896165 
L 680.804875 298.95746 
L 681.998597 301.718857 
L 681.998597 301.718857 
" style="fill:none;stroke:#5da06d;stroke-linecap:round;stroke-width:1.2;"/>
   </g>
   <g id="line2d_15">
    <path clip-path="url(#p6b48bc9b9d)" d="M 86.331527 275.994471 
L 87.525249 277.712205 
L 88.71897 279.022729 
L 89.912692 274.15799 
L 91.106414 276.329991 
L 92.300135 268.003007 
L 93.493857 278.237871 
L 94.687578 278.479614 
L 95.8813 272.238661 
L 97.075021 278.771499 
L 98.268743 274.864276 
L 99.462465 276.335398 
L 100.656186 245.387111 
L 101.849908 269.550884 
L 103.043629 280.235844 
L 104.237351 275.385573 
L 105.431073 250.98395 
L 106.624794 270.41646 
L 107.818516 282.342518 
L 109.012237 288.79279 
L 110.205959 292.674771 
L 111.39968 286.809733 
L 112.593402 295.903836 
L 113.787124 299.940229 
L 114.980845 300.554783 
L 116.174567 293.841886 
L 117.368288 275.063018 
L 118.56201 290.233148 
L 119.755732 299.847241 
L 120.949453 297.533823 
L 122.143175 299.852337 
L 123.336896 297.884983 
L 124.530618 286.191898 
L 125.724339 297.620811 
L 126.918061 300.055417 
L 128.111783 298.614177 
L 129.305504 301.243176 
L 130.499226 299.081097 
L 131.692947 299.881596 
L 132.886669 293.096365 
L 134.080391 300.080857 
L 135.274112 298.899461 
L 136.467834 292.158746 
L 137.661555 299.102458 
L 138.855277 300.48298 
L 140.048998 299.573634 
L 141.24272 297.26472 
L 143.630163 298.179391 
L 144.823885 300.64226 
L 146.017606 298.204633 
L 147.211328 299.235426 
L 148.405049 296.427333 
L 149.598771 241.83247 
L 150.792493 270.167348 
L 151.986214 287.747466 
L 153.179936 300.207089 
L 154.373657 300.294067 
L 155.567379 296.064797 
L 156.761101 302.224533 
L 157.954822 300.238621 
L 159.148544 301.670365 
L 160.342265 278.415637 
L 161.535987 300.666983 
L 162.729708 301.864425 
L 163.92343 295.498371 
L 165.117152 297.163595 
L 166.310873 272.656498 
L 167.504595 294.52896 
L 168.698316 297.326684 
L 169.892038 299.018863 
L 171.08576 301.609625 
L 172.279481 301.122839 
L 173.473203 291.954141 
L 174.666924 301.211602 
L 175.860646 292.822229 
L 177.054367 293.355328 
L 178.248089 301.296525 
L 179.441811 300.854785 
L 180.635532 299.231773 
L 181.829254 302.345192 
L 183.022975 302.634596 
L 184.216697 301.201119 
L 185.410419 303.196757 
L 186.60414 302.158635 
L 187.797862 300.837514 
L 188.991583 292.85374 
L 190.185305 301.629201 
L 191.379026 302.974765 
L 192.572748 301.147832 
L 193.76647 300.525898 
L 194.960191 263.515387 
L 196.153913 287.857008 
L 197.347634 300.9321 
L 198.541356 302.453271 
L 199.735078 295.206911 
L 200.928799 300.38309 
L 202.122521 300.91131 
L 203.316242 300.910791 
L 204.509964 301.370311 
L 205.703685 301.398387 
L 206.897407 302.152304 
L 208.091129 299.079156 
L 209.28485 278.470346 
L 210.478572 292.95691 
L 211.672293 301.611141 
L 212.866015 300.21889 
L 214.059736 282.014316 
L 215.253458 294.377247 
L 216.44718 301.327238 
L 217.640901 294.888974 
L 218.834623 300.6587 
L 220.028344 294.977271 
L 221.222066 299.943747 
L 222.415788 302.002148 
L 223.609509 300.074058 
L 224.803231 300.836798 
L 225.996952 292.877 
L 227.190674 300.52213 
L 228.384395 302.478441 
L 229.578117 302.75457 
L 230.771839 302.357969 
L 231.96556 295.046926 
L 233.159282 301.786394 
L 234.353003 302.155065 
L 235.546725 298.907038 
L 236.740447 303.267003 
L 237.934168 302.792734 
L 239.12789 303.547751 
L 240.321611 303.389395 
L 241.515333 301.764494 
L 242.709054 302.081746 
L 243.902776 301.778828 
L 245.096498 299.181402 
L 246.290219 300.373053 
L 247.483941 302.951744 
L 248.677662 301.37383 
L 249.871384 302.263829 
L 251.065106 302.112884 
L 252.258827 298.78585 
L 253.452549 303.450145 
L 254.64627 300.265607 
L 255.839992 302.226391 
L 257.033713 300.949361 
L 258.227435 301.328224 
L 259.421157 293.949539 
L 260.614878 302.147166 
L 261.8086 303.208879 
L 263.002321 303.001191 
L 265.389765 301.969494 
L 266.583486 293.802527 
L 267.777208 302.153726 
L 268.970929 301.548471 
L 270.164651 301.400411 
L 271.358372 302.530607 
L 272.552094 303.480857 
L 273.745816 303.434358 
L 274.939537 299.283721 
L 276.133259 289.7816 
L 277.32698 300.033507 
L 278.520702 301.626139 
L 279.714423 301.383794 
L 280.908145 302.322544 
L 282.101867 302.81808 
L 283.295588 302.77976 
L 284.48931 300.355481 
L 285.683031 297.332258 
L 286.876753 302.14453 
L 288.070475 302.483153 
L 289.264196 302.35471 
L 290.457918 302.491643 
L 291.651639 300.967171 
L 292.845361 301.741452 
L 294.039082 299.475405 
L 295.232804 288.889618 
L 296.426526 298.287937 
L 297.620247 300.022536 
L 298.813969 298.089382 
L 300.00769 302.306737 
L 301.201412 299.140612 
L 302.395134 300.949599 
L 303.588855 299.040639 
L 304.782577 281.741031 
L 305.976298 294.794129 
L 307.17002 302.056763 
L 308.363741 303.120085 
L 309.557463 303.244075 
L 310.751185 298.071384 
L 311.944906 294.607655 
L 313.138628 301.68418 
L 314.332349 303.34463 
L 315.526071 302.372126 
L 316.719793 300.997281 
L 317.913514 296.77976 
L 319.107236 302.183867 
L 320.300957 302.238535 
L 321.494679 293.764259 
L 322.6884 302.081123 
L 323.882122 300.422697 
L 325.075844 290.579431 
L 326.269565 301.126036 
L 327.463287 301.886544 
L 328.657008 301.994602 
L 329.85073 302.629718 
L 331.044451 301.725053 
L 332.238173 301.755921 
L 333.431895 293.254286 
L 334.625616 301.418658 
L 335.819338 302.257435 
L 337.013059 299.782506 
L 338.206781 300.212912 
L 339.400503 291.838132 
L 340.594224 300.184089 
L 341.787946 302.603282 
L 342.981667 297.862263 
L 344.175389 302.612883 
L 345.36911 299.18024 
L 346.562832 281.331715 
L 347.756554 295.214976 
L 348.950275 302.473593 
L 350.143997 303.005052 
L 351.337718 301.777105 
L 352.53144 301.987617 
L 353.725162 301.086429 
L 354.918883 281.855919 
L 356.112605 294.632919 
L 357.306326 300.727245 
L 358.500048 293.600049 
L 359.693769 296.427904 
L 360.887491 284.243268 
L 362.081213 297.258108 
L 363.274934 300.375835 
L 364.468656 293.878597 
L 365.662377 292.576044 
L 366.856099 224.057773 
L 368.049821 273.59201 
L 369.243542 283.112834 
L 370.437264 290.398043 
L 371.630985 293.661048 
L 372.824707 299.066743 
L 374.018428 294.60778 
L 375.21215 280.234837 
L 376.405872 293.112495 
L 377.599593 300.2873 
L 378.793315 292.783369 
L 379.987036 230.470939 
L 381.180758 263.018481 
L 382.37448 282.606971 
L 383.568201 293.4906 
L 384.761923 289.463133 
L 385.955644 238.111554 
L 387.149366 267.671006 
L 388.343087 285.468174 
L 389.536809 293.452706 
L 390.730531 289.916851 
L 391.924252 297.578962 
L 393.117974 298.013302 
L 394.311695 294.487537 
L 395.505417 237.430655 
L 396.699138 266.767909 
L 397.89286 287.564013 
L 399.086582 298.142617 
L 400.280303 298.025622 
L 401.474025 290.191445 
L 402.667746 297.605782 
L 403.861468 299.398069 
L 405.05519 295.139872 
L 406.248911 299.542216 
L 407.442633 287.891249 
L 408.636354 280.802177 
L 409.830076 293.639947 
L 411.023797 301.245034 
L 412.217519 297.653059 
L 413.411241 271.193845 
L 414.604962 288.774928 
L 415.798684 302.923648 
L 416.992405 302.974028 
L 418.186127 303.194182 
L 419.379849 302.187085 
L 420.57357 293.075358 
L 421.767292 270.492395 
L 422.961013 287.734149 
L 424.154735 297.72806 
L 425.348456 301.027475 
L 426.542178 293.583193 
L 427.7359 297.510033 
L 428.929621 270.814328 
L 430.123343 287.803607 
L 431.317064 297.727302 
L 432.510786 296.311356 
L 433.704508 302.851813 
L 434.898229 300.762825 
L 436.091951 283.643826 
L 437.285672 296.05365 
L 438.479394 301.545316 
L 439.673115 302.43957 
L 440.866837 302.114659 
L 442.060559 299.625447 
L 443.25428 262.562012 
L 444.448002 282.783657 
L 445.641723 294.764102 
L 446.835445 300.026646 
L 448.029167 295.255019 
L 449.222888 279.960275 
L 450.41661 292.981042 
L 451.610331 281.918755 
L 452.804053 281.173359 
L 453.997774 295.768573 
L 455.191496 301.797355 
L 456.385218 302.887684 
L 457.578939 303.093514 
L 459.966382 296.962892 
L 461.160104 302.652625 
L 462.353825 300.228803 
L 463.547547 301.430542 
L 464.741269 286.83182 
L 465.93499 299.035958 
L 467.128712 301.540178 
L 468.322433 298.823381 
L 469.516155 301.846231 
L 470.709877 302.719664 
L 471.903598 303.023652 
L 474.291041 303.388368 
L 475.484763 293.714013 
L 476.678484 295.934838 
L 477.872206 301.544766 
L 479.065928 298.127795 
L 480.259649 301.909502 
L 481.453371 301.850009 
L 482.647092 302.421261 
L 483.840814 302.03671 
L 485.034536 298.880436 
L 486.228257 302.361518 
L 487.421979 302.495089 
L 488.6157 303.208091 
L 489.809422 303.101268 
L 491.003143 302.32106 
L 492.196865 301.93871 
L 493.390587 299.68793 
L 494.584308 302.804089 
L 495.77803 302.293264 
L 496.971751 300.962314 
L 498.165473 301.464596 
L 499.359195 302.305159 
L 500.552916 301.729392 
L 501.746638 302.532143 
L 502.940359 302.632645 
L 504.134081 302.610641 
L 505.327802 302.201014 
L 506.521524 302.551988 
L 507.715246 296.929917 
L 508.908967 302.328647 
L 510.102689 302.440504 
L 511.29641 286.449521 
L 512.490132 297.520454 
L 513.683854 302.664104 
L 514.877575 302.54166 
L 516.071297 300.696045 
L 517.265018 300.600504 
L 518.45874 299.257762 
L 519.652461 267.464875 
L 520.846183 285.878217 
L 522.039905 297.109125 
L 523.233626 299.872213 
L 524.427348 299.945813 
L 525.621069 299.225867 
L 526.814791 299.813239 
L 528.008512 297.179226 
L 529.202234 300.209175 
L 530.395956 300.237615 
L 531.589677 300.151975 
L 532.783399 300.321987 
L 533.97712 296.904031 
L 535.170842 28.948182 
L 536.364564 172.852915 
L 537.558285 234.824657 
L 538.752007 261.354595 
L 539.945728 278.346117 
L 541.13945 289.667054 
L 542.333171 291.545282 
L 543.526893 274.563008 
L 544.720615 293.731814 
L 545.914336 298.812254 
L 547.108058 298.1999 
L 548.301779 295.843522 
L 549.495501 229.156429 
L 550.689223 268.017901 
L 551.882944 286.560621 
L 553.076666 296.913642 
L 554.270387 296.268718 
L 555.464109 296.897202 
L 556.65783 299.9619 
L 557.851552 297.133298 
L 559.045274 289.910956 
L 560.238995 226.307826 
L 561.432717 261.763153 
L 562.626438 286.033677 
L 563.82016 295.244131 
L 565.013882 292.60166 
L 566.207603 298.981644 
L 567.401325 302.025366 
L 568.595046 298.364224 
L 569.788768 301.743871 
L 570.982489 292.339428 
L 572.176211 205.176525 
L 573.369933 252.596759 
L 574.563654 277.507962 
L 575.757376 298.527853 
L 576.951097 299.414157 
L 578.144819 288.32477 
L 579.338541 275.730932 
L 580.532262 291.021192 
L 581.725984 299.710993 
L 582.919705 293.645687 
L 584.113427 259.351983 
L 585.307148 280.631563 
L 586.50087 292.556541 
L 588.888313 296.731746 
L 590.082035 298.869091 
L 591.275756 291.271654 
L 592.469478 298.211182 
L 593.663199 296.578185 
L 594.856921 270.384762 
L 596.050643 288.963176 
L 597.244364 297.961053 
L 598.438086 287.483107 
L 599.631807 274.930018 
L 600.825529 290.497912 
L 602.019251 299.761145 
L 603.212972 299.959845 
L 604.406694 292.719049 
L 605.600415 295.15514 
L 606.794137 298.893856 
L 607.987858 297.300695 
L 609.18158 294.052408 
L 610.375302 299.613386 
L 611.569023 298.257619 
L 612.762745 290.62538 
L 613.956466 298.211089 
L 615.150188 298.622989 
L 616.34391 297.342419 
L 617.537631 299.824791 
L 618.731353 297.96863 
L 619.925074 299.055803 
L 621.118796 294.691105 
L 622.312517 297.509068 
L 623.506239 293.085031 
L 624.699961 299.458549 
L 625.893682 299.389963 
L 627.087404 291.602824 
L 628.281125 298.62576 
L 629.474847 298.351343 
L 630.668569 294.424763 
L 631.86229 299.37757 
L 633.056012 298.881515 
L 634.249733 299.243782 
L 635.443455 300.753338 
L 636.637176 296.260176 
L 637.830898 299.25003 
L 639.02462 297.061183 
L 640.218341 297.367225 
L 641.412063 296.745997 
L 642.605784 295.57635 
L 643.799506 299.367523 
L 644.993228 299.253113 
L 646.186949 292.224966 
L 647.380671 290.562347 
L 648.574392 300.289386 
L 650.961835 297.387756 
L 652.155557 296.174962 
L 653.349279 299.519683 
L 654.543 298.195862 
L 655.736722 302.485882 
L 656.930443 302.341196 
L 658.124165 302.681884 
L 659.317886 300.739721 
L 660.511608 302.698356 
L 661.70533 303.235253 
L 662.899051 301.20605 
L 664.092773 303.097406 
L 665.286494 302.625587 
L 666.480216 295.478214 
L 667.673938 254.226445 
L 668.867659 277.281508 
L 670.061381 294.229249 
L 671.255102 296.801162 
L 672.448824 236.716979 
L 673.642545 266.889429 
L 674.836267 285.035329 
L 676.029989 294.580244 
L 677.22371 288.157965 
L 678.417432 240.169135 
L 679.611153 268.934181 
L 680.804875 286.085272 
L 681.998597 293.55956 
L 681.998597 293.55956 
" style="fill:none;stroke:#b85a5d;stroke-linecap:round;stroke-width:1.2;"/>
   </g>
   <g id="line2d_16"/>
   <g id="line2d_17"/>
   <g id="line2d_18"/>
   <g id="line2d_19"/>
   <g id="line2d_20"/>
   <g id="patch_3">
    <path d="M 56.548174 318.332 
L 56.548174 15.168 
" style="fill:none;stroke:#cccccc;stroke-linecap:square;stroke-linejoin:miter;"/>
   </g>
   <g id="patch_4">
    <path d="M 56.548174 318.332 
L 711.78195 318.332 
" style="fill:none;stroke:#cccccc;stroke-linecap:square;stroke-linejoin:miter;"/>
   </g>
   <g id="text_14">
    <!-- Convergence of $E_{reinf}$ -->
    <defs>
     <path d="M 64.40625 67.28125 
L 64.40625 56.890625 
Q 59.421875 61.53125 53.78125 63.8125 
Q 48.140625 66.109375 41.796875 66.109375 
Q 29.296875 66.109375 22.65625 58.46875 
Q 16.015625 50.828125 16.015625 36.375 
Q 16.015625 21.96875 22.65625 14.328125 
Q 29.296875 6.6875 41.796875 6.6875 
Q 48.140625 6.6875 53.78125 8.984375 
Q 59.421875 11.28125 64.40625 15.921875 
L 64.40625 5.609375 
Q 59.234375 2.09375 53.4375 0.328125 
Q 47.65625 -1.421875 41.21875 -1.421875 
Q 24.65625 -1.421875 15.125 8.703125 
Q 5.609375 18.84375 5.609375 36.375 
Q 5.609375 53.953125 15.125 64.078125 
Q 24.65625 74.21875 41.21875 74.21875 
Q 47.75 74.21875 53.53125 72.484375 
Q 59.328125 70.75 64.40625 67.28125 
z
" id="DejaVuSans-67"/>
     <path d="M 2.984375 54.6875 
L 12.5 54.6875 
L 29.59375 8.796875 
L 46.6875 54.6875 
L 56.203125 54.6875 
L 35.6875 0 
L 23.484375 0 
z
" id="DejaVuSans-118"/>
     <path d="M 45.40625 27.984375 
Q 45.40625 37.75 41.375 43.109375 
Q 37.359375 48.484375 30.078125 48.484375 
Q 22.859375 48.484375 18.828125 43.109375 
Q 14.796875 37.75 14.796875 27.984375 
Q 14.796875 18.265625 18.828125 12.890625 
Q 22.859375 7.515625 30.078125 7.515625 
Q 37.359375 7.515625 41.375 12.890625 
Q 45.40625 18.265625 45.40625 27.984375 
z
M 54.390625 6.78125 
Q 54.390625 -7.171875 48.1875 -13.984375 
Q 42 -20.796875 29.203125 -20.796875 
Q 24.46875 -20.796875 20.265625 -20.09375 
Q 16.0625 -19.390625 12.109375 -17.921875 
L 12.109375 -9.1875 
Q 16.0625 -11.328125 19.921875 -12.34375 
Q 23.78125 -13.375 27.78125 -13.375 
Q 36.625 -13.375 41.015625 -8.765625 
Q 45.40625 -4.15625 45.40625 5.171875 
L 45.40625 9.625 
Q 42.625 4.78125 38.28125 2.390625 
Q 33.9375 0 27.875 0 
Q 17.828125 0 11.671875 7.65625 
Q 5.515625 15.328125 5.515625 27.984375 
Q 5.515625 40.671875 11.671875 48.328125 
Q 17.828125 56 27.875 56 
Q 33.9375 56 38.28125 53.609375 
Q 42.625 51.21875 45.40625 46.390625 
L 45.40625 54.6875 
L 54.390625 54.6875 
z
" id="DejaVuSans-103"/>
     <path d="M 48.78125 52.59375 
L 48.78125 44.1875 
Q 44.96875 46.296875 41.140625 47.34375 
Q 37.3125 48.390625 33.40625 48.390625 
Q 24.65625 48.390625 19.8125 42.84375 
Q 14.984375 37.3125 14.984375 27.296875 
Q 14.984375 17.28125 19.8125 11.734375 
Q 24.65625 6.203125 33.40625 6.203125 
Q 37.3125 6.203125 41.140625 7.25 
Q 44.96875 8.296875 48.78125 10.40625 
L 48.78125 2.09375 
Q 45.015625 0.34375 40.984375 -0.53125 
Q 36.96875 -1.421875 32.421875 -1.421875 
Q 20.0625 -1.421875 12.78125 6.34375 
Q 5.515625 14.109375 5.515625 27.296875 
Q 5.515625 40.671875 12.859375 48.328125 
Q 20.21875 56 33.015625 56 
Q 37.15625 56 41.109375 55.140625 
Q 45.0625 54.296875 48.78125 52.59375 
z
" id="DejaVuSans-99"/>
     <path id="DejaVuSans-32"/>
     <path d="M 37.109375 75.984375 
L 37.109375 68.5 
L 28.515625 68.5 
Q 23.6875 68.5 21.796875 66.546875 
Q 19.921875 64.59375 19.921875 59.515625 
L 19.921875 54.6875 
L 34.71875 54.6875 
L 34.71875 47.703125 
L 19.921875 47.703125 
L 19.921875 0 
L 10.890625 0 
L 10.890625 47.703125 
L 2.296875 47.703125 
L 2.296875 54.6875 
L 10.890625 54.6875 
L 10.890625 58.5 
Q 10.890625 67.625 15.140625 71.796875 
Q 19.390625 75.984375 28.609375 75.984375 
z
" id="DejaVuSans-102"/>
    </defs>
    <g style="fill:#262626;" transform="translate(333.861062 9.168)scale(0.096 -0.096)">
     <use transform="translate(0 0.015625)" xlink:href="#DejaVuSans-67"/>
     <use transform="translate(69.824219 0.015625)" xlink:href="#DejaVuSans-111"/>
     <use transform="translate(131.005859 0.015625)" xlink:href="#DejaVuSans-110"/>
     <use transform="translate(194.384766 0.015625)" xlink:href="#DejaVuSans-118"/>
     <use transform="translate(253.564453 0.015625)" xlink:href="#DejaVuSans-101"/>
     <use transform="translate(315.087891 0.015625)" xlink:href="#DejaVuSans-114"/>
     <use transform="translate(356.201172 0.015625)" xlink:href="#DejaVuSans-103"/>
     <use transform="translate(419.677734 0.015625)" xlink:href="#DejaVuSans-101"/>
     <use transform="translate(481.201172 0.015625)" xlink:href="#DejaVuSans-110"/>
     <use transform="translate(544.580078 0.015625)" xlink:href="#DejaVuSans-99"/>
     <use transform="translate(599.560547 0.015625)" xlink:href="#DejaVuSans-101"/>
     <use transform="translate(661.083984 0.015625)" xlink:href="#DejaVuSans-32"/>
     <use transform="translate(692.871094 0.015625)" xlink:href="#DejaVuSans-111"/>
     <use transform="translate(754.052734 0.015625)" xlink:href="#DejaVuSans-102"/>
     <use transform="translate(789.257812 0.015625)" xlink:href="#DejaVuSans-32"/>
     <use transform="translate(821.044922 0.015625)" xlink:href="#DejaVuSans-Oblique-69"/>
     <use transform="translate(884.228516 -16.390625)scale(0.7)" xlink:href="#DejaVuSans-Oblique-114"/>
     <use transform="translate(913.007812 -16.390625)scale(0.7)" xlink:href="#DejaVuSans-Oblique-101"/>
     <use transform="translate(956.074219 -16.390625)scale(0.7)" xlink:href="#DejaVuSans-Oblique-105"/>
     <use transform="translate(975.522461 -16.390625)scale(0.7)" xlink:href="#DejaVuSans-Oblique-110"/>
     <use transform="translate(1019.887695 -16.390625)scale(0.7)" xlink:href="#DejaVuSans-Oblique-102"/>
    </g>
   </g>
  </g>
  <g id="legend_1">
   <g id="line2d_21">
    <path d="M 719.3125 153.392375 
L 736.9125 153.392375 
" style="fill:none;"/>
   </g>
   <g id="line2d_22"/>
   <g id="text_15">
    <!-- adaptation_rate -->
    <defs>
     <path d="M 45.40625 46.390625 
L 45.40625 75.984375 
L 54.390625 75.984375 
L 54.390625 0 
L 45.40625 0 
L 45.40625 8.203125 
Q 42.578125 3.328125 38.25 0.953125 
Q 33.9375 -1.421875 27.875 -1.421875 
Q 17.96875 -1.421875 11.734375 6.484375 
Q 5.515625 14.40625 5.515625 27.296875 
Q 5.515625 40.1875 11.734375 48.09375 
Q 17.96875 56 27.875 56 
Q 33.9375 56 38.25 53.625 
Q 42.578125 51.265625 45.40625 46.390625 
z
M 14.796875 27.296875 
Q 14.796875 17.390625 18.875 11.75 
Q 22.953125 6.109375 30.078125 6.109375 
Q 37.203125 6.109375 41.296875 11.75 
Q 45.40625 17.390625 45.40625 27.296875 
Q 45.40625 37.203125 41.296875 42.84375 
Q 37.203125 48.484375 30.078125 48.484375 
Q 22.953125 48.484375 18.875 42.84375 
Q 14.796875 37.203125 14.796875 27.296875 
z
" id="DejaVuSans-100"/>
     <path d="M 18.109375 8.203125 
L 18.109375 -20.796875 
L 9.078125 -20.796875 
L 9.078125 54.6875 
L 18.109375 54.6875 
L 18.109375 46.390625 
Q 20.953125 51.265625 25.265625 53.625 
Q 29.59375 56 35.59375 56 
Q 45.5625 56 51.78125 48.09375 
Q 58.015625 40.1875 58.015625 27.296875 
Q 58.015625 14.40625 51.78125 6.484375 
Q 45.5625 -1.421875 35.59375 -1.421875 
Q 29.59375 -1.421875 25.265625 0.953125 
Q 20.953125 3.328125 18.109375 8.203125 
z
M 48.6875 27.296875 
Q 48.6875 37.203125 44.609375 42.84375 
Q 40.53125 48.484375 33.40625 48.484375 
Q 26.265625 48.484375 22.1875 42.84375 
Q 18.109375 37.203125 18.109375 27.296875 
Q 18.109375 17.390625 22.1875 11.75 
Q 26.265625 6.109375 33.40625 6.109375 
Q 40.53125 6.109375 44.609375 11.75 
Q 48.6875 17.390625 48.6875 27.296875 
z
" id="DejaVuSans-112"/>
     <path d="M 50.984375 -16.609375 
L 50.984375 -23.578125 
L -0.984375 -23.578125 
L -0.984375 -16.609375 
z
" id="DejaVuSans-95"/>
    </defs>
    <g style="fill:#262626;" transform="translate(743.9525 156.472375)scale(0.088 -0.088)">
     <use xlink:href="#DejaVuSans-97"/>
     <use x="61.279297" xlink:href="#DejaVuSans-100"/>
     <use x="124.755859" xlink:href="#DejaVuSans-97"/>
     <use x="186.035156" xlink:href="#DejaVuSans-112"/>
     <use x="249.511719" xlink:href="#DejaVuSans-116"/>
     <use x="288.720703" xlink:href="#DejaVuSans-97"/>
     <use x="350" xlink:href="#DejaVuSans-116"/>
     <use x="389.208984" xlink:href="#DejaVuSans-105"/>
     <use x="416.992188" xlink:href="#DejaVuSans-111"/>
     <use x="478.173828" xlink:href="#DejaVuSans-110"/>
     <use x="541.552734" xlink:href="#DejaVuSans-95"/>
     <use x="591.552734" xlink:href="#DejaVuSans-114"/>
     <use x="632.666016" xlink:href="#DejaVuSans-97"/>
     <use x="693.945312" xlink:href="#DejaVuSans-116"/>
     <use x="733.154297" xlink:href="#DejaVuSans-101"/>
    </g>
   </g>
   <g id="line2d_23">
    <path d="M 719.3125 166.553875 
L 736.9125 166.553875 
" style="fill:none;stroke:#5674a6;stroke-linecap:round;stroke-width:1.2;"/>
   </g>
   <g id="line2d_24"/>
   <g id="text_16">
    <!-- 0.1 -->
    <defs>
     <path d="M 10.6875 12.40625 
L 21 12.40625 
L 21 0 
L 10.6875 0 
z
" id="DejaVuSans-46"/>
    </defs>
    <g style="fill:#262626;" transform="translate(743.9525 169.633875)scale(0.088 -0.088)">
     <use xlink:href="#DejaVuSans-48"/>
     <use x="63.623047" xlink:href="#DejaVuSans-46"/>
     <use x="95.410156" xlink:href="#DejaVuSans-49"/>
    </g>
   </g>
   <g id="line2d_25">
    <path d="M 719.3125 179.470625 
L 736.9125 179.470625 
" style="fill:none;stroke:#cf8860;stroke-linecap:round;stroke-width:1.2;"/>
   </g>
   <g id="line2d_26"/>
   <g id="text_17">
    <!-- 0.5 -->
    <g style="fill:#262626;" transform="translate(743.9525 182.550625)scale(0.088 -0.088)">
     <use xlink:href="#DejaVuSans-48"/>
     <use x="63.623047" xlink:href="#DejaVuSans-46"/>
     <use x="95.410156" xlink:href="#DejaVuSans-53"/>
    </g>
   </g>
   <g id="line2d_27">
    <path d="M 719.3125 192.387375 
L 736.9125 192.387375 
" style="fill:none;stroke:#5da06d;stroke-linecap:round;stroke-width:1.2;"/>
   </g>
   <g id="line2d_28"/>
   <g id="text_18">
    <!-- 1.0 -->
    <g style="fill:#262626;" transform="translate(743.9525 195.467375)scale(0.088 -0.088)">
     <use xlink:href="#DejaVuSans-49"/>
     <use x="63.623047" xlink:href="#DejaVuSans-46"/>
     <use x="95.410156" xlink:href="#DejaVuSans-48"/>
    </g>
   </g>
   <g id="line2d_29">
    <path d="M 719.3125 205.304125 
L 736.9125 205.304125 
" style="fill:none;stroke:#b85a5d;stroke-linecap:round;stroke-width:1.2;"/>
   </g>
   <g id="line2d_30"/>
   <g id="text_19">
    <!-- 1.5 -->
    <g style="fill:#262626;" transform="translate(743.9525 208.384125)scale(0.088 -0.088)">
     <use xlink:href="#DejaVuSans-49"/>
     <use x="63.623047" xlink:href="#DejaVuSans-46"/>
     <use x="95.410156" xlink:href="#DejaVuSans-53"/>
    </g>
   </g>
  </g>
 </g>
 <defs>
  <clipPath id="p6b48bc9b9d">
   <rect height="303.164" width="655.233776" x="56.548174" y="15.168"/>
  </clipPath>
 </defs>
</svg>
