<?xml version="1.0" encoding="utf-8" standalone="no"?>
<!DOCTYPE svg PUBLIC "-//W3C//DTD SVG 1.1//EN"
  "http://www.w3.org/Graphics/SVG/1.1/DTD/svg11.dtd">
<!-- Created with matplotlib (https://matplotlib.org/) -->
<svg height="360pt" version="1.1" viewBox="0 0 821.805 360" width="821.805pt" xmlns="http://www.w3.org/2000/svg" xmlns:xlink="http://www.w3.org/1999/xlink">
 <defs>
  <style type="text/css">
*{stroke-linecap:butt;stroke-linejoin:round;}
  </style>
 </defs>
 <g id="figure_1">
  <g id="patch_1">
   <path d="M 0 360 
L 821.805 360 
L 821.805 0 
L 0 0 
z
" style="fill:#ffffff;"/>
  </g>
  <g id="axes_1">
   <g id="patch_2">
    <path d="M 58.545616 318.332 
L 711.78195 318.332 
L 711.78195 15.168 
L 58.545616 15.168 
z
" style="fill:#ffffff;"/>
   </g>
   <g id="matplotlib.axis_1">
    <g id="xtick_1">
     <g id="line2d_1">
      <path clip-path="url(#p3ebca94fc3)" d="M 88.238177 318.332 
L 88.238177 15.168 
" style="fill:none;stroke:#cccccc;stroke-linecap:round;stroke-width:0.8;"/>
     </g>
     <g id="text_1">
      <!-- 0 -->
      <defs>
       <path d="M 31.78125 66.40625 
Q 24.171875 66.40625 20.328125 58.90625 
Q 16.5 51.421875 16.5 36.375 
Q 16.5 21.390625 20.328125 13.890625 
Q 24.171875 6.390625 31.78125 6.390625 
Q 39.453125 6.390625 43.28125 13.890625 
Q 47.125 21.390625 47.125 36.375 
Q 47.125 51.421875 43.28125 58.90625 
Q 39.453125 66.40625 31.78125 66.40625 
z
M 31.78125 74.21875 
Q 44.046875 74.21875 50.515625 64.515625 
Q 56.984375 54.828125 56.984375 36.375 
Q 56.984375 17.96875 50.515625 8.265625 
Q 44.046875 -1.421875 31.78125 -1.421875 
Q 19.53125 -1.421875 13.0625 8.265625 
Q 6.59375 17.96875 6.59375 36.375 
Q 6.59375 54.828125 13.0625 64.515625 
Q 19.53125 74.21875 31.78125 74.21875 
z
" id="DejaVuSans-48"/>
      </defs>
      <g style="fill:#262626;" transform="translate(85.438677 333.318625)scale(0.088 -0.088)">
       <use xlink:href="#DejaVuSans-48"/>
      </g>
     </g>
    </g>
    <g id="xtick_2">
     <g id="line2d_2">
      <path clip-path="url(#p3ebca94fc3)" d="M 207.246436 318.332 
L 207.246436 15.168 
" style="fill:none;stroke:#cccccc;stroke-linecap:round;stroke-width:0.8;"/>
     </g>
     <g id="text_2">
      <!-- 100 -->
      <defs>
       <path d="M 12.40625 8.296875 
L 28.515625 8.296875 
L 28.515625 63.921875 
L 10.984375 60.40625 
L 10.984375 69.390625 
L 28.421875 72.90625 
L 38.28125 72.90625 
L 38.28125 8.296875 
L 54.390625 8.296875 
L 54.390625 0 
L 12.40625 0 
z
" id="DejaVuSans-49"/>
      </defs>
      <g style="fill:#262626;" transform="translate(198.847936 333.318625)scale(0.088 -0.088)">
       <use xlink:href="#DejaVuSans-49"/>
       <use x="63.623047" xlink:href="#DejaVuSans-48"/>
       <use x="127.246094" xlink:href="#DejaVuSans-48"/>
      </g>
     </g>
    </g>
    <g id="xtick_3">
     <g id="line2d_3">
      <path clip-path="url(#p3ebca94fc3)" d="M 326.254695 318.332 
L 326.254695 15.168 
" style="fill:none;stroke:#cccccc;stroke-linecap:round;stroke-width:0.8;"/>
     </g>
     <g id="text_3">
      <!-- 200 -->
      <defs>
       <path d="M 19.1875 8.296875 
L 53.609375 8.296875 
L 53.609375 0 
L 7.328125 0 
L 7.328125 8.296875 
Q 12.9375 14.109375 22.625 23.890625 
Q 32.328125 33.6875 34.8125 36.53125 
Q 39.546875 41.84375 41.421875 45.53125 
Q 43.3125 49.21875 43.3125 52.78125 
Q 43.3125 58.59375 39.234375 62.25 
Q 35.15625 65.921875 28.609375 65.921875 
Q 23.96875 65.921875 18.8125 64.3125 
Q 13.671875 62.703125 7.8125 59.421875 
L 7.8125 69.390625 
Q 13.765625 71.78125 18.9375 73 
Q 24.125 74.21875 28.421875 74.21875 
Q 39.75 74.21875 46.484375 68.546875 
Q 53.21875 62.890625 53.21875 53.421875 
Q 53.21875 48.921875 51.53125 44.890625 
Q 49.859375 40.875 45.40625 35.40625 
Q 44.1875 33.984375 37.640625 27.21875 
Q 31.109375 20.453125 19.1875 8.296875 
z
" id="DejaVuSans-50"/>
      </defs>
      <g style="fill:#262626;" transform="translate(317.856195 333.318625)scale(0.088 -0.088)">
       <use xlink:href="#DejaVuSans-50"/>
       <use x="63.623047" xlink:href="#DejaVuSans-48"/>
       <use x="127.246094" xlink:href="#DejaVuSans-48"/>
      </g>
     </g>
    </g>
    <g id="xtick_4">
     <g id="line2d_4">
      <path clip-path="url(#p3ebca94fc3)" d="M 445.262954 318.332 
L 445.262954 15.168 
" style="fill:none;stroke:#cccccc;stroke-linecap:round;stroke-width:0.8;"/>
     </g>
     <g id="text_4">
      <!-- 300 -->
      <defs>
       <path d="M 40.578125 39.3125 
Q 47.65625 37.796875 51.625 33 
Q 55.609375 28.21875 55.609375 21.1875 
Q 55.609375 10.40625 48.1875 4.484375 
Q 40.765625 -1.421875 27.09375 -1.421875 
Q 22.515625 -1.421875 17.65625 -0.515625 
Q 12.796875 0.390625 7.625 2.203125 
L 7.625 11.71875 
Q 11.71875 9.328125 16.59375 8.109375 
Q 21.484375 6.890625 26.8125 6.890625 
Q 36.078125 6.890625 40.9375 10.546875 
Q 45.796875 14.203125 45.796875 21.1875 
Q 45.796875 27.640625 41.28125 31.265625 
Q 36.765625 34.90625 28.71875 34.90625 
L 20.21875 34.90625 
L 20.21875 43.015625 
L 29.109375 43.015625 
Q 36.375 43.015625 40.234375 45.921875 
Q 44.09375 48.828125 44.09375 54.296875 
Q 44.09375 59.90625 40.109375 62.90625 
Q 36.140625 65.921875 28.71875 65.921875 
Q 24.65625 65.921875 20.015625 65.03125 
Q 15.375 64.15625 9.8125 62.3125 
L 9.8125 71.09375 
Q 15.4375 72.65625 20.34375 73.4375 
Q 25.25 74.21875 29.59375 74.21875 
Q 40.828125 74.21875 47.359375 69.109375 
Q 53.90625 64.015625 53.90625 55.328125 
Q 53.90625 49.265625 50.4375 45.09375 
Q 46.96875 40.921875 40.578125 39.3125 
z
" id="DejaVuSans-51"/>
      </defs>
      <g style="fill:#262626;" transform="translate(436.864454 333.318625)scale(0.088 -0.088)">
       <use xlink:href="#DejaVuSans-51"/>
       <use x="63.623047" xlink:href="#DejaVuSans-48"/>
       <use x="127.246094" xlink:href="#DejaVuSans-48"/>
      </g>
     </g>
    </g>
    <g id="xtick_5">
     <g id="line2d_5">
      <path clip-path="url(#p3ebca94fc3)" d="M 564.271213 318.332 
L 564.271213 15.168 
" style="fill:none;stroke:#cccccc;stroke-linecap:round;stroke-width:0.8;"/>
     </g>
     <g id="text_5">
      <!-- 400 -->
      <defs>
       <path d="M 37.796875 64.3125 
L 12.890625 25.390625 
L 37.796875 25.390625 
z
M 35.203125 72.90625 
L 47.609375 72.90625 
L 47.609375 25.390625 
L 58.015625 25.390625 
L 58.015625 17.1875 
L 47.609375 17.1875 
L 47.609375 0 
L 37.796875 0 
L 37.796875 17.1875 
L 4.890625 17.1875 
L 4.890625 26.703125 
z
" id="DejaVuSans-52"/>
      </defs>
      <g style="fill:#262626;" transform="translate(555.872713 333.318625)scale(0.088 -0.088)">
       <use xlink:href="#DejaVuSans-52"/>
       <use x="63.623047" xlink:href="#DejaVuSans-48"/>
       <use x="127.246094" xlink:href="#DejaVuSans-48"/>
      </g>
     </g>
    </g>
    <g id="xtick_6">
     <g id="line2d_6">
      <path clip-path="url(#p3ebca94fc3)" d="M 683.279472 318.332 
L 683.279472 15.168 
" style="fill:none;stroke:#cccccc;stroke-linecap:round;stroke-width:0.8;"/>
     </g>
     <g id="text_6">
      <!-- 500 -->
      <defs>
       <path d="M 10.796875 72.90625 
L 49.515625 72.90625 
L 49.515625 64.59375 
L 19.828125 64.59375 
L 19.828125 46.734375 
Q 21.96875 47.46875 24.109375 47.828125 
Q 26.265625 48.1875 28.421875 48.1875 
Q 40.625 48.1875 47.75 41.5 
Q 54.890625 34.8125 54.890625 23.390625 
Q 54.890625 11.625 47.5625 5.09375 
Q 40.234375 -1.421875 26.90625 -1.421875 
Q 22.3125 -1.421875 17.546875 -0.640625 
Q 12.796875 0.140625 7.71875 1.703125 
L 7.71875 11.625 
Q 12.109375 9.234375 16.796875 8.0625 
Q 21.484375 6.890625 26.703125 6.890625 
Q 35.15625 6.890625 40.078125 11.328125 
Q 45.015625 15.765625 45.015625 23.390625 
Q 45.015625 31 40.078125 35.4375 
Q 35.15625 39.890625 26.703125 39.890625 
Q 22.75 39.890625 18.8125 39.015625 
Q 14.890625 38.140625 10.796875 36.28125 
z
" id="DejaVuSans-53"/>
      </defs>
      <g style="fill:#262626;" transform="translate(674.880972 333.318625)scale(0.088 -0.088)">
       <use xlink:href="#DejaVuSans-53"/>
       <use x="63.623047" xlink:href="#DejaVuSans-48"/>
       <use x="127.246094" xlink:href="#DejaVuSans-48"/>
      </g>
     </g>
    </g>
    <g id="text_7">
     <!-- Iteration -->
     <defs>
      <path d="M 9.8125 72.90625 
L 19.671875 72.90625 
L 19.671875 0 
L 9.8125 0 
z
" id="DejaVuSans-73"/>
      <path d="M 18.3125 70.21875 
L 18.3125 54.6875 
L 36.8125 54.6875 
L 36.8125 47.703125 
L 18.3125 47.703125 
L 18.3125 18.015625 
Q 18.3125 11.328125 20.140625 9.421875 
Q 21.96875 7.515625 27.59375 7.515625 
L 36.8125 7.515625 
L 36.8125 0 
L 27.59375 0 
Q 17.1875 0 13.234375 3.875 
Q 9.28125 7.765625 9.28125 18.015625 
L 9.28125 47.703125 
L 2.6875 47.703125 
L 2.6875 54.6875 
L 9.28125 54.6875 
L 9.28125 70.21875 
z
" id="DejaVuSans-116"/>
      <path d="M 56.203125 29.59375 
L 56.203125 25.203125 
L 14.890625 25.203125 
Q 15.484375 15.921875 20.484375 11.0625 
Q 25.484375 6.203125 34.421875 6.203125 
Q 39.59375 6.203125 44.453125 7.46875 
Q 49.3125 8.734375 54.109375 11.28125 
L 54.109375 2.78125 
Q 49.265625 0.734375 44.1875 -0.34375 
Q 39.109375 -1.421875 33.890625 -1.421875 
Q 20.796875 -1.421875 13.15625 6.1875 
Q 5.515625 13.8125 5.515625 26.8125 
Q 5.515625 40.234375 12.765625 48.109375 
Q 20.015625 56 32.328125 56 
Q 43.359375 56 49.78125 48.890625 
Q 56.203125 41.796875 56.203125 29.59375 
z
M 47.21875 32.234375 
Q 47.125 39.59375 43.09375 43.984375 
Q 39.0625 48.390625 32.421875 48.390625 
Q 24.90625 48.390625 20.390625 44.140625 
Q 15.875 39.890625 15.1875 32.171875 
z
" id="DejaVuSans-101"/>
      <path d="M 41.109375 46.296875 
Q 39.59375 47.171875 37.8125 47.578125 
Q 36.03125 48 33.890625 48 
Q 26.265625 48 22.1875 43.046875 
Q 18.109375 38.09375 18.109375 28.8125 
L 18.109375 0 
L 9.078125 0 
L 9.078125 54.6875 
L 18.109375 54.6875 
L 18.109375 46.1875 
Q 20.953125 51.171875 25.484375 53.578125 
Q 30.03125 56 36.53125 56 
Q 37.453125 56 38.578125 55.875 
Q 39.703125 55.765625 41.0625 55.515625 
z
" id="DejaVuSans-114"/>
      <path d="M 34.28125 27.484375 
Q 23.390625 27.484375 19.1875 25 
Q 14.984375 22.515625 14.984375 16.5 
Q 14.984375 11.71875 18.140625 8.90625 
Q 21.296875 6.109375 26.703125 6.109375 
Q 34.1875 6.109375 38.703125 11.40625 
Q 43.21875 16.703125 43.21875 25.484375 
L 43.21875 27.484375 
z
M 52.203125 31.203125 
L 52.203125 0 
L 43.21875 0 
L 43.21875 8.296875 
Q 40.140625 3.328125 35.546875 0.953125 
Q 30.953125 -1.421875 24.3125 -1.421875 
Q 15.921875 -1.421875 10.953125 3.296875 
Q 6 8.015625 6 15.921875 
Q 6 25.140625 12.171875 29.828125 
Q 18.359375 34.515625 30.609375 34.515625 
L 43.21875 34.515625 
L 43.21875 35.40625 
Q 43.21875 41.609375 39.140625 45 
Q 35.0625 48.390625 27.6875 48.390625 
Q 23 48.390625 18.546875 47.265625 
Q 14.109375 46.140625 10.015625 43.890625 
L 10.015625 52.203125 
Q 14.9375 54.109375 19.578125 55.046875 
Q 24.21875 56 28.609375 56 
Q 40.484375 56 46.34375 49.84375 
Q 52.203125 43.703125 52.203125 31.203125 
z
" id="DejaVuSans-97"/>
      <path d="M 9.421875 54.6875 
L 18.40625 54.6875 
L 18.40625 0 
L 9.421875 0 
z
M 9.421875 75.984375 
L 18.40625 75.984375 
L 18.40625 64.59375 
L 9.421875 64.59375 
z
" id="DejaVuSans-105"/>
      <path d="M 30.609375 48.390625 
Q 23.390625 48.390625 19.1875 42.75 
Q 14.984375 37.109375 14.984375 27.296875 
Q 14.984375 17.484375 19.15625 11.84375 
Q 23.34375 6.203125 30.609375 6.203125 
Q 37.796875 6.203125 41.984375 11.859375 
Q 46.1875 17.53125 46.1875 27.296875 
Q 46.1875 37.015625 41.984375 42.703125 
Q 37.796875 48.390625 30.609375 48.390625 
z
M 30.609375 56 
Q 42.328125 56 49.015625 48.375 
Q 55.71875 40.765625 55.71875 27.296875 
Q 55.71875 13.875 49.015625 6.21875 
Q 42.328125 -1.421875 30.609375 -1.421875 
Q 18.84375 -1.421875 12.171875 6.21875 
Q 5.515625 13.875 5.515625 27.296875 
Q 5.515625 40.765625 12.171875 48.375 
Q 18.84375 56 30.609375 56 
z
" id="DejaVuSans-111"/>
      <path d="M 54.890625 33.015625 
L 54.890625 0 
L 45.90625 0 
L 45.90625 32.71875 
Q 45.90625 40.484375 42.875 44.328125 
Q 39.84375 48.1875 33.796875 48.1875 
Q 26.515625 48.1875 22.3125 43.546875 
Q 18.109375 38.921875 18.109375 30.90625 
L 18.109375 0 
L 9.078125 0 
L 9.078125 54.6875 
L 18.109375 54.6875 
L 18.109375 46.1875 
Q 21.34375 51.125 25.703125 53.5625 
Q 30.078125 56 35.796875 56 
Q 45.21875 56 50.046875 50.171875 
Q 54.890625 44.34375 54.890625 33.015625 
z
" id="DejaVuSans-110"/>
     </defs>
     <g style="fill:#262626;" transform="translate(364.803533 346.44325)scale(0.096 -0.096)">
      <use xlink:href="#DejaVuSans-73"/>
      <use x="29.492188" xlink:href="#DejaVuSans-116"/>
      <use x="68.701172" xlink:href="#DejaVuSans-101"/>
      <use x="130.224609" xlink:href="#DejaVuSans-114"/>
      <use x="171.337891" xlink:href="#DejaVuSans-97"/>
      <use x="232.617188" xlink:href="#DejaVuSans-116"/>
      <use x="271.826172" xlink:href="#DejaVuSans-105"/>
      <use x="299.609375" xlink:href="#DejaVuSans-111"/>
      <use x="360.791016" xlink:href="#DejaVuSans-110"/>
     </g>
    </g>
   </g>
   <g id="matplotlib.axis_2">
    <g id="ytick_1">
     <g id="line2d_7">
      <path clip-path="url(#p3ebca94fc3)" d="M 58.545616 317.797707 
L 711.78195 317.797707 
" style="fill:none;stroke:#cccccc;stroke-linecap:round;stroke-width:0.8;"/>
     </g>
     <g id="text_8">
      <!-- −10 -->
      <defs>
       <path d="M 10.59375 35.5 
L 73.1875 35.5 
L 73.1875 27.203125 
L 10.59375 27.203125 
z
" id="DejaVuSans-8722"/>
      </defs>
      <g style="fill:#262626;" transform="translate(31.673491 321.141019)scale(0.088 -0.088)">
       <use xlink:href="#DejaVuSans-8722"/>
       <use x="83.789062" xlink:href="#DejaVuSans-49"/>
       <use x="147.412109" xlink:href="#DejaVuSans-48"/>
      </g>
     </g>
    </g>
    <g id="ytick_2">
     <g id="line2d_8">
      <path clip-path="url(#p3ebca94fc3)" d="M 58.545616 272.504941 
L 711.78195 272.504941 
" style="fill:none;stroke:#cccccc;stroke-linecap:round;stroke-width:0.8;"/>
     </g>
     <g id="text_9">
      <!-- −8 -->
      <defs>
       <path d="M 31.78125 34.625 
Q 24.75 34.625 20.71875 30.859375 
Q 16.703125 27.09375 16.703125 20.515625 
Q 16.703125 13.921875 20.71875 10.15625 
Q 24.75 6.390625 31.78125 6.390625 
Q 38.8125 6.390625 42.859375 10.171875 
Q 46.921875 13.96875 46.921875 20.515625 
Q 46.921875 27.09375 42.890625 30.859375 
Q 38.875 34.625 31.78125 34.625 
z
M 21.921875 38.8125 
Q 15.578125 40.375 12.03125 44.71875 
Q 8.5 49.078125 8.5 55.328125 
Q 8.5 64.0625 14.71875 69.140625 
Q 20.953125 74.21875 31.78125 74.21875 
Q 42.671875 74.21875 48.875 69.140625 
Q 55.078125 64.0625 55.078125 55.328125 
Q 55.078125 49.078125 51.53125 44.71875 
Q 48 40.375 41.703125 38.8125 
Q 48.828125 37.15625 52.796875 32.3125 
Q 56.78125 27.484375 56.78125 20.515625 
Q 56.78125 9.90625 50.3125 4.234375 
Q 43.84375 -1.421875 31.78125 -1.421875 
Q 19.734375 -1.421875 13.25 4.234375 
Q 6.78125 9.90625 6.78125 20.515625 
Q 6.78125 27.484375 10.78125 32.3125 
Q 14.796875 37.15625 21.921875 38.8125 
z
M 18.3125 54.390625 
Q 18.3125 48.734375 21.84375 45.5625 
Q 25.390625 42.390625 31.78125 42.390625 
Q 38.140625 42.390625 41.71875 45.5625 
Q 45.3125 48.734375 45.3125 54.390625 
Q 45.3125 60.0625 41.71875 63.234375 
Q 38.140625 66.40625 31.78125 66.40625 
Q 25.390625 66.40625 21.84375 63.234375 
Q 18.3125 60.0625 18.3125 54.390625 
z
" id="DejaVuSans-56"/>
      </defs>
      <g style="fill:#262626;" transform="translate(37.272491 275.848254)scale(0.088 -0.088)">
       <use xlink:href="#DejaVuSans-8722"/>
       <use x="83.789062" xlink:href="#DejaVuSans-56"/>
      </g>
     </g>
    </g>
    <g id="ytick_3">
     <g id="line2d_9">
      <path clip-path="url(#p3ebca94fc3)" d="M 58.545616 227.212175 
L 711.78195 227.212175 
" style="fill:none;stroke:#cccccc;stroke-linecap:round;stroke-width:0.8;"/>
     </g>
     <g id="text_10">
      <!-- −6 -->
      <defs>
       <path d="M 33.015625 40.375 
Q 26.375 40.375 22.484375 35.828125 
Q 18.609375 31.296875 18.609375 23.390625 
Q 18.609375 15.53125 22.484375 10.953125 
Q 26.375 6.390625 33.015625 6.390625 
Q 39.65625 6.390625 43.53125 10.953125 
Q 47.40625 15.53125 47.40625 23.390625 
Q 47.40625 31.296875 43.53125 35.828125 
Q 39.65625 40.375 33.015625 40.375 
z
M 52.59375 71.296875 
L 52.59375 62.3125 
Q 48.875 64.0625 45.09375 64.984375 
Q 41.3125 65.921875 37.59375 65.921875 
Q 27.828125 65.921875 22.671875 59.328125 
Q 17.53125 52.734375 16.796875 39.40625 
Q 19.671875 43.65625 24.015625 45.921875 
Q 28.375 48.1875 33.59375 48.1875 
Q 44.578125 48.1875 50.953125 41.515625 
Q 57.328125 34.859375 57.328125 23.390625 
Q 57.328125 12.15625 50.6875 5.359375 
Q 44.046875 -1.421875 33.015625 -1.421875 
Q 20.359375 -1.421875 13.671875 8.265625 
Q 6.984375 17.96875 6.984375 36.375 
Q 6.984375 53.65625 15.1875 63.9375 
Q 23.390625 74.21875 37.203125 74.21875 
Q 40.921875 74.21875 44.703125 73.484375 
Q 48.484375 72.75 52.59375 71.296875 
z
" id="DejaVuSans-54"/>
      </defs>
      <g style="fill:#262626;" transform="translate(37.272491 230.555488)scale(0.088 -0.088)">
       <use xlink:href="#DejaVuSans-8722"/>
       <use x="83.789062" xlink:href="#DejaVuSans-54"/>
      </g>
     </g>
    </g>
    <g id="ytick_4">
     <g id="line2d_10">
      <path clip-path="url(#p3ebca94fc3)" d="M 58.545616 181.919409 
L 711.78195 181.919409 
" style="fill:none;stroke:#cccccc;stroke-linecap:round;stroke-width:0.8;"/>
     </g>
     <g id="text_11">
      <!-- −4 -->
      <g style="fill:#262626;" transform="translate(37.272491 185.262722)scale(0.088 -0.088)">
       <use xlink:href="#DejaVuSans-8722"/>
       <use x="83.789062" xlink:href="#DejaVuSans-52"/>
      </g>
     </g>
    </g>
    <g id="ytick_5">
     <g id="line2d_11">
      <path clip-path="url(#p3ebca94fc3)" d="M 58.545616 136.626644 
L 711.78195 136.626644 
" style="fill:none;stroke:#cccccc;stroke-linecap:round;stroke-width:0.8;"/>
     </g>
     <g id="text_12">
      <!-- −2 -->
      <g style="fill:#262626;" transform="translate(37.272491 139.969956)scale(0.088 -0.088)">
       <use xlink:href="#DejaVuSans-8722"/>
       <use x="83.789062" xlink:href="#DejaVuSans-50"/>
      </g>
     </g>
    </g>
    <g id="ytick_6">
     <g id="line2d_12">
      <path clip-path="url(#p3ebca94fc3)" d="M 58.545616 91.333878 
L 711.78195 91.333878 
" style="fill:none;stroke:#cccccc;stroke-linecap:round;stroke-width:0.8;"/>
     </g>
     <g id="text_13">
      <!-- 0 -->
      <g style="fill:#262626;" transform="translate(44.646616 94.67719)scale(0.088 -0.088)">
       <use xlink:href="#DejaVuSans-48"/>
      </g>
     </g>
    </g>
    <g id="ytick_7">
     <g id="line2d_13">
      <path clip-path="url(#p3ebca94fc3)" d="M 58.545616 46.041112 
L 711.78195 46.041112 
" style="fill:none;stroke:#cccccc;stroke-linecap:round;stroke-width:0.8;"/>
     </g>
     <g id="text_14">
      <!-- 2 -->
      <g style="fill:#262626;" transform="translate(44.646616 49.384424)scale(0.088 -0.088)">
       <use xlink:href="#DejaVuSans-50"/>
      </g>
     </g>
    </g>
    <g id="text_15">
     <!-- Gradient -->
     <defs>
      <path d="M 59.515625 10.40625 
L 59.515625 29.984375 
L 43.40625 29.984375 
L 43.40625 38.09375 
L 69.28125 38.09375 
L 69.28125 6.78125 
Q 63.578125 2.734375 56.6875 0.65625 
Q 49.8125 -1.421875 42 -1.421875 
Q 24.90625 -1.421875 15.25 8.5625 
Q 5.609375 18.5625 5.609375 36.375 
Q 5.609375 54.25 15.25 64.234375 
Q 24.90625 74.21875 42 74.21875 
Q 49.125 74.21875 55.546875 72.453125 
Q 61.96875 70.703125 67.390625 67.28125 
L 67.390625 56.78125 
Q 61.921875 61.421875 55.765625 63.765625 
Q 49.609375 66.109375 42.828125 66.109375 
Q 29.4375 66.109375 22.71875 58.640625 
Q 16.015625 51.171875 16.015625 36.375 
Q 16.015625 21.625 22.71875 14.15625 
Q 29.4375 6.6875 42.828125 6.6875 
Q 48.046875 6.6875 52.140625 7.59375 
Q 56.25 8.5 59.515625 10.40625 
z
" id="DejaVuSans-71"/>
      <path d="M 45.40625 46.390625 
L 45.40625 75.984375 
L 54.390625 75.984375 
L 54.390625 0 
L 45.40625 0 
L 45.40625 8.203125 
Q 42.578125 3.328125 38.25 0.953125 
Q 33.9375 -1.421875 27.875 -1.421875 
Q 17.96875 -1.421875 11.734375 6.484375 
Q 5.515625 14.40625 5.515625 27.296875 
Q 5.515625 40.1875 11.734375 48.09375 
Q 17.96875 56 27.875 56 
Q 33.9375 56 38.25 53.625 
Q 42.578125 51.265625 45.40625 46.390625 
z
M 14.796875 27.296875 
Q 14.796875 17.390625 18.875 11.75 
Q 22.953125 6.109375 30.078125 6.109375 
Q 37.203125 6.109375 41.296875 11.75 
Q 45.40625 17.390625 45.40625 27.296875 
Q 45.40625 37.203125 41.296875 42.84375 
Q 37.203125 48.484375 30.078125 48.484375 
Q 22.953125 48.484375 18.875 42.84375 
Q 14.796875 37.203125 14.796875 27.296875 
z
" id="DejaVuSans-100"/>
     </defs>
     <g style="fill:#262626;" transform="translate(25.676991 187.642)rotate(-90)scale(0.096 -0.096)">
      <use xlink:href="#DejaVuSans-71"/>
      <use x="77.490234" xlink:href="#DejaVuSans-114"/>
      <use x="118.603516" xlink:href="#DejaVuSans-97"/>
      <use x="179.882812" xlink:href="#DejaVuSans-100"/>
      <use x="243.359375" xlink:href="#DejaVuSans-105"/>
      <use x="271.142578" xlink:href="#DejaVuSans-101"/>
      <use x="332.666016" xlink:href="#DejaVuSans-110"/>
      <use x="396.044922" xlink:href="#DejaVuSans-116"/>
     </g>
    </g>
   </g>
   <g id="line2d_14">
    <path clip-path="url(#p3ebca94fc3)" d="M 88.238177 92.82677 
L 91.808425 92.904509 
L 92.998507 96.133835 
L 95.378673 96.174359 
L 103.709251 95.98125 
L 104.899333 96.215686 
L 108.469581 96.10354 
L 109.659664 146.161646 
L 110.849746 101.70154 
L 113.229911 101.547181 
L 114.419994 99.914975 
L 115.610077 99.532316 
L 116.800159 100.962622 
L 117.990242 99.420551 
L 121.56049 99.340979 
L 122.750572 100.470544 
L 123.940655 100.39374 
L 125.130737 100.093054 
L 126.32082 100.029789 
L 127.510903 99.050667 
L 128.700985 99.951195 
L 129.891068 46.055763 
L 131.08115 104.092794 
L 132.271233 100.2544 
L 133.461316 99.954152 
L 134.651398 99.892893 
L 135.841481 95.405986 
L 137.031563 46.902193 
L 138.221646 104.124396 
L 139.411728 103.975324 
L 140.601811 99.55152 
L 141.791894 99.500969 
L 142.981976 39.918992 
L 144.172059 104.276801 
L 145.362141 104.091304 
L 146.552224 99.569601 
L 148.932389 99.432332 
L 150.122472 40.279683 
L 151.312554 103.867206 
L 153.69272 103.589193 
L 154.882802 99.445889 
L 156.072885 99.392978 
L 157.262967 40.438731 
L 158.45305 103.802115 
L 160.833215 103.525076 
L 163.21338 94.959711 
L 164.403463 47.143912 
L 165.593545 103.71981 
L 166.783628 103.580409 
L 167.973711 99.401376 
L 169.163793 99.347559 
L 170.353876 94.932991 
L 171.543958 56.085132 
L 172.734041 103.605568 
L 173.924124 103.468186 
L 176.304289 94.88608 
L 177.494371 45.860564 
L 178.684454 103.449032 
L 181.064619 103.238395 
L 182.254702 99.305913 
L 183.444784 99.260956 
L 184.634867 68.962652 
L 185.824949 103.516688 
L 187.015032 99.267875 
L 188.205115 46.146288 
L 189.395197 103.641185 
L 190.58528 103.497569 
L 191.775362 99.297407 
L 192.965445 99.250896 
L 194.155528 40.88912 
L 195.34561 109.619906 
L 196.535693 103.192975 
L 197.725775 98.130008 
L 198.915858 99.175807 
L 200.105941 99.122554 
L 201.296023 40.020683 
L 202.486106 109.557638 
L 203.676188 102.919579 
L 204.866271 94.792104 
L 206.056353 103.438465 
L 207.246436 94.603475 
L 208.436519 99.169874 
L 209.626601 74.332034 
L 210.816684 103.350968 
L 212.006766 47.076634 
L 213.196849 109.353718 
L 214.386932 98.207652 
L 215.577014 103.225299 
L 216.767097 94.63062 
L 217.957179 99.159384 
L 219.147262 36.189283 
L 220.337345 107.354251 
L 221.527427 109.136407 
L 222.71751 103.219072 
L 223.907592 98.325502 
L 225.097675 56.381881 
L 226.287758 108.996902 
L 227.47784 98.348299 
L 228.667923 103.225508 
L 229.858005 35.403256 
L 231.048088 109.875445 
L 232.23817 109.097398 
L 233.428253 95.018959 
L 234.618336 108.89983 
L 235.808418 35.259213 
L 236.998501 109.734744 
L 238.188583 108.967259 
L 239.378666 91.80893 
L 240.568749 108.932153 
L 241.758831 35.333194 
L 242.948914 109.76907 
L 244.138996 108.995866 
L 245.329079 91.827489 
L 246.519162 103.199351 
L 247.709244 102.911292 
L 248.899327 69.260892 
L 250.089409 109.487798 
L 251.279492 40.203412 
L 252.469574 109.798189 
L 253.659657 109.364562 
L 254.84974 89.470558 
L 256.039822 109.424602 
L 257.229905 36.116538 
L 258.419987 109.877386 
L 259.61007 103.308251 
L 260.800153 103.207231 
L 261.990235 95.113917 
L 263.180318 109.350857 
L 264.3704 63.073311 
L 265.560483 109.653866 
L 266.750566 47.140216 
L 267.940648 109.692716 
L 269.130731 103.195703 
L 270.320813 91.936367 
L 271.510896 109.534551 
L 272.700979 63.166657 
L 273.891061 109.826535 
L 275.081144 67.636285 
L 276.271226 103.278381 
L 277.461309 94.926344 
L 278.651391 109.418556 
L 279.841474 63.119032 
L 281.031557 109.719831 
L 282.221639 47.237485 
L 283.411722 109.755441 
L 284.601804 98.230105 
L 285.791887 103.319296 
L 286.98197 94.972151 
L 288.172052 109.473181 
L 289.362135 63.018759 
L 290.552217 109.774775 
L 291.7423 40.550658 
L 292.932383 110.040228 
L 294.122465 109.599695 
L 295.312548 89.644269 
L 296.50263 109.646563 
L 297.692713 65.74384 
L 298.882795 109.816142 
L 300.072878 47.748055 
L 301.262961 109.837185 
L 302.453043 98.290273 
L 303.643126 103.501932 
L 304.833208 91.914125 
L 306.023291 109.707349 
L 307.213374 65.752668 
L 308.403456 109.87413 
L 309.593539 74.207641 
L 310.783621 109.861275 
L 311.973704 62.330094 
L 313.163787 109.951889 
L 314.353869 103.418387 
L 315.543952 69.470426 
L 316.734034 109.800166 
L 317.924117 65.828194 
L 319.1142 109.961522 
L 320.304282 56.986392 
L 321.494365 109.813379 
L 322.684447 91.767966 
L 323.87453 109.73366 
L 325.064612 32.816502 
L 326.254695 110.304722 
L 327.444778 109.85499 
L 328.63486 94.987021 
L 329.824943 103.395415 
L 331.015025 94.987999 
L 332.205108 55.691028 
L 333.395191 109.96298 
L 334.585273 98.549602 
L 335.775356 104.077816 
L 336.965438 32.887492 
L 338.155521 110.37748 
L 339.345604 109.705322 
L 340.535686 94.492579 
L 341.725769 103.405519 
L 342.915851 95.175664 
L 344.105934 69.330408 
L 345.296016 103.514855 
L 346.486099 95.309406 
L 347.676182 109.762679 
L 348.866264 62.3803 
L 350.056347 110.074287 
L 351.246429 41.646072 
L 352.436512 110.313176 
L 353.626595 109.86497 
L 354.816677 89.464149 
L 356.00676 109.678495 
L 357.196842 66.118982 
L 358.386925 110.054894 
L 359.577008 41.993405 
L 360.76709 110.290344 
L 361.957173 103.812359 
L 363.147255 98.483527 
L 364.337338 103.672804 
L 365.527421 36.337343 
L 366.717503 110.525495 
L 367.907586 109.846943 
L 369.097668 91.751667 
L 370.287751 109.975853 
L 371.477833 36.497665 
L 372.667916 110.404283 
L 373.857999 103.678314 
L 375.048081 99.739108 
L 376.238164 95.373585 
L 377.428246 109.975631 
L 378.618329 63.482093 
L 379.808412 110.02704 
L 380.998494 48.001132 
L 382.188577 110.250247 
L 383.378659 98.454672 
L 384.568742 103.62495 
L 385.758825 36.031256 
L 386.948907 117.211656 
L 388.13899 98.84596 
L 389.329072 109.939026 
L 390.519155 89.659765 
L 391.709237 104.129314 
L 392.89932 66.228068 
L 394.089403 110.276779 
L 395.279485 49.300319 
L 396.469568 110.374954 
L 397.65965 103.892352 
L 398.849733 93.125682 
L 400.039816 110.109211 
L 401.229898 63.452575 
L 402.419981 110.155857 
L 403.610063 48.175487 
L 404.800146 110.3773 
L 405.990229 98.714581 
L 407.180311 103.639332 
L 408.370394 95.460578 
L 409.560476 56.487001 
L 410.750559 110.20805 
L 411.940642 92.396419 
L 413.130724 109.939808 
L 414.320807 32.960939 
L 415.510889 117.38367 
L 416.700972 98.741616 
L 417.891054 103.893648 
L 419.081137 92.216979 
L 420.27122 110.006715 
L 421.461302 66.279844 
L 422.651385 110.145589 
L 423.841467 41.608795 
L 425.03155 117.195671 
L 426.221633 91.202428 
L 427.411715 110.266337 
L 428.601798 36.944135 
L 429.79188 117.312798 
L 430.981963 90.033951 
L 432.172046 110.125878 
L 433.362128 95.305758 
L 434.552211 103.943159 
L 435.742293 66.356801 
L 436.932376 116.7308 
L 438.122458 62.676777 
L 439.312541 110.453732 
L 440.502624 99.530545 
L 441.692706 41.263298 
L 442.882789 117.256983 
L 444.072871 89.962879 
L 445.262954 110.096877 
L 446.453037 33.400584 
L 447.643119 117.584092 
L 448.833202 98.93933 
L 450.023284 104.10559 
L 451.213367 93.122466 
L 452.40345 110.313274 
L 453.593532 63.550729 
L 454.783615 116.833382 
L 455.973697 32.949066 
L 457.16378 117.47623 
L 458.353863 96.460813 
L 459.543945 104.042239 
L 460.734028 95.390606 
L 461.92411 103.759286 
L 463.114193 66.401024 
L 464.304275 117.223774 
L 465.494358 62.736304 
L 466.684441 117.115264 
L 467.874523 63.533135 
L 469.064606 110.255276 
L 470.254688 95.373285 
L 471.444771 47.872366 
L 472.634854 117.232716 
L 473.824936 90.024538 
L 475.015019 103.866518 
L 476.205101 103.755732 
L 477.395184 63.703014 
L 478.585267 117.372248 
L 479.775349 30.224106 
L 480.965432 117.697851 
L 482.155514 95.100446 
L 483.345597 110.323626 
L 484.535679 89.932783 
L 485.725762 103.929042 
L 486.915845 47.860237 
L 488.105927 117.325465 
L 489.29601 90.053961 
L 490.486092 110.079915 
L 491.676175 33.57049 
L 492.866258 117.65224 
L 494.05634 96.630479 
L 495.246423 98.959135 
L 496.436505 103.90719 
L 497.626588 42.00929 
L 498.816671 117.588965 
L 500.006753 90.12191 
L 501.196836 110.460688 
L 502.386918 90.201178 
L 503.577001 110.20547 
L 504.767084 63.793315 
L 505.957166 117.243714 
L 507.147249 61.144998 
L 508.337331 117.211113 
L 509.527414 29.596888 
L 510.717496 117.73442 
L 511.907579 95.508099 
L 513.097662 100.471507 
L 514.287744 100.027185 
L 515.477827 95.561376 
L 516.667909 104.186225 
L 517.857992 69.324867 
L 519.048075 117.229055 
L 520.238157 61.319863 
L 521.42824 117.205838 
L 522.618322 61.325324 
L 523.808405 116.857371 
L 524.998488 29.547657 
L 526.18857 117.807451 
L 527.378653 91.200771 
L 528.568735 104.347271 
L 529.758818 99.873351 
L 530.9489 95.870798 
L 532.138983 110.30426 
L 533.329066 61.413093 
L 534.519148 117.535796 
L 535.709231 61.40937 
L 536.899313 117.153051 
L 538.089396 61.439261 
L 539.279479 117.454123 
L 540.469561 30.882601 
L 541.659644 117.879619 
L 542.849726 92.592751 
L 544.039809 104.362877 
L 545.229892 95.697021 
L 546.419974 104.131363 
L 547.610057 42.097617 
L 548.800139 118.003908 
L 549.990222 93.619616 
L 551.180305 110.572959 
L 552.370387 29.801522 
L 553.56047 118.122996 
L 554.750552 95.956499 
L 555.940635 104.141427 
L 557.130717 92.431399 
L 558.3208 117.2895 
L 559.510883 61.355366 
L 560.700965 116.9399 
L 561.891048 29.517227 
L 563.08113 117.917131 
L 564.271213 90.538249 
L 565.461296 109.688284 
L 566.651378 90.393672 
L 567.841461 110.730744 
L 569.031543 29.75551 
L 570.221626 118.104212 
L 571.411709 94.009485 
L 572.601791 104.443593 
L 573.791874 95.770271 
L 574.981956 104.20958 
L 576.172039 41.581804 
L 577.362121 118.036318 
L 578.552204 89.892629 
L 579.742287 117.442995 
L 580.932369 29.578244 
L 582.122452 117.959278 
L 583.312534 88.672144 
L 584.502617 117.408231 
L 585.6927 88.397546 
L 586.882782 100.050002 
L 588.072865 42.115667 
L 589.262947 118.065874 
L 590.45303 93.772258 
L 591.643113 104.473401 
L 592.833195 95.807347 
L 594.023278 105.104547 
L 595.21336 63.927971 
L 596.403443 117.740818 
L 597.593526 61.396825 
L 598.783608 117.675776 
L 599.973691 61.468679 
L 601.163773 117.626339 
L 602.353856 30.165896 
L 603.543938 118.143084 
L 604.734021 93.608267 
L 605.924104 109.761017 
L 607.114186 88.691656 
L 608.304269 109.527363 
L 609.494351 32.974637 
L 610.684434 118.296673 
L 611.874517 96.964635 
L 613.064599 96.144284 
L 614.254682 117.408431 
L 615.444764 61.392592 
L 616.634847 109.514467 
L 617.82493 88.518436 
L 619.015012 111.026435 
L 620.205095 61.275132 
L 621.395177 117.75375 
L 622.58526 61.477356 
L 623.775342 117.700807 
L 624.965425 61.624333 
L 626.155508 117.648444 
L 627.34559 30.100472 
L 628.535673 118.250236 
L 629.725755 93.865466 
L 630.915838 100.494843 
L 632.105921 95.971219 
L 633.296003 109.891764 
L 634.486086 29.735419 
L 635.676168 118.539548 
L 636.866251 96.83802 
L 638.056334 104.62085 
L 639.246416 96.175954 
L 640.436499 105.006839 
L 641.626581 63.992277 
L 642.816664 118.029633 
L 644.006747 61.509336 
L 645.196829 117.984036 
L 646.386912 30.088383 
L 647.576994 118.432455 
L 648.767077 91.565434 
L 649.957159 110.038754 
L 651.147242 92.850451 
L 652.337325 109.602562 
L 653.527407 61.562703 
L 654.71749 118.112656 
L 655.907572 30.126848 
L 657.097655 118.488408 
L 658.287738 97.102944 
L 659.47782 96.278484 
L 660.667903 117.25417 
L 661.857985 61.446976 
L 663.048068 117.566655 
L 664.238151 29.942709 
L 665.428233 117.653107 
L 666.618316 91.669293 
L 667.808398 99.05703 
L 668.998481 98.041006 
L 670.188563 117.21225 
L 671.378646 60.327611 
L 672.568729 117.025425 
L 673.758811 28.948182 
L 674.948894 118.025411 
L 676.138976 91.955224 
L 677.329059 109.187897 
L 678.519142 91.210841 
L 679.709224 116.944454 
L 680.899307 60.349476 
L 682.089389 117.362993 
L 682.089389 117.362993 
" style="fill:none;stroke:#5674a6;stroke-linecap:round;stroke-width:1.2;"/>
   </g>
   <g id="line2d_15">
    <path clip-path="url(#p3ebca94fc3)" d="M 88.238177 92.82677 
L 89.42826 93.065175 
L 90.618342 93.793739 
L 91.808425 99.693282 
L 92.998507 133.476319 
L 94.18859 68.706012 
L 95.378673 100.973687 
L 96.568755 100.298571 
L 97.758838 99.441839 
L 98.94892 68.980574 
L 100.139003 106.360235 
L 101.329086 39.418081 
L 102.519168 100.208684 
L 103.709251 96.212864 
L 104.899333 142.217325 
L 106.089416 68.36968 
L 107.279499 104.616598 
L 108.469581 68.365474 
L 109.659664 106.881936 
L 110.849746 91.301118 
L 112.039829 99.48159 
L 113.229911 73.717759 
L 114.419994 109.880063 
L 115.610077 60.010339 
L 116.800159 114.52164 
L 117.990242 87.33066 
L 119.180324 103.512907 
L 120.370407 73.646472 
L 121.56049 110.112476 
L 122.750572 62.280102 
L 123.940655 114.896169 
L 125.130737 29.710009 
L 126.32082 107.588511 
L 127.510903 90.389328 
L 128.700985 104.31574 
L 129.891068 138.198234 
L 131.08115 62.824197 
L 132.271233 144.459408 
L 133.461316 55.083153 
L 134.651398 61.154177 
L 135.841481 98.205787 
L 137.031563 102.228232 
L 138.221646 98.930317 
L 139.411728 103.531428 
L 140.601811 65.900669 
L 141.791894 125.03367 
L 142.981976 58.286083 
L 144.172059 89.805126 
L 145.362141 113.242228 
L 146.552224 62.018502 
L 147.742307 107.548427 
L 148.932389 89.517914 
L 150.122472 117.540218 
L 151.312554 59.727577 
L 152.502637 117.506763 
L 153.69272 61.954658 
L 154.882802 102.828488 
L 156.072885 103.705193 
L 157.262967 69.362159 
L 158.45305 113.805112 
L 159.643132 61.441777 
L 160.833215 113.489835 
L 162.023298 87.112528 
L 163.21338 99.632283 
L 164.403463 74.553555 
L 165.593545 118.560956 
L 166.783628 59.824981 
L 167.973711 113.580035 
L 169.163793 60.123317 
L 170.353876 114.093136 
L 171.543958 89.631697 
L 172.734041 95.494927 
L 173.924124 104.321344 
L 175.114206 69.98306 
L 176.304289 121.592614 
L 177.494371 59.657461 
L 178.684454 111.073461 
L 179.874537 63.235957 
L 181.064619 136.547028 
L 182.254702 56.164154 
L 183.444784 89.851935 
L 184.634867 90.194977 
L 185.824949 110.511022 
L 187.015032 63.024652 
L 188.205115 132.280608 
L 189.395197 56.812361 
L 190.58528 92.971385 
L 191.775362 95.873862 
L 192.965445 100.452433 
L 194.155528 95.78419 
L 195.34561 98.689716 
L 196.535693 60.240777 
L 197.725775 115.919423 
L 198.915858 60.299573 
L 200.105941 115.563746 
L 201.296023 88.060805 
L 202.486106 100.71081 
L 203.676188 70.289784 
L 204.866271 125.109098 
L 206.056353 58.575808 
L 207.246436 94.153782 
L 208.436519 110.554852 
L 209.626601 60.813488 
L 210.816684 133.769295 
L 212.006766 56.825424 
L 213.196849 93.228451 
L 214.386932 92.865322 
L 215.577014 111.489968 
L 216.767097 60.824934 
L 217.957179 134.703244 
L 219.147262 56.65321 
L 220.337345 90.390665 
L 221.527427 94.316569 
L 222.71751 111.626443 
L 223.907592 60.500103 
L 225.097675 122.287031 
L 226.287758 59.299514 
L 227.47784 97.368025 
L 228.667923 107.497183 
L 229.858005 88.384603 
L 231.048088 146.620307 
L 232.23817 55.482012 
L 233.428253 57.901112 
L 234.618336 92.45757 
L 235.808418 118.446396 
L 236.998501 59.850009 
L 238.188583 95.710935 
L 239.378666 124.230934 
L 240.568749 57.222455 
L 241.758831 92.569163 
L 242.948914 165.869908 
L 244.138996 53.76924 
L 245.329079 56.470381 
L 246.519162 88.904009 
L 247.709244 91.04807 
L 248.899327 102.377891 
L 250.089409 95.310389 
L 251.279492 104.093362 
L 252.469574 69.699059 
L 253.659657 120.180887 
L 254.84974 59.815462 
L 256.039822 117.624404 
L 257.229905 59.916953 
L 258.419987 113.793721 
L 259.61007 60.037393 
L 260.800153 113.769793 
L 261.990235 89.902744 
L 263.180318 98.939074 
L 264.3704 100.050641 
L 265.560483 73.087456 
L 266.750566 118.515918 
L 267.940648 59.84018 
L 269.130731 118.485525 
L 270.320813 59.855257 
L 271.510896 113.739463 
L 272.700979 60.191592 
L 273.891061 115.262237 
L 275.081144 89.55199 
L 276.271226 95.864007 
L 277.461309 104.593332 
L 278.651391 68.707541 
L 279.841474 132.048243 
L 281.031557 57.472419 
L 282.221639 91.642906 
L 283.411722 110.403604 
L 284.601804 60.661227 
L 285.791887 139.894856 
L 286.98197 56.737019 
L 288.172052 90.379838 
L 289.362135 96.208976 
L 290.552217 81.428696 
L 291.7423 99.652662 
L 292.932383 81.903157 
L 294.122465 95.588852 
L 295.312548 121.390585 
L 296.50263 59.601117 
L 297.692713 109.167679 
L 298.882795 60.624223 
L 300.072878 135.046001 
L 301.262961 56.379983 
L 302.453043 90.447822 
L 303.643126 90.577659 
L 304.833208 119.209889 
L 306.023291 59.883833 
L 307.213374 117.972484 
L 308.403456 58.829203 
L 309.593539 124.297546 
L 310.783621 57.259141 
L 311.973704 94.719063 
L 313.163787 139.000422 
L 314.353869 57.399385 
L 315.543952 85.907394 
L 317.924117 104.264604 
L 319.1142 69.962108 
L 320.304282 120.598913 
L 321.494365 59.868181 
L 322.684447 113.799957 
L 323.87453 62.339719 
L 325.064612 103.072945 
L 326.254695 95.804943 
L 327.444778 118.047 
L 328.63486 59.776041 
L 329.824943 117.698604 
L 331.015025 59.92496 
L 332.205108 113.640947 
L 333.395191 62.543988 
L 334.585273 109.415451 
L 335.775356 89.821432 
L 336.965438 118.439901 
L 338.155521 59.957707 
L 339.345604 118.507797 
L 340.535686 59.869439 
L 341.725769 112.371897 
L 342.915851 61.809794 
L 344.105934 109.678934 
L 345.296016 89.940252 
L 346.486099 119.447899 
L 347.676182 59.946608 
L 348.866264 110.396432 
L 350.056347 63.035472 
L 351.246429 133.719588 
L 352.436512 56.696235 
L 353.626595 90.270391 
L 354.816677 96.062236 
L 356.00676 96.329568 
L 357.196842 118.452948 
L 358.386925 59.759519 
L 359.577008 118.451417 
L 360.76709 59.868858 
L 361.957173 110.461606 
L 363.147255 62.29319 
L 364.337338 136.027106 
L 365.527421 56.431458 
L 366.717503 87.350736 
L 367.907586 108.921558 
L 369.097668 63.974981 
L 370.287751 115.433668 
L 371.477833 87.467917 
L 372.667916 100.162039 
L 373.857999 70.217651 
L 375.048081 122.179218 
L 376.238164 57.586048 
L 377.428246 101.030066 
L 378.618329 104.736731 
L 379.808412 66.346051 
L 380.998494 133.673505 
L 382.188577 56.665667 
L 383.378659 90.330109 
L 384.568742 94.223951 
L 385.758825 118.779898 
L 386.948907 59.908781 
L 388.13899 113.997298 
L 389.329072 60.192496 
L 390.519155 114.97366 
L 391.709237 87.830989 
L 392.89932 98.873558 
L 394.089403 68.221571 
L 395.279485 159.954874 
L 396.469568 54.332886 
L 397.65965 57.300832 
L 398.849733 90.537014 
L 400.039816 92.585888 
L 401.229898 113.691038 
L 402.419981 31.828551 
L 403.610063 108.803001 
L 404.800146 88.118659 
L 405.990229 101.541382 
L 407.180311 141.947542 
L 408.370394 69.783663 
L 409.560476 119.545786 
L 410.750559 59.56083 
L 411.940642 110.942342 
L 413.130724 62.764982 
L 414.320807 125.503732 
L 415.510889 57.671055 
L 416.700972 91.642097 
L 417.891054 114.085445 
L 419.081137 60.308954 
L 420.27122 114.318263 
L 421.461302 87.579344 
L 422.651385 100.168321 
L 423.841467 68.913946 
L 425.03155 125.366214 
L 426.221633 57.733576 
L 427.411715 94.218674 
L 428.601798 108.468338 
L 429.79188 31.78993 
L 430.981963 134.96756 
L 432.172046 90.045133 
L 433.362128 92.450903 
L 434.552211 90.4464 
L 435.742293 97.170167 
L 436.932376 104.81662 
L 438.122458 70.200742 
L 439.312541 115.964715 
L 440.502624 60.158097 
L 441.692706 115.587921 
L 442.882789 87.774122 
L 444.072871 100.733559 
L 445.262954 70.253429 
L 446.453037 125.405464 
L 447.643119 57.816594 
L 448.833202 94.999168 
L 450.023284 118.532812 
L 451.213367 59.899181 
L 452.40345 107.235801 
L 453.593532 31.714431 
L 454.783615 164.389005 
L 455.973697 54.0036 
L 457.16378 88.76511 
L 459.543945 89.12547 
L 460.734028 136.246912 
L 461.92411 63.267238 
L 463.114193 156.178515 
L 464.304275 54.288422 
L 465.494358 56.984226 
L 466.684441 93.432247 
L 467.874523 97.997617 
L 469.064606 104.115532 
L 470.254688 36.270721 
L 471.444771 122.142435 
L 472.634854 92.406083 
L 473.824936 92.998523 
L 475.015019 91.575007 
L 476.205101 115.320893 
L 477.395184 59.968527 
L 478.585267 114.114817 
L 479.775349 89.567961 
L 480.965432 99.76778 
L 482.155514 69.616094 
L 483.345597 115.695357 
L 484.535679 60.125115 
L 485.725762 114.482144 
L 486.915845 87.682751 
L 488.105927 103.845354 
L 489.29601 70.022279 
L 490.486092 121.760368 
L 491.676175 57.50968 
L 492.866258 104.283249 
L 494.05634 95.313364 
L 495.246423 110.639005 
L 496.436505 60.471044 
L 497.626588 146.911552 
L 498.816671 55.70248 
L 500.006753 57.782481 
L 501.196836 99.858443 
L 502.386918 103.388797 
L 503.577001 95.901268 
L 504.767084 110.812352 
L 505.957166 60.158602 
L 507.147249 127.40873 
L 508.337331 57.356364 
L 509.527414 95.99564 
L 510.717496 118.550438 
L 511.907579 59.877638 
L 513.097662 110.551364 
L 514.287744 63.043941 
L 515.477827 132.497995 
L 516.667909 56.850426 
L 517.857992 90.360031 
L 519.048075 94.29274 
L 520.238157 118.967455 
L 521.42824 59.962021 
L 522.618322 107.467495 
L 523.808405 32.353354 
L 524.998488 163.94158 
L 526.18857 54.736879 
L 527.378653 88.856158 
L 528.568735 89.255653 
L 529.758818 89.206658 
L 530.9489 92.533991 
L 532.138983 113.138772 
L 533.329066 89.422287 
L 534.519148 103.615979 
L 535.709231 63.320105 
L 536.899313 131.339758 
L 538.089396 57.065292 
L 539.279479 93.568922 
L 540.469561 102.676388 
L 541.659644 95.486475 
L 542.849726 110.283199 
L 544.039809 62.541686 
L 545.229892 130.315224 
L 546.419974 58.441268 
L 547.610057 89.976007 
L 548.800139 117.641042 
L 549.990222 59.784267 
L 551.180305 118.065288 
L 552.370387 59.766781 
L 553.56047 113.512728 
L 554.750552 62.371702 
L 555.940635 108.217347 
L 557.130717 91.187493 
L 558.3208 111.483002 
L 559.510883 60.184511 
L 560.700965 125.07245 
L 561.891048 57.686008 
L 563.08113 91.745996 
L 564.271213 108.553924 
L 565.461296 32.505388 
L 566.651378 126.299208 
L 567.841461 89.319899 
L 569.031543 93.522089 
L 570.221626 97.264195 
L 571.411709 103.249411 
L 572.601791 95.937307 
L 573.791874 110.746818 
L 574.981956 60.486799 
L 576.172039 133.782258 
L 577.362121 57.391627 
L 578.552204 90.29546 
L 579.742287 110.090187 
L 580.932369 60.694295 
L 582.122452 133.393686 
L 583.312534 56.723869 
L 584.502617 90.298937 
L 585.6927 96.084718 
L 586.882782 100.647076 
L 588.072865 70.291875 
L 589.262947 126.302242 
L 590.45303 57.570136 
L 591.643113 94.260663 
L 592.833195 118.484834 
L 594.023278 60.013333 
L 595.21336 107.217014 
L 596.403443 90.785547 
L 597.593526 110.523844 
L 598.783608 58.977123 
L 599.973691 173.916955 
L 601.163773 53.671672 
L 602.353856 56.039473 
L 603.543938 87.078989 
L 604.734021 92.209356 
L 605.924104 110.336636 
L 607.114186 62.853032 
L 608.304269 122.39082 
L 609.494351 57.86489 
L 610.684434 96.933737 
L 611.874517 109.849017 
L 613.064599 63.046157 
L 614.254682 125.332981 
L 615.444764 57.734249 
L 616.634847 94.639093 
L 617.82493 114.016914 
L 619.015012 60.111617 
L 620.205095 114.340306 
L 621.395177 89.754029 
L 622.58526 95.741342 
L 623.775342 109.70366 
L 624.965425 62.633274 
L 626.155508 133.000613 
L 627.34559 57.404963 
L 628.535673 90.19042 
L 629.725755 117.654324 
L 630.915838 59.785066 
L 632.105921 110.630061 
L 633.296003 62.339516 
L 634.486086 126.422763 
L 635.676168 57.149591 
L 636.866251 99.113547 
L 638.056334 96.196316 
L 639.246416 105.542624 
L 640.436499 63.289926 
L 641.626581 131.967607 
L 642.816664 56.946261 
L 644.006747 93.549461 
L 645.196829 96.202333 
L 646.386912 104.814559 
L 647.576994 70.18388 
L 648.767077 122.076568 
L 649.957159 59.185566 
L 651.147242 97.16164 
L 652.337325 118.777253 
L 653.527407 59.921934 
L 654.71749 113.894849 
L 655.907572 60.27952 
L 657.097655 115.160916 
L 658.287738 87.879248 
L 659.47782 94.550695 
L 660.667903 119.358473 
L 661.857985 58.608614 
L 663.048068 130.067184 
L 664.238151 57.667073 
L 665.428233 89.614512 
L 666.618316 159.514797 
L 667.808398 55.01729 
L 668.998481 57.328474 
L 670.188563 89.229915 
L 671.378646 104.11633 
L 672.568729 69.896543 
L 673.758811 113.829421 
L 674.948894 60.180871 
L 676.138976 114.325744 
L 677.329059 89.33082 
L 678.519142 99.89296 
L 679.709224 69.878605 
L 680.899307 121.776158 
L 682.089389 59.099914 
L 682.089389 59.099914 
" style="fill:none;stroke:#cf8860;stroke-linecap:round;stroke-width:1.2;"/>
   </g>
   <g id="line2d_16">
    <path clip-path="url(#p3ebca94fc3)" d="M 88.238177 92.82677 
L 89.42826 93.34443 
L 90.618342 96.639475 
L 91.808425 131.661787 
L 92.998507 66.028579 
L 94.18859 118.84725 
L 95.378673 55.623088 
L 96.568755 98.45585 
L 97.758838 102.943989 
L 98.94892 77.349275 
L 100.139003 108.600385 
L 101.329086 62.81657 
L 102.519168 109.687423 
L 103.709251 54.104154 
L 104.899333 90.995886 
L 106.089416 93.897034 
L 107.279499 100.709179 
L 108.469581 90.896131 
L 109.659664 103.587267 
L 110.849746 94.438018 
L 112.039829 108.328196 
L 113.229911 62.866554 
L 114.419994 104.398079 
L 115.610077 91.747735 
L 116.800159 97.047886 
L 117.990242 112.984838 
L 119.180324 58.59906 
L 120.370407 118.756957 
L 121.56049 55.225671 
L 122.750572 91.691661 
L 123.940655 99.041671 
L 125.130737 95.329805 
L 126.32082 118.377107 
L 127.510903 54.818984 
L 128.700985 150.841408 
L 129.891068 60.534583 
L 131.08115 137.165042 
L 132.271233 85.259978 
L 134.651398 90.8116 
L 135.841481 99.109834 
L 137.031563 98.730457 
L 138.221646 104.185946 
L 139.411728 89.319848 
L 140.601811 126.707526 
L 141.791894 63.171462 
L 142.981976 88.094364 
L 144.172059 92.01321 
L 145.362141 132.919374 
L 146.552224 62.790643 
L 147.742307 69.523528 
L 148.932389 93.291711 
L 150.122472 153.90003 
L 151.312554 92.992662 
L 152.502637 97.403496 
L 153.69272 97.674426 
L 154.882802 100.876154 
L 156.072885 99.882301 
L 157.262967 126.399438 
L 158.45305 96.443708 
L 159.643132 104.304677 
L 160.833215 120.49003 
L 162.023298 95.592632 
L 163.21338 99.779529 
L 164.403463 142.661251 
L 165.593545 74.778895 
L 166.783628 94.06284 
L 167.973711 96.109744 
L 169.163793 91.817834 
L 170.353876 79.647871 
L 171.543958 100.423788 
L 172.734041 114.218927 
L 173.924124 75.773923 
L 175.114206 83.454517 
L 176.304289 108.691196 
L 177.494371 79.427749 
L 178.684454 99.641002 
L 179.874537 80.828484 
L 181.064619 89.749578 
L 182.254702 101.470485 
L 183.444784 77.833633 
L 184.634867 98.083792 
L 185.824949 82.945575 
L 187.015032 112.424322 
L 188.205115 79.765042 
L 189.395197 141.483849 
L 190.58528 74.520296 
L 191.775362 78.581309 
L 192.965445 82.002361 
L 194.155528 91.172776 
L 195.34561 89.96333 
L 196.535693 84.561931 
L 197.725775 95.862155 
L 198.915858 86.575154 
L 200.105941 98.521357 
L 201.296023 82.089356 
L 202.486106 95.690541 
L 203.676188 83.890804 
L 204.866271 90.58316 
L 206.056353 95.712471 
L 207.246436 83.866719 
L 208.436519 112.983434 
L 209.626601 93.937287 
L 210.816684 82.63333 
L 212.006766 89.181248 
L 213.196849 87.205268 
L 214.386932 113.039232 
L 215.577014 77.83955 
L 216.767097 81.961185 
L 217.957179 84.656016 
L 219.147262 102.703903 
L 220.337345 86.862021 
L 221.527427 92.138207 
L 222.71751 87.71572 
L 223.907592 103.846464 
L 225.097675 83.050471 
L 226.287758 86.841334 
L 227.47784 95.518507 
L 228.667923 86.424996 
L 229.858005 92.05673 
L 231.048088 90.061708 
L 232.23817 83.536958 
L 233.428253 102.144349 
L 234.618336 99.803656 
L 235.808418 85.694571 
L 236.998501 95.616456 
L 238.188583 81.326353 
L 239.378666 82.249218 
L 240.568749 115.334817 
L 241.758831 84.745621 
L 242.948914 87.590073 
L 244.138996 89.478265 
L 245.329079 110.277548 
L 246.519162 79.006332 
L 247.709244 82.151893 
L 248.899327 99.946306 
L 250.089409 80.553235 
L 251.279492 107.455255 
L 252.469574 78.39379 
L 253.659657 84.921745 
L 254.84974 128.897924 
L 256.039822 78.452043 
L 257.229905 81.37178 
L 258.419987 96.26111 
L 259.61007 81.824952 
L 260.800153 90.662726 
L 261.990235 93.595093 
L 263.180318 85.213512 
L 264.3704 89.36409 
L 265.560483 103.314127 
L 266.750566 81.583491 
L 267.940648 85.086235 
L 269.130731 104.182948 
L 270.320813 87.901452 
L 271.510896 90.211434 
L 272.700979 91.880802 
L 273.891061 86.035923 
L 275.081144 126.672514 
L 276.271226 80.081496 
L 277.461309 81.629726 
L 278.651391 108.244021 
L 279.841474 77.72115 
L 281.031557 87.343731 
L 282.221639 95.395267 
L 283.411722 84.290028 
L 284.601804 93.158647 
L 285.791887 88.469461 
L 286.98197 86.36668 
L 288.172052 110.288388 
L 289.362135 76.929658 
L 290.552217 81.859882 
L 291.7423 103.668177 
L 292.932383 83.311319 
L 294.122465 96.00938 
L 295.312548 82.273456 
L 296.50263 110.88784 
L 297.692713 91.422466 
L 298.882795 84.190901 
L 300.072878 98.768083 
L 301.262961 82.06344 
L 302.453043 91.78481 
L 303.643126 85.545331 
L 304.833208 120.01493 
L 306.023291 76.205764 
L 307.213374 82.093454 
L 308.403456 86.681142 
L 309.593539 100.943245 
L 310.783621 82.154652 
L 311.973704 88.957726 
L 313.163787 103.999749 
L 314.353869 80.418996 
L 315.543952 83.363684 
L 316.734034 102.976135 
L 317.924117 90.799587 
L 319.1142 90.626646 
L 320.304282 87.690246 
L 321.494365 87.386643 
L 322.684447 120.94161 
L 323.87453 76.255451 
L 325.064612 86.461561 
L 326.254695 83.816662 
L 327.444778 91.345844 
L 328.63486 84.894053 
L 329.824943 105.212287 
L 331.015025 86.643846 
L 332.205108 94.457406 
L 333.395191 89.302728 
L 334.585273 87.555179 
L 335.775356 114.268544 
L 336.965438 76.375538 
L 338.155521 84.025208 
L 339.345604 88.597063 
L 340.535686 110.621627 
L 341.725769 83.156012 
L 342.915851 95.418031 
L 344.105934 85.087993 
L 345.296016 102.96259 
L 346.486099 81.355755 
L 347.676182 86.498765 
L 348.866264 95.626748 
L 350.056347 84.380175 
L 351.246429 89.006674 
L 352.436512 96.023491 
L 353.626595 82.509813 
L 354.816677 140.676035 
L 356.00676 76.35759 
L 357.196842 80.042687 
L 358.386925 88.596704 
L 359.577008 86.120917 
L 360.76709 95.505705 
L 361.957173 84.23897 
L 363.147255 93.208674 
L 364.337338 88.44181 
L 365.527421 93.274528 
L 366.717503 97.332784 
L 367.907586 83.115425 
L 369.097668 95.337218 
L 370.287751 82.192645 
L 371.477833 83.041507 
L 372.667916 106.49643 
L 373.857999 84.568439 
L 375.048081 87.538183 
L 376.238164 115.854056 
L 377.428246 85.280615 
L 378.618329 87.134125 
L 379.808412 90.695608 
L 380.998494 92.050159 
L 382.188577 86.038999 
L 383.378659 90.155627 
L 384.568742 84.636829 
L 385.758825 103.154157 
L 386.948907 93.729969 
L 388.13899 89.680427 
L 389.329072 86.606199 
L 390.519155 91.521503 
L 391.709237 88.547067 
L 392.89932 106.853756 
L 394.089403 81.37368 
L 395.279485 83.515915 
L 396.469568 91.813445 
L 397.65965 86.487006 
L 398.849733 114.888372 
L 400.039816 84.293578 
L 401.229898 88.796504 
L 402.419981 89.023509 
L 403.610063 87.683878 
L 404.800146 118.442638 
L 405.990229 78.49691 
L 407.180311 84.499951 
L 408.370394 83.085774 
L 409.560476 142.944338 
L 410.750559 71.795799 
L 411.940642 73.738378 
L 413.130724 77.177915 
L 414.320807 81.445855 
L 415.510889 107.16028 
L 416.700972 77.19145 
L 417.891054 150.344503 
L 419.081137 68.913481 
L 420.27122 88.429199 
L 421.461302 83.21598 
L 422.651385 89.527991 
L 423.841467 89.128585 
L 425.03155 86.269874 
L 426.221633 108.943054 
L 427.411715 80.635801 
L 428.601798 83.665896 
L 429.79188 93.089666 
L 430.981963 82.460092 
L 432.172046 104.596449 
L 433.362128 81.699848 
L 434.552211 86.805646 
L 435.742293 97.322117 
L 436.932376 81.231086 
L 438.122458 85.603609 
L 439.312541 103.077788 
L 440.502624 88.509822 
L 441.692706 88.315725 
L 442.882789 97.42515 
L 444.072871 81.792644 
L 445.262954 107.051668 
L 446.453037 87.443385 
L 447.643119 104.331757 
L 448.833202 80.376614 
L 450.023284 84.140807 
L 451.213367 89.933031 
L 452.40345 97.358637 
L 453.593532 86.152108 
L 454.783615 98.609859 
L 455.973697 82.196323 
L 457.16378 93.119966 
L 458.353863 83.591394 
L 459.543945 111.407068 
L 460.734028 88.075535 
L 461.92411 86.889227 
L 463.114193 97.90473 
L 464.304275 84.229771 
L 465.494358 114.147461 
L 466.684441 75.34307 
L 467.874523 80.771563 
L 469.064606 84.662632 
L 470.254688 107.676597 
L 471.444771 86.828583 
L 472.634854 89.243314 
L 473.824936 100.339706 
L 475.015019 82.406197 
L 476.205101 90.717429 
L 477.395184 86.307185 
L 478.585267 99.46594 
L 479.775349 83.724014 
L 480.965432 91.783958 
L 482.155514 85.520328 
L 483.345597 112.488218 
L 484.535679 83.073527 
L 485.725762 87.649661 
L 486.915845 95.286692 
L 488.105927 85.239618 
L 489.29601 91.870862 
L 490.486092 85.800022 
L 491.676175 113.582844 
L 492.866258 83.019169 
L 494.05634 98.103054 
L 495.246423 84.000094 
L 496.436505 99.696246 
L 497.626588 83.487507 
L 498.816671 87.344043 
L 500.006753 90.462291 
L 501.196836 87.622681 
L 502.386918 113.421973 
L 503.577001 77.692794 
L 504.767084 82.465277 
L 505.957166 91.026063 
L 507.147249 87.159481 
L 508.337331 99.549693 
L 509.527414 86.171795 
L 510.717496 93.413842 
L 511.907579 88.66032 
L 513.097662 96.610278 
L 514.287744 82.562407 
L 515.477827 101.156205 
L 516.667909 89.708028 
L 517.857992 100.19751 
L 519.048075 82.37608 
L 520.238157 90.494623 
L 521.42824 88.495163 
L 522.618322 101.661735 
L 523.808405 81.410815 
L 524.998488 89.537453 
L 526.18857 85.999655 
L 527.378653 134.844782 
L 528.568735 73.623905 
L 529.758818 84.150125 
L 530.9489 83.140516 
L 532.138983 84.201972 
L 533.329066 121.182538 
L 534.519148 79.943771 
L 535.709231 81.275865 
L 536.899313 85.191249 
L 538.089396 107.490858 
L 539.279479 81.710222 
L 540.469561 86.219764 
L 541.659644 91.844891 
L 542.849726 84.987051 
L 544.039809 109.830866 
L 545.229892 84.414644 
L 546.419974 118.264485 
L 547.610057 77.616867 
L 548.800139 80.574323 
L 549.990222 84.370583 
L 551.180305 99.50791 
L 552.370387 83.33937 
L 553.56047 87.004961 
L 554.750552 112.644261 
L 555.940635 83.657049 
L 557.130717 100.021837 
L 558.3208 82.119376 
L 559.510883 98.148466 
L 560.700965 82.063428 
L 563.08113 92.39212 
L 564.271213 91.143898 
L 565.461296 86.028671 
L 566.651378 109.361829 
L 567.841461 79.292451 
L 569.031543 90.413628 
L 570.221626 82.627469 
L 571.411709 118.398526 
L 572.601791 81.887793 
L 573.791874 93.972623 
L 574.981956 83.753266 
L 576.172039 97.180224 
L 577.362121 82.071583 
L 578.552204 99.584759 
L 579.742287 82.239616 
L 580.932369 87.3537 
L 582.122452 96.337883 
L 583.312534 85.71145 
L 584.502617 101.559166 
L 585.6927 80.929415 
L 586.882782 86.249962 
L 588.072865 113.92603 
L 589.262947 83.058919 
L 590.45303 101.167239 
L 591.643113 84.094628 
L 592.833195 92.53783 
L 594.023278 83.765349 
L 595.21336 86.627863 
L 596.403443 112.903596 
L 597.593526 81.016149 
L 598.783608 92.151821 
L 599.973691 82.030669 
L 601.163773 82.755879 
L 602.353856 102.492115 
L 603.543938 90.380406 
L 604.734021 93.232945 
L 605.924104 89.307469 
L 607.114186 86.77804 
L 608.304269 91.57049 
L 609.494351 88.018964 
L 610.684434 126.257193 
L 611.874517 76.560577 
L 613.064599 81.378658 
L 614.254682 89.939033 
L 615.444764 86.691416 
L 616.634847 100.332304 
L 617.82493 83.82748 
L 619.015012 86.432536 
L 620.205095 92.538735 
L 621.395177 89.781531 
L 622.58526 106.382031 
L 623.775342 88.07484 
L 624.965425 86.963412 
L 626.155508 109.072954 
L 627.34559 79.141894 
L 628.535673 83.08561 
L 629.725755 97.857687 
L 630.915838 83.653402 
L 632.105921 87.118123 
L 633.296003 122.552205 
L 634.486086 76.101072 
L 635.676168 81.630155 
L 636.866251 82.733338 
L 638.056334 113.545467 
L 639.246416 81.875147 
L 640.436499 92.05535 
L 641.626581 84.142852 
L 642.816664 100.48009 
L 644.006747 82.479202 
L 645.196829 93.933715 
L 646.386912 81.305576 
L 647.576994 101.531794 
L 648.767077 87.040266 
L 649.957159 87.693416 
L 651.147242 124.818637 
L 652.337325 81.439221 
L 653.527407 84.37695 
L 654.71749 89.840488 
L 655.907572 93.881202 
L 657.097655 90.545567 
L 658.287738 92.853606 
L 659.47782 81.084715 
L 660.667903 84.932023 
L 661.857985 118.190196 
L 663.048068 79.314701 
L 664.238151 84.598075 
L 665.428233 99.609603 
L 666.618316 85.846122 
L 667.808398 90.60643 
L 668.998481 91.577326 
L 670.188563 82.692367 
L 671.378646 104.333895 
L 672.568729 85.017751 
L 673.758811 87.044019 
L 674.948894 91.764332 
L 676.138976 84.545142 
L 677.329059 111.438432 
L 678.519142 83.995572 
L 679.709224 100.151625 
L 680.899307 80.766534 
L 682.089389 83.567568 
L 682.089389 83.567568 
" style="fill:none;stroke:#5da06d;stroke-linecap:round;stroke-width:1.2;"/>
   </g>
   <g id="line2d_17">
    <path clip-path="url(#p3ebca94fc3)" d="M 88.238177 92.82677 
L 89.42826 96.708602 
L 90.618342 131.15164 
L 91.808425 90.576809 
L 92.998507 110.314978 
L 94.18859 87.080028 
L 95.378673 93.818707 
L 96.568755 110.737762 
L 97.758838 66.422589 
L 98.94892 111.190184 
L 100.139003 67.608708 
L 101.329086 136.705425 
L 102.519168 60.26766 
L 103.709251 88.470041 
L 104.899333 94.175372 
L 106.089416 128.819016 
L 107.279499 100.895993 
L 108.469581 101.751831 
L 109.659664 106.785146 
L 110.849746 107.402677 
L 112.039829 133.840487 
L 113.229911 94.336657 
L 114.419994 95.378321 
L 115.610077 103.375724 
L 116.800159 79.79554 
L 117.990242 150.774186 
L 119.180324 71.144233 
L 120.370407 74.21461 
L 121.56049 81.902115 
L 122.750572 92.727919 
L 123.940655 82.897279 
L 125.130737 130.619867 
L 126.32082 72.962821 
L 127.510903 80.120866 
L 128.700985 90.858278 
L 129.891068 87.756521 
L 131.08115 90.107613 
L 132.271233 98.851163 
L 133.461316 104.742071 
L 134.651398 78.915321 
L 135.841481 82.627438 
L 137.031563 123.178361 
L 138.221646 79.298492 
L 139.411728 79.198773 
L 140.601811 92.591646 
L 141.791894 85.427062 
L 142.981976 87.753936 
L 144.172059 101.721504 
L 145.362141 88.881978 
L 146.552224 89.40371 
L 147.742307 82.010461 
L 148.932389 98.770089 
L 150.122472 179.529693 
L 151.312554 64.835535 
L 152.502637 69.468448 
L 153.69272 73.055469 
L 154.882802 82.402799 
L 156.072885 104.578044 
L 157.262967 76.879742 
L 158.45305 89.885446 
L 159.643132 80.26128 
L 160.833215 131.191763 
L 162.023298 64.733272 
L 164.403463 101.379946 
L 165.593545 73.015598 
L 166.783628 158.269601 
L 167.973711 66.331999 
L 170.353876 85.983389 
L 171.543958 88.939169 
L 172.734041 83.743462 
L 173.924124 108.279728 
L 175.114206 75.374566 
L 176.304289 79.773789 
L 177.494371 133.766284 
L 178.684454 75.155637 
L 179.874537 83.153418 
L 181.064619 96.3459 
L 182.254702 80.964826 
L 183.444784 86.683362 
L 184.634867 99.82512 
L 185.824949 82.6287 
L 187.015032 89.694824 
L 188.205115 84.90356 
L 189.395197 127.522704 
L 190.58528 75.594497 
L 191.775362 82.843697 
L 192.965445 88.826431 
L 194.155528 85.163138 
L 195.34561 134.449323 
L 196.535693 66.814031 
L 197.725775 70.725369 
L 198.915858 101.585851 
L 200.105941 99.596053 
L 201.296023 77.243276 
L 202.486106 85.231349 
L 203.676188 102.348019 
L 204.866271 84.551262 
L 206.056353 93.065182 
L 207.246436 87.751382 
L 208.436519 86.553074 
L 209.626601 147.387426 
L 210.816684 71.944989 
L 212.006766 75.628705 
L 213.196849 80.850185 
L 214.386932 119.684082 
L 215.577014 72.994919 
L 216.767097 74.657928 
L 217.957179 109.400418 
L 219.147262 78.212194 
L 220.337345 85.75153 
L 221.527427 121.23688 
L 222.71751 87.921302 
L 223.907592 90.24995 
L 225.097675 82.02889 
L 226.287758 107.301232 
L 227.47784 75.210372 
L 228.667923 80.562459 
L 229.858005 93.611728 
L 231.048088 86.553014 
L 232.23817 107.252306 
L 233.428253 77.533528 
L 234.618336 83.906396 
L 235.808418 111.049296 
L 236.998501 80.580912 
L 238.188583 91.439736 
L 239.378666 89.832642 
L 240.568749 88.441531 
L 241.758831 91.278212 
L 242.948914 87.384551 
L 244.138996 100.811752 
L 245.329079 103.142164 
L 246.519162 79.811196 
L 247.709244 87.163748 
L 248.899327 87.940683 
L 250.089409 100.077957 
L 251.279492 85.03512 
L 252.469574 106.085049 
L 253.659657 80.072882 
L 256.039822 95.079067 
L 257.229905 84.27758 
L 258.419987 101.671172 
L 259.61007 102.329219 
L 260.800153 73.486047 
L 261.990235 96.95093 
L 263.180318 85.3318 
L 264.3704 92.246659 
L 265.560483 86.641346 
L 266.750566 123.759142 
L 267.940648 76.933747 
L 269.130731 82.130191 
L 270.320813 94.710864 
L 271.510896 84.162997 
L 272.700979 92.73892 
L 273.891061 91.281743 
L 275.081144 85.859407 
L 276.271226 132.258131 
L 277.461309 74.318081 
L 278.651391 82.238577 
L 279.841474 89.031908 
L 281.031557 84.241478 
L 282.221639 91.919885 
L 283.411722 89.800242 
L 284.601804 85.312045 
L 285.791887 120.829202 
L 286.98197 77.671073 
L 288.172052 88.0732 
L 289.362135 92.725524 
L 290.552217 87.848858 
L 292.932383 92.569938 
L 294.122465 84.091614 
L 295.312548 121.112666 
L 296.50263 73.993946 
L 297.692713 81.049169 
L 298.882795 103.413658 
L 300.072878 79.350636 
L 301.262961 91.262035 
L 302.453043 92.947376 
L 303.643126 80.521978 
L 304.833208 140.475127 
L 306.023291 73.139005 
L 307.213374 76.833054 
L 308.403456 82.687052 
L 309.593539 91.58728 
L 310.783621 87.81457 
L 311.973704 126.032503 
L 313.163787 76.868256 
L 314.353869 86.346125 
L 315.543952 90.403308 
L 316.734034 85.971765 
L 317.924117 102.803607 
L 319.1142 76.991365 
L 320.304282 84.532156 
L 321.494365 116.373087 
L 322.684447 75.947626 
L 323.87453 86.336834 
L 325.064612 110.279884 
L 326.254695 74.384309 
L 327.444778 82.255503 
L 328.63486 105.63581 
L 329.824943 86.091995 
L 331.015025 92.101097 
L 332.205108 83.886345 
L 333.395191 124.803432 
L 334.585273 75.213077 
L 335.775356 82.604466 
L 336.965438 99.486658 
L 338.155521 79.118947 
L 339.345604 114.657081 
L 340.535686 76.14896 
L 341.725769 79.479033 
L 342.915851 110.732774 
L 344.105934 78.608833 
L 345.296016 86.469751 
L 346.486099 147.507177 
L 347.676182 71.6448 
L 348.866264 76.192467 
L 350.056347 88.222335 
L 351.246429 85.903102 
L 352.436512 92.715746 
L 353.626595 84.1439 
L 354.816677 120.971242 
L 356.00676 72.582019 
L 357.196842 77.675947 
L 358.386925 89.268827 
L 359.577008 78.328025 
L 360.76709 140.407171 
L 361.957173 73.411031 
L 363.147255 80.657437 
L 364.337338 100.29053 
L 365.527421 73.73706 
L 366.717503 176.263548 
L 367.907586 54.924338 
L 369.097668 69.905076 
L 370.287751 79.106395 
L 371.477833 78.623476 
L 373.857999 91.858413 
L 375.048081 137.443064 
L 376.238164 71.108328 
L 377.428246 75.803911 
L 378.618329 81.809081 
L 379.808412 171.118915 
L 380.998494 61.386977 
L 383.378659 73.446518 
L 384.568742 76.845938 
L 385.758825 190.142874 
L 386.948907 61.932767 
L 389.329072 73.454316 
L 390.519155 94.761961 
L 391.709237 74.859818 
L 392.89932 85.609977 
L 394.089403 83.262582 
L 395.279485 198.920524 
L 396.469568 62.20429 
L 397.65965 67.977301 
L 398.849733 72.718708 
L 400.039816 78.815033 
L 401.229898 105.291648 
L 402.419981 74.169311 
L 403.610063 79.875764 
L 404.800146 104.056039 
L 405.990229 76.923337 
L 407.180311 83.528614 
L 408.370394 152.264117 
L 409.560476 71.695176 
L 410.750559 76.185636 
L 411.940642 82.443087 
L 413.130724 148.436854 
L 414.320807 69.882083 
L 415.510889 70.937923 
L 416.700972 87.740929 
L 417.891054 91.443786 
L 419.081137 86.296849 
L 420.27122 84.545134 
L 421.461302 136.062472 
L 422.651385 69.683487 
L 423.841467 74.19164 
L 425.03155 79.903765 
L 426.221633 104.917719 
L 427.411715 73.522243 
L 428.601798 152.193375 
L 429.79188 70.56046 
L 430.981963 74.468964 
L 432.172046 92.153956 
L 433.362128 77.592703 
L 434.552211 83.591572 
L 435.742293 123.081789 
L 436.932376 73.29535 
L 438.122458 77.614589 
L 439.312541 83.998788 
L 440.502624 103.607128 
L 441.692706 83.734805 
L 442.882789 159.173226 
L 444.072871 67.937114 
L 445.262954 72.73229 
L 446.453037 78.551255 
L 447.643119 83.345654 
L 448.833202 114.974885 
L 450.023284 71.053968 
L 451.213367 73.952662 
L 452.40345 150.803429 
L 453.593532 71.831907 
L 454.783615 76.562933 
L 455.973697 91.687288 
L 457.16378 89.331819 
L 458.353863 84.797304 
L 459.543945 106.478525 
L 460.734028 79.042992 
L 461.92411 90.867366 
L 463.114193 81.656347 
L 464.304275 114.934258 
L 465.494358 72.925822 
L 466.684441 80.045639 
L 467.874523 105.786143 
L 469.064606 79.827433 
L 470.254688 104.161565 
L 471.444771 89.229318 
L 472.634854 89.021864 
L 473.824936 90.095607 
L 475.015019 88.088177 
L 476.205101 114.957078 
L 477.395184 78.034486 
L 478.585267 88.691177 
L 479.775349 81.164955 
L 480.965432 102.26196 
L 482.155514 85.833575 
L 483.345597 86.543538 
L 484.535679 114.503579 
L 485.725762 80.40615 
L 486.915845 84.63451 
L 488.105927 91.021095 
L 489.29601 91.498131 
L 490.486092 89.558839 
L 491.676175 84.592578 
L 492.866258 109.502224 
L 494.05634 81.325647 
L 495.246423 86.256744 
L 496.436505 111.995536 
L 497.626588 82.277008 
L 498.816671 93.406109 
L 500.006753 89.988096 
L 501.196836 83.830832 
L 502.386918 90.679121 
L 503.577001 85.94029 
L 504.767084 104.730584 
L 505.957166 84.750371 
L 507.147249 104.395922 
L 508.337331 78.55841 
L 509.527414 84.586622 
L 510.717496 136.437484 
L 511.907579 73.874511 
L 513.097662 77.74951 
L 514.287744 88.497726 
L 515.477827 84.68471 
L 516.667909 98.298508 
L 517.857992 81.065219 
L 519.048075 142.253959 
L 520.238157 69.29362 
L 521.42824 73.201754 
L 522.618322 79.493498 
L 523.808405 101.983486 
L 524.998488 89.806239 
L 526.18857 82.043981 
L 527.378653 107.338038 
L 528.568735 79.725899 
L 529.758818 87.390897 
L 530.9489 99.044391 
L 532.138983 88.31548 
L 533.329066 84.041067 
L 534.519148 304.551818 
L 535.709231 31.069234 
L 536.899313 43.069046 
L 538.089396 59.529673 
L 539.279479 65.52114 
L 540.469561 69.774873 
L 541.659644 82.142227 
L 542.849726 71.781773 
L 544.039809 121.651083 
L 545.229892 76.55435 
L 546.419974 87.329307 
L 547.610057 82.459873 
L 548.800139 199.957053 
L 549.990222 51.87605 
L 551.180305 67.82332 
L 552.370387 73.176934 
L 553.56047 79.426469 
L 554.750552 92.187327 
L 555.940635 80.160293 
L 557.130717 96.9789 
L 558.3208 77.552108 
L 559.510883 188.981815 
L 560.700965 59.101337 
L 561.891048 62.544663 
L 563.08113 74.186896 
L 564.271213 87.307479 
L 565.461296 76.185438 
L 566.651378 101.564244 
L 567.841461 99.350668 
L 569.031543 80.179682 
L 570.221626 84.569787 
L 571.411709 208.170237 
L 572.601791 46.7018 
L 573.791874 64.437977 
L 574.981956 66.542602 
L 576.172039 79.384787 
L 577.362121 82.909136 
L 578.552204 152.392675 
L 579.742287 70.466321 
L 580.932369 74.674629 
L 582.122452 80.795819 
L 583.312534 140.618522 
L 584.502617 66.512109 
L 585.6927 71.12947 
L 586.882782 76.675175 
L 588.072865 116.057343 
L 589.262947 79.151684 
L 590.45303 107.412983 
L 591.643113 76.485535 
L 592.833195 81.059593 
L 594.023278 149.667839 
L 595.21336 68.028411 
L 596.403443 73.387191 
L 597.593526 79.719917 
L 598.783608 137.721717 
L 599.973691 69.747161 
L 601.163773 74.104393 
L 602.353856 81.759191 
L 603.543938 96.128626 
L 604.734021 76.815848 
L 605.924104 102.025182 
L 607.114186 81.86548 
L 608.304269 120.937941 
L 609.494351 75.582777 
L 610.684434 83.44373 
L 611.874517 107.874423 
L 613.064599 76.341199 
L 614.254682 81.066495 
L 615.444764 112.401597 
L 616.634847 79.463144 
L 617.82493 90.335952 
L 619.015012 90.90527 
L 620.205095 104.04922 
L 621.395177 77.20876 
L 622.58526 118.795457 
L 623.775342 75.817118 
L 624.965425 82.299475 
L 626.155508 107.834357 
L 627.34559 74.526752 
L 628.535673 81.138231 
L 629.725755 123.733185 
L 630.915838 77.044684 
L 632.105921 85.296923 
L 633.296003 95.744633 
L 634.486086 83.694031 
L 635.676168 113.936212 
L 636.866251 87.769359 
L 638.056334 85.426483 
L 639.246416 93.851625 
L 640.436499 80.174919 
L 641.626581 100.005928 
L 642.816664 78.50933 
L 644.006747 108.317943 
L 645.196829 82.123823 
L 646.386912 121.27322 
L 647.576994 72.727015 
L 648.767077 86.214703 
L 649.957159 82.24095 
L 651.147242 99.523036 
L 652.337325 77.221581 
L 653.527407 106.163914 
L 654.71749 78.41207 
L 655.907572 90.975636 
L 657.097655 90.138583 
L 658.287738 103.157442 
L 659.47782 90.997151 
L 660.667903 88.891412 
L 661.857985 93.783601 
L 663.048068 82.679083 
L 664.238151 97.5763 
L 665.428233 81.189394 
L 666.618316 162.551952 
L 667.808398 67.951125 
L 668.998481 71.131768 
L 670.188563 71.277445 
L 671.378646 159.955306 
L 672.568729 62.152991 
L 674.948894 73.772225 
L 676.138976 77.757886 
L 677.329059 187.535888 
L 678.519142 62.559325 
L 680.899307 73.902753 
L 682.089389 94.571942 
L 682.089389 94.571942 
" style="fill:none;stroke:#b85a5d;stroke-linecap:round;stroke-width:1.2;"/>
   </g>
   <g id="line2d_18"/>
   <g id="line2d_19"/>
   <g id="line2d_20"/>
   <g id="line2d_21"/>
   <g id="line2d_22"/>
   <g id="patch_3">
    <path d="M 58.545616 318.332 
L 58.545616 15.168 
" style="fill:none;stroke:#cccccc;stroke-linecap:square;stroke-linejoin:miter;"/>
   </g>
   <g id="patch_4">
    <path d="M 58.545616 318.332 
L 711.78195 318.332 
" style="fill:none;stroke:#cccccc;stroke-linecap:square;stroke-linejoin:miter;"/>
   </g>
   <g id="text_16">
    <!-- Convergence of Gradients for action 0 -->
    <defs>
     <path d="M 64.40625 67.28125 
L 64.40625 56.890625 
Q 59.421875 61.53125 53.78125 63.8125 
Q 48.140625 66.109375 41.796875 66.109375 
Q 29.296875 66.109375 22.65625 58.46875 
Q 16.015625 50.828125 16.015625 36.375 
Q 16.015625 21.96875 22.65625 14.328125 
Q 29.296875 6.6875 41.796875 6.6875 
Q 48.140625 6.6875 53.78125 8.984375 
Q 59.421875 11.28125 64.40625 15.921875 
L 64.40625 5.609375 
Q 59.234375 2.09375 53.4375 0.328125 
Q 47.65625 -1.421875 41.21875 -1.421875 
Q 24.65625 -1.421875 15.125 8.703125 
Q 5.609375 18.84375 5.609375 36.375 
Q 5.609375 53.953125 15.125 64.078125 
Q 24.65625 74.21875 41.21875 74.21875 
Q 47.75 74.21875 53.53125 72.484375 
Q 59.328125 70.75 64.40625 67.28125 
z
" id="DejaVuSans-67"/>
     <path d="M 2.984375 54.6875 
L 12.5 54.6875 
L 29.59375 8.796875 
L 46.6875 54.6875 
L 56.203125 54.6875 
L 35.6875 0 
L 23.484375 0 
z
" id="DejaVuSans-118"/>
     <path d="M 45.40625 27.984375 
Q 45.40625 37.75 41.375 43.109375 
Q 37.359375 48.484375 30.078125 48.484375 
Q 22.859375 48.484375 18.828125 43.109375 
Q 14.796875 37.75 14.796875 27.984375 
Q 14.796875 18.265625 18.828125 12.890625 
Q 22.859375 7.515625 30.078125 7.515625 
Q 37.359375 7.515625 41.375 12.890625 
Q 45.40625 18.265625 45.40625 27.984375 
z
M 54.390625 6.78125 
Q 54.390625 -7.171875 48.1875 -13.984375 
Q 42 -20.796875 29.203125 -20.796875 
Q 24.46875 -20.796875 20.265625 -20.09375 
Q 16.0625 -19.390625 12.109375 -17.921875 
L 12.109375 -9.1875 
Q 16.0625 -11.328125 19.921875 -12.34375 
Q 23.78125 -13.375 27.78125 -13.375 
Q 36.625 -13.375 41.015625 -8.765625 
Q 45.40625 -4.15625 45.40625 5.171875 
L 45.40625 9.625 
Q 42.625 4.78125 38.28125 2.390625 
Q 33.9375 0 27.875 0 
Q 17.828125 0 11.671875 7.65625 
Q 5.515625 15.328125 5.515625 27.984375 
Q 5.515625 40.671875 11.671875 48.328125 
Q 17.828125 56 27.875 56 
Q 33.9375 56 38.28125 53.609375 
Q 42.625 51.21875 45.40625 46.390625 
L 45.40625 54.6875 
L 54.390625 54.6875 
z
" id="DejaVuSans-103"/>
     <path d="M 48.78125 52.59375 
L 48.78125 44.1875 
Q 44.96875 46.296875 41.140625 47.34375 
Q 37.3125 48.390625 33.40625 48.390625 
Q 24.65625 48.390625 19.8125 42.84375 
Q 14.984375 37.3125 14.984375 27.296875 
Q 14.984375 17.28125 19.8125 11.734375 
Q 24.65625 6.203125 33.40625 6.203125 
Q 37.3125 6.203125 41.140625 7.25 
Q 44.96875 8.296875 48.78125 10.40625 
L 48.78125 2.09375 
Q 45.015625 0.34375 40.984375 -0.53125 
Q 36.96875 -1.421875 32.421875 -1.421875 
Q 20.0625 -1.421875 12.78125 6.34375 
Q 5.515625 14.109375 5.515625 27.296875 
Q 5.515625 40.671875 12.859375 48.328125 
Q 20.21875 56 33.015625 56 
Q 37.15625 56 41.109375 55.140625 
Q 45.0625 54.296875 48.78125 52.59375 
z
" id="DejaVuSans-99"/>
     <path id="DejaVuSans-32"/>
     <path d="M 37.109375 75.984375 
L 37.109375 68.5 
L 28.515625 68.5 
Q 23.6875 68.5 21.796875 66.546875 
Q 19.921875 64.59375 19.921875 59.515625 
L 19.921875 54.6875 
L 34.71875 54.6875 
L 34.71875 47.703125 
L 19.921875 47.703125 
L 19.921875 0 
L 10.890625 0 
L 10.890625 47.703125 
L 2.296875 47.703125 
L 2.296875 54.6875 
L 10.890625 54.6875 
L 10.890625 58.5 
Q 10.890625 67.625 15.140625 71.796875 
Q 19.390625 75.984375 28.609375 75.984375 
z
" id="DejaVuSans-102"/>
     <path d="M 44.28125 53.078125 
L 44.28125 44.578125 
Q 40.484375 46.53125 36.375 47.5 
Q 32.28125 48.484375 27.875 48.484375 
Q 21.1875 48.484375 17.84375 46.4375 
Q 14.5 44.390625 14.5 40.28125 
Q 14.5 37.15625 16.890625 35.375 
Q 19.28125 33.59375 26.515625 31.984375 
L 29.59375 31.296875 
Q 39.15625 29.25 43.1875 25.515625 
Q 47.21875 21.78125 47.21875 15.09375 
Q 47.21875 7.46875 41.1875 3.015625 
Q 35.15625 -1.421875 24.609375 -1.421875 
Q 20.21875 -1.421875 15.453125 -0.5625 
Q 10.6875 0.296875 5.421875 2 
L 5.421875 11.28125 
Q 10.40625 8.6875 15.234375 7.390625 
Q 20.0625 6.109375 24.8125 6.109375 
Q 31.15625 6.109375 34.5625 8.28125 
Q 37.984375 10.453125 37.984375 14.40625 
Q 37.984375 18.0625 35.515625 20.015625 
Q 33.0625 21.96875 24.703125 23.78125 
L 21.578125 24.515625 
Q 13.234375 26.265625 9.515625 29.90625 
Q 5.8125 33.546875 5.8125 39.890625 
Q 5.8125 47.609375 11.28125 51.796875 
Q 16.75 56 26.8125 56 
Q 31.78125 56 36.171875 55.265625 
Q 40.578125 54.546875 44.28125 53.078125 
z
" id="DejaVuSans-115"/>
    </defs>
    <g style="fill:#262626;" transform="translate(293.354783 9.168)scale(0.096 -0.096)">
     <use xlink:href="#DejaVuSans-67"/>
     <use x="69.824219" xlink:href="#DejaVuSans-111"/>
     <use x="131.005859" xlink:href="#DejaVuSans-110"/>
     <use x="194.384766" xlink:href="#DejaVuSans-118"/>
     <use x="253.564453" xlink:href="#DejaVuSans-101"/>
     <use x="315.087891" xlink:href="#DejaVuSans-114"/>
     <use x="356.185547" xlink:href="#DejaVuSans-103"/>
     <use x="419.662109" xlink:href="#DejaVuSans-101"/>
     <use x="481.185547" xlink:href="#DejaVuSans-110"/>
     <use x="544.564453" xlink:href="#DejaVuSans-99"/>
     <use x="599.544922" xlink:href="#DejaVuSans-101"/>
     <use x="661.068359" xlink:href="#DejaVuSans-32"/>
     <use x="692.855469" xlink:href="#DejaVuSans-111"/>
     <use x="754.037109" xlink:href="#DejaVuSans-102"/>
     <use x="789.242188" xlink:href="#DejaVuSans-32"/>
     <use x="821.029297" xlink:href="#DejaVuSans-71"/>
     <use x="898.519531" xlink:href="#DejaVuSans-114"/>
     <use x="939.632812" xlink:href="#DejaVuSans-97"/>
     <use x="1000.912109" xlink:href="#DejaVuSans-100"/>
     <use x="1064.388672" xlink:href="#DejaVuSans-105"/>
     <use x="1092.171875" xlink:href="#DejaVuSans-101"/>
     <use x="1153.695312" xlink:href="#DejaVuSans-110"/>
     <use x="1217.074219" xlink:href="#DejaVuSans-116"/>
     <use x="1256.283203" xlink:href="#DejaVuSans-115"/>
     <use x="1308.382812" xlink:href="#DejaVuSans-32"/>
     <use x="1340.169922" xlink:href="#DejaVuSans-102"/>
     <use x="1375.375" xlink:href="#DejaVuSans-111"/>
     <use x="1436.556641" xlink:href="#DejaVuSans-114"/>
     <use x="1477.669922" xlink:href="#DejaVuSans-32"/>
     <use x="1509.457031" xlink:href="#DejaVuSans-97"/>
     <use x="1570.736328" xlink:href="#DejaVuSans-99"/>
     <use x="1625.716797" xlink:href="#DejaVuSans-116"/>
     <use x="1664.925781" xlink:href="#DejaVuSans-105"/>
     <use x="1692.708984" xlink:href="#DejaVuSans-111"/>
     <use x="1753.890625" xlink:href="#DejaVuSans-110"/>
     <use x="1817.269531" xlink:href="#DejaVuSans-32"/>
     <use x="1849.056641" xlink:href="#DejaVuSans-48"/>
    </g>
   </g>
  </g>
  <g id="legend_1">
   <g id="line2d_23">
    <path d="M 719.3125 153.392375 
L 736.9125 153.392375 
" style="fill:none;"/>
   </g>
   <g id="line2d_24"/>
   <g id="text_17">
    <!-- adaptation_rate -->
    <defs>
     <path d="M 18.109375 8.203125 
L 18.109375 -20.796875 
L 9.078125 -20.796875 
L 9.078125 54.6875 
L 18.109375 54.6875 
L 18.109375 46.390625 
Q 20.953125 51.265625 25.265625 53.625 
Q 29.59375 56 35.59375 56 
Q 45.5625 56 51.78125 48.09375 
Q 58.015625 40.1875 58.015625 27.296875 
Q 58.015625 14.40625 51.78125 6.484375 
Q 45.5625 -1.421875 35.59375 -1.421875 
Q 29.59375 -1.421875 25.265625 0.953125 
Q 20.953125 3.328125 18.109375 8.203125 
z
M 48.6875 27.296875 
Q 48.6875 37.203125 44.609375 42.84375 
Q 40.53125 48.484375 33.40625 48.484375 
Q 26.265625 48.484375 22.1875 42.84375 
Q 18.109375 37.203125 18.109375 27.296875 
Q 18.109375 17.390625 22.1875 11.75 
Q 26.265625 6.109375 33.40625 6.109375 
Q 40.53125 6.109375 44.609375 11.75 
Q 48.6875 17.390625 48.6875 27.296875 
z
" id="DejaVuSans-112"/>
     <path d="M 50.984375 -16.609375 
L 50.984375 -23.578125 
L -0.984375 -23.578125 
L -0.984375 -16.609375 
z
" id="DejaVuSans-95"/>
    </defs>
    <g style="fill:#262626;" transform="translate(743.9525 156.472375)scale(0.088 -0.088)">
     <use xlink:href="#DejaVuSans-97"/>
     <use x="61.279297" xlink:href="#DejaVuSans-100"/>
     <use x="124.755859" xlink:href="#DejaVuSans-97"/>
     <use x="186.035156" xlink:href="#DejaVuSans-112"/>
     <use x="249.511719" xlink:href="#DejaVuSans-116"/>
     <use x="288.720703" xlink:href="#DejaVuSans-97"/>
     <use x="350" xlink:href="#DejaVuSans-116"/>
     <use x="389.208984" xlink:href="#DejaVuSans-105"/>
     <use x="416.992188" xlink:href="#DejaVuSans-111"/>
     <use x="478.173828" xlink:href="#DejaVuSans-110"/>
     <use x="541.552734" xlink:href="#DejaVuSans-95"/>
     <use x="591.552734" xlink:href="#DejaVuSans-114"/>
     <use x="632.666016" xlink:href="#DejaVuSans-97"/>
     <use x="693.945312" xlink:href="#DejaVuSans-116"/>
     <use x="733.154297" xlink:href="#DejaVuSans-101"/>
    </g>
   </g>
   <g id="line2d_25">
    <path d="M 719.3125 166.553875 
L 736.9125 166.553875 
" style="fill:none;stroke:#5674a6;stroke-linecap:round;stroke-width:1.2;"/>
   </g>
   <g id="line2d_26"/>
   <g id="text_18">
    <!-- 0.1 -->
    <defs>
     <path d="M 10.6875 12.40625 
L 21 12.40625 
L 21 0 
L 10.6875 0 
z
" id="DejaVuSans-46"/>
    </defs>
    <g style="fill:#262626;" transform="translate(743.9525 169.633875)scale(0.088 -0.088)">
     <use xlink:href="#DejaVuSans-48"/>
     <use x="63.623047" xlink:href="#DejaVuSans-46"/>
     <use x="95.410156" xlink:href="#DejaVuSans-49"/>
    </g>
   </g>
   <g id="line2d_27">
    <path d="M 719.3125 179.470625 
L 736.9125 179.470625 
" style="fill:none;stroke:#cf8860;stroke-linecap:round;stroke-width:1.2;"/>
   </g>
   <g id="line2d_28"/>
   <g id="text_19">
    <!-- 0.5 -->
    <g style="fill:#262626;" transform="translate(743.9525 182.550625)scale(0.088 -0.088)">
     <use xlink:href="#DejaVuSans-48"/>
     <use x="63.623047" xlink:href="#DejaVuSans-46"/>
     <use x="95.410156" xlink:href="#DejaVuSans-53"/>
    </g>
   </g>
   <g id="line2d_29">
    <path d="M 719.3125 192.387375 
L 736.9125 192.387375 
" style="fill:none;stroke:#5da06d;stroke-linecap:round;stroke-width:1.2;"/>
   </g>
   <g id="line2d_30"/>
   <g id="text_20">
    <!-- 1.0 -->
    <g style="fill:#262626;" transform="translate(743.9525 195.467375)scale(0.088 -0.088)">
     <use xlink:href="#DejaVuSans-49"/>
     <use x="63.623047" xlink:href="#DejaVuSans-46"/>
     <use x="95.410156" xlink:href="#DejaVuSans-48"/>
    </g>
   </g>
   <g id="line2d_31">
    <path d="M 719.3125 205.304125 
L 736.9125 205.304125 
" style="fill:none;stroke:#b85a5d;stroke-linecap:round;stroke-width:1.2;"/>
   </g>
   <g id="line2d_32"/>
   <g id="text_21">
    <!-- 1.5 -->
    <g style="fill:#262626;" transform="translate(743.9525 208.384125)scale(0.088 -0.088)">
     <use xlink:href="#DejaVuSans-49"/>
     <use x="63.623047" xlink:href="#DejaVuSans-46"/>
     <use x="95.410156" xlink:href="#DejaVuSans-53"/>
    </g>
   </g>
  </g>
 </g>
 <defs>
  <clipPath id="p3ebca94fc3">
   <rect height="303.164" width="653.236334" x="58.545616" y="15.168"/>
  </clipPath>
 </defs>
</svg>
